%TF.GenerationSoftware,KiCad,Pcbnew,7.0.10*%
%TF.CreationDate,2024-11-22T18:49:45+05:30*%
%TF.ProjectId,test 3,74657374-2033-42e6-9b69-6361645f7063,rev?*%
%TF.SameCoordinates,Original*%
%TF.FileFunction,Copper,L1,Top*%
%TF.FilePolarity,Positive*%
%FSLAX46Y46*%
G04 Gerber Fmt 4.6, Leading zero omitted, Abs format (unit mm)*
G04 Created by KiCad (PCBNEW 7.0.10) date 2024-11-22 18:49:45*
%MOMM*%
%LPD*%
G01*
G04 APERTURE LIST*
G04 Aperture macros list*
%AMRoundRect*
0 Rectangle with rounded corners*
0 $1 Rounding radius*
0 $2 $3 $4 $5 $6 $7 $8 $9 X,Y pos of 4 corners*
0 Add a 4 corners polygon primitive as box body*
4,1,4,$2,$3,$4,$5,$6,$7,$8,$9,$2,$3,0*
0 Add four circle primitives for the rounded corners*
1,1,$1+$1,$2,$3*
1,1,$1+$1,$4,$5*
1,1,$1+$1,$6,$7*
1,1,$1+$1,$8,$9*
0 Add four rect primitives between the rounded corners*
20,1,$1+$1,$2,$3,$4,$5,0*
20,1,$1+$1,$4,$5,$6,$7,0*
20,1,$1+$1,$6,$7,$8,$9,0*
20,1,$1+$1,$8,$9,$2,$3,0*%
G04 Aperture macros list end*
%TA.AperFunction,ComponentPad*%
%ADD10C,2.000000*%
%TD*%
%TA.AperFunction,SMDPad,CuDef*%
%ADD11RoundRect,0.250000X0.262500X0.450000X-0.262500X0.450000X-0.262500X-0.450000X0.262500X-0.450000X0*%
%TD*%
%TA.AperFunction,SMDPad,CuDef*%
%ADD12RoundRect,0.250000X-0.262500X-0.450000X0.262500X-0.450000X0.262500X0.450000X-0.262500X0.450000X0*%
%TD*%
%TA.AperFunction,SMDPad,CuDef*%
%ADD13RoundRect,0.243750X-0.243750X-0.456250X0.243750X-0.456250X0.243750X0.456250X-0.243750X0.456250X0*%
%TD*%
%TA.AperFunction,ComponentPad*%
%ADD14C,1.500000*%
%TD*%
%TA.AperFunction,ComponentPad*%
%ADD15R,2.000000X1.905000*%
%TD*%
%TA.AperFunction,ComponentPad*%
%ADD16O,2.000000X1.905000*%
%TD*%
%TA.AperFunction,ComponentPad*%
%ADD17C,1.150000*%
%TD*%
%TA.AperFunction,ComponentPad*%
%ADD18R,1.498600X1.498600*%
%TD*%
%TA.AperFunction,ComponentPad*%
%ADD19C,1.498600*%
%TD*%
%TA.AperFunction,Conductor*%
%ADD20C,0.250000*%
%TD*%
%TA.AperFunction,Conductor*%
%ADD21C,0.750000*%
%TD*%
G04 APERTURE END LIST*
D10*
%TO.P,SW1,1,1*%
%TO.N,R1*%
X101600000Y-68290000D03*
X95100000Y-68290000D03*
%TO.P,SW1,2,2*%
%TO.N,U1*%
X101600000Y-63790000D03*
X95100000Y-63790000D03*
%TD*%
D11*
%TO.P,R6,1*%
%TO.N,R66*%
X149860000Y-88900000D03*
%TO.P,R6,2*%
%TO.N,R6*%
X148035000Y-88900000D03*
%TD*%
D12*
%TO.P,R1,1*%
%TO.N,Gnd2*%
X87075000Y-76200000D03*
%TO.P,R1,2*%
%TO.N,R1*%
X88900000Y-76200000D03*
%TD*%
D11*
%TO.P,R2,1*%
%TO.N,R22*%
X149860000Y-99060000D03*
%TO.P,R2,2*%
%TO.N,R2*%
X148035000Y-99060000D03*
%TD*%
%TO.P,R8,1*%
%TO.N,R88*%
X149860000Y-83820000D03*
%TO.P,R8,2*%
%TO.N,R8*%
X148035000Y-83820000D03*
%TD*%
D13*
%TO.P,D1,1,K*%
%TO.N,R22*%
X176862500Y-99060000D03*
%TO.P,D1,2,A*%
%TO.N,Gnd2*%
X178737500Y-99060000D03*
%TD*%
D11*
%TO.P,R5,1*%
%TO.N,R55*%
X149860000Y-91440000D03*
%TO.P,R5,2*%
%TO.N,R5*%
X148035000Y-91440000D03*
%TD*%
D14*
%TO.P,Y1,1,1*%
%TO.N,c1*%
X149860000Y-66040000D03*
%TO.P,Y1,2,2*%
%TO.N,c2*%
X149860000Y-70920000D03*
%TD*%
D13*
%TO.P,D6,1,K*%
%TO.N,R77*%
X176862500Y-86360000D03*
%TO.P,D6,2,A*%
%TO.N,Gnd2*%
X178737500Y-86360000D03*
%TD*%
%TO.P,D2,1,K*%
%TO.N,R33*%
X176862500Y-96520000D03*
%TO.P,D2,2,A*%
%TO.N,Gnd2*%
X178737500Y-96520000D03*
%TD*%
D11*
%TO.P,R4,1*%
%TO.N,R44*%
X149860000Y-93980000D03*
%TO.P,R4,2*%
%TO.N,R4*%
X148035000Y-93980000D03*
%TD*%
D15*
%TO.P,U2,1,VI*%
%TO.N,U1*%
X76200000Y-66040000D03*
D16*
%TO.P,U2,2,GND*%
%TO.N,Gnd2*%
X76200000Y-68580000D03*
%TO.P,U2,3,VO*%
%TO.N,unconnected-(U2-VO-Pad3)*%
X76200000Y-71120000D03*
%TD*%
D13*
%TO.P,D5,1,K*%
%TO.N,R66*%
X176862500Y-88900000D03*
%TO.P,D5,2,A*%
%TO.N,Gnd2*%
X178737500Y-88900000D03*
%TD*%
%TO.P,D7,1,K*%
%TO.N,R88*%
X176862500Y-83820000D03*
%TO.P,D7,2,A*%
%TO.N,Gnd2*%
X178737500Y-83820000D03*
%TD*%
%TO.P,D3,1,K*%
%TO.N,R44*%
X176862500Y-93980000D03*
%TO.P,D3,2,A*%
%TO.N,Gnd2*%
X178737500Y-93980000D03*
%TD*%
D11*
%TO.P,R7,1*%
%TO.N,R77*%
X149860000Y-86360000D03*
%TO.P,R7,2*%
%TO.N,R7*%
X148035000Y-86360000D03*
%TD*%
D17*
%TO.P,C2,1*%
%TO.N,Gnd2*%
X177760000Y-70920000D03*
%TO.P,C2,2*%
%TO.N,c2*%
X172760000Y-70920000D03*
%TD*%
D11*
%TO.P,R3,1*%
%TO.N,R33*%
X149860000Y-96520000D03*
%TO.P,R3,2*%
%TO.N,R3*%
X148035000Y-96520000D03*
%TD*%
D18*
%TO.P,U1,1,Vref-/CVref/AN2/RA2*%
%TO.N,unconnected-(U1-Vref-{slash}CVref{slash}AN2{slash}RA2-Pad1)*%
X115629300Y-68667400D03*
D19*
%TO.P,U1,2,C1OUT/Vref+/AN3/RA3*%
%TO.N,unconnected-(U1-C1OUT{slash}Vref+{slash}AN3{slash}RA3-Pad2)*%
X115629300Y-71207400D03*
%TO.P,U1,3,C2OUT/T0CKI/AN4/RA4*%
%TO.N,unconnected-(U1-C2OUT{slash}T0CKI{slash}AN4{slash}RA4-Pad3)*%
X115629300Y-73747400D03*
%TO.P,U1,4,~{MCLR}/Vpp/RA5*%
%TO.N,unconnected-(U1-~{MCLR}{slash}Vpp{slash}RA5-Pad4)*%
X115629300Y-76287400D03*
%TO.P,U1,5,VSS*%
%TO.N,unconnected-(U1-VSS-Pad5)*%
X115629300Y-78827400D03*
%TO.P,U1,6,RB0/INT/CCP1*%
%TO.N,R1*%
X115629300Y-81367400D03*
%TO.P,U1,7,RB1/SDI/SDA*%
%TO.N,R2*%
X115629300Y-83907400D03*
%TO.P,U1,8,RB2/SDO/RX/DT*%
%TO.N,R3*%
X115629300Y-86447400D03*
%TO.P,U1,9,RB3/PGM/CCP1*%
%TO.N,R4*%
X115629300Y-88987400D03*
%TO.P,U1,10,RB4/SCK/SCL*%
%TO.N,R5*%
X123249300Y-88987400D03*
%TO.P,U1,11,RB5/~{SS}/TX/CK*%
%TO.N,R6*%
X123249300Y-86447400D03*
%TO.P,U1,12,RB6/AN5/PGC/T1CKI*%
%TO.N,R7*%
X123249300Y-83907400D03*
%TO.P,U1,13,RB7/AN6/PGD/T1OSI*%
%TO.N,R8*%
X123249300Y-81367400D03*
%TO.P,U1,14,VDD*%
%TO.N,unconnected-(U1-VDD-Pad14)*%
X123249300Y-78827400D03*
%TO.P,U1,15,CLKOUT/OSC2/RA6*%
%TO.N,c2*%
X123249300Y-76287400D03*
%TO.P,U1,16,CLKIN/OSC1/RA7*%
%TO.N,c1*%
X123249300Y-73747400D03*
%TO.P,U1,17,AN0/RA0*%
%TO.N,unconnected-(U1-AN0{slash}RA0-Pad17)*%
X123249300Y-71207400D03*
%TO.P,U1,18,AN1/RA1*%
%TO.N,unconnected-(U1-AN1{slash}RA1-Pad18)*%
X123249300Y-68667400D03*
%TD*%
D17*
%TO.P,C1,1*%
%TO.N,Gnd2*%
X177760000Y-66040000D03*
%TO.P,C1,2*%
%TO.N,c1*%
X172760000Y-66040000D03*
%TD*%
D13*
%TO.P,D4,1,K*%
%TO.N,R55*%
X176862500Y-91440000D03*
%TO.P,D4,2,A*%
%TO.N,Gnd2*%
X178737500Y-91440000D03*
%TD*%
D20*
%TO.N,c1*%
X126912600Y-73747400D02*
X127000000Y-73660000D01*
D21*
X127000000Y-68580000D02*
X129540000Y-66040000D01*
X129540000Y-66040000D02*
X149860000Y-66040000D01*
X127000000Y-73660000D02*
X127000000Y-68580000D01*
X172760000Y-66040000D02*
X149860000Y-66040000D01*
X123249300Y-73747400D02*
X126912600Y-73747400D01*
%TO.N,Gnd2*%
X178737500Y-88900000D02*
X178737500Y-91440000D01*
X185420000Y-71120000D02*
X182880000Y-73660000D01*
X178737500Y-83820000D02*
X178737500Y-86360000D01*
D20*
X86360000Y-76200000D02*
X87075000Y-76200000D01*
D21*
X178737500Y-91440000D02*
X178737500Y-93980000D01*
X76200000Y-68580000D02*
X71120000Y-68580000D01*
X71120000Y-68580000D02*
X68580000Y-66040000D01*
X182880000Y-73660000D02*
X180340000Y-73660000D01*
X178737500Y-86360000D02*
X178737500Y-88900000D01*
X178737500Y-75262500D02*
X178737500Y-83820000D01*
X182880000Y-58420000D02*
X185420000Y-60960000D01*
X185420000Y-68580000D02*
X185420000Y-71120000D01*
X68580000Y-60960000D02*
X71120000Y-58420000D01*
X185420000Y-60960000D02*
X185420000Y-68580000D01*
X76200000Y-68580000D02*
X83820000Y-68580000D01*
X83820000Y-68580000D02*
X83820000Y-73660000D01*
X177760000Y-71080000D02*
X177760000Y-66040000D01*
X83820000Y-73660000D02*
X86360000Y-76200000D01*
X178737500Y-93980000D02*
X178737500Y-96520000D01*
X180340000Y-73660000D02*
X177760000Y-71080000D01*
X178737500Y-96520000D02*
X178737500Y-99060000D01*
X180340000Y-73660000D02*
X178737500Y-75262500D01*
X68580000Y-66040000D02*
X68580000Y-60960000D01*
X71120000Y-58420000D02*
X182880000Y-58420000D01*
%TO.N,c2*%
X123249300Y-76287400D02*
X131992600Y-76287400D01*
X132080000Y-76200000D02*
X132080000Y-73660000D01*
X172760000Y-70920000D02*
X149860000Y-70920000D01*
X132080000Y-73660000D02*
X134820000Y-70920000D01*
X134820000Y-70920000D02*
X149860000Y-70920000D01*
D20*
X131992600Y-76287400D02*
X132080000Y-76200000D01*
D21*
%TO.N,R22*%
X149860000Y-99060000D02*
X176862500Y-99060000D01*
%TO.N,R33*%
X149860000Y-96520000D02*
X176862500Y-96520000D01*
%TO.N,R44*%
X149860000Y-93980000D02*
X176862500Y-93980000D01*
%TO.N,R55*%
X149860000Y-91440000D02*
X176862500Y-91440000D01*
%TO.N,R66*%
X149860000Y-88900000D02*
X176862500Y-88900000D01*
%TO.N,R77*%
X149860000Y-86360000D02*
X176862500Y-86360000D01*
%TO.N,R88*%
X149860000Y-83820000D02*
X176862500Y-83820000D01*
%TO.N,R1*%
X95100000Y-68290000D02*
X101600000Y-68290000D01*
X103850000Y-68290000D02*
X104140000Y-68580000D01*
X104140000Y-78740000D02*
X106767400Y-81367400D01*
X91730000Y-68290000D02*
X95100000Y-68290000D01*
X106767400Y-81367400D02*
X115629300Y-81367400D01*
X91440000Y-73660000D02*
X91440000Y-68580000D01*
X91440000Y-68580000D02*
X91730000Y-68290000D01*
X88900000Y-76200000D02*
X91440000Y-73660000D01*
X101600000Y-68290000D02*
X103850000Y-68290000D01*
X104140000Y-68580000D02*
X104140000Y-78740000D01*
%TO.N,R2*%
X109220000Y-99060000D02*
X148035000Y-99060000D01*
X106680000Y-96520000D02*
X109220000Y-99060000D01*
X115629300Y-83907400D02*
X109132600Y-83907400D01*
X106680000Y-86360000D02*
X106680000Y-96520000D01*
X109132600Y-83907400D02*
X106680000Y-86360000D01*
%TO.N,R3*%
X109220000Y-88900000D02*
X109220000Y-93980000D01*
X115629300Y-86447400D02*
X111847400Y-86447400D01*
D20*
X111847400Y-86447400D02*
X111760000Y-86360000D01*
D21*
X111760000Y-86360000D02*
X109220000Y-88900000D01*
X111760000Y-96520000D02*
X148035000Y-96520000D01*
X109220000Y-93980000D02*
X111760000Y-96520000D01*
%TO.N,R4*%
X115629300Y-88987400D02*
X114300000Y-90316700D01*
X114300000Y-93980000D02*
X148035000Y-93980000D01*
X114300000Y-90316700D02*
X114300000Y-93980000D01*
%TO.N,R5*%
X145582400Y-88987400D02*
X148035000Y-91440000D01*
X123249300Y-88987400D02*
X145582400Y-88987400D01*
%TO.N,R6*%
X123249300Y-86447400D02*
X145582400Y-86447400D01*
X145582400Y-86447400D02*
X148035000Y-88900000D01*
%TO.N,R7*%
X145582400Y-83907400D02*
X148035000Y-86360000D01*
X123249300Y-83907400D02*
X145582400Y-83907400D01*
%TO.N,R8*%
X123249300Y-81367400D02*
X145582400Y-81367400D01*
X145582400Y-81367400D02*
X148035000Y-83820000D01*
%TO.N,U1*%
X86360000Y-66040000D02*
X76200000Y-66040000D01*
X95100000Y-63790000D02*
X88610000Y-63790000D01*
X88610000Y-63790000D02*
X86360000Y-66040000D01*
X95100000Y-63790000D02*
X101600000Y-63790000D01*
%TD*%
M02*
