  0
SECTION
  2
HEADER
  9
$ANGBASE
  50
0.0
  9
$ANGDIR
  70
1
  9
$MEASUREMENT
  70
0
  0
ENDSEC
  0
SECTION
  2
TABLES
  0
TABLE
  2
LTYPE
  70
4
  0
LTYPE
  5
40F
  2
CONTINUOUS
  70
0
  3
Solid line
  72
65
  73
0
  40
0.0
  0
LTYPE
  5
410
  2
DASHDOT
 70
0
  3
Dash Dot ____ _ ____ _
 72
65
 73
4
 40
2.0
 49
1.25
 49
-0.25
 49
0.25
 49
-0.25
  0
LTYPE
  5
411
  2
DASHED
 70
0
  3
Dashed __ __ __ __ __
 72
65
 73
2
 40
0.75
 49
0.5
 49
-0.25
  0
LTYPE
  5
43B
  2
DOTTED
 70
0
  3
Dotted .  .  .  .
 72
65
 73
2
 40
0.2
 49
0.0
 49
-0.2
  0
ENDTAB
  0
TABLE
  2
STYLE
  70
4
  0
STYLE
  2
KICAD
  70
0
  40
0
  41
1
  42
1
  50
0
  71
0
  3
isocp.shx
  0
STYLE
  2
KICADB
  70
0
  40
0
  41
1
  42
1
  50
0
  71
0
  3
isocp.shx
  0
STYLE
  2
KICADI
  70
0
  40
0
  41
1
  42
1
  50
15
  71
0
  3
isocp.shx
  0
STYLE
  2
KICADBI
  70
0
  40
0
  41
1
  42
1
  50
15
  71
0
  3
isocp.shx
  0
ENDTAB
  0
TABLE
  2
LAYER
  70
1
  0
LAYER
  2
BLACK
  70
0
  62
7
  6
CONTINUOUS
  0
ENDTAB
  0
ENDSEC
  0
SECTION
  2
ENTITIES
0
LINE
8
BLACK
6
CONTINUOUS
10
4.5626915748031491
20
-3.4715655905511809
11
4.5690925196850394
21
-3.4744154724409446
0
LINE
8
BLACK
6
CONTINUOUS
10
4.5690925196850394
20
-3.4744154724409446
11
4.5747610629921258
21
-3.4785338976377953
0
LINE
8
BLACK
6
CONTINUOUS
10
4.5747610629921258
20
-3.4785338976377953
11
4.5794494488188979
21
-3.4837408661417322
0
LINE
8
BLACK
6
CONTINUOUS
10
4.5794494488188979
20
-3.4837408661417322
11
4.5829527952755909
21
-3.4898088582677165
0
LINE
8
BLACK
6
CONTINUOUS
10
4.5829527952755909
20
-3.4898088582677165
11
4.5851179921259844
21
-3.4964726377952755
0
LINE
8
BLACK
6
CONTINUOUS
10
4.5851179921259844
20
-3.4964726377952755
11
4.5858503937007873
21
-3.5034409448818895
0
LINE
8
BLACK
6
CONTINUOUS
10
4.5858503937007873
20
-3.5034409448818895
11
4.5851179921259844
21
-3.510409251968504
0
LINE
8
BLACK
6
CONTINUOUS
10
4.5851179921259844
20
-3.510409251968504
11
4.5829527952755909
21
-3.517073031496063
0
LINE
8
BLACK
6
CONTINUOUS
10
4.5829527952755909
20
-3.517073031496063
11
4.5794494488188979
21
-3.5231410236220473
0
LINE
8
BLACK
6
CONTINUOUS
10
4.5794494488188979
20
-3.5231410236220473
11
4.5747610629921258
21
-3.5283479921259842
0
LINE
8
BLACK
6
CONTINUOUS
10
4.5747610629921258
20
-3.5283479921259842
11
4.5690925196850394
21
-3.5324664173228344
0
LINE
8
BLACK
6
CONTINUOUS
10
4.5690925196850394
20
-3.5324664173228344
11
4.5626915748031491
21
-3.5353162992125982
0
LINE
8
BLACK
6
CONTINUOUS
10
4.5626915748031491
20
-3.5353162992125982
11
4.5558379921259844
21
-3.5367730708661416
0
LINE
8
BLACK
6
CONTINUOUS
10
4.5558379921259844
20
-3.5367730708661416
11
4.5488312992125985
21
-3.5367730708661416
0
LINE
8
BLACK
6
CONTINUOUS
10
4.5488312992125985
20
-3.5367730708661416
11
4.5419777165354329
21
-3.5353162992125982
0
LINE
8
BLACK
6
CONTINUOUS
10
4.5419777165354329
20
-3.5353162992125982
11
4.5355767716535436
21
-3.5324664173228344
0
LINE
8
BLACK
6
CONTINUOUS
10
4.5355767716535436
20
-3.5324664173228344
11
4.5299082283464562
21
-3.5283479921259842
0
LINE
8
BLACK
6
CONTINUOUS
10
4.5299082283464562
20
-3.5283479921259842
11
4.525219842519685
21
-3.5231410236220473
0
LINE
8
BLACK
6
CONTINUOUS
10
4.525219842519685
20
-3.5231410236220473
11
4.5217164960629921
21
-3.517073031496063
0
LINE
8
BLACK
6
CONTINUOUS
10
4.5217164960629921
20
-3.517073031496063
11
4.5195512992125986
21
-3.510409251968504
0
LINE
8
BLACK
6
CONTINUOUS
10
4.5195512992125986
20
-3.510409251968504
11
4.5188188976377948
21
-3.5034409448818895
0
LINE
8
BLACK
6
CONTINUOUS
10
4.5188188976377948
20
-3.5034409448818895
11
4.5195512992125986
21
-3.4964726377952755
0
LINE
8
BLACK
6
CONTINUOUS
10
4.5195512992125986
20
-3.4964726377952755
11
4.5217164960629921
21
-3.4898088582677165
0
LINE
8
BLACK
6
CONTINUOUS
10
4.5217164960629921
20
-3.4898088582677165
11
4.525219842519685
21
-3.4837408661417322
0
LINE
8
BLACK
6
CONTINUOUS
10
4.525219842519685
20
-3.4837408661417322
11
4.5299082283464562
21
-3.4785338976377953
0
LINE
8
BLACK
6
CONTINUOUS
10
4.5299082283464562
20
-3.4785338976377953
11
4.5355767716535436
21
-3.4744154724409446
0
LINE
8
BLACK
6
CONTINUOUS
10
4.5355767716535436
20
-3.4744154724409446
11
4.5419777165354329
21
-3.4715655905511809
0
LINE
8
BLACK
6
CONTINUOUS
10
4.5419777165354329
20
-3.4715655905511809
11
4.5488312992125985
21
-3.4701088188976379
0
LINE
8
BLACK
6
CONTINUOUS
10
4.5488312992125985
20
-3.4701088188976379
11
4.5558379921259844
21
-3.4701088188976379
0
LINE
8
BLACK
6
CONTINUOUS
10
4.5558379921259844
20
-3.4701088188976379
11
4.5626915748031491
21
-3.4715655905511809
0
LINE
8
BLACK
6
CONTINUOUS
10
4.8626915748031498
20
-3.4715655905511809
11
4.8690925196850392
21
-3.4744154724409446
0
LINE
8
BLACK
6
CONTINUOUS
10
4.8690925196850392
20
-3.4744154724409446
11
4.8747610629921256
21
-3.4785338976377953
0
LINE
8
BLACK
6
CONTINUOUS
10
4.8747610629921256
20
-3.4785338976377953
11
4.8794494488188977
21
-3.4837408661417322
0
LINE
8
BLACK
6
CONTINUOUS
10
4.8794494488188977
20
-3.4837408661417322
11
4.8829527952755907
21
-3.4898088582677165
0
LINE
8
BLACK
6
CONTINUOUS
10
4.8829527952755907
20
-3.4898088582677165
11
4.8851179921259842
21
-3.4964726377952755
0
LINE
8
BLACK
6
CONTINUOUS
10
4.8851179921259842
20
-3.4964726377952755
11
4.8858503937007871
21
-3.5034409448818895
0
LINE
8
BLACK
6
CONTINUOUS
10
4.8858503937007871
20
-3.5034409448818895
11
4.8851179921259842
21
-3.510409251968504
0
LINE
8
BLACK
6
CONTINUOUS
10
4.8851179921259842
20
-3.510409251968504
11
4.8829527952755907
21
-3.517073031496063
0
LINE
8
BLACK
6
CONTINUOUS
10
4.8829527952755907
20
-3.517073031496063
11
4.8794494488188977
21
-3.5231410236220473
0
LINE
8
BLACK
6
CONTINUOUS
10
4.8794494488188977
20
-3.5231410236220473
11
4.8747610629921256
21
-3.5283479921259842
0
LINE
8
BLACK
6
CONTINUOUS
10
4.8747610629921256
20
-3.5283479921259842
11
4.8690925196850392
21
-3.5324664173228344
0
LINE
8
BLACK
6
CONTINUOUS
10
4.8690925196850392
20
-3.5324664173228344
11
4.8626915748031498
21
-3.5353162992125982
0
LINE
8
BLACK
6
CONTINUOUS
10
4.8626915748031498
20
-3.5353162992125982
11
4.8558379921259842
21
-3.5367730708661416
0
LINE
8
BLACK
6
CONTINUOUS
10
4.8558379921259842
20
-3.5367730708661416
11
4.8488312992125984
21
-3.5367730708661416
0
LINE
8
BLACK
6
CONTINUOUS
10
4.8488312992125984
20
-3.5367730708661416
11
4.8419777165354327
21
-3.5353162992125982
0
LINE
8
BLACK
6
CONTINUOUS
10
4.8419777165354327
20
-3.5353162992125982
11
4.8355767716535434
21
-3.5324664173228344
0
LINE
8
BLACK
6
CONTINUOUS
10
4.8355767716535434
20
-3.5324664173228344
11
4.8299082283464569
21
-3.5283479921259842
0
LINE
8
BLACK
6
CONTINUOUS
10
4.8299082283464569
20
-3.5283479921259842
11
4.8252198425196848
21
-3.5231410236220473
0
LINE
8
BLACK
6
CONTINUOUS
10
4.8252198425196848
20
-3.5231410236220473
11
4.8217164960629919
21
-3.517073031496063
0
LINE
8
BLACK
6
CONTINUOUS
10
4.8217164960629919
20
-3.517073031496063
11
4.8195512992125984
21
-3.510409251968504
0
LINE
8
BLACK
6
CONTINUOUS
10
4.8195512992125984
20
-3.510409251968504
11
4.8188188976377955
21
-3.5034409448818895
0
LINE
8
BLACK
6
CONTINUOUS
10
4.8188188976377955
20
-3.5034409448818895
11
4.8195512992125984
21
-3.4964726377952755
0
LINE
8
BLACK
6
CONTINUOUS
10
4.8195512992125984
20
-3.4964726377952755
11
4.8217164960629919
21
-3.4898088582677165
0
LINE
8
BLACK
6
CONTINUOUS
10
4.8217164960629919
20
-3.4898088582677165
11
4.8252198425196848
21
-3.4837408661417322
0
LINE
8
BLACK
6
CONTINUOUS
10
4.8252198425196848
20
-3.4837408661417322
11
4.8299082283464569
21
-3.4785338976377953
0
LINE
8
BLACK
6
CONTINUOUS
10
4.8299082283464569
20
-3.4785338976377953
11
4.8355767716535434
21
-3.4744154724409446
0
LINE
8
BLACK
6
CONTINUOUS
10
4.8355767716535434
20
-3.4744154724409446
11
4.8419777165354327
21
-3.4715655905511809
0
LINE
8
BLACK
6
CONTINUOUS
10
4.8419777165354327
20
-3.4715655905511809
11
4.8488312992125984
21
-3.4701088188976379
0
LINE
8
BLACK
6
CONTINUOUS
10
4.8488312992125984
20
-3.4701088188976379
11
4.8558379921259842
21
-3.4701088188976379
0
LINE
8
BLACK
6
CONTINUOUS
10
4.8558379921259842
20
-3.4701088188976379
11
4.8626915748031498
21
-3.4715655905511809
0
LINE
8
BLACK
6
CONTINUOUS
10
4.5626915748031491
20
-3.3715655905511812
11
4.5690925196850394
21
-3.374415472440945
0
LINE
8
BLACK
6
CONTINUOUS
10
4.5690925196850394
20
-3.374415472440945
11
4.5747610629921258
21
-3.3785338976377952
0
LINE
8
BLACK
6
CONTINUOUS
10
4.5747610629921258
20
-3.3785338976377952
11
4.5794494488188979
21
-3.3837408661417321
0
LINE
8
BLACK
6
CONTINUOUS
10
4.5794494488188979
20
-3.3837408661417321
11
4.5829527952755909
21
-3.3898088582677164
0
LINE
8
BLACK
6
CONTINUOUS
10
4.5829527952755909
20
-3.3898088582677164
11
4.5851179921259844
21
-3.3964726377952754
0
LINE
8
BLACK
6
CONTINUOUS
10
4.5851179921259844
20
-3.3964726377952754
11
4.5858503937007873
21
-3.4034409448818899
0
LINE
8
BLACK
6
CONTINUOUS
10
4.5858503937007873
20
-3.4034409448818899
11
4.5851179921259844
21
-3.4104092519685039
0
LINE
8
BLACK
6
CONTINUOUS
10
4.5851179921259844
20
-3.4104092519685039
11
4.5829527952755909
21
-3.4170730314960629
0
LINE
8
BLACK
6
CONTINUOUS
10
4.5829527952755909
20
-3.4170730314960629
11
4.5794494488188979
21
-3.4231410236220472
0
LINE
8
BLACK
6
CONTINUOUS
10
4.5794494488188979
20
-3.4231410236220472
11
4.5747610629921258
21
-3.4283479921259841
0
LINE
8
BLACK
6
CONTINUOUS
10
4.5747610629921258
20
-3.4283479921259841
11
4.5690925196850394
21
-3.4324664173228348
0
LINE
8
BLACK
6
CONTINUOUS
10
4.5690925196850394
20
-3.4324664173228348
11
4.5626915748031491
21
-3.4353162992125985
0
LINE
8
BLACK
6
CONTINUOUS
10
4.5626915748031491
20
-3.4353162992125985
11
4.5558379921259844
21
-3.4367730708661415
0
LINE
8
BLACK
6
CONTINUOUS
10
4.5558379921259844
20
-3.4367730708661415
11
4.5488312992125985
21
-3.4367730708661415
0
LINE
8
BLACK
6
CONTINUOUS
10
4.5488312992125985
20
-3.4367730708661415
11
4.5419777165354329
21
-3.4353162992125985
0
LINE
8
BLACK
6
CONTINUOUS
10
4.5419777165354329
20
-3.4353162992125985
11
4.5355767716535436
21
-3.4324664173228348
0
LINE
8
BLACK
6
CONTINUOUS
10
4.5355767716535436
20
-3.4324664173228348
11
4.5299082283464562
21
-3.4283479921259841
0
LINE
8
BLACK
6
CONTINUOUS
10
4.5299082283464562
20
-3.4283479921259841
11
4.525219842519685
21
-3.4231410236220472
0
LINE
8
BLACK
6
CONTINUOUS
10
4.525219842519685
20
-3.4231410236220472
11
4.5217164960629921
21
-3.4170730314960629
0
LINE
8
BLACK
6
CONTINUOUS
10
4.5217164960629921
20
-3.4170730314960629
11
4.5195512992125986
21
-3.4104092519685039
0
LINE
8
BLACK
6
CONTINUOUS
10
4.5195512992125986
20
-3.4104092519685039
11
4.5188188976377948
21
-3.4034409448818899
0
LINE
8
BLACK
6
CONTINUOUS
10
4.5188188976377948
20
-3.4034409448818899
11
4.5195512992125986
21
-3.3964726377952754
0
LINE
8
BLACK
6
CONTINUOUS
10
4.5195512992125986
20
-3.3964726377952754
11
4.5217164960629921
21
-3.3898088582677164
0
LINE
8
BLACK
6
CONTINUOUS
10
4.5217164960629921
20
-3.3898088582677164
11
4.525219842519685
21
-3.3837408661417321
0
LINE
8
BLACK
6
CONTINUOUS
10
4.525219842519685
20
-3.3837408661417321
11
4.5299082283464562
21
-3.3785338976377952
0
LINE
8
BLACK
6
CONTINUOUS
10
4.5299082283464562
20
-3.3785338976377952
11
4.5355767716535436
21
-3.374415472440945
0
LINE
8
BLACK
6
CONTINUOUS
10
4.5355767716535436
20
-3.374415472440945
11
4.5419777165354329
21
-3.3715655905511812
0
LINE
8
BLACK
6
CONTINUOUS
10
4.5419777165354329
20
-3.3715655905511812
11
4.5488312992125985
21
-3.3701088188976378
0
LINE
8
BLACK
6
CONTINUOUS
10
4.5488312992125985
20
-3.3701088188976378
11
4.5558379921259844
21
-3.3701088188976378
0
LINE
8
BLACK
6
CONTINUOUS
10
4.5558379921259844
20
-3.3701088188976378
11
4.5626915748031491
21
-3.3715655905511812
0
LINE
8
BLACK
6
CONTINUOUS
10
4.8626915748031498
20
-3.3715655905511812
11
4.8690925196850392
21
-3.374415472440945
0
LINE
8
BLACK
6
CONTINUOUS
10
4.8690925196850392
20
-3.374415472440945
11
4.8747610629921256
21
-3.3785338976377952
0
LINE
8
BLACK
6
CONTINUOUS
10
4.8747610629921256
20
-3.3785338976377952
11
4.8794494488188977
21
-3.3837408661417321
0
LINE
8
BLACK
6
CONTINUOUS
10
4.8794494488188977
20
-3.3837408661417321
11
4.8829527952755907
21
-3.3898088582677164
0
LINE
8
BLACK
6
CONTINUOUS
10
4.8829527952755907
20
-3.3898088582677164
11
4.8851179921259842
21
-3.3964726377952754
0
LINE
8
BLACK
6
CONTINUOUS
10
4.8851179921259842
20
-3.3964726377952754
11
4.8858503937007871
21
-3.4034409448818899
0
LINE
8
BLACK
6
CONTINUOUS
10
4.8858503937007871
20
-3.4034409448818899
11
4.8851179921259842
21
-3.4104092519685039
0
LINE
8
BLACK
6
CONTINUOUS
10
4.8851179921259842
20
-3.4104092519685039
11
4.8829527952755907
21
-3.4170730314960629
0
LINE
8
BLACK
6
CONTINUOUS
10
4.8829527952755907
20
-3.4170730314960629
11
4.8794494488188977
21
-3.4231410236220472
0
LINE
8
BLACK
6
CONTINUOUS
10
4.8794494488188977
20
-3.4231410236220472
11
4.8747610629921256
21
-3.4283479921259841
0
LINE
8
BLACK
6
CONTINUOUS
10
4.8747610629921256
20
-3.4283479921259841
11
4.8690925196850392
21
-3.4324664173228348
0
LINE
8
BLACK
6
CONTINUOUS
10
4.8690925196850392
20
-3.4324664173228348
11
4.8626915748031498
21
-3.4353162992125985
0
LINE
8
BLACK
6
CONTINUOUS
10
4.8626915748031498
20
-3.4353162992125985
11
4.8558379921259842
21
-3.4367730708661415
0
LINE
8
BLACK
6
CONTINUOUS
10
4.8558379921259842
20
-3.4367730708661415
11
4.8488312992125984
21
-3.4367730708661415
0
LINE
8
BLACK
6
CONTINUOUS
10
4.8488312992125984
20
-3.4367730708661415
11
4.8419777165354327
21
-3.4353162992125985
0
LINE
8
BLACK
6
CONTINUOUS
10
4.8419777165354327
20
-3.4353162992125985
11
4.8355767716535434
21
-3.4324664173228348
0
LINE
8
BLACK
6
CONTINUOUS
10
4.8355767716535434
20
-3.4324664173228348
11
4.8299082283464569
21
-3.4283479921259841
0
LINE
8
BLACK
6
CONTINUOUS
10
4.8299082283464569
20
-3.4283479921259841
11
4.8252198425196848
21
-3.4231410236220472
0
LINE
8
BLACK
6
CONTINUOUS
10
4.8252198425196848
20
-3.4231410236220472
11
4.8217164960629919
21
-3.4170730314960629
0
LINE
8
BLACK
6
CONTINUOUS
10
4.8217164960629919
20
-3.4170730314960629
11
4.8195512992125984
21
-3.4104092519685039
0
LINE
8
BLACK
6
CONTINUOUS
10
4.8195512992125984
20
-3.4104092519685039
11
4.8188188976377955
21
-3.4034409448818899
0
LINE
8
BLACK
6
CONTINUOUS
10
4.8188188976377955
20
-3.4034409448818899
11
4.8195512992125984
21
-3.3964726377952754
0
LINE
8
BLACK
6
CONTINUOUS
10
4.8195512992125984
20
-3.3964726377952754
11
4.8217164960629919
21
-3.3898088582677164
0
LINE
8
BLACK
6
CONTINUOUS
10
4.8217164960629919
20
-3.3898088582677164
11
4.8252198425196848
21
-3.3837408661417321
0
LINE
8
BLACK
6
CONTINUOUS
10
4.8252198425196848
20
-3.3837408661417321
11
4.8299082283464569
21
-3.3785338976377952
0
LINE
8
BLACK
6
CONTINUOUS
10
4.8299082283464569
20
-3.3785338976377952
11
4.8355767716535434
21
-3.374415472440945
0
LINE
8
BLACK
6
CONTINUOUS
10
4.8355767716535434
20
-3.374415472440945
11
4.8419777165354327
21
-3.3715655905511812
0
LINE
8
BLACK
6
CONTINUOUS
10
4.8419777165354327
20
-3.3715655905511812
11
4.8488312992125984
21
-3.3701088188976378
0
LINE
8
BLACK
6
CONTINUOUS
10
4.8488312992125984
20
-3.3701088188976378
11
4.8558379921259842
21
-3.3701088188976378
0
LINE
8
BLACK
6
CONTINUOUS
10
4.8558379921259842
20
-3.3701088188976378
11
4.8626915748031498
21
-3.3715655905511812
0
LINE
8
BLACK
6
CONTINUOUS
10
4.5626915748031491
20
-3.2715655905511811
11
4.5690925196850394
21
-3.2744154724409449
0
LINE
8
BLACK
6
CONTINUOUS
10
4.5690925196850394
20
-3.2744154724409449
11
4.5747610629921258
21
-3.2785338976377951
0
LINE
8
BLACK
6
CONTINUOUS
10
4.5747610629921258
20
-3.2785338976377951
11
4.5794494488188979
21
-3.283740866141732
0
LINE
8
BLACK
6
CONTINUOUS
10
4.5794494488188979
20
-3.283740866141732
11
4.5829527952755909
21
-3.2898088582677163
0
LINE
8
BLACK
6
CONTINUOUS
10
4.5829527952755909
20
-3.2898088582677163
11
4.5851179921259844
21
-3.2964726377952753
0
LINE
8
BLACK
6
CONTINUOUS
10
4.5851179921259844
20
-3.2964726377952753
11
4.5858503937007873
21
-3.3034409448818898
0
LINE
8
BLACK
6
CONTINUOUS
10
4.5858503937007873
20
-3.3034409448818898
11
4.5851179921259844
21
-3.3104092519685038
0
LINE
8
BLACK
6
CONTINUOUS
10
4.5851179921259844
20
-3.3104092519685038
11
4.5829527952755909
21
-3.3170730314960628
0
LINE
8
BLACK
6
CONTINUOUS
10
4.5829527952755909
20
-3.3170730314960628
11
4.5794494488188979
21
-3.3231410236220471
0
LINE
8
BLACK
6
CONTINUOUS
10
4.5794494488188979
20
-3.3231410236220471
11
4.5747610629921258
21
-3.328347992125984
0
LINE
8
BLACK
6
CONTINUOUS
10
4.5747610629921258
20
-3.328347992125984
11
4.5690925196850394
21
-3.3324664173228347
0
LINE
8
BLACK
6
CONTINUOUS
10
4.5690925196850394
20
-3.3324664173228347
11
4.5626915748031491
21
-3.3353162992125984
0
LINE
8
BLACK
6
CONTINUOUS
10
4.5626915748031491
20
-3.3353162992125984
11
4.5558379921259844
21
-3.3367730708661418
0
LINE
8
BLACK
6
CONTINUOUS
10
4.5558379921259844
20
-3.3367730708661418
11
4.5488312992125985
21
-3.3367730708661418
0
LINE
8
BLACK
6
CONTINUOUS
10
4.5488312992125985
20
-3.3367730708661418
11
4.5419777165354329
21
-3.3353162992125984
0
LINE
8
BLACK
6
CONTINUOUS
10
4.5419777165354329
20
-3.3353162992125984
11
4.5355767716535436
21
-3.3324664173228347
0
LINE
8
BLACK
6
CONTINUOUS
10
4.5355767716535436
20
-3.3324664173228347
11
4.5299082283464562
21
-3.328347992125984
0
LINE
8
BLACK
6
CONTINUOUS
10
4.5299082283464562
20
-3.328347992125984
11
4.525219842519685
21
-3.3231410236220471
0
LINE
8
BLACK
6
CONTINUOUS
10
4.525219842519685
20
-3.3231410236220471
11
4.5217164960629921
21
-3.3170730314960628
0
LINE
8
BLACK
6
CONTINUOUS
10
4.5217164960629921
20
-3.3170730314960628
11
4.5195512992125986
21
-3.3104092519685038
0
LINE
8
BLACK
6
CONTINUOUS
10
4.5195512992125986
20
-3.3104092519685038
11
4.5188188976377948
21
-3.3034409448818898
0
LINE
8
BLACK
6
CONTINUOUS
10
4.5188188976377948
20
-3.3034409448818898
11
4.5195512992125986
21
-3.2964726377952753
0
LINE
8
BLACK
6
CONTINUOUS
10
4.5195512992125986
20
-3.2964726377952753
11
4.5217164960629921
21
-3.2898088582677163
0
LINE
8
BLACK
6
CONTINUOUS
10
4.5217164960629921
20
-3.2898088582677163
11
4.525219842519685
21
-3.283740866141732
0
LINE
8
BLACK
6
CONTINUOUS
10
4.525219842519685
20
-3.283740866141732
11
4.5299082283464562
21
-3.2785338976377951
0
LINE
8
BLACK
6
CONTINUOUS
10
4.5299082283464562
20
-3.2785338976377951
11
4.5355767716535436
21
-3.2744154724409449
0
LINE
8
BLACK
6
CONTINUOUS
10
4.5355767716535436
20
-3.2744154724409449
11
4.5419777165354329
21
-3.2715655905511811
0
LINE
8
BLACK
6
CONTINUOUS
10
4.5419777165354329
20
-3.2715655905511811
11
4.5488312992125985
21
-3.2701088188976377
0
LINE
8
BLACK
6
CONTINUOUS
10
4.5488312992125985
20
-3.2701088188976377
11
4.5558379921259844
21
-3.2701088188976377
0
LINE
8
BLACK
6
CONTINUOUS
10
4.5558379921259844
20
-3.2701088188976377
11
4.5626915748031491
21
-3.2715655905511811
0
LINE
8
BLACK
6
CONTINUOUS
10
4.8626915748031498
20
-3.2715655905511811
11
4.8690925196850392
21
-3.2744154724409449
0
LINE
8
BLACK
6
CONTINUOUS
10
4.8690925196850392
20
-3.2744154724409449
11
4.8747610629921256
21
-3.2785338976377951
0
LINE
8
BLACK
6
CONTINUOUS
10
4.8747610629921256
20
-3.2785338976377951
11
4.8794494488188977
21
-3.283740866141732
0
LINE
8
BLACK
6
CONTINUOUS
10
4.8794494488188977
20
-3.283740866141732
11
4.8829527952755907
21
-3.2898088582677163
0
LINE
8
BLACK
6
CONTINUOUS
10
4.8829527952755907
20
-3.2898088582677163
11
4.8851179921259842
21
-3.2964726377952753
0
LINE
8
BLACK
6
CONTINUOUS
10
4.8851179921259842
20
-3.2964726377952753
11
4.8858503937007871
21
-3.3034409448818898
0
LINE
8
BLACK
6
CONTINUOUS
10
4.8858503937007871
20
-3.3034409448818898
11
4.8851179921259842
21
-3.3104092519685038
0
LINE
8
BLACK
6
CONTINUOUS
10
4.8851179921259842
20
-3.3104092519685038
11
4.8829527952755907
21
-3.3170730314960628
0
LINE
8
BLACK
6
CONTINUOUS
10
4.8829527952755907
20
-3.3170730314960628
11
4.8794494488188977
21
-3.3231410236220471
0
LINE
8
BLACK
6
CONTINUOUS
10
4.8794494488188977
20
-3.3231410236220471
11
4.8747610629921256
21
-3.328347992125984
0
LINE
8
BLACK
6
CONTINUOUS
10
4.8747610629921256
20
-3.328347992125984
11
4.8690925196850392
21
-3.3324664173228347
0
LINE
8
BLACK
6
CONTINUOUS
10
4.8690925196850392
20
-3.3324664173228347
11
4.8626915748031498
21
-3.3353162992125984
0
LINE
8
BLACK
6
CONTINUOUS
10
4.8626915748031498
20
-3.3353162992125984
11
4.8558379921259842
21
-3.3367730708661418
0
LINE
8
BLACK
6
CONTINUOUS
10
4.8558379921259842
20
-3.3367730708661418
11
4.8488312992125984
21
-3.3367730708661418
0
LINE
8
BLACK
6
CONTINUOUS
10
4.8488312992125984
20
-3.3367730708661418
11
4.8419777165354327
21
-3.3353162992125984
0
LINE
8
BLACK
6
CONTINUOUS
10
4.8419777165354327
20
-3.3353162992125984
11
4.8355767716535434
21
-3.3324664173228347
0
LINE
8
BLACK
6
CONTINUOUS
10
4.8355767716535434
20
-3.3324664173228347
11
4.8299082283464569
21
-3.328347992125984
0
LINE
8
BLACK
6
CONTINUOUS
10
4.8299082283464569
20
-3.328347992125984
11
4.8252198425196848
21
-3.3231410236220471
0
LINE
8
BLACK
6
CONTINUOUS
10
4.8252198425196848
20
-3.3231410236220471
11
4.8217164960629919
21
-3.3170730314960628
0
LINE
8
BLACK
6
CONTINUOUS
10
4.8217164960629919
20
-3.3170730314960628
11
4.8195512992125984
21
-3.3104092519685038
0
LINE
8
BLACK
6
CONTINUOUS
10
4.8195512992125984
20
-3.3104092519685038
11
4.8188188976377955
21
-3.3034409448818898
0
LINE
8
BLACK
6
CONTINUOUS
10
4.8188188976377955
20
-3.3034409448818898
11
4.8195512992125984
21
-3.2964726377952753
0
LINE
8
BLACK
6
CONTINUOUS
10
4.8195512992125984
20
-3.2964726377952753
11
4.8217164960629919
21
-3.2898088582677163
0
LINE
8
BLACK
6
CONTINUOUS
10
4.8217164960629919
20
-3.2898088582677163
11
4.8252198425196848
21
-3.283740866141732
0
LINE
8
BLACK
6
CONTINUOUS
10
4.8252198425196848
20
-3.283740866141732
11
4.8299082283464569
21
-3.2785338976377951
0
LINE
8
BLACK
6
CONTINUOUS
10
4.8299082283464569
20
-3.2785338976377951
11
4.8355767716535434
21
-3.2744154724409449
0
LINE
8
BLACK
6
CONTINUOUS
10
4.8355767716535434
20
-3.2744154724409449
11
4.8419777165354327
21
-3.2715655905511811
0
LINE
8
BLACK
6
CONTINUOUS
10
4.8419777165354327
20
-3.2715655905511811
11
4.8488312992125984
21
-3.2701088188976377
0
LINE
8
BLACK
6
CONTINUOUS
10
4.8488312992125984
20
-3.2701088188976377
11
4.8558379921259842
21
-3.2701088188976377
0
LINE
8
BLACK
6
CONTINUOUS
10
4.8558379921259842
20
-3.2701088188976377
11
4.8626915748031498
21
-3.2715655905511811
0
LINE
8
BLACK
6
CONTINUOUS
10
4.5626915748031491
20
-3.171565590551181
11
4.5690925196850394
21
-3.1744154724409448
0
LINE
8
BLACK
6
CONTINUOUS
10
4.5690925196850394
20
-3.1744154724409448
11
4.5747610629921258
21
-3.178533897637795
0
LINE
8
BLACK
6
CONTINUOUS
10
4.5747610629921258
20
-3.178533897637795
11
4.5794494488188979
21
-3.1837408661417324
0
LINE
8
BLACK
6
CONTINUOUS
10
4.5794494488188979
20
-3.1837408661417324
11
4.5829527952755909
21
-3.1898088582677167
0
LINE
8
BLACK
6
CONTINUOUS
10
4.5829527952755909
20
-3.1898088582677167
11
4.5851179921259844
21
-3.1964726377952757
0
LINE
8
BLACK
6
CONTINUOUS
10
4.5851179921259844
20
-3.1964726377952757
11
4.5858503937007873
21
-3.2034409448818897
0
LINE
8
BLACK
6
CONTINUOUS
10
4.5858503937007873
20
-3.2034409448818897
11
4.5851179921259844
21
-3.2104092519685037
0
LINE
8
BLACK
6
CONTINUOUS
10
4.5851179921259844
20
-3.2104092519685037
11
4.5829527952755909
21
-3.2170730314960627
0
LINE
8
BLACK
6
CONTINUOUS
10
4.5829527952755909
20
-3.2170730314960627
11
4.5794494488188979
21
-3.223141023622047
0
LINE
8
BLACK
6
CONTINUOUS
10
4.5794494488188979
20
-3.223141023622047
11
4.5747610629921258
21
-3.2283479921259843
0
LINE
8
BLACK
6
CONTINUOUS
10
4.5747610629921258
20
-3.2283479921259843
11
4.5690925196850394
21
-3.2324664173228346
0
LINE
8
BLACK
6
CONTINUOUS
10
4.5690925196850394
20
-3.2324664173228346
11
4.5626915748031491
21
-3.2353162992125983
0
LINE
8
BLACK
6
CONTINUOUS
10
4.5626915748031491
20
-3.2353162992125983
11
4.5558379921259844
21
-3.2367730708661417
0
LINE
8
BLACK
6
CONTINUOUS
10
4.5558379921259844
20
-3.2367730708661417
11
4.5488312992125985
21
-3.2367730708661417
0
LINE
8
BLACK
6
CONTINUOUS
10
4.5488312992125985
20
-3.2367730708661417
11
4.5419777165354329
21
-3.2353162992125983
0
LINE
8
BLACK
6
CONTINUOUS
10
4.5419777165354329
20
-3.2353162992125983
11
4.5355767716535436
21
-3.2324664173228346
0
LINE
8
BLACK
6
CONTINUOUS
10
4.5355767716535436
20
-3.2324664173228346
11
4.5299082283464562
21
-3.2283479921259843
0
LINE
8
BLACK
6
CONTINUOUS
10
4.5299082283464562
20
-3.2283479921259843
11
4.525219842519685
21
-3.223141023622047
0
LINE
8
BLACK
6
CONTINUOUS
10
4.525219842519685
20
-3.223141023622047
11
4.5217164960629921
21
-3.2170730314960627
0
LINE
8
BLACK
6
CONTINUOUS
10
4.5217164960629921
20
-3.2170730314960627
11
4.5195512992125986
21
-3.2104092519685037
0
LINE
8
BLACK
6
CONTINUOUS
10
4.5195512992125986
20
-3.2104092519685037
11
4.5188188976377948
21
-3.2034409448818897
0
LINE
8
BLACK
6
CONTINUOUS
10
4.5188188976377948
20
-3.2034409448818897
11
4.5195512992125986
21
-3.1964726377952757
0
LINE
8
BLACK
6
CONTINUOUS
10
4.5195512992125986
20
-3.1964726377952757
11
4.5217164960629921
21
-3.1898088582677167
0
LINE
8
BLACK
6
CONTINUOUS
10
4.5217164960629921
20
-3.1898088582677167
11
4.525219842519685
21
-3.1837408661417324
0
LINE
8
BLACK
6
CONTINUOUS
10
4.525219842519685
20
-3.1837408661417324
11
4.5299082283464562
21
-3.178533897637795
0
LINE
8
BLACK
6
CONTINUOUS
10
4.5299082283464562
20
-3.178533897637795
11
4.5355767716535436
21
-3.1744154724409448
0
LINE
8
BLACK
6
CONTINUOUS
10
4.5355767716535436
20
-3.1744154724409448
11
4.5419777165354329
21
-3.171565590551181
0
LINE
8
BLACK
6
CONTINUOUS
10
4.5419777165354329
20
-3.171565590551181
11
4.5488312992125985
21
-3.1701088188976376
0
LINE
8
BLACK
6
CONTINUOUS
10
4.5488312992125985
20
-3.1701088188976376
11
4.5558379921259844
21
-3.1701088188976376
0
LINE
8
BLACK
6
CONTINUOUS
10
4.5558379921259844
20
-3.1701088188976376
11
4.5626915748031491
21
-3.171565590551181
0
LINE
8
BLACK
6
CONTINUOUS
10
4.8626915748031498
20
-3.171565590551181
11
4.8690925196850392
21
-3.1744154724409448
0
LINE
8
BLACK
6
CONTINUOUS
10
4.8690925196850392
20
-3.1744154724409448
11
4.8747610629921256
21
-3.178533897637795
0
LINE
8
BLACK
6
CONTINUOUS
10
4.8747610629921256
20
-3.178533897637795
11
4.8794494488188977
21
-3.1837408661417324
0
LINE
8
BLACK
6
CONTINUOUS
10
4.8794494488188977
20
-3.1837408661417324
11
4.8829527952755907
21
-3.1898088582677167
0
LINE
8
BLACK
6
CONTINUOUS
10
4.8829527952755907
20
-3.1898088582677167
11
4.8851179921259842
21
-3.1964726377952757
0
LINE
8
BLACK
6
CONTINUOUS
10
4.8851179921259842
20
-3.1964726377952757
11
4.8858503937007871
21
-3.2034409448818897
0
LINE
8
BLACK
6
CONTINUOUS
10
4.8858503937007871
20
-3.2034409448818897
11
4.8851179921259842
21
-3.2104092519685037
0
LINE
8
BLACK
6
CONTINUOUS
10
4.8851179921259842
20
-3.2104092519685037
11
4.8829527952755907
21
-3.2170730314960627
0
LINE
8
BLACK
6
CONTINUOUS
10
4.8829527952755907
20
-3.2170730314960627
11
4.8794494488188977
21
-3.223141023622047
0
LINE
8
BLACK
6
CONTINUOUS
10
4.8794494488188977
20
-3.223141023622047
11
4.8747610629921256
21
-3.2283479921259843
0
LINE
8
BLACK
6
CONTINUOUS
10
4.8747610629921256
20
-3.2283479921259843
11
4.8690925196850392
21
-3.2324664173228346
0
LINE
8
BLACK
6
CONTINUOUS
10
4.8690925196850392
20
-3.2324664173228346
11
4.8626915748031498
21
-3.2353162992125983
0
LINE
8
BLACK
6
CONTINUOUS
10
4.8626915748031498
20
-3.2353162992125983
11
4.8558379921259842
21
-3.2367730708661417
0
LINE
8
BLACK
6
CONTINUOUS
10
4.8558379921259842
20
-3.2367730708661417
11
4.8488312992125984
21
-3.2367730708661417
0
LINE
8
BLACK
6
CONTINUOUS
10
4.8488312992125984
20
-3.2367730708661417
11
4.8419777165354327
21
-3.2353162992125983
0
LINE
8
BLACK
6
CONTINUOUS
10
4.8419777165354327
20
-3.2353162992125983
11
4.8355767716535434
21
-3.2324664173228346
0
LINE
8
BLACK
6
CONTINUOUS
10
4.8355767716535434
20
-3.2324664173228346
11
4.8299082283464569
21
-3.2283479921259843
0
LINE
8
BLACK
6
CONTINUOUS
10
4.8299082283464569
20
-3.2283479921259843
11
4.8252198425196848
21
-3.223141023622047
0
LINE
8
BLACK
6
CONTINUOUS
10
4.8252198425196848
20
-3.223141023622047
11
4.8217164960629919
21
-3.2170730314960627
0
LINE
8
BLACK
6
CONTINUOUS
10
4.8217164960629919
20
-3.2170730314960627
11
4.8195512992125984
21
-3.2104092519685037
0
LINE
8
BLACK
6
CONTINUOUS
10
4.8195512992125984
20
-3.2104092519685037
11
4.8188188976377955
21
-3.2034409448818897
0
LINE
8
BLACK
6
CONTINUOUS
10
4.8188188976377955
20
-3.2034409448818897
11
4.8195512992125984
21
-3.1964726377952757
0
LINE
8
BLACK
6
CONTINUOUS
10
4.8195512992125984
20
-3.1964726377952757
11
4.8217164960629919
21
-3.1898088582677167
0
LINE
8
BLACK
6
CONTINUOUS
10
4.8217164960629919
20
-3.1898088582677167
11
4.8252198425196848
21
-3.1837408661417324
0
LINE
8
BLACK
6
CONTINUOUS
10
4.8252198425196848
20
-3.1837408661417324
11
4.8299082283464569
21
-3.178533897637795
0
LINE
8
BLACK
6
CONTINUOUS
10
4.8299082283464569
20
-3.178533897637795
11
4.8355767716535434
21
-3.1744154724409448
0
LINE
8
BLACK
6
CONTINUOUS
10
4.8355767716535434
20
-3.1744154724409448
11
4.8419777165354327
21
-3.171565590551181
0
LINE
8
BLACK
6
CONTINUOUS
10
4.8419777165354327
20
-3.171565590551181
11
4.8488312992125984
21
-3.1701088188976376
0
LINE
8
BLACK
6
CONTINUOUS
10
4.8488312992125984
20
-3.1701088188976376
11
4.8558379921259842
21
-3.1701088188976376
0
LINE
8
BLACK
6
CONTINUOUS
10
4.8558379921259842
20
-3.1701088188976376
11
4.8626915748031498
21
-3.171565590551181
0
LINE
8
BLACK
6
CONTINUOUS
10
4.5626915748031491
20
-3.0715655905511809
11
4.5690925196850394
21
-3.0744154724409447
0
LINE
8
BLACK
6
CONTINUOUS
10
4.5690925196850394
20
-3.0744154724409447
11
4.5747610629921258
21
-3.0785338976377954
0
LINE
8
BLACK
6
CONTINUOUS
10
4.5747610629921258
20
-3.0785338976377954
11
4.5794494488188979
21
-3.0837408661417323
0
LINE
8
BLACK
6
CONTINUOUS
10
4.5794494488188979
20
-3.0837408661417323
11
4.5829527952755909
21
-3.0898088582677166
0
LINE
8
BLACK
6
CONTINUOUS
10
4.5829527952755909
20
-3.0898088582677166
11
4.5851179921259844
21
-3.0964726377952756
0
LINE
8
BLACK
6
CONTINUOUS
10
4.5851179921259844
20
-3.0964726377952756
11
4.5858503937007873
21
-3.1034409448818896
0
LINE
8
BLACK
6
CONTINUOUS
10
4.5858503937007873
20
-3.1034409448818896
11
4.5851179921259844
21
-3.110409251968504
0
LINE
8
BLACK
6
CONTINUOUS
10
4.5851179921259844
20
-3.110409251968504
11
4.5829527952755909
21
-3.1170730314960631
0
LINE
8
BLACK
6
CONTINUOUS
10
4.5829527952755909
20
-3.1170730314960631
11
4.5794494488188979
21
-3.1231410236220474
0
LINE
8
BLACK
6
CONTINUOUS
10
4.5794494488188979
20
-3.1231410236220474
11
4.5747610629921258
21
-3.1283479921259842
0
LINE
8
BLACK
6
CONTINUOUS
10
4.5747610629921258
20
-3.1283479921259842
11
4.5690925196850394
21
-3.1324664173228345
0
LINE
8
BLACK
6
CONTINUOUS
10
4.5690925196850394
20
-3.1324664173228345
11
4.5626915748031491
21
-3.1353162992125982
0
LINE
8
BLACK
6
CONTINUOUS
10
4.5626915748031491
20
-3.1353162992125982
11
4.5558379921259844
21
-3.1367730708661417
0
LINE
8
BLACK
6
CONTINUOUS
10
4.5558379921259844
20
-3.1367730708661417
11
4.5488312992125985
21
-3.1367730708661417
0
LINE
8
BLACK
6
CONTINUOUS
10
4.5488312992125985
20
-3.1367730708661417
11
4.5419777165354329
21
-3.1353162992125982
0
LINE
8
BLACK
6
CONTINUOUS
10
4.5419777165354329
20
-3.1353162992125982
11
4.5355767716535436
21
-3.1324664173228345
0
LINE
8
BLACK
6
CONTINUOUS
10
4.5355767716535436
20
-3.1324664173228345
11
4.5299082283464562
21
-3.1283479921259842
0
LINE
8
BLACK
6
CONTINUOUS
10
4.5299082283464562
20
-3.1283479921259842
11
4.525219842519685
21
-3.1231410236220474
0
LINE
8
BLACK
6
CONTINUOUS
10
4.525219842519685
20
-3.1231410236220474
11
4.5217164960629921
21
-3.1170730314960631
0
LINE
8
BLACK
6
CONTINUOUS
10
4.5217164960629921
20
-3.1170730314960631
11
4.5195512992125986
21
-3.110409251968504
0
LINE
8
BLACK
6
CONTINUOUS
10
4.5195512992125986
20
-3.110409251968504
11
4.5188188976377948
21
-3.1034409448818896
0
LINE
8
BLACK
6
CONTINUOUS
10
4.5188188976377948
20
-3.1034409448818896
11
4.5195512992125986
21
-3.0964726377952756
0
LINE
8
BLACK
6
CONTINUOUS
10
4.5195512992125986
20
-3.0964726377952756
11
4.5217164960629921
21
-3.0898088582677166
0
LINE
8
BLACK
6
CONTINUOUS
10
4.5217164960629921
20
-3.0898088582677166
11
4.525219842519685
21
-3.0837408661417323
0
LINE
8
BLACK
6
CONTINUOUS
10
4.525219842519685
20
-3.0837408661417323
11
4.5299082283464562
21
-3.0785338976377954
0
LINE
8
BLACK
6
CONTINUOUS
10
4.5299082283464562
20
-3.0785338976377954
11
4.5355767716535436
21
-3.0744154724409447
0
LINE
8
BLACK
6
CONTINUOUS
10
4.5355767716535436
20
-3.0744154724409447
11
4.5419777165354329
21
-3.0715655905511809
0
LINE
8
BLACK
6
CONTINUOUS
10
4.5419777165354329
20
-3.0715655905511809
11
4.5488312992125985
21
-3.0701088188976375
0
LINE
8
BLACK
6
CONTINUOUS
10
4.5488312992125985
20
-3.0701088188976375
11
4.5558379921259844
21
-3.0701088188976375
0
LINE
8
BLACK
6
CONTINUOUS
10
4.5558379921259844
20
-3.0701088188976375
11
4.5626915748031491
21
-3.0715655905511809
0
LINE
8
BLACK
6
CONTINUOUS
10
4.8626915748031498
20
-3.0715655905511809
11
4.8690925196850392
21
-3.0744154724409447
0
LINE
8
BLACK
6
CONTINUOUS
10
4.8690925196850392
20
-3.0744154724409447
11
4.8747610629921256
21
-3.0785338976377954
0
LINE
8
BLACK
6
CONTINUOUS
10
4.8747610629921256
20
-3.0785338976377954
11
4.8794494488188977
21
-3.0837408661417323
0
LINE
8
BLACK
6
CONTINUOUS
10
4.8794494488188977
20
-3.0837408661417323
11
4.8829527952755907
21
-3.0898088582677166
0
LINE
8
BLACK
6
CONTINUOUS
10
4.8829527952755907
20
-3.0898088582677166
11
4.8851179921259842
21
-3.0964726377952756
0
LINE
8
BLACK
6
CONTINUOUS
10
4.8851179921259842
20
-3.0964726377952756
11
4.8858503937007871
21
-3.1034409448818896
0
LINE
8
BLACK
6
CONTINUOUS
10
4.8858503937007871
20
-3.1034409448818896
11
4.8851179921259842
21
-3.110409251968504
0
LINE
8
BLACK
6
CONTINUOUS
10
4.8851179921259842
20
-3.110409251968504
11
4.8829527952755907
21
-3.1170730314960631
0
LINE
8
BLACK
6
CONTINUOUS
10
4.8829527952755907
20
-3.1170730314960631
11
4.8794494488188977
21
-3.1231410236220474
0
LINE
8
BLACK
6
CONTINUOUS
10
4.8794494488188977
20
-3.1231410236220474
11
4.8747610629921256
21
-3.1283479921259842
0
LINE
8
BLACK
6
CONTINUOUS
10
4.8747610629921256
20
-3.1283479921259842
11
4.8690925196850392
21
-3.1324664173228345
0
LINE
8
BLACK
6
CONTINUOUS
10
4.8690925196850392
20
-3.1324664173228345
11
4.8626915748031498
21
-3.1353162992125982
0
LINE
8
BLACK
6
CONTINUOUS
10
4.8626915748031498
20
-3.1353162992125982
11
4.8558379921259842
21
-3.1367730708661417
0
LINE
8
BLACK
6
CONTINUOUS
10
4.8558379921259842
20
-3.1367730708661417
11
4.8488312992125984
21
-3.1367730708661417
0
LINE
8
BLACK
6
CONTINUOUS
10
4.8488312992125984
20
-3.1367730708661417
11
4.8419777165354327
21
-3.1353162992125982
0
LINE
8
BLACK
6
CONTINUOUS
10
4.8419777165354327
20
-3.1353162992125982
11
4.8355767716535434
21
-3.1324664173228345
0
LINE
8
BLACK
6
CONTINUOUS
10
4.8355767716535434
20
-3.1324664173228345
11
4.8299082283464569
21
-3.1283479921259842
0
LINE
8
BLACK
6
CONTINUOUS
10
4.8299082283464569
20
-3.1283479921259842
11
4.8252198425196848
21
-3.1231410236220474
0
LINE
8
BLACK
6
CONTINUOUS
10
4.8252198425196848
20
-3.1231410236220474
11
4.8217164960629919
21
-3.1170730314960631
0
LINE
8
BLACK
6
CONTINUOUS
10
4.8217164960629919
20
-3.1170730314960631
11
4.8195512992125984
21
-3.110409251968504
0
LINE
8
BLACK
6
CONTINUOUS
10
4.8195512992125984
20
-3.110409251968504
11
4.8188188976377955
21
-3.1034409448818896
0
LINE
8
BLACK
6
CONTINUOUS
10
4.8188188976377955
20
-3.1034409448818896
11
4.8195512992125984
21
-3.0964726377952756
0
LINE
8
BLACK
6
CONTINUOUS
10
4.8195512992125984
20
-3.0964726377952756
11
4.8217164960629919
21
-3.0898088582677166
0
LINE
8
BLACK
6
CONTINUOUS
10
4.8217164960629919
20
-3.0898088582677166
11
4.8252198425196848
21
-3.0837408661417323
0
LINE
8
BLACK
6
CONTINUOUS
10
4.8252198425196848
20
-3.0837408661417323
11
4.8299082283464569
21
-3.0785338976377954
0
LINE
8
BLACK
6
CONTINUOUS
10
4.8299082283464569
20
-3.0785338976377954
11
4.8355767716535434
21
-3.0744154724409447
0
LINE
8
BLACK
6
CONTINUOUS
10
4.8355767716535434
20
-3.0744154724409447
11
4.8419777165354327
21
-3.0715655905511809
0
LINE
8
BLACK
6
CONTINUOUS
10
4.8419777165354327
20
-3.0715655905511809
11
4.8488312992125984
21
-3.0701088188976375
0
LINE
8
BLACK
6
CONTINUOUS
10
4.8488312992125984
20
-3.0701088188976375
11
4.8558379921259842
21
-3.0701088188976375
0
LINE
8
BLACK
6
CONTINUOUS
10
4.8558379921259842
20
-3.0701088188976375
11
4.8626915748031498
21
-3.0715655905511809
0
LINE
8
BLACK
6
CONTINUOUS
10
4.5626915748031491
20
-2.9715655905511809
11
4.5690925196850394
21
-2.9744154724409446
0
LINE
8
BLACK
6
CONTINUOUS
10
4.5690925196850394
20
-2.9744154724409446
11
4.5747610629921258
21
-2.9785338976377953
0
LINE
8
BLACK
6
CONTINUOUS
10
4.5747610629921258
20
-2.9785338976377953
11
4.5794494488188979
21
-2.9837408661417322
0
LINE
8
BLACK
6
CONTINUOUS
10
4.5794494488188979
20
-2.9837408661417322
11
4.5829527952755909
21
-2.9898088582677165
0
LINE
8
BLACK
6
CONTINUOUS
10
4.5829527952755909
20
-2.9898088582677165
11
4.5851179921259844
21
-2.9964726377952755
0
LINE
8
BLACK
6
CONTINUOUS
10
4.5851179921259844
20
-2.9964726377952755
11
4.5858503937007873
21
-3.0034409448818895
0
LINE
8
BLACK
6
CONTINUOUS
10
4.5858503937007873
20
-3.0034409448818895
11
4.5851179921259844
21
-3.010409251968504
0
LINE
8
BLACK
6
CONTINUOUS
10
4.5851179921259844
20
-3.010409251968504
11
4.5829527952755909
21
-3.017073031496063
0
LINE
8
BLACK
6
CONTINUOUS
10
4.5829527952755909
20
-3.017073031496063
11
4.5794494488188979
21
-3.0231410236220473
0
LINE
8
BLACK
6
CONTINUOUS
10
4.5794494488188979
20
-3.0231410236220473
11
4.5747610629921258
21
-3.0283479921259842
0
LINE
8
BLACK
6
CONTINUOUS
10
4.5747610629921258
20
-3.0283479921259842
11
4.5690925196850394
21
-3.0324664173228344
0
LINE
8
BLACK
6
CONTINUOUS
10
4.5690925196850394
20
-3.0324664173228344
11
4.5626915748031491
21
-3.0353162992125982
0
LINE
8
BLACK
6
CONTINUOUS
10
4.5626915748031491
20
-3.0353162992125982
11
4.5558379921259844
21
-3.0367730708661416
0
LINE
8
BLACK
6
CONTINUOUS
10
4.5558379921259844
20
-3.0367730708661416
11
4.5488312992125985
21
-3.0367730708661416
0
LINE
8
BLACK
6
CONTINUOUS
10
4.5488312992125985
20
-3.0367730708661416
11
4.5419777165354329
21
-3.0353162992125982
0
LINE
8
BLACK
6
CONTINUOUS
10
4.5419777165354329
20
-3.0353162992125982
11
4.5355767716535436
21
-3.0324664173228344
0
LINE
8
BLACK
6
CONTINUOUS
10
4.5355767716535436
20
-3.0324664173228344
11
4.5299082283464562
21
-3.0283479921259842
0
LINE
8
BLACK
6
CONTINUOUS
10
4.5299082283464562
20
-3.0283479921259842
11
4.525219842519685
21
-3.0231410236220473
0
LINE
8
BLACK
6
CONTINUOUS
10
4.525219842519685
20
-3.0231410236220473
11
4.5217164960629921
21
-3.017073031496063
0
LINE
8
BLACK
6
CONTINUOUS
10
4.5217164960629921
20
-3.017073031496063
11
4.5195512992125986
21
-3.010409251968504
0
LINE
8
BLACK
6
CONTINUOUS
10
4.5195512992125986
20
-3.010409251968504
11
4.5188188976377948
21
-3.0034409448818895
0
LINE
8
BLACK
6
CONTINUOUS
10
4.5188188976377948
20
-3.0034409448818895
11
4.5195512992125986
21
-2.9964726377952755
0
LINE
8
BLACK
6
CONTINUOUS
10
4.5195512992125986
20
-2.9964726377952755
11
4.5217164960629921
21
-2.9898088582677165
0
LINE
8
BLACK
6
CONTINUOUS
10
4.5217164960629921
20
-2.9898088582677165
11
4.525219842519685
21
-2.9837408661417322
0
LINE
8
BLACK
6
CONTINUOUS
10
4.525219842519685
20
-2.9837408661417322
11
4.5299082283464562
21
-2.9785338976377953
0
LINE
8
BLACK
6
CONTINUOUS
10
4.5299082283464562
20
-2.9785338976377953
11
4.5355767716535436
21
-2.9744154724409446
0
LINE
8
BLACK
6
CONTINUOUS
10
4.5355767716535436
20
-2.9744154724409446
11
4.5419777165354329
21
-2.9715655905511809
0
LINE
8
BLACK
6
CONTINUOUS
10
4.5419777165354329
20
-2.9715655905511809
11
4.5488312992125985
21
-2.9701088188976379
0
LINE
8
BLACK
6
CONTINUOUS
10
4.5488312992125985
20
-2.9701088188976379
11
4.5558379921259844
21
-2.9701088188976379
0
LINE
8
BLACK
6
CONTINUOUS
10
4.5558379921259844
20
-2.9701088188976379
11
4.5626915748031491
21
-2.9715655905511809
0
LINE
8
BLACK
6
CONTINUOUS
10
4.8626915748031498
20
-2.9715655905511809
11
4.8690925196850392
21
-2.9744154724409446
0
LINE
8
BLACK
6
CONTINUOUS
10
4.8690925196850392
20
-2.9744154724409446
11
4.8747610629921256
21
-2.9785338976377953
0
LINE
8
BLACK
6
CONTINUOUS
10
4.8747610629921256
20
-2.9785338976377953
11
4.8794494488188977
21
-2.9837408661417322
0
LINE
8
BLACK
6
CONTINUOUS
10
4.8794494488188977
20
-2.9837408661417322
11
4.8829527952755907
21
-2.9898088582677165
0
LINE
8
BLACK
6
CONTINUOUS
10
4.8829527952755907
20
-2.9898088582677165
11
4.8851179921259842
21
-2.9964726377952755
0
LINE
8
BLACK
6
CONTINUOUS
10
4.8851179921259842
20
-2.9964726377952755
11
4.8858503937007871
21
-3.0034409448818895
0
LINE
8
BLACK
6
CONTINUOUS
10
4.8858503937007871
20
-3.0034409448818895
11
4.8851179921259842
21
-3.010409251968504
0
LINE
8
BLACK
6
CONTINUOUS
10
4.8851179921259842
20
-3.010409251968504
11
4.8829527952755907
21
-3.017073031496063
0
LINE
8
BLACK
6
CONTINUOUS
10
4.8829527952755907
20
-3.017073031496063
11
4.8794494488188977
21
-3.0231410236220473
0
LINE
8
BLACK
6
CONTINUOUS
10
4.8794494488188977
20
-3.0231410236220473
11
4.8747610629921256
21
-3.0283479921259842
0
LINE
8
BLACK
6
CONTINUOUS
10
4.8747610629921256
20
-3.0283479921259842
11
4.8690925196850392
21
-3.0324664173228344
0
LINE
8
BLACK
6
CONTINUOUS
10
4.8690925196850392
20
-3.0324664173228344
11
4.8626915748031498
21
-3.0353162992125982
0
LINE
8
BLACK
6
CONTINUOUS
10
4.8626915748031498
20
-3.0353162992125982
11
4.8558379921259842
21
-3.0367730708661416
0
LINE
8
BLACK
6
CONTINUOUS
10
4.8558379921259842
20
-3.0367730708661416
11
4.8488312992125984
21
-3.0367730708661416
0
LINE
8
BLACK
6
CONTINUOUS
10
4.8488312992125984
20
-3.0367730708661416
11
4.8419777165354327
21
-3.0353162992125982
0
LINE
8
BLACK
6
CONTINUOUS
10
4.8419777165354327
20
-3.0353162992125982
11
4.8355767716535434
21
-3.0324664173228344
0
LINE
8
BLACK
6
CONTINUOUS
10
4.8355767716535434
20
-3.0324664173228344
11
4.8299082283464569
21
-3.0283479921259842
0
LINE
8
BLACK
6
CONTINUOUS
10
4.8299082283464569
20
-3.0283479921259842
11
4.8252198425196848
21
-3.0231410236220473
0
LINE
8
BLACK
6
CONTINUOUS
10
4.8252198425196848
20
-3.0231410236220473
11
4.8217164960629919
21
-3.017073031496063
0
LINE
8
BLACK
6
CONTINUOUS
10
4.8217164960629919
20
-3.017073031496063
11
4.8195512992125984
21
-3.010409251968504
0
LINE
8
BLACK
6
CONTINUOUS
10
4.8195512992125984
20
-3.010409251968504
11
4.8188188976377955
21
-3.0034409448818895
0
LINE
8
BLACK
6
CONTINUOUS
10
4.8188188976377955
20
-3.0034409448818895
11
4.8195512992125984
21
-2.9964726377952755
0
LINE
8
BLACK
6
CONTINUOUS
10
4.8195512992125984
20
-2.9964726377952755
11
4.8217164960629919
21
-2.9898088582677165
0
LINE
8
BLACK
6
CONTINUOUS
10
4.8217164960629919
20
-2.9898088582677165
11
4.8252198425196848
21
-2.9837408661417322
0
LINE
8
BLACK
6
CONTINUOUS
10
4.8252198425196848
20
-2.9837408661417322
11
4.8299082283464569
21
-2.9785338976377953
0
LINE
8
BLACK
6
CONTINUOUS
10
4.8299082283464569
20
-2.9785338976377953
11
4.8355767716535434
21
-2.9744154724409446
0
LINE
8
BLACK
6
CONTINUOUS
10
4.8355767716535434
20
-2.9744154724409446
11
4.8419777165354327
21
-2.9715655905511809
0
LINE
8
BLACK
6
CONTINUOUS
10
4.8419777165354327
20
-2.9715655905511809
11
4.8488312992125984
21
-2.9701088188976379
0
LINE
8
BLACK
6
CONTINUOUS
10
4.8488312992125984
20
-2.9701088188976379
11
4.8558379921259842
21
-2.9701088188976379
0
LINE
8
BLACK
6
CONTINUOUS
10
4.8558379921259842
20
-2.9701088188976379
11
4.8626915748031498
21
-2.9715655905511809
0
LINE
8
BLACK
6
CONTINUOUS
10
4.5626915748031491
20
-2.8715655905511812
11
4.5690925196850394
21
-2.874415472440945
0
LINE
8
BLACK
6
CONTINUOUS
10
4.5690925196850394
20
-2.874415472440945
11
4.5747610629921258
21
-2.8785338976377952
0
LINE
8
BLACK
6
CONTINUOUS
10
4.5747610629921258
20
-2.8785338976377952
11
4.5794494488188979
21
-2.8837408661417321
0
LINE
8
BLACK
6
CONTINUOUS
10
4.5794494488188979
20
-2.8837408661417321
11
4.5829527952755909
21
-2.8898088582677164
0
LINE
8
BLACK
6
CONTINUOUS
10
4.5829527952755909
20
-2.8898088582677164
11
4.5851179921259844
21
-2.8964726377952754
0
LINE
8
BLACK
6
CONTINUOUS
10
4.5851179921259844
20
-2.8964726377952754
11
4.5858503937007873
21
-2.9034409448818899
0
LINE
8
BLACK
6
CONTINUOUS
10
4.5858503937007873
20
-2.9034409448818899
11
4.5851179921259844
21
-2.9104092519685039
0
LINE
8
BLACK
6
CONTINUOUS
10
4.5851179921259844
20
-2.9104092519685039
11
4.5829527952755909
21
-2.9170730314960629
0
LINE
8
BLACK
6
CONTINUOUS
10
4.5829527952755909
20
-2.9170730314960629
11
4.5794494488188979
21
-2.9231410236220472
0
LINE
8
BLACK
6
CONTINUOUS
10
4.5794494488188979
20
-2.9231410236220472
11
4.5747610629921258
21
-2.9283479921259841
0
LINE
8
BLACK
6
CONTINUOUS
10
4.5747610629921258
20
-2.9283479921259841
11
4.5690925196850394
21
-2.9324664173228348
0
LINE
8
BLACK
6
CONTINUOUS
10
4.5690925196850394
20
-2.9324664173228348
11
4.5626915748031491
21
-2.9353162992125985
0
LINE
8
BLACK
6
CONTINUOUS
10
4.5626915748031491
20
-2.9353162992125985
11
4.5558379921259844
21
-2.9367730708661415
0
LINE
8
BLACK
6
CONTINUOUS
10
4.5558379921259844
20
-2.9367730708661415
11
4.5488312992125985
21
-2.9367730708661415
0
LINE
8
BLACK
6
CONTINUOUS
10
4.5488312992125985
20
-2.9367730708661415
11
4.5419777165354329
21
-2.9353162992125985
0
LINE
8
BLACK
6
CONTINUOUS
10
4.5419777165354329
20
-2.9353162992125985
11
4.5355767716535436
21
-2.9324664173228348
0
LINE
8
BLACK
6
CONTINUOUS
10
4.5355767716535436
20
-2.9324664173228348
11
4.5299082283464562
21
-2.9283479921259841
0
LINE
8
BLACK
6
CONTINUOUS
10
4.5299082283464562
20
-2.9283479921259841
11
4.525219842519685
21
-2.9231410236220472
0
LINE
8
BLACK
6
CONTINUOUS
10
4.525219842519685
20
-2.9231410236220472
11
4.5217164960629921
21
-2.9170730314960629
0
LINE
8
BLACK
6
CONTINUOUS
10
4.5217164960629921
20
-2.9170730314960629
11
4.5195512992125986
21
-2.9104092519685039
0
LINE
8
BLACK
6
CONTINUOUS
10
4.5195512992125986
20
-2.9104092519685039
11
4.5188188976377948
21
-2.9034409448818899
0
LINE
8
BLACK
6
CONTINUOUS
10
4.5188188976377948
20
-2.9034409448818899
11
4.5195512992125986
21
-2.8964726377952754
0
LINE
8
BLACK
6
CONTINUOUS
10
4.5195512992125986
20
-2.8964726377952754
11
4.5217164960629921
21
-2.8898088582677164
0
LINE
8
BLACK
6
CONTINUOUS
10
4.5217164960629921
20
-2.8898088582677164
11
4.525219842519685
21
-2.8837408661417321
0
LINE
8
BLACK
6
CONTINUOUS
10
4.525219842519685
20
-2.8837408661417321
11
4.5299082283464562
21
-2.8785338976377952
0
LINE
8
BLACK
6
CONTINUOUS
10
4.5299082283464562
20
-2.8785338976377952
11
4.5355767716535436
21
-2.874415472440945
0
LINE
8
BLACK
6
CONTINUOUS
10
4.5355767716535436
20
-2.874415472440945
11
4.5419777165354329
21
-2.8715655905511812
0
LINE
8
BLACK
6
CONTINUOUS
10
4.5419777165354329
20
-2.8715655905511812
11
4.5488312992125985
21
-2.8701088188976378
0
LINE
8
BLACK
6
CONTINUOUS
10
4.5488312992125985
20
-2.8701088188976378
11
4.5558379921259844
21
-2.8701088188976378
0
LINE
8
BLACK
6
CONTINUOUS
10
4.5558379921259844
20
-2.8701088188976378
11
4.5626915748031491
21
-2.8715655905511812
0
LINE
8
BLACK
6
CONTINUOUS
10
4.8626915748031498
20
-2.8715655905511812
11
4.8690925196850392
21
-2.874415472440945
0
LINE
8
BLACK
6
CONTINUOUS
10
4.8690925196850392
20
-2.874415472440945
11
4.8747610629921256
21
-2.8785338976377952
0
LINE
8
BLACK
6
CONTINUOUS
10
4.8747610629921256
20
-2.8785338976377952
11
4.8794494488188977
21
-2.8837408661417321
0
LINE
8
BLACK
6
CONTINUOUS
10
4.8794494488188977
20
-2.8837408661417321
11
4.8829527952755907
21
-2.8898088582677164
0
LINE
8
BLACK
6
CONTINUOUS
10
4.8829527952755907
20
-2.8898088582677164
11
4.8851179921259842
21
-2.8964726377952754
0
LINE
8
BLACK
6
CONTINUOUS
10
4.8851179921259842
20
-2.8964726377952754
11
4.8858503937007871
21
-2.9034409448818899
0
LINE
8
BLACK
6
CONTINUOUS
10
4.8858503937007871
20
-2.9034409448818899
11
4.8851179921259842
21
-2.9104092519685039
0
LINE
8
BLACK
6
CONTINUOUS
10
4.8851179921259842
20
-2.9104092519685039
11
4.8829527952755907
21
-2.9170730314960629
0
LINE
8
BLACK
6
CONTINUOUS
10
4.8829527952755907
20
-2.9170730314960629
11
4.8794494488188977
21
-2.9231410236220472
0
LINE
8
BLACK
6
CONTINUOUS
10
4.8794494488188977
20
-2.9231410236220472
11
4.8747610629921256
21
-2.9283479921259841
0
LINE
8
BLACK
6
CONTINUOUS
10
4.8747610629921256
20
-2.9283479921259841
11
4.8690925196850392
21
-2.9324664173228348
0
LINE
8
BLACK
6
CONTINUOUS
10
4.8690925196850392
20
-2.9324664173228348
11
4.8626915748031498
21
-2.9353162992125985
0
LINE
8
BLACK
6
CONTINUOUS
10
4.8626915748031498
20
-2.9353162992125985
11
4.8558379921259842
21
-2.9367730708661415
0
LINE
8
BLACK
6
CONTINUOUS
10
4.8558379921259842
20
-2.9367730708661415
11
4.8488312992125984
21
-2.9367730708661415
0
LINE
8
BLACK
6
CONTINUOUS
10
4.8488312992125984
20
-2.9367730708661415
11
4.8419777165354327
21
-2.9353162992125985
0
LINE
8
BLACK
6
CONTINUOUS
10
4.8419777165354327
20
-2.9353162992125985
11
4.8355767716535434
21
-2.9324664173228348
0
LINE
8
BLACK
6
CONTINUOUS
10
4.8355767716535434
20
-2.9324664173228348
11
4.8299082283464569
21
-2.9283479921259841
0
LINE
8
BLACK
6
CONTINUOUS
10
4.8299082283464569
20
-2.9283479921259841
11
4.8252198425196848
21
-2.9231410236220472
0
LINE
8
BLACK
6
CONTINUOUS
10
4.8252198425196848
20
-2.9231410236220472
11
4.8217164960629919
21
-2.9170730314960629
0
LINE
8
BLACK
6
CONTINUOUS
10
4.8217164960629919
20
-2.9170730314960629
11
4.8195512992125984
21
-2.9104092519685039
0
LINE
8
BLACK
6
CONTINUOUS
10
4.8195512992125984
20
-2.9104092519685039
11
4.8188188976377955
21
-2.9034409448818899
0
LINE
8
BLACK
6
CONTINUOUS
10
4.8188188976377955
20
-2.9034409448818899
11
4.8195512992125984
21
-2.8964726377952754
0
LINE
8
BLACK
6
CONTINUOUS
10
4.8195512992125984
20
-2.8964726377952754
11
4.8217164960629919
21
-2.8898088582677164
0
LINE
8
BLACK
6
CONTINUOUS
10
4.8217164960629919
20
-2.8898088582677164
11
4.8252198425196848
21
-2.8837408661417321
0
LINE
8
BLACK
6
CONTINUOUS
10
4.8252198425196848
20
-2.8837408661417321
11
4.8299082283464569
21
-2.8785338976377952
0
LINE
8
BLACK
6
CONTINUOUS
10
4.8299082283464569
20
-2.8785338976377952
11
4.8355767716535434
21
-2.874415472440945
0
LINE
8
BLACK
6
CONTINUOUS
10
4.8355767716535434
20
-2.874415472440945
11
4.8419777165354327
21
-2.8715655905511812
0
LINE
8
BLACK
6
CONTINUOUS
10
4.8419777165354327
20
-2.8715655905511812
11
4.8488312992125984
21
-2.8701088188976378
0
LINE
8
BLACK
6
CONTINUOUS
10
4.8488312992125984
20
-2.8701088188976378
11
4.8558379921259842
21
-2.8701088188976378
0
LINE
8
BLACK
6
CONTINUOUS
10
4.8558379921259842
20
-2.8701088188976378
11
4.8626915748031498
21
-2.8715655905511812
0
LINE
8
BLACK
6
CONTINUOUS
10
3.0056638976377954
20
-2.7626924015748031
11
3.013096181102362
21
-2.7642197637795274
0
LINE
8
BLACK
6
CONTINUOUS
10
3.013096181102362
20
-2.7642197637795274
11
3.0200688976377954
21
-2.7672120078740159
0
LINE
8
BLACK
6
CONTINUOUS
10
3.0200688976377954
20
-2.7672120078740159
11
3.0262965354330706
21
-2.7715465748031494
0
LINE
8
BLACK
6
CONTINUOUS
10
3.0262965354330706
20
-2.7715465748031494
11
3.0315241732283464
21
-2.7770460236220473
0
LINE
8
BLACK
6
CONTINUOUS
10
3.0315241732283464
20
-2.7770460236220473
11
3.0355377559055117
21
-2.7834852362204723
0
LINE
8
BLACK
6
CONTINUOUS
10
3.0355377559055117
20
-2.7834852362204723
11
3.0381729527559056
21
-2.7906005118110238
0
LINE
8
BLACK
6
CONTINUOUS
10
3.0381729527559056
20
-2.7906005118110238
11
3.039321929133858
21
-2.7981006692913386
0
LINE
8
BLACK
6
CONTINUOUS
10
3.039321929133858
20
-2.7981006692913386
11
3.0389376377952755
21
-2.8056785433070868
0
LINE
8
BLACK
6
CONTINUOUS
10
3.0389376377952755
20
-2.8056785433070868
11
3.0370357874015745
21
-2.8130239370078738
0
LINE
8
BLACK
6
CONTINUOUS
10
3.0370357874015745
20
-2.8130239370078738
11
3.033694251968504
21
-2.8198361417322833
0
LINE
8
BLACK
6
CONTINUOUS
10
3.033694251968504
20
-2.8198361417322833
11
3.029049803149606
21
-2.8258362598425197
0
LINE
8
BLACK
6
CONTINUOUS
10
3.029049803149606
20
-2.8258362598425197
11
3.0232926377952754
21
-2.830778622047244
0
LINE
8
BLACK
6
CONTINUOUS
10
3.0232926377952754
20
-2.830778622047244
11
3.0166584251968502
21
-2.8344609055118108
0
LINE
8
BLACK
6
CONTINUOUS
10
3.0166584251968502
20
-2.8344609055118108
11
3.0094187795275591
21
-2.8367323622047245
0
LINE
8
BLACK
6
CONTINUOUS
10
3.0094187795275591
20
-2.8367323622047245
11
3.0018700787401573
21
-2.8374999999999999
0
LINE
8
BLACK
6
CONTINUOUS
10
3.0018700787401573
20
-2.8374999999999999
11
2.9981299212598422
21
-2.8374999999999999
0
LINE
8
BLACK
6
CONTINUOUS
10
2.9981299212598422
20
-2.8374999999999999
11
2.9943361023622046
21
-2.837307598425197
0
LINE
8
BLACK
6
CONTINUOUS
10
2.9943361023622046
20
-2.837307598425197
11
2.9869038188976376
21
-2.8357802362204723
0
LINE
8
BLACK
6
CONTINUOUS
10
2.9869038188976376
20
-2.8357802362204723
11
2.9799311023622046
21
-2.8327879921259842
0
LINE
8
BLACK
6
CONTINUOUS
10
2.9799311023622046
20
-2.8327879921259842
11
2.9737034645669289
21
-2.8284534251968503
0
LINE
8
BLACK
6
CONTINUOUS
10
2.9737034645669289
20
-2.8284534251968503
11
2.9684758267716536
21
-2.8229539763779528
0
LINE
8
BLACK
6
CONTINUOUS
10
2.9684758267716536
20
-2.8229539763779528
11
2.9644622440944883
21
-2.8165147637795274
0
LINE
8
BLACK
6
CONTINUOUS
10
2.9644622440944883
20
-2.8165147637795274
11
2.9618270472440944
21
-2.8093994881889763
0
LINE
8
BLACK
6
CONTINUOUS
10
2.9618270472440944
20
-2.8093994881889763
11
2.9606780708661415
21
-2.8018993307086615
0
LINE
8
BLACK
6
CONTINUOUS
10
2.9606780708661415
20
-2.8018993307086615
11
2.9610623622047245
21
-2.7943214566929133
0
LINE
8
BLACK
6
CONTINUOUS
10
2.9610623622047245
20
-2.7943214566929133
11
2.962964212598425
21
-2.7869760629921259
0
LINE
8
BLACK
6
CONTINUOUS
10
2.962964212598425
20
-2.7869760629921259
11
2.966305748031496
21
-2.7801638582677164
0
LINE
8
BLACK
6
CONTINUOUS
10
2.966305748031496
20
-2.7801638582677164
11
2.9709501968503935
21
-2.7741637401574804
0
LINE
8
BLACK
6
CONTINUOUS
10
2.9709501968503935
20
-2.7741637401574804
11
2.9767073622047242
21
-2.7692213779527557
0
LINE
8
BLACK
6
CONTINUOUS
10
2.9767073622047242
20
-2.7692213779527557
11
2.9833415748031493
21
-2.7655390944881888
0
LINE
8
BLACK
6
CONTINUOUS
10
2.9833415748031493
20
-2.7655390944881888
11
2.9905812204724409
21
-2.7632676377952756
0
LINE
8
BLACK
6
CONTINUOUS
10
2.9905812204724409
20
-2.7632676377952756
11
2.9981299212598422
21
-2.7624999999999997
0
LINE
8
BLACK
6
CONTINUOUS
10
2.9981299212598422
20
-2.7624999999999997
11
3.0018700787401573
21
-2.7624999999999997
0
LINE
8
BLACK
6
CONTINUOUS
10
3.0018700787401573
20
-2.7624999999999997
11
3.0056638976377954
21
-2.7626924015748031
0
LINE
8
BLACK
6
CONTINUOUS
10
4.5626915748031491
20
-2.7715655905511811
11
4.5690925196850394
21
-2.7744154724409449
0
LINE
8
BLACK
6
CONTINUOUS
10
4.5690925196850394
20
-2.7744154724409449
11
4.5747610629921258
21
-2.7785338976377951
0
LINE
8
BLACK
6
CONTINUOUS
10
4.5747610629921258
20
-2.7785338976377951
11
4.5794494488188979
21
-2.7837408661417324
0
LINE
8
BLACK
6
CONTINUOUS
10
4.5794494488188979
20
-2.7837408661417324
11
4.5829527952755909
21
-2.7898088582677163
0
LINE
8
BLACK
6
CONTINUOUS
10
4.5829527952755909
20
-2.7898088582677163
11
4.5851179921259844
21
-2.7964726377952753
0
LINE
8
BLACK
6
CONTINUOUS
10
4.5851179921259844
20
-2.7964726377952753
11
4.5858503937007873
21
-2.8034409448818898
0
LINE
8
BLACK
6
CONTINUOUS
10
4.5858503937007873
20
-2.8034409448818898
11
4.5851179921259844
21
-2.8104092519685038
0
LINE
8
BLACK
6
CONTINUOUS
10
4.5851179921259844
20
-2.8104092519685038
11
4.5829527952755909
21
-2.8170730314960628
0
LINE
8
BLACK
6
CONTINUOUS
10
4.5829527952755909
20
-2.8170730314960628
11
4.5794494488188979
21
-2.8231410236220471
0
LINE
8
BLACK
6
CONTINUOUS
10
4.5794494488188979
20
-2.8231410236220471
11
4.5747610629921258
21
-2.828347992125984
0
LINE
8
BLACK
6
CONTINUOUS
10
4.5747610629921258
20
-2.828347992125984
11
4.5690925196850394
21
-2.8324664173228347
0
LINE
8
BLACK
6
CONTINUOUS
10
4.5690925196850394
20
-2.8324664173228347
11
4.5626915748031491
21
-2.8353162992125984
0
LINE
8
BLACK
6
CONTINUOUS
10
4.5626915748031491
20
-2.8353162992125984
11
4.5558379921259844
21
-2.8367730708661418
0
LINE
8
BLACK
6
CONTINUOUS
10
4.5558379921259844
20
-2.8367730708661418
11
4.5488312992125985
21
-2.8367730708661418
0
LINE
8
BLACK
6
CONTINUOUS
10
4.5488312992125985
20
-2.8367730708661418
11
4.5419777165354329
21
-2.8353162992125984
0
LINE
8
BLACK
6
CONTINUOUS
10
4.5419777165354329
20
-2.8353162992125984
11
4.5355767716535436
21
-2.8324664173228347
0
LINE
8
BLACK
6
CONTINUOUS
10
4.5355767716535436
20
-2.8324664173228347
11
4.5299082283464562
21
-2.828347992125984
0
LINE
8
BLACK
6
CONTINUOUS
10
4.5299082283464562
20
-2.828347992125984
11
4.525219842519685
21
-2.8231410236220471
0
LINE
8
BLACK
6
CONTINUOUS
10
4.525219842519685
20
-2.8231410236220471
11
4.5217164960629921
21
-2.8170730314960628
0
LINE
8
BLACK
6
CONTINUOUS
10
4.5217164960629921
20
-2.8170730314960628
11
4.5195512992125986
21
-2.8104092519685038
0
LINE
8
BLACK
6
CONTINUOUS
10
4.5195512992125986
20
-2.8104092519685038
11
4.5188188976377948
21
-2.8034409448818898
0
LINE
8
BLACK
6
CONTINUOUS
10
4.5188188976377948
20
-2.8034409448818898
11
4.5195512992125986
21
-2.7964726377952753
0
LINE
8
BLACK
6
CONTINUOUS
10
4.5195512992125986
20
-2.7964726377952753
11
4.5217164960629921
21
-2.7898088582677163
0
LINE
8
BLACK
6
CONTINUOUS
10
4.5217164960629921
20
-2.7898088582677163
11
4.525219842519685
21
-2.7837408661417324
0
LINE
8
BLACK
6
CONTINUOUS
10
4.525219842519685
20
-2.7837408661417324
11
4.5299082283464562
21
-2.7785338976377951
0
LINE
8
BLACK
6
CONTINUOUS
10
4.5299082283464562
20
-2.7785338976377951
11
4.5355767716535436
21
-2.7744154724409449
0
LINE
8
BLACK
6
CONTINUOUS
10
4.5355767716535436
20
-2.7744154724409449
11
4.5419777165354329
21
-2.7715655905511811
0
LINE
8
BLACK
6
CONTINUOUS
10
4.5419777165354329
20
-2.7715655905511811
11
4.5488312992125985
21
-2.7701088188976377
0
LINE
8
BLACK
6
CONTINUOUS
10
4.5488312992125985
20
-2.7701088188976377
11
4.5558379921259844
21
-2.7701088188976377
0
LINE
8
BLACK
6
CONTINUOUS
10
4.5558379921259844
20
-2.7701088188976377
11
4.5626915748031491
21
-2.7715655905511811
0
LINE
8
BLACK
6
CONTINUOUS
10
4.8626915748031498
20
-2.7715655905511811
11
4.8690925196850392
21
-2.7744154724409449
0
LINE
8
BLACK
6
CONTINUOUS
10
4.8690925196850392
20
-2.7744154724409449
11
4.8747610629921256
21
-2.7785338976377951
0
LINE
8
BLACK
6
CONTINUOUS
10
4.8747610629921256
20
-2.7785338976377951
11
4.8794494488188977
21
-2.7837408661417324
0
LINE
8
BLACK
6
CONTINUOUS
10
4.8794494488188977
20
-2.7837408661417324
11
4.8829527952755907
21
-2.7898088582677163
0
LINE
8
BLACK
6
CONTINUOUS
10
4.8829527952755907
20
-2.7898088582677163
11
4.8851179921259842
21
-2.7964726377952753
0
LINE
8
BLACK
6
CONTINUOUS
10
4.8851179921259842
20
-2.7964726377952753
11
4.8858503937007871
21
-2.8034409448818898
0
LINE
8
BLACK
6
CONTINUOUS
10
4.8858503937007871
20
-2.8034409448818898
11
4.8851179921259842
21
-2.8104092519685038
0
LINE
8
BLACK
6
CONTINUOUS
10
4.8851179921259842
20
-2.8104092519685038
11
4.8829527952755907
21
-2.8170730314960628
0
LINE
8
BLACK
6
CONTINUOUS
10
4.8829527952755907
20
-2.8170730314960628
11
4.8794494488188977
21
-2.8231410236220471
0
LINE
8
BLACK
6
CONTINUOUS
10
4.8794494488188977
20
-2.8231410236220471
11
4.8747610629921256
21
-2.828347992125984
0
LINE
8
BLACK
6
CONTINUOUS
10
4.8747610629921256
20
-2.828347992125984
11
4.8690925196850392
21
-2.8324664173228347
0
LINE
8
BLACK
6
CONTINUOUS
10
4.8690925196850392
20
-2.8324664173228347
11
4.8626915748031498
21
-2.8353162992125984
0
LINE
8
BLACK
6
CONTINUOUS
10
4.8626915748031498
20
-2.8353162992125984
11
4.8558379921259842
21
-2.8367730708661418
0
LINE
8
BLACK
6
CONTINUOUS
10
4.8558379921259842
20
-2.8367730708661418
11
4.8488312992125984
21
-2.8367730708661418
0
LINE
8
BLACK
6
CONTINUOUS
10
4.8488312992125984
20
-2.8367730708661418
11
4.8419777165354327
21
-2.8353162992125984
0
LINE
8
BLACK
6
CONTINUOUS
10
4.8419777165354327
20
-2.8353162992125984
11
4.8355767716535434
21
-2.8324664173228347
0
LINE
8
BLACK
6
CONTINUOUS
10
4.8355767716535434
20
-2.8324664173228347
11
4.8299082283464569
21
-2.828347992125984
0
LINE
8
BLACK
6
CONTINUOUS
10
4.8299082283464569
20
-2.828347992125984
11
4.8252198425196848
21
-2.8231410236220471
0
LINE
8
BLACK
6
CONTINUOUS
10
4.8252198425196848
20
-2.8231410236220471
11
4.8217164960629919
21
-2.8170730314960628
0
LINE
8
BLACK
6
CONTINUOUS
10
4.8217164960629919
20
-2.8170730314960628
11
4.8195512992125984
21
-2.8104092519685038
0
LINE
8
BLACK
6
CONTINUOUS
10
4.8195512992125984
20
-2.8104092519685038
11
4.8188188976377955
21
-2.8034409448818898
0
LINE
8
BLACK
6
CONTINUOUS
10
4.8188188976377955
20
-2.8034409448818898
11
4.8195512992125984
21
-2.7964726377952753
0
LINE
8
BLACK
6
CONTINUOUS
10
4.8195512992125984
20
-2.7964726377952753
11
4.8217164960629919
21
-2.7898088582677163
0
LINE
8
BLACK
6
CONTINUOUS
10
4.8217164960629919
20
-2.7898088582677163
11
4.8252198425196848
21
-2.7837408661417324
0
LINE
8
BLACK
6
CONTINUOUS
10
4.8252198425196848
20
-2.7837408661417324
11
4.8299082283464569
21
-2.7785338976377951
0
LINE
8
BLACK
6
CONTINUOUS
10
4.8299082283464569
20
-2.7785338976377951
11
4.8355767716535434
21
-2.7744154724409449
0
LINE
8
BLACK
6
CONTINUOUS
10
4.8355767716535434
20
-2.7744154724409449
11
4.8419777165354327
21
-2.7715655905511811
0
LINE
8
BLACK
6
CONTINUOUS
10
4.8419777165354327
20
-2.7715655905511811
11
4.8488312992125984
21
-2.7701088188976377
0
LINE
8
BLACK
6
CONTINUOUS
10
4.8488312992125984
20
-2.7701088188976377
11
4.8558379921259842
21
-2.7701088188976377
0
LINE
8
BLACK
6
CONTINUOUS
10
4.8558379921259842
20
-2.7701088188976377
11
4.8626915748031498
21
-2.7715655905511811
0
LINE
8
BLACK
6
CONTINUOUS
10
5.9065705118110232
20
-2.7633387401574803
11
5.9128115354330708
21
-2.765522559055118
0
LINE
8
BLACK
6
CONTINUOUS
10
5.9128115354330708
20
-2.765522559055118
11
5.918410118110236
21
-2.7690403937007875
0
LINE
8
BLACK
6
CONTINUOUS
10
5.918410118110236
20
-2.7690403937007875
11
5.9230855905511808
21
-2.7737158661417323
0
LINE
8
BLACK
6
CONTINUOUS
10
5.9230855905511808
20
-2.7737158661417323
11
5.9266034251968502
21
-2.7793144488188974
0
LINE
8
BLACK
6
CONTINUOUS
10
5.9266034251968502
20
-2.7793144488188974
11
5.9287872440944884
21
-2.785555472440945
0
LINE
8
BLACK
6
CONTINUOUS
10
5.9287872440944884
20
-2.785555472440945
11
5.929527559055118
21
-2.7921259842519683
0
LINE
8
BLACK
6
CONTINUOUS
10
5.929527559055118
20
-2.7921259842519683
11
5.9287872440944884
21
-2.7986964960629921
0
LINE
8
BLACK
6
CONTINUOUS
10
5.9287872440944884
20
-2.7986964960629921
11
5.9266034251968502
21
-2.8049375196850392
0
LINE
8
BLACK
6
CONTINUOUS
10
5.9266034251968502
20
-2.8049375196850392
11
5.9230855905511808
21
-2.8105361023622049
0
LINE
8
BLACK
6
CONTINUOUS
10
5.9230855905511808
20
-2.8105361023622049
11
5.918410118110236
21
-2.8152115748031497
0
LINE
8
BLACK
6
CONTINUOUS
10
5.918410118110236
20
-2.8152115748031497
11
5.9128115354330708
21
-2.8187294094488187
0
LINE
8
BLACK
6
CONTINUOUS
10
5.9128115354330708
20
-2.8187294094488187
11
5.9065705118110232
21
-2.8209132283464564
0
LINE
8
BLACK
6
CONTINUOUS
10
5.9065705118110232
20
-2.8209132283464564
11
5.8999999999999995
21
-2.8216535433070864
0
LINE
8
BLACK
6
CONTINUOUS
10
5.8999999999999995
20
-2.8216535433070864
11
5.8934294881889766
21
-2.8209132283464564
0
LINE
8
BLACK
6
CONTINUOUS
10
5.8934294881889766
20
-2.8209132283464564
11
5.887188464566929
21
-2.8187294094488187
0
LINE
8
BLACK
6
CONTINUOUS
10
5.887188464566929
20
-2.8187294094488187
11
5.8815898818897638
21
-2.8152115748031497
0
LINE
8
BLACK
6
CONTINUOUS
10
5.8815898818897638
20
-2.8152115748031497
11
5.876914409448819
21
-2.8105361023622049
0
LINE
8
BLACK
6
CONTINUOUS
10
5.876914409448819
20
-2.8105361023622049
11
5.8733965748031496
21
-2.8049375196850392
0
LINE
8
BLACK
6
CONTINUOUS
10
5.8733965748031496
20
-2.8049375196850392
11
5.8712127559055114
21
-2.7986964960629921
0
LINE
8
BLACK
6
CONTINUOUS
10
5.8712127559055114
20
-2.7986964960629921
11
5.8704724409448819
21
-2.7921259842519683
0
LINE
8
BLACK
6
CONTINUOUS
10
5.8704724409448819
20
-2.7921259842519683
11
5.8712127559055114
21
-2.785555472440945
0
LINE
8
BLACK
6
CONTINUOUS
10
5.8712127559055114
20
-2.785555472440945
11
5.8733965748031496
21
-2.7793144488188974
0
LINE
8
BLACK
6
CONTINUOUS
10
5.8733965748031496
20
-2.7793144488188974
11
5.876914409448819
21
-2.7737158661417323
0
LINE
8
BLACK
6
CONTINUOUS
10
5.876914409448819
20
-2.7737158661417323
11
5.8815898818897638
21
-2.7690403937007875
0
LINE
8
BLACK
6
CONTINUOUS
10
5.8815898818897638
20
-2.7690403937007875
11
5.887188464566929
21
-2.765522559055118
0
LINE
8
BLACK
6
CONTINUOUS
10
5.887188464566929
20
-2.765522559055118
11
5.8934294881889766
21
-2.7633387401574803
0
LINE
8
BLACK
6
CONTINUOUS
10
5.8934294881889766
20
-2.7633387401574803
11
5.8999999999999995
21
-2.7625984251968503
0
LINE
8
BLACK
6
CONTINUOUS
10
5.8999999999999995
20
-2.7625984251968503
11
5.9065705118110232
21
-2.7633387401574803
0
LINE
8
BLACK
6
CONTINUOUS
10
6.8110207086614167
20
-2.767219212598425
11
6.8167068110236215
21
-2.7702035039370076
0
LINE
8
BLACK
6
CONTINUOUS
10
6.8167068110236215
20
-2.7702035039370076
11
6.8215134645669293
21
-2.7744618503937009
0
LINE
8
BLACK
6
CONTINUOUS
10
6.8215134645669293
20
-2.7744618503937009
11
6.8251614173228345
21
-2.7797467716535431
0
LINE
8
BLACK
6
CONTINUOUS
10
6.8251614173228345
20
-2.7797467716535431
11
6.8274385433070863
21
-2.7857511417322836
0
LINE
8
BLACK
6
CONTINUOUS
10
6.8274385433070863
20
-2.7857511417322836
11
6.8282125984251971
21
-2.7921259842519683
0
LINE
8
BLACK
6
CONTINUOUS
10
6.8282125984251971
20
-2.7921259842519683
11
6.8274385433070863
21
-2.7985008267716536
0
LINE
8
BLACK
6
CONTINUOUS
10
6.8274385433070863
20
-2.7985008267716536
11
6.8251614173228345
21
-2.8045051968503936
0
LINE
8
BLACK
6
CONTINUOUS
10
6.8251614173228345
20
-2.8045051968503936
11
6.8215134645669293
21
-2.8097901181102363
0
LINE
8
BLACK
6
CONTINUOUS
10
6.8215134645669293
20
-2.8097901181102363
11
6.8167068110236215
21
-2.814048464566929
0
LINE
8
BLACK
6
CONTINUOUS
10
6.8167068110236215
20
-2.814048464566929
11
6.8110207086614167
21
-2.8170327559055117
0
LINE
8
BLACK
6
CONTINUOUS
10
6.8110207086614167
20
-2.8170327559055117
11
6.8047856299212599
21
-2.818569566929134
0
LINE
8
BLACK
6
CONTINUOUS
10
6.8047856299212599
20
-2.818569566929134
11
6.7983639763779529
21
-2.818569566929134
0
LINE
8
BLACK
6
CONTINUOUS
10
6.7983639763779529
20
-2.818569566929134
11
6.7921288976377951
21
-2.8170327559055117
0
LINE
8
BLACK
6
CONTINUOUS
10
6.7921288976377951
20
-2.8170327559055117
11
6.7864427952755904
21
-2.814048464566929
0
LINE
8
BLACK
6
CONTINUOUS
10
6.7864427952755904
20
-2.814048464566929
11
6.7816361417322835
21
-2.8097901181102363
0
LINE
8
BLACK
6
CONTINUOUS
10
6.7816361417322835
20
-2.8097901181102363
11
6.7779881889763782
21
-2.8045051968503936
0
LINE
8
BLACK
6
CONTINUOUS
10
6.7779881889763782
20
-2.8045051968503936
11
6.7757110629921256
21
-2.7985008267716536
0
LINE
8
BLACK
6
CONTINUOUS
10
6.7757110629921256
20
-2.7985008267716536
11
6.7749370078740156
21
-2.7921259842519683
0
LINE
8
BLACK
6
CONTINUOUS
10
6.7749370078740156
20
-2.7921259842519683
11
6.7757110629921256
21
-2.7857511417322836
0
LINE
8
BLACK
6
CONTINUOUS
10
6.7757110629921256
20
-2.7857511417322836
11
6.7779881889763782
21
-2.7797467716535431
0
LINE
8
BLACK
6
CONTINUOUS
10
6.7779881889763782
20
-2.7797467716535431
11
6.7816361417322835
21
-2.7744618503937009
0
LINE
8
BLACK
6
CONTINUOUS
10
6.7816361417322835
20
-2.7744618503937009
11
6.7864427952755904
21
-2.7702035039370076
0
LINE
8
BLACK
6
CONTINUOUS
10
6.7864427952755904
20
-2.7702035039370076
11
6.7921288976377951
21
-2.767219212598425
0
LINE
8
BLACK
6
CONTINUOUS
10
6.7921288976377951
20
-2.767219212598425
11
6.7983639763779529
21
-2.7656824015748032
0
LINE
8
BLACK
6
CONTINUOUS
10
6.7983639763779529
20
-2.7656824015748032
11
6.8047856299212599
21
-2.7656824015748032
0
LINE
8
BLACK
6
CONTINUOUS
10
6.8047856299212599
20
-2.7656824015748032
11
6.8110207086614167
21
-2.767219212598425
0
LINE
8
BLACK
6
CONTINUOUS
10
7.0078711023622047
20
-2.767219212598425
11
7.0135572047244095
21
-2.7702035039370076
0
LINE
8
BLACK
6
CONTINUOUS
10
7.0135572047244095
20
-2.7702035039370076
11
7.0183638582677164
21
-2.7744618503937009
0
LINE
8
BLACK
6
CONTINUOUS
10
7.0183638582677164
20
-2.7744618503937009
11
7.0220118110236216
21
-2.7797467716535431
0
LINE
8
BLACK
6
CONTINUOUS
10
7.0220118110236216
20
-2.7797467716535431
11
7.0242889370078743
21
-2.7857511417322836
0
LINE
8
BLACK
6
CONTINUOUS
10
7.0242889370078743
20
-2.7857511417322836
11
7.0250629921259842
21
-2.7921259842519683
0
LINE
8
BLACK
6
CONTINUOUS
10
7.0250629921259842
20
-2.7921259842519683
11
7.0242889370078743
21
-2.7985008267716536
0
LINE
8
BLACK
6
CONTINUOUS
10
7.0242889370078743
20
-2.7985008267716536
11
7.0220118110236216
21
-2.8045051968503936
0
LINE
8
BLACK
6
CONTINUOUS
10
7.0220118110236216
20
-2.8045051968503936
11
7.0183638582677164
21
-2.8097901181102363
0
LINE
8
BLACK
6
CONTINUOUS
10
7.0183638582677164
20
-2.8097901181102363
11
7.0135572047244095
21
-2.814048464566929
0
LINE
8
BLACK
6
CONTINUOUS
10
7.0135572047244095
20
-2.814048464566929
11
7.0078711023622047
21
-2.8170327559055117
0
LINE
8
BLACK
6
CONTINUOUS
10
7.0078711023622047
20
-2.8170327559055117
11
7.001636023622047
21
-2.818569566929134
0
LINE
8
BLACK
6
CONTINUOUS
10
7.001636023622047
20
-2.818569566929134
11
6.9952143700787399
21
-2.818569566929134
0
LINE
8
BLACK
6
CONTINUOUS
10
6.9952143700787399
20
-2.818569566929134
11
6.9889792913385822
21
-2.8170327559055117
0
LINE
8
BLACK
6
CONTINUOUS
10
6.9889792913385822
20
-2.8170327559055117
11
6.9832931889763774
21
-2.814048464566929
0
LINE
8
BLACK
6
CONTINUOUS
10
6.9832931889763774
20
-2.814048464566929
11
6.9784865354330705
21
-2.8097901181102363
0
LINE
8
BLACK
6
CONTINUOUS
10
6.9784865354330705
20
-2.8097901181102363
11
6.9748385826771653
21
-2.8045051968503936
0
LINE
8
BLACK
6
CONTINUOUS
10
6.9748385826771653
20
-2.8045051968503936
11
6.9725614566929135
21
-2.7985008267716536
0
LINE
8
BLACK
6
CONTINUOUS
10
6.9725614566929135
20
-2.7985008267716536
11
6.9717874015748027
21
-2.7921259842519683
0
LINE
8
BLACK
6
CONTINUOUS
10
6.9717874015748027
20
-2.7921259842519683
11
6.9725614566929135
21
-2.7857511417322836
0
LINE
8
BLACK
6
CONTINUOUS
10
6.9725614566929135
20
-2.7857511417322836
11
6.9748385826771653
21
-2.7797467716535431
0
LINE
8
BLACK
6
CONTINUOUS
10
6.9748385826771653
20
-2.7797467716535431
11
6.9784865354330705
21
-2.7744618503937009
0
LINE
8
BLACK
6
CONTINUOUS
10
6.9784865354330705
20
-2.7744618503937009
11
6.9832931889763774
21
-2.7702035039370076
0
LINE
8
BLACK
6
CONTINUOUS
10
6.9832931889763774
20
-2.7702035039370076
11
6.9889792913385822
21
-2.767219212598425
0
LINE
8
BLACK
6
CONTINUOUS
10
6.9889792913385822
20
-2.767219212598425
11
6.9952143700787399
21
-2.7656824015748032
0
LINE
8
BLACK
6
CONTINUOUS
10
6.9952143700787399
20
-2.7656824015748032
11
7.001636023622047
21
-2.7656824015748032
0
LINE
8
BLACK
6
CONTINUOUS
10
7.001636023622047
20
-2.7656824015748032
11
7.0078711023622047
21
-2.767219212598425
0
LINE
8
BLACK
6
CONTINUOUS
10
3.0056638976377954
20
-2.662692401574803
11
3.013096181102362
21
-2.6642197637795273
0
LINE
8
BLACK
6
CONTINUOUS
10
3.013096181102362
20
-2.6642197637795273
11
3.0200688976377954
21
-2.6672120078740158
0
LINE
8
BLACK
6
CONTINUOUS
10
3.0200688976377954
20
-2.6672120078740158
11
3.0262965354330706
21
-2.6715465748031497
0
LINE
8
BLACK
6
CONTINUOUS
10
3.0262965354330706
20
-2.6715465748031497
11
3.0315241732283464
21
-2.6770460236220472
0
LINE
8
BLACK
6
CONTINUOUS
10
3.0315241732283464
20
-2.6770460236220472
11
3.0355377559055117
21
-2.6834852362204722
0
LINE
8
BLACK
6
CONTINUOUS
10
3.0355377559055117
20
-2.6834852362204722
11
3.0381729527559056
21
-2.6906005118110237
0
LINE
8
BLACK
6
CONTINUOUS
10
3.0381729527559056
20
-2.6906005118110237
11
3.039321929133858
21
-2.6981006692913385
0
LINE
8
BLACK
6
CONTINUOUS
10
3.039321929133858
20
-2.6981006692913385
11
3.0389376377952755
21
-2.7056785433070867
0
LINE
8
BLACK
6
CONTINUOUS
10
3.0389376377952755
20
-2.7056785433070867
11
3.0370357874015745
21
-2.7130239370078741
0
LINE
8
BLACK
6
CONTINUOUS
10
3.0370357874015745
20
-2.7130239370078741
11
3.033694251968504
21
-2.7198361417322836
0
LINE
8
BLACK
6
CONTINUOUS
10
3.033694251968504
20
-2.7198361417322836
11
3.029049803149606
21
-2.7258362598425196
0
LINE
8
BLACK
6
CONTINUOUS
10
3.029049803149606
20
-2.7258362598425196
11
3.0232926377952754
21
-2.7307786220472439
0
LINE
8
BLACK
6
CONTINUOUS
10
3.0232926377952754
20
-2.7307786220472439
11
3.0166584251968502
21
-2.7344609055118108
0
LINE
8
BLACK
6
CONTINUOUS
10
3.0166584251968502
20
-2.7344609055118108
11
3.0094187795275591
21
-2.7367323622047244
0
LINE
8
BLACK
6
CONTINUOUS
10
3.0094187795275591
20
-2.7367323622047244
11
3.0018700787401573
21
-2.7374999999999998
0
LINE
8
BLACK
6
CONTINUOUS
10
3.0018700787401573
20
-2.7374999999999998
11
2.9981299212598422
21
-2.7374999999999998
0
LINE
8
BLACK
6
CONTINUOUS
10
2.9981299212598422
20
-2.7374999999999998
11
2.9943361023622046
21
-2.7373075984251969
0
LINE
8
BLACK
6
CONTINUOUS
10
2.9943361023622046
20
-2.7373075984251969
11
2.9869038188976376
21
-2.7357802362204722
0
LINE
8
BLACK
6
CONTINUOUS
10
2.9869038188976376
20
-2.7357802362204722
11
2.9799311023622046
21
-2.7327879921259841
0
LINE
8
BLACK
6
CONTINUOUS
10
2.9799311023622046
20
-2.7327879921259841
11
2.9737034645669289
21
-2.7284534251968502
0
LINE
8
BLACK
6
CONTINUOUS
10
2.9737034645669289
20
-2.7284534251968502
11
2.9684758267716536
21
-2.7229539763779527
0
LINE
8
BLACK
6
CONTINUOUS
10
2.9684758267716536
20
-2.7229539763779527
11
2.9644622440944883
21
-2.7165147637795277
0
LINE
8
BLACK
6
CONTINUOUS
10
2.9644622440944883
20
-2.7165147637795277
11
2.9618270472440944
21
-2.7093994881889762
0
LINE
8
BLACK
6
CONTINUOUS
10
2.9618270472440944
20
-2.7093994881889762
11
2.9606780708661415
21
-2.7018993307086614
0
LINE
8
BLACK
6
CONTINUOUS
10
2.9606780708661415
20
-2.7018993307086614
11
2.9610623622047245
21
-2.6943214566929132
0
LINE
8
BLACK
6
CONTINUOUS
10
2.9610623622047245
20
-2.6943214566929132
11
2.962964212598425
21
-2.6869760629921258
0
LINE
8
BLACK
6
CONTINUOUS
10
2.962964212598425
20
-2.6869760629921258
11
2.966305748031496
21
-2.6801638582677163
0
LINE
8
BLACK
6
CONTINUOUS
10
2.966305748031496
20
-2.6801638582677163
11
2.9709501968503935
21
-2.6741637401574803
0
LINE
8
BLACK
6
CONTINUOUS
10
2.9709501968503935
20
-2.6741637401574803
11
2.9767073622047242
21
-2.669221377952756
0
LINE
8
BLACK
6
CONTINUOUS
10
2.9767073622047242
20
-2.669221377952756
11
2.9833415748031493
21
-2.6655390944881887
0
LINE
8
BLACK
6
CONTINUOUS
10
2.9833415748031493
20
-2.6655390944881887
11
2.9905812204724409
21
-2.6632676377952755
0
LINE
8
BLACK
6
CONTINUOUS
10
2.9905812204724409
20
-2.6632676377952755
11
2.9981299212598422
21
-2.6625000000000001
0
LINE
8
BLACK
6
CONTINUOUS
10
2.9981299212598422
20
-2.6625000000000001
11
3.0018700787401573
21
-2.6625000000000001
0
LINE
8
BLACK
6
CONTINUOUS
10
3.0018700787401573
20
-2.6625000000000001
11
3.0056638976377954
21
-2.662692401574803
0
LINE
8
BLACK
6
CONTINUOUS
10
4.5833714173228346
20
-2.6702308661417322
11
4.5846742125984248
21
-2.6711013779527559
0
LINE
8
BLACK
6
CONTINUOUS
10
4.5846742125984248
20
-2.6711013779527559
11
4.5855447244094485
21
-2.6724041732283466
0
LINE
8
BLACK
6
CONTINUOUS
10
4.5855447244094485
20
-2.6724041732283466
11
4.5858503937007873
21
-2.6739409448818896
0
LINE
8
BLACK
6
CONTINUOUS
10
4.5858503937007873
20
-2.6739409448818896
11
4.5858503937007873
21
-2.7329409448818898
0
LINE
8
BLACK
6
CONTINUOUS
10
4.5858503937007873
20
-2.7329409448818898
11
4.5855447244094485
21
-2.7344777165354328
0
LINE
8
BLACK
6
CONTINUOUS
10
4.5855447244094485
20
-2.7344777165354328
11
4.5846742125984248
21
-2.7357805118110234
0
LINE
8
BLACK
6
CONTINUOUS
10
4.5846742125984248
20
-2.7357805118110234
11
4.5833714173228346
21
-2.7366510236220472
0
LINE
8
BLACK
6
CONTINUOUS
10
4.5833714173228346
20
-2.7366510236220472
11
4.5818346456692911
21
-2.7369566929133859
0
LINE
8
BLACK
6
CONTINUOUS
10
4.5818346456692911
20
-2.7369566929133859
11
4.5228346456692909
21
-2.7369566929133859
0
LINE
8
BLACK
6
CONTINUOUS
10
4.5228346456692909
20
-2.7369566929133859
11
4.5212978740157483
21
-2.7366510236220472
0
LINE
8
BLACK
6
CONTINUOUS
10
4.5212978740157483
20
-2.7366510236220472
11
4.5199950787401573
21
-2.7357805118110234
0
LINE
8
BLACK
6
CONTINUOUS
10
4.5199950787401573
20
-2.7357805118110234
11
4.5191245669291336
21
-2.7344777165354328
0
LINE
8
BLACK
6
CONTINUOUS
10
4.5191245669291336
20
-2.7344777165354328
11
4.5188188976377948
21
-2.7329409448818898
0
LINE
8
BLACK
6
CONTINUOUS
10
4.5188188976377948
20
-2.7329409448818898
11
4.5188188976377948
21
-2.6739409448818896
0
LINE
8
BLACK
6
CONTINUOUS
10
4.5188188976377948
20
-2.6739409448818896
11
4.5191245669291336
21
-2.6724041732283466
0
LINE
8
BLACK
6
CONTINUOUS
10
4.5191245669291336
20
-2.6724041732283466
11
4.5199950787401573
21
-2.6711013779527559
0
LINE
8
BLACK
6
CONTINUOUS
10
4.5199950787401573
20
-2.6711013779527559
11
4.5212978740157483
21
-2.6702308661417322
0
LINE
8
BLACK
6
CONTINUOUS
10
4.5212978740157483
20
-2.6702308661417322
11
4.5228346456692909
21
-2.6699251968503934
0
LINE
8
BLACK
6
CONTINUOUS
10
4.5228346456692909
20
-2.6699251968503934
11
4.5818346456692911
21
-2.6699251968503934
0
LINE
8
BLACK
6
CONTINUOUS
10
4.5818346456692911
20
-2.6699251968503934
11
4.5833714173228346
21
-2.6702308661417322
0
LINE
8
BLACK
6
CONTINUOUS
10
4.8626915748031498
20
-2.671565590551181
11
4.8690925196850392
21
-2.6744154724409448
0
LINE
8
BLACK
6
CONTINUOUS
10
4.8690925196850392
20
-2.6744154724409448
11
4.8747610629921256
21
-2.678533897637795
0
LINE
8
BLACK
6
CONTINUOUS
10
4.8747610629921256
20
-2.678533897637795
11
4.8794494488188977
21
-2.6837408661417324
0
LINE
8
BLACK
6
CONTINUOUS
10
4.8794494488188977
20
-2.6837408661417324
11
4.8829527952755907
21
-2.6898088582677167
0
LINE
8
BLACK
6
CONTINUOUS
10
4.8829527952755907
20
-2.6898088582677167
11
4.8851179921259842
21
-2.6964726377952757
0
LINE
8
BLACK
6
CONTINUOUS
10
4.8851179921259842
20
-2.6964726377952757
11
4.8858503937007871
21
-2.7034409448818897
0
LINE
8
BLACK
6
CONTINUOUS
10
4.8858503937007871
20
-2.7034409448818897
11
4.8851179921259842
21
-2.7104092519685037
0
LINE
8
BLACK
6
CONTINUOUS
10
4.8851179921259842
20
-2.7104092519685037
11
4.8829527952755907
21
-2.7170730314960627
0
LINE
8
BLACK
6
CONTINUOUS
10
4.8829527952755907
20
-2.7170730314960627
11
4.8794494488188977
21
-2.723141023622047
0
LINE
8
BLACK
6
CONTINUOUS
10
4.8794494488188977
20
-2.723141023622047
11
4.8747610629921256
21
-2.7283479921259843
0
LINE
8
BLACK
6
CONTINUOUS
10
4.8747610629921256
20
-2.7283479921259843
11
4.8690925196850392
21
-2.7324664173228346
0
LINE
8
BLACK
6
CONTINUOUS
10
4.8690925196850392
20
-2.7324664173228346
11
4.8626915748031498
21
-2.7353162992125983
0
LINE
8
BLACK
6
CONTINUOUS
10
4.8626915748031498
20
-2.7353162992125983
11
4.8558379921259842
21
-2.7367730708661417
0
LINE
8
BLACK
6
CONTINUOUS
10
4.8558379921259842
20
-2.7367730708661417
11
4.8488312992125984
21
-2.7367730708661417
0
LINE
8
BLACK
6
CONTINUOUS
10
4.8488312992125984
20
-2.7367730708661417
11
4.8419777165354327
21
-2.7353162992125983
0
LINE
8
BLACK
6
CONTINUOUS
10
4.8419777165354327
20
-2.7353162992125983
11
4.8355767716535434
21
-2.7324664173228346
0
LINE
8
BLACK
6
CONTINUOUS
10
4.8355767716535434
20
-2.7324664173228346
11
4.8299082283464569
21
-2.7283479921259843
0
LINE
8
BLACK
6
CONTINUOUS
10
4.8299082283464569
20
-2.7283479921259843
11
4.8252198425196848
21
-2.723141023622047
0
LINE
8
BLACK
6
CONTINUOUS
10
4.8252198425196848
20
-2.723141023622047
11
4.8217164960629919
21
-2.7170730314960627
0
LINE
8
BLACK
6
CONTINUOUS
10
4.8217164960629919
20
-2.7170730314960627
11
4.8195512992125984
21
-2.7104092519685037
0
LINE
8
BLACK
6
CONTINUOUS
10
4.8195512992125984
20
-2.7104092519685037
11
4.8188188976377955
21
-2.7034409448818897
0
LINE
8
BLACK
6
CONTINUOUS
10
4.8188188976377955
20
-2.7034409448818897
11
4.8195512992125984
21
-2.6964726377952757
0
LINE
8
BLACK
6
CONTINUOUS
10
4.8195512992125984
20
-2.6964726377952757
11
4.8217164960629919
21
-2.6898088582677167
0
LINE
8
BLACK
6
CONTINUOUS
10
4.8217164960629919
20
-2.6898088582677167
11
4.8252198425196848
21
-2.6837408661417324
0
LINE
8
BLACK
6
CONTINUOUS
10
4.8252198425196848
20
-2.6837408661417324
11
4.8299082283464569
21
-2.678533897637795
0
LINE
8
BLACK
6
CONTINUOUS
10
4.8299082283464569
20
-2.678533897637795
11
4.8355767716535434
21
-2.6744154724409448
0
LINE
8
BLACK
6
CONTINUOUS
10
4.8355767716535434
20
-2.6744154724409448
11
4.8419777165354327
21
-2.671565590551181
0
LINE
8
BLACK
6
CONTINUOUS
10
4.8419777165354327
20
-2.671565590551181
11
4.8488312992125984
21
-2.6701088188976376
0
LINE
8
BLACK
6
CONTINUOUS
10
4.8488312992125984
20
-2.6701088188976376
11
4.8558379921259842
21
-2.6701088188976376
0
LINE
8
BLACK
6
CONTINUOUS
10
4.8558379921259842
20
-2.6701088188976376
11
4.8626915748031498
21
-2.671565590551181
0
LINE
8
BLACK
6
CONTINUOUS
10
3.7517751968503936
20
-2.6499690944881888
11
3.7591607480314959
21
-2.6522094488188976
0
LINE
8
BLACK
6
CONTINUOUS
10
3.7591607480314959
20
-2.6522094488188976
11
3.7659673228346455
21
-2.6558476377952753
0
LINE
8
BLACK
6
CONTINUOUS
10
3.7659673228346455
20
-2.6558476377952753
11
3.7719333464566929
21
-2.6607438188976378
0
LINE
8
BLACK
6
CONTINUOUS
10
3.7719333464566929
20
-2.6607438188976378
11
3.7768295275590549
21
-2.6667098425196851
0
LINE
8
BLACK
6
CONTINUOUS
10
3.7768295275590549
20
-2.6667098425196851
11
3.780467716535433
21
-2.6735164173228347
0
LINE
8
BLACK
6
CONTINUOUS
10
3.780467716535433
20
-2.6735164173228347
11
3.7827080708661418
21
-2.680901968503937
0
LINE
8
BLACK
6
CONTINUOUS
10
3.7827080708661418
20
-2.680901968503937
11
3.7834645669291338
21
-2.6885826771653543
0
LINE
8
BLACK
6
CONTINUOUS
10
3.7834645669291338
20
-2.6885826771653543
11
3.7827080708661418
21
-2.6962633858267715
0
LINE
8
BLACK
6
CONTINUOUS
10
3.7827080708661418
20
-2.6962633858267715
11
3.780467716535433
21
-2.7036489370078738
0
LINE
8
BLACK
6
CONTINUOUS
10
3.780467716535433
20
-2.7036489370078738
11
3.7768295275590549
21
-2.7104555118110234
0
LINE
8
BLACK
6
CONTINUOUS
10
3.7768295275590549
20
-2.7104555118110234
11
3.7719333464566929
21
-2.7164215354330707
0
LINE
8
BLACK
6
CONTINUOUS
10
3.7719333464566929
20
-2.7164215354330707
11
3.7659673228346455
21
-2.7213177165354332
0
LINE
8
BLACK
6
CONTINUOUS
10
3.7659673228346455
20
-2.7213177165354332
11
3.7591607480314959
21
-2.7249559055118109
0
LINE
8
BLACK
6
CONTINUOUS
10
3.7591607480314959
20
-2.7249559055118109
11
3.7517751968503936
21
-2.7271962598425197
0
LINE
8
BLACK
6
CONTINUOUS
10
3.7517751968503936
20
-2.7271962598425197
11
3.7440944881889764
21
-2.7279527559055117
0
LINE
8
BLACK
6
CONTINUOUS
10
3.7440944881889764
20
-2.7279527559055117
11
3.7364137795275592
21
-2.7271962598425197
0
LINE
8
BLACK
6
CONTINUOUS
10
3.7364137795275592
20
-2.7271962598425197
11
3.7290282283464564
21
-2.7249559055118109
0
LINE
8
BLACK
6
CONTINUOUS
10
3.7290282283464564
20
-2.7249559055118109
11
3.7222216535433068
21
-2.7213177165354332
0
LINE
8
BLACK
6
CONTINUOUS
10
3.7222216535433068
20
-2.7213177165354332
11
3.7162556299212599
21
-2.7164215354330707
0
LINE
8
BLACK
6
CONTINUOUS
10
3.7162556299212599
20
-2.7164215354330707
11
3.7113594488188975
21
-2.7104555118110234
0
LINE
8
BLACK
6
CONTINUOUS
10
3.7113594488188975
20
-2.7104555118110234
11
3.7077212598425198
21
-2.7036489370078738
0
LINE
8
BLACK
6
CONTINUOUS
10
3.7077212598425198
20
-2.7036489370078738
11
3.705480905511811
21
-2.6962633858267715
0
LINE
8
BLACK
6
CONTINUOUS
10
3.705480905511811
20
-2.6962633858267715
11
3.704724409448819
21
-2.6885826771653543
0
LINE
8
BLACK
6
CONTINUOUS
10
3.704724409448819
20
-2.6885826771653543
11
3.705480905511811
21
-2.680901968503937
0
LINE
8
BLACK
6
CONTINUOUS
10
3.705480905511811
20
-2.680901968503937
11
3.7077212598425198
21
-2.6735164173228347
0
LINE
8
BLACK
6
CONTINUOUS
10
3.7077212598425198
20
-2.6735164173228347
11
3.7113594488188975
21
-2.6667098425196851
0
LINE
8
BLACK
6
CONTINUOUS
10
3.7113594488188975
20
-2.6667098425196851
11
3.7162556299212599
21
-2.6607438188976378
0
LINE
8
BLACK
6
CONTINUOUS
10
3.7162556299212599
20
-2.6607438188976378
11
3.7222216535433068
21
-2.6558476377952753
0
LINE
8
BLACK
6
CONTINUOUS
10
3.7222216535433068
20
-2.6558476377952753
11
3.7290282283464564
21
-2.6522094488188976
0
LINE
8
BLACK
6
CONTINUOUS
10
3.7290282283464564
20
-2.6522094488188976
11
3.7364137795275592
21
-2.6499690944881888
0
LINE
8
BLACK
6
CONTINUOUS
10
3.7364137795275592
20
-2.6499690944881888
11
3.7440944881889764
21
-2.6492125984251969
0
LINE
8
BLACK
6
CONTINUOUS
10
3.7440944881889764
20
-2.6492125984251969
11
3.7517751968503936
21
-2.6499690944881888
0
LINE
8
BLACK
6
CONTINUOUS
10
4.0076807086614172
20
-2.6499690944881888
11
4.01506625984252
21
-2.6522094488188976
0
LINE
8
BLACK
6
CONTINUOUS
10
4.01506625984252
20
-2.6522094488188976
11
4.0218728346456691
21
-2.6558476377952753
0
LINE
8
BLACK
6
CONTINUOUS
10
4.0218728346456691
20
-2.6558476377952753
11
4.0278388582677165
21
-2.6607438188976378
0
LINE
8
BLACK
6
CONTINUOUS
10
4.0278388582677165
20
-2.6607438188976378
11
4.0327350393700785
21
-2.6667098425196851
0
LINE
8
BLACK
6
CONTINUOUS
10
4.0327350393700785
20
-2.6667098425196851
11
4.0363732283464566
21
-2.6735164173228347
0
LINE
8
BLACK
6
CONTINUOUS
10
4.0363732283464566
20
-2.6735164173228347
11
4.038613582677165
21
-2.680901968503937
0
LINE
8
BLACK
6
CONTINUOUS
10
4.038613582677165
20
-2.680901968503937
11
4.0393700787401574
21
-2.6885826771653543
0
LINE
8
BLACK
6
CONTINUOUS
10
4.0393700787401574
20
-2.6885826771653543
11
4.038613582677165
21
-2.6962633858267715
0
LINE
8
BLACK
6
CONTINUOUS
10
4.038613582677165
20
-2.6962633858267715
11
4.0363732283464566
21
-2.7036489370078738
0
LINE
8
BLACK
6
CONTINUOUS
10
4.0363732283464566
20
-2.7036489370078738
11
4.0327350393700785
21
-2.7104555118110234
0
LINE
8
BLACK
6
CONTINUOUS
10
4.0327350393700785
20
-2.7104555118110234
11
4.0278388582677165
21
-2.7164215354330707
0
LINE
8
BLACK
6
CONTINUOUS
10
4.0278388582677165
20
-2.7164215354330707
11
4.0218728346456691
21
-2.7213177165354332
0
LINE
8
BLACK
6
CONTINUOUS
10
4.0218728346456691
20
-2.7213177165354332
11
4.01506625984252
21
-2.7249559055118109
0
LINE
8
BLACK
6
CONTINUOUS
10
4.01506625984252
20
-2.7249559055118109
11
4.0076807086614172
21
-2.7271962598425197
0
LINE
8
BLACK
6
CONTINUOUS
10
4.0076807086614172
20
-2.7271962598425197
11
4.
21
-2.7279527559055117
0
LINE
8
BLACK
6
CONTINUOUS
10
4.
20
-2.7279527559055117
11
3.9923192913385828
21
-2.7271962598425197
0
LINE
8
BLACK
6
CONTINUOUS
10
3.9923192913385828
20
-2.7271962598425197
11
3.98493374015748
21
-2.7249559055118109
0
LINE
8
BLACK
6
CONTINUOUS
10
3.98493374015748
20
-2.7249559055118109
11
3.9781271653543304
21
-2.7213177165354332
0
LINE
8
BLACK
6
CONTINUOUS
10
3.9781271653543304
20
-2.7213177165354332
11
3.9721611417322835
21
-2.7164215354330707
0
LINE
8
BLACK
6
CONTINUOUS
10
3.9721611417322835
20
-2.7164215354330707
11
3.9672649606299211
21
-2.7104555118110234
0
LINE
8
BLACK
6
CONTINUOUS
10
3.9672649606299211
20
-2.7104555118110234
11
3.9636267716535434
21
-2.7036489370078738
0
LINE
8
BLACK
6
CONTINUOUS
10
3.9636267716535434
20
-2.7036489370078738
11
3.9613864173228346
21
-2.6962633858267715
0
LINE
8
BLACK
6
CONTINUOUS
10
3.9613864173228346
20
-2.6962633858267715
11
3.9606299212598426
21
-2.6885826771653543
0
LINE
8
BLACK
6
CONTINUOUS
10
3.9606299212598426
20
-2.6885826771653543
11
3.9613864173228346
21
-2.680901968503937
0
LINE
8
BLACK
6
CONTINUOUS
10
3.9613864173228346
20
-2.680901968503937
11
3.9636267716535434
21
-2.6735164173228347
0
LINE
8
BLACK
6
CONTINUOUS
10
3.9636267716535434
20
-2.6735164173228347
11
3.9672649606299211
21
-2.6667098425196851
0
LINE
8
BLACK
6
CONTINUOUS
10
3.9672649606299211
20
-2.6667098425196851
11
3.9721611417322835
21
-2.6607438188976378
0
LINE
8
BLACK
6
CONTINUOUS
10
3.9721611417322835
20
-2.6607438188976378
11
3.9781271653543304
21
-2.6558476377952753
0
LINE
8
BLACK
6
CONTINUOUS
10
3.9781271653543304
20
-2.6558476377952753
11
3.98493374015748
21
-2.6522094488188976
0
LINE
8
BLACK
6
CONTINUOUS
10
3.98493374015748
20
-2.6522094488188976
11
3.9923192913385828
21
-2.6499690944881888
0
LINE
8
BLACK
6
CONTINUOUS
10
3.9923192913385828
20
-2.6499690944881888
11
4.
21
-2.6492125984251969
0
LINE
8
BLACK
6
CONTINUOUS
10
4.
20
-2.6492125984251969
11
4.0076807086614172
21
-2.6499690944881888
0
LINE
8
BLACK
6
CONTINUOUS
10
3.0393700787401574
20
-2.6374999999999997
11
2.9606299212598426
21
-2.6374999999999997
0
LINE
8
BLACK
6
CONTINUOUS
10
2.9606299212598426
20
-2.6374999999999997
11
2.9606299212598426
21
-2.5625
0
LINE
8
BLACK
6
CONTINUOUS
10
2.9606299212598426
20
-2.5625
11
3.0393700787401574
21
-2.5625
0
LINE
8
BLACK
6
CONTINUOUS
10
3.0393700787401574
20
-2.5625
11
3.0393700787401574
21
-2.6374999999999997
0
LINE
8
BLACK
6
CONTINUOUS
10
5.9065705118110232
20
-2.5712127559055116
11
5.9128115354330708
21
-2.5733965748031498
0
LINE
8
BLACK
6
CONTINUOUS
10
5.9128115354330708
20
-2.5733965748031498
11
5.918410118110236
21
-2.5769144094488188
0
LINE
8
BLACK
6
CONTINUOUS
10
5.918410118110236
20
-2.5769144094488188
11
5.9230855905511808
21
-2.5815898818897636
0
LINE
8
BLACK
6
CONTINUOUS
10
5.9230855905511808
20
-2.5815898818897636
11
5.9266034251968502
21
-2.5871884645669292
0
LINE
8
BLACK
6
CONTINUOUS
10
5.9266034251968502
20
-2.5871884645669292
11
5.9287872440944884
21
-2.5934294881889763
0
LINE
8
BLACK
6
CONTINUOUS
10
5.9287872440944884
20
-2.5934294881889763
11
5.929527559055118
21
-2.6000000000000001
0
LINE
8
BLACK
6
CONTINUOUS
10
5.929527559055118
20
-2.6000000000000001
11
5.9287872440944884
21
-2.6065705118110234
0
LINE
8
BLACK
6
CONTINUOUS
10
5.9287872440944884
20
-2.6065705118110234
11
5.9266034251968502
21
-2.612811535433071
0
LINE
8
BLACK
6
CONTINUOUS
10
5.9266034251968502
20
-2.612811535433071
11
5.9230855905511808
21
-2.6184101181102362
0
LINE
8
BLACK
6
CONTINUOUS
10
5.9230855905511808
20
-2.6184101181102362
11
5.918410118110236
21
-2.623085590551181
0
LINE
8
BLACK
6
CONTINUOUS
10
5.918410118110236
20
-2.623085590551181
11
5.9128115354330708
21
-2.6266034251968504
0
LINE
8
BLACK
6
CONTINUOUS
10
5.9128115354330708
20
-2.6266034251968504
11
5.9065705118110232
21
-2.6287872440944882
0
LINE
8
BLACK
6
CONTINUOUS
10
5.9065705118110232
20
-2.6287872440944882
11
5.8999999999999995
21
-2.6295275590551181
0
LINE
8
BLACK
6
CONTINUOUS
10
5.8999999999999995
20
-2.6295275590551181
11
5.8934294881889766
21
-2.6287872440944882
0
LINE
8
BLACK
6
CONTINUOUS
10
5.8934294881889766
20
-2.6287872440944882
11
5.887188464566929
21
-2.6266034251968504
0
LINE
8
BLACK
6
CONTINUOUS
10
5.887188464566929
20
-2.6266034251968504
11
5.8815898818897638
21
-2.623085590551181
0
LINE
8
BLACK
6
CONTINUOUS
10
5.8815898818897638
20
-2.623085590551181
11
5.876914409448819
21
-2.6184101181102362
0
LINE
8
BLACK
6
CONTINUOUS
10
5.876914409448819
20
-2.6184101181102362
11
5.8733965748031496
21
-2.612811535433071
0
LINE
8
BLACK
6
CONTINUOUS
10
5.8733965748031496
20
-2.612811535433071
11
5.8712127559055114
21
-2.6065705118110234
0
LINE
8
BLACK
6
CONTINUOUS
10
5.8712127559055114
20
-2.6065705118110234
11
5.8704724409448819
21
-2.6000000000000001
0
LINE
8
BLACK
6
CONTINUOUS
10
5.8704724409448819
20
-2.6000000000000001
11
5.8712127559055114
21
-2.5934294881889763
0
LINE
8
BLACK
6
CONTINUOUS
10
5.8712127559055114
20
-2.5934294881889763
11
5.8733965748031496
21
-2.5871884645669292
0
LINE
8
BLACK
6
CONTINUOUS
10
5.8733965748031496
20
-2.5871884645669292
11
5.876914409448819
21
-2.5815898818897636
0
LINE
8
BLACK
6
CONTINUOUS
10
5.876914409448819
20
-2.5815898818897636
11
5.8815898818897638
21
-2.5769144094488188
0
LINE
8
BLACK
6
CONTINUOUS
10
5.8815898818897638
20
-2.5769144094488188
11
5.887188464566929
21
-2.5733965748031498
0
LINE
8
BLACK
6
CONTINUOUS
10
5.887188464566929
20
-2.5733965748031498
11
5.8934294881889766
21
-2.5712127559055116
0
LINE
8
BLACK
6
CONTINUOUS
10
5.8934294881889766
20
-2.5712127559055116
11
5.8999999999999995
21
-2.570472440944882
0
LINE
8
BLACK
6
CONTINUOUS
10
5.8999999999999995
20
-2.570472440944882
11
5.9065705118110232
21
-2.5712127559055116
0
LINE
8
BLACK
6
CONTINUOUS
10
6.8110207086614167
20
-2.5750932283464567
11
6.8167068110236215
21
-2.5780775196850394
0
LINE
8
BLACK
6
CONTINUOUS
10
6.8167068110236215
20
-2.5780775196850394
11
6.8215134645669293
21
-2.5823358661417322
0
LINE
8
BLACK
6
CONTINUOUS
10
6.8215134645669293
20
-2.5823358661417322
11
6.8251614173228345
21
-2.5876207874015749
0
LINE
8
BLACK
6
CONTINUOUS
10
6.8251614173228345
20
-2.5876207874015749
11
6.8274385433070863
21
-2.5936251574803149
0
LINE
8
BLACK
6
CONTINUOUS
10
6.8274385433070863
20
-2.5936251574803149
11
6.8282125984251971
21
-2.6000000000000001
0
LINE
8
BLACK
6
CONTINUOUS
10
6.8282125984251971
20
-2.6000000000000001
11
6.8274385433070863
21
-2.6063748425196849
0
LINE
8
BLACK
6
CONTINUOUS
10
6.8274385433070863
20
-2.6063748425196849
11
6.8251614173228345
21
-2.6123792125984253
0
LINE
8
BLACK
6
CONTINUOUS
10
6.8251614173228345
20
-2.6123792125984253
11
6.8215134645669293
21
-2.6176641338582676
0
LINE
8
BLACK
6
CONTINUOUS
10
6.8215134645669293
20
-2.6176641338582676
11
6.8167068110236215
21
-2.6219224803149608
0
LINE
8
BLACK
6
CONTINUOUS
10
6.8167068110236215
20
-2.6219224803149608
11
6.8110207086614167
21
-2.6249067716535435
0
LINE
8
BLACK
6
CONTINUOUS
10
6.8110207086614167
20
-2.6249067716535435
11
6.8047856299212599
21
-2.6264435826771653
0
LINE
8
BLACK
6
CONTINUOUS
10
6.8047856299212599
20
-2.6264435826771653
11
6.7983639763779529
21
-2.6264435826771653
0
LINE
8
BLACK
6
CONTINUOUS
10
6.7983639763779529
20
-2.6264435826771653
11
6.7921288976377951
21
-2.6249067716535435
0
LINE
8
BLACK
6
CONTINUOUS
10
6.7921288976377951
20
-2.6249067716535435
11
6.7864427952755904
21
-2.6219224803149608
0
LINE
8
BLACK
6
CONTINUOUS
10
6.7864427952755904
20
-2.6219224803149608
11
6.7816361417322835
21
-2.6176641338582676
0
LINE
8
BLACK
6
CONTINUOUS
10
6.7816361417322835
20
-2.6176641338582676
11
6.7779881889763782
21
-2.6123792125984253
0
LINE
8
BLACK
6
CONTINUOUS
10
6.7779881889763782
20
-2.6123792125984253
11
6.7757110629921256
21
-2.6063748425196849
0
LINE
8
BLACK
6
CONTINUOUS
10
6.7757110629921256
20
-2.6063748425196849
11
6.7749370078740156
21
-2.6000000000000001
0
LINE
8
BLACK
6
CONTINUOUS
10
6.7749370078740156
20
-2.6000000000000001
11
6.7757110629921256
21
-2.5936251574803149
0
LINE
8
BLACK
6
CONTINUOUS
10
6.7757110629921256
20
-2.5936251574803149
11
6.7779881889763782
21
-2.5876207874015749
0
LINE
8
BLACK
6
CONTINUOUS
10
6.7779881889763782
20
-2.5876207874015749
11
6.7816361417322835
21
-2.5823358661417322
0
LINE
8
BLACK
6
CONTINUOUS
10
6.7816361417322835
20
-2.5823358661417322
11
6.7864427952755904
21
-2.5780775196850394
0
LINE
8
BLACK
6
CONTINUOUS
10
6.7864427952755904
20
-2.5780775196850394
11
6.7921288976377951
21
-2.5750932283464567
0
LINE
8
BLACK
6
CONTINUOUS
10
6.7921288976377951
20
-2.5750932283464567
11
6.7983639763779529
21
-2.5735564173228345
0
LINE
8
BLACK
6
CONTINUOUS
10
6.7983639763779529
20
-2.5735564173228345
11
6.8047856299212599
21
-2.5735564173228345
0
LINE
8
BLACK
6
CONTINUOUS
10
6.8047856299212599
20
-2.5735564173228345
11
6.8110207086614167
21
-2.5750932283464567
0
LINE
8
BLACK
6
CONTINUOUS
10
7.0078711023622047
20
-2.5750932283464567
11
7.0135572047244095
21
-2.5780775196850394
0
LINE
8
BLACK
6
CONTINUOUS
10
7.0135572047244095
20
-2.5780775196850394
11
7.0183638582677164
21
-2.5823358661417322
0
LINE
8
BLACK
6
CONTINUOUS
10
7.0183638582677164
20
-2.5823358661417322
11
7.0220118110236216
21
-2.5876207874015749
0
LINE
8
BLACK
6
CONTINUOUS
10
7.0220118110236216
20
-2.5876207874015749
11
7.0242889370078743
21
-2.5936251574803149
0
LINE
8
BLACK
6
CONTINUOUS
10
7.0242889370078743
20
-2.5936251574803149
11
7.0250629921259842
21
-2.6000000000000001
0
LINE
8
BLACK
6
CONTINUOUS
10
7.0250629921259842
20
-2.6000000000000001
11
7.0242889370078743
21
-2.6063748425196849
0
LINE
8
BLACK
6
CONTINUOUS
10
7.0242889370078743
20
-2.6063748425196849
11
7.0220118110236216
21
-2.6123792125984253
0
LINE
8
BLACK
6
CONTINUOUS
10
7.0220118110236216
20
-2.6123792125984253
11
7.0183638582677164
21
-2.6176641338582676
0
LINE
8
BLACK
6
CONTINUOUS
10
7.0183638582677164
20
-2.6176641338582676
11
7.0135572047244095
21
-2.6219224803149608
0
LINE
8
BLACK
6
CONTINUOUS
10
7.0135572047244095
20
-2.6219224803149608
11
7.0078711023622047
21
-2.6249067716535435
0
LINE
8
BLACK
6
CONTINUOUS
10
7.0078711023622047
20
-2.6249067716535435
11
7.001636023622047
21
-2.6264435826771653
0
LINE
8
BLACK
6
CONTINUOUS
10
7.001636023622047
20
-2.6264435826771653
11
6.9952143700787399
21
-2.6264435826771653
0
LINE
8
BLACK
6
CONTINUOUS
10
6.9952143700787399
20
-2.6264435826771653
11
6.9889792913385822
21
-2.6249067716535435
0
LINE
8
BLACK
6
CONTINUOUS
10
6.9889792913385822
20
-2.6249067716535435
11
6.9832931889763774
21
-2.6219224803149608
0
LINE
8
BLACK
6
CONTINUOUS
10
6.9832931889763774
20
-2.6219224803149608
11
6.9784865354330705
21
-2.6176641338582676
0
LINE
8
BLACK
6
CONTINUOUS
10
6.9784865354330705
20
-2.6176641338582676
11
6.9748385826771653
21
-2.6123792125984253
0
LINE
8
BLACK
6
CONTINUOUS
10
6.9748385826771653
20
-2.6123792125984253
11
6.9725614566929135
21
-2.6063748425196849
0
LINE
8
BLACK
6
CONTINUOUS
10
6.9725614566929135
20
-2.6063748425196849
11
6.9717874015748027
21
-2.6000000000000001
0
LINE
8
BLACK
6
CONTINUOUS
10
6.9717874015748027
20
-2.6000000000000001
11
6.9725614566929135
21
-2.5936251574803149
0
LINE
8
BLACK
6
CONTINUOUS
10
6.9725614566929135
20
-2.5936251574803149
11
6.9748385826771653
21
-2.5876207874015749
0
LINE
8
BLACK
6
CONTINUOUS
10
6.9748385826771653
20
-2.5876207874015749
11
6.9784865354330705
21
-2.5823358661417322
0
LINE
8
BLACK
6
CONTINUOUS
10
6.9784865354330705
20
-2.5823358661417322
11
6.9832931889763774
21
-2.5780775196850394
0
LINE
8
BLACK
6
CONTINUOUS
10
6.9832931889763774
20
-2.5780775196850394
11
6.9889792913385822
21
-2.5750932283464567
0
LINE
8
BLACK
6
CONTINUOUS
10
6.9889792913385822
20
-2.5750932283464567
11
6.9952143700787399
21
-2.5735564173228345
0
LINE
8
BLACK
6
CONTINUOUS
10
6.9952143700787399
20
-2.5735564173228345
11
7.001636023622047
21
-2.5735564173228345
0
LINE
8
BLACK
6
CONTINUOUS
10
7.001636023622047
20
-2.5735564173228345
11
7.0078711023622047
21
-2.5750932283464567
0
LINE
8
BLACK
6
CONTINUOUS
10
3.7517751968503936
20
-2.4728037401574801
11
3.7591607480314959
21
-2.4750440944881889
0
LINE
8
BLACK
6
CONTINUOUS
10
3.7591607480314959
20
-2.4750440944881889
11
3.7659673228346455
21
-2.478682283464567
0
LINE
8
BLACK
6
CONTINUOUS
10
3.7659673228346455
20
-2.478682283464567
11
3.7719333464566929
21
-2.483578464566929
0
LINE
8
BLACK
6
CONTINUOUS
10
3.7719333464566929
20
-2.483578464566929
11
3.7768295275590549
21
-2.4895444881889763
0
LINE
8
BLACK
6
CONTINUOUS
10
3.7768295275590549
20
-2.4895444881889763
11
3.780467716535433
21
-2.4963510629921259
0
LINE
8
BLACK
6
CONTINUOUS
10
3.780467716535433
20
-2.4963510629921259
11
3.7827080708661418
21
-2.5037366141732282
0
LINE
8
BLACK
6
CONTINUOUS
10
3.7827080708661418
20
-2.5037366141732282
11
3.7834645669291338
21
-2.5114173228346455
0
LINE
8
BLACK
6
CONTINUOUS
10
3.7834645669291338
20
-2.5114173228346455
11
3.7827080708661418
21
-2.5190980314960632
0
LINE
8
BLACK
6
CONTINUOUS
10
3.7827080708661418
20
-2.5190980314960632
11
3.780467716535433
21
-2.5264835826771654
0
LINE
8
BLACK
6
CONTINUOUS
10
3.780467716535433
20
-2.5264835826771654
11
3.7768295275590549
21
-2.5332901574803151
0
LINE
8
BLACK
6
CONTINUOUS
10
3.7768295275590549
20
-2.5332901574803151
11
3.7719333464566929
21
-2.539256181102362
0
LINE
8
BLACK
6
CONTINUOUS
10
3.7719333464566929
20
-2.539256181102362
11
3.7659673228346455
21
-2.5441523622047244
0
LINE
8
BLACK
6
CONTINUOUS
10
3.7659673228346455
20
-2.5441523622047244
11
3.7591607480314959
21
-2.5477905511811021
0
LINE
8
BLACK
6
CONTINUOUS
10
3.7591607480314959
20
-2.5477905511811021
11
3.7517751968503936
21
-2.5500309055118109
0
LINE
8
BLACK
6
CONTINUOUS
10
3.7517751968503936
20
-2.5500309055118109
11
3.7440944881889764
21
-2.5507874015748029
0
LINE
8
BLACK
6
CONTINUOUS
10
3.7440944881889764
20
-2.5507874015748029
11
3.7364137795275592
21
-2.5500309055118109
0
LINE
8
BLACK
6
CONTINUOUS
10
3.7364137795275592
20
-2.5500309055118109
11
3.7290282283464564
21
-2.5477905511811021
0
LINE
8
BLACK
6
CONTINUOUS
10
3.7290282283464564
20
-2.5477905511811021
11
3.7222216535433068
21
-2.5441523622047244
0
LINE
8
BLACK
6
CONTINUOUS
10
3.7222216535433068
20
-2.5441523622047244
11
3.7162556299212599
21
-2.539256181102362
0
LINE
8
BLACK
6
CONTINUOUS
10
3.7162556299212599
20
-2.539256181102362
11
3.7113594488188975
21
-2.5332901574803151
0
LINE
8
BLACK
6
CONTINUOUS
10
3.7113594488188975
20
-2.5332901574803151
11
3.7077212598425198
21
-2.5264835826771654
0
LINE
8
BLACK
6
CONTINUOUS
10
3.7077212598425198
20
-2.5264835826771654
11
3.705480905511811
21
-2.5190980314960632
0
LINE
8
BLACK
6
CONTINUOUS
10
3.705480905511811
20
-2.5190980314960632
11
3.704724409448819
21
-2.5114173228346455
0
LINE
8
BLACK
6
CONTINUOUS
10
3.704724409448819
20
-2.5114173228346455
11
3.705480905511811
21
-2.5037366141732282
0
LINE
8
BLACK
6
CONTINUOUS
10
3.705480905511811
20
-2.5037366141732282
11
3.7077212598425198
21
-2.4963510629921259
0
LINE
8
BLACK
6
CONTINUOUS
10
3.7077212598425198
20
-2.4963510629921259
11
3.7113594488188975
21
-2.4895444881889763
0
LINE
8
BLACK
6
CONTINUOUS
10
3.7113594488188975
20
-2.4895444881889763
11
3.7162556299212599
21
-2.483578464566929
0
LINE
8
BLACK
6
CONTINUOUS
10
3.7162556299212599
20
-2.483578464566929
11
3.7222216535433068
21
-2.478682283464567
0
LINE
8
BLACK
6
CONTINUOUS
10
3.7222216535433068
20
-2.478682283464567
11
3.7290282283464564
21
-2.4750440944881889
0
LINE
8
BLACK
6
CONTINUOUS
10
3.7290282283464564
20
-2.4750440944881889
11
3.7364137795275592
21
-2.4728037401574801
0
LINE
8
BLACK
6
CONTINUOUS
10
3.7364137795275592
20
-2.4728037401574801
11
3.7440944881889764
21
-2.4720472440944881
0
LINE
8
BLACK
6
CONTINUOUS
10
3.7440944881889764
20
-2.4720472440944881
11
3.7517751968503936
21
-2.4728037401574801
0
LINE
8
BLACK
6
CONTINUOUS
10
4.0076807086614172
20
-2.4728037401574801
11
4.01506625984252
21
-2.4750440944881889
0
LINE
8
BLACK
6
CONTINUOUS
10
4.01506625984252
20
-2.4750440944881889
11
4.0218728346456691
21
-2.478682283464567
0
LINE
8
BLACK
6
CONTINUOUS
10
4.0218728346456691
20
-2.478682283464567
11
4.0278388582677165
21
-2.483578464566929
0
LINE
8
BLACK
6
CONTINUOUS
10
4.0278388582677165
20
-2.483578464566929
11
4.0327350393700785
21
-2.4895444881889763
0
LINE
8
BLACK
6
CONTINUOUS
10
4.0327350393700785
20
-2.4895444881889763
11
4.0363732283464566
21
-2.4963510629921259
0
LINE
8
BLACK
6
CONTINUOUS
10
4.0363732283464566
20
-2.4963510629921259
11
4.038613582677165
21
-2.5037366141732282
0
LINE
8
BLACK
6
CONTINUOUS
10
4.038613582677165
20
-2.5037366141732282
11
4.0393700787401574
21
-2.5114173228346455
0
LINE
8
BLACK
6
CONTINUOUS
10
4.0393700787401574
20
-2.5114173228346455
11
4.038613582677165
21
-2.5190980314960632
0
LINE
8
BLACK
6
CONTINUOUS
10
4.038613582677165
20
-2.5190980314960632
11
4.0363732283464566
21
-2.5264835826771654
0
LINE
8
BLACK
6
CONTINUOUS
10
4.0363732283464566
20
-2.5264835826771654
11
4.0327350393700785
21
-2.5332901574803151
0
LINE
8
BLACK
6
CONTINUOUS
10
4.0327350393700785
20
-2.5332901574803151
11
4.0278388582677165
21
-2.539256181102362
0
LINE
8
BLACK
6
CONTINUOUS
10
4.0278388582677165
20
-2.539256181102362
11
4.0218728346456691
21
-2.5441523622047244
0
LINE
8
BLACK
6
CONTINUOUS
10
4.0218728346456691
20
-2.5441523622047244
11
4.01506625984252
21
-2.5477905511811021
0
LINE
8
BLACK
6
CONTINUOUS
10
4.01506625984252
20
-2.5477905511811021
11
4.0076807086614172
21
-2.5500309055118109
0
LINE
8
BLACK
6
CONTINUOUS
10
4.0076807086614172
20
-2.5500309055118109
11
4.
21
-2.5507874015748029
0
LINE
8
BLACK
6
CONTINUOUS
10
4.
20
-2.5507874015748029
11
3.9923192913385828
21
-2.5500309055118109
0
LINE
8
BLACK
6
CONTINUOUS
10
3.9923192913385828
20
-2.5500309055118109
11
3.98493374015748
21
-2.5477905511811021
0
LINE
8
BLACK
6
CONTINUOUS
10
3.98493374015748
20
-2.5477905511811021
11
3.9781271653543304
21
-2.5441523622047244
0
LINE
8
BLACK
6
CONTINUOUS
10
3.9781271653543304
20
-2.5441523622047244
11
3.9721611417322835
21
-2.539256181102362
0
LINE
8
BLACK
6
CONTINUOUS
10
3.9721611417322835
20
-2.539256181102362
11
3.9672649606299211
21
-2.5332901574803151
0
LINE
8
BLACK
6
CONTINUOUS
10
3.9672649606299211
20
-2.5332901574803151
11
3.9636267716535434
21
-2.5264835826771654
0
LINE
8
BLACK
6
CONTINUOUS
10
3.9636267716535434
20
-2.5264835826771654
11
3.9613864173228346
21
-2.5190980314960632
0
LINE
8
BLACK
6
CONTINUOUS
10
3.9613864173228346
20
-2.5190980314960632
11
3.9606299212598426
21
-2.5114173228346455
0
LINE
8
BLACK
6
CONTINUOUS
10
3.9606299212598426
20
-2.5114173228346455
11
3.9613864173228346
21
-2.5037366141732282
0
LINE
8
BLACK
6
CONTINUOUS
10
3.9613864173228346
20
-2.5037366141732282
11
3.9636267716535434
21
-2.4963510629921259
0
LINE
8
BLACK
6
CONTINUOUS
10
3.9636267716535434
20
-2.4963510629921259
11
3.9672649606299211
21
-2.4895444881889763
0
LINE
8
BLACK
6
CONTINUOUS
10
3.9672649606299211
20
-2.4895444881889763
11
3.9721611417322835
21
-2.483578464566929
0
LINE
8
BLACK
6
CONTINUOUS
10
3.9721611417322835
20
-2.483578464566929
11
3.9781271653543304
21
-2.478682283464567
0
LINE
8
BLACK
6
CONTINUOUS
10
3.9781271653543304
20
-2.478682283464567
11
3.98493374015748
21
-2.4750440944881889
0
LINE
8
BLACK
6
CONTINUOUS
10
3.98493374015748
20
-2.4750440944881889
11
3.9923192913385828
21
-2.4728037401574801
0
LINE
8
BLACK
6
CONTINUOUS
10
3.9923192913385828
20
-2.4728037401574801
11
4.
21
-2.4720472440944881
0
LINE
8
BLACK
6
CONTINUOUS
10
4.
20
-2.4720472440944881
11
4.0076807086614172
21
-2.4728037401574801
  0
ENDSEC
  0
EOF
