  0
SECTION
  2
HEADER
  9
$ANGBASE
  50
0.0
  9
$ANGDIR
  70
1
  9
$MEASUREMENT
  70
0
  0
ENDSEC
  0
SECTION
  2
TABLES
  0
TABLE
  2
LTYPE
  70
4
  0
LTYPE
  5
40F
  2
CONTINUOUS
  70
0
  3
Solid line
  72
65
  73
0
  40
0.0
  0
LTYPE
  5
410
  2
DASHDOT
 70
0
  3
Dash Dot ____ _ ____ _
 72
65
 73
4
 40
2.0
 49
1.25
 49
-0.25
 49
0.25
 49
-0.25
  0
LTYPE
  5
411
  2
DASHED
 70
0
  3
Dashed __ __ __ __ __
 72
65
 73
2
 40
0.75
 49
0.5
 49
-0.25
  0
LTYPE
  5
43B
  2
DOTTED
 70
0
  3
Dotted .  .  .  .
 72
65
 73
2
 40
0.2
 49
0.0
 49
-0.2
  0
ENDTAB
  0
TABLE
  2
STYLE
  70
4
  0
STYLE
  2
KICAD
  70
0
  40
0
  41
1
  42
1
  50
0
  71
0
  3
isocp.shx
  0
STYLE
  2
KICADB
  70
0
  40
0
  41
1
  42
1
  50
0
  71
0
  3
isocp.shx
  0
STYLE
  2
KICADI
  70
0
  40
0
  41
1
  42
1
  50
15
  71
0
  3
isocp.shx
  0
STYLE
  2
KICADBI
  70
0
  40
0
  41
1
  42
1
  50
15
  71
0
  3
isocp.shx
  0
ENDTAB
  0
TABLE
  2
LAYER
  70
1
  0
LAYER
  2
BLACK
  70
0
  62
7
  6
CONTINUOUS
  0
ENDTAB
  0
ENDSEC
  0
SECTION
  2
ENTITIES
0
LINE
8
BLACK
6
CONTINUOUS
10
5.8422508267716537
20
-3.8731901574803147
11
5.8454439763779522
21
-3.87532374015748
0
LINE
8
BLACK
6
CONTINUOUS
10
5.8454439763779522
20
-3.87532374015748
11
5.847577559055118
21
-3.8785168897637794
0
LINE
8
BLACK
6
CONTINUOUS
10
5.847577559055118
20
-3.8785168897637794
11
5.848326771653543
21
-3.8822834645669291
0
LINE
8
BLACK
6
CONTINUOUS
10
5.848326771653543
20
-3.8822834645669291
11
5.848326771653543
21
-3.9177165354330707
0
LINE
8
BLACK
6
CONTINUOUS
10
5.848326771653543
20
-3.9177165354330707
11
5.847577559055118
21
-3.9214831102362204
0
LINE
8
BLACK
6
CONTINUOUS
10
5.847577559055118
20
-3.9214831102362204
11
5.8454439763779522
21
-3.9246762598425198
0
LINE
8
BLACK
6
CONTINUOUS
10
5.8454439763779522
20
-3.9246762598425198
11
5.8422508267716537
21
-3.9268098425196851
0
LINE
8
BLACK
6
CONTINUOUS
10
5.8422508267716537
20
-3.9268098425196851
11
5.8384842519685041
21
-3.9275590551181101
0
LINE
8
BLACK
6
CONTINUOUS
10
5.8384842519685041
20
-3.9275590551181101
11
5.8178149606299208
21
-3.9275590551181101
0
LINE
8
BLACK
6
CONTINUOUS
10
5.8178149606299208
20
-3.9275590551181101
11
5.8140483858267711
21
-3.9268098425196851
0
LINE
8
BLACK
6
CONTINUOUS
10
5.8140483858267711
20
-3.9268098425196851
11
5.8108552362204726
21
-3.9246762598425198
0
LINE
8
BLACK
6
CONTINUOUS
10
5.8108552362204726
20
-3.9246762598425198
11
5.8087216535433068
21
-3.9214831102362204
0
LINE
8
BLACK
6
CONTINUOUS
10
5.8087216535433068
20
-3.9214831102362204
11
5.8079724409448819
21
-3.9177165354330707
0
LINE
8
BLACK
6
CONTINUOUS
10
5.8079724409448819
20
-3.9177165354330707
11
5.8079724409448819
21
-3.8822834645669291
0
LINE
8
BLACK
6
CONTINUOUS
10
5.8079724409448819
20
-3.8822834645669291
11
5.8087216535433068
21
-3.8785168897637794
0
LINE
8
BLACK
6
CONTINUOUS
10
5.8087216535433068
20
-3.8785168897637794
11
5.8108552362204726
21
-3.87532374015748
0
LINE
8
BLACK
6
CONTINUOUS
10
5.8108552362204726
20
-3.87532374015748
11
5.8140483858267711
21
-3.8731901574803147
0
LINE
8
BLACK
6
CONTINUOUS
10
5.8140483858267711
20
-3.8731901574803147
11
5.8178149606299208
21
-3.8724409448818897
0
LINE
8
BLACK
6
CONTINUOUS
10
5.8178149606299208
20
-3.8724409448818897
11
5.8384842519685041
21
-3.8724409448818897
0
LINE
8
BLACK
6
CONTINUOUS
10
5.8384842519685041
20
-3.8724409448818897
11
5.8422508267716537
21
-3.8731901574803147
0
LINE
8
BLACK
6
CONTINUOUS
10
5.9141012204724408
20
-3.8731901574803147
11
5.9172943700787402
21
-3.87532374015748
0
LINE
8
BLACK
6
CONTINUOUS
10
5.9172943700787402
20
-3.87532374015748
11
5.9194279527559051
21
-3.8785168897637794
0
LINE
8
BLACK
6
CONTINUOUS
10
5.9194279527559051
20
-3.8785168897637794
11
5.9201771653543309
21
-3.8822834645669291
0
LINE
8
BLACK
6
CONTINUOUS
10
5.9201771653543309
20
-3.8822834645669291
11
5.9201771653543309
21
-3.9177165354330707
0
LINE
8
BLACK
6
CONTINUOUS
10
5.9201771653543309
20
-3.9177165354330707
11
5.9194279527559051
21
-3.9214831102362204
0
LINE
8
BLACK
6
CONTINUOUS
10
5.9194279527559051
20
-3.9214831102362204
11
5.9172943700787402
21
-3.9246762598425198
0
LINE
8
BLACK
6
CONTINUOUS
10
5.9172943700787402
20
-3.9246762598425198
11
5.9141012204724408
21
-3.9268098425196851
0
LINE
8
BLACK
6
CONTINUOUS
10
5.9141012204724408
20
-3.9268098425196851
11
5.9103346456692911
21
-3.9275590551181101
0
LINE
8
BLACK
6
CONTINUOUS
10
5.9103346456692911
20
-3.9275590551181101
11
5.8896653543307087
21
-3.9275590551181101
0
LINE
8
BLACK
6
CONTINUOUS
10
5.8896653543307087
20
-3.9275590551181101
11
5.885898779527559
21
-3.9268098425196851
0
LINE
8
BLACK
6
CONTINUOUS
10
5.885898779527559
20
-3.9268098425196851
11
5.8827056299212597
21
-3.9246762598425198
0
LINE
8
BLACK
6
CONTINUOUS
10
5.8827056299212597
20
-3.9246762598425198
11
5.8805720472440948
21
-3.9214831102362204
0
LINE
8
BLACK
6
CONTINUOUS
10
5.8805720472440948
20
-3.9214831102362204
11
5.8798228346456689
21
-3.9177165354330707
0
LINE
8
BLACK
6
CONTINUOUS
10
5.8798228346456689
20
-3.9177165354330707
11
5.8798228346456689
21
-3.8822834645669291
0
LINE
8
BLACK
6
CONTINUOUS
10
5.8798228346456689
20
-3.8822834645669291
11
5.8805720472440948
21
-3.8785168897637794
0
LINE
8
BLACK
6
CONTINUOUS
10
5.8805720472440948
20
-3.8785168897637794
11
5.8827056299212597
21
-3.87532374015748
0
LINE
8
BLACK
6
CONTINUOUS
10
5.8827056299212597
20
-3.87532374015748
11
5.885898779527559
21
-3.8731901574803147
0
LINE
8
BLACK
6
CONTINUOUS
10
5.885898779527559
20
-3.8731901574803147
11
5.8896653543307087
21
-3.8724409448818897
0
LINE
8
BLACK
6
CONTINUOUS
10
5.8896653543307087
20
-3.8724409448818897
11
5.9103346456692911
21
-3.8724409448818897
0
LINE
8
BLACK
6
CONTINUOUS
10
5.9103346456692911
20
-3.8724409448818897
11
5.9141012204724408
21
-3.8731901574803147
0
LINE
8
BLACK
6
CONTINUOUS
10
6.9763594094488184
20
-3.8731714173228347
11
6.9794727165354331
21
-3.8752516929133858
0
LINE
8
BLACK
6
CONTINUOUS
10
6.9794727165354331
20
-3.8752516929133858
11
6.9815529921259838
21
-3.8783650000000001
0
LINE
8
BLACK
6
CONTINUOUS
10
6.9815529921259838
20
-3.8783650000000001
11
6.9822834645669287
21
-3.8820374015748031
0
LINE
8
BLACK
6
CONTINUOUS
10
6.9822834645669287
20
-3.8820374015748031
11
6.9822834645669287
21
-3.9179625984251967
0
LINE
8
BLACK
6
CONTINUOUS
10
6.9822834645669287
20
-3.9179625984251967
11
6.9815529921259838
21
-3.9216349999999998
0
LINE
8
BLACK
6
CONTINUOUS
10
6.9815529921259838
20
-3.9216349999999998
11
6.9794727165354331
21
-3.924748307086614
0
LINE
8
BLACK
6
CONTINUOUS
10
6.9794727165354331
20
-3.924748307086614
11
6.9763594094488184
21
-3.9268285826771652
0
LINE
8
BLACK
6
CONTINUOUS
10
6.9763594094488184
20
-3.9268285826771652
11
6.9726870078740157
21
-3.9275590551181101
0
LINE
8
BLACK
6
CONTINUOUS
10
6.9726870078740157
20
-3.9275590551181101
11
6.9534940944881889
21
-3.9275590551181101
0
LINE
8
BLACK
6
CONTINUOUS
10
6.9534940944881889
20
-3.9275590551181101
11
6.9498216929133854
21
-3.9268285826771652
0
LINE
8
BLACK
6
CONTINUOUS
10
6.9498216929133854
20
-3.9268285826771652
11
6.9467083858267715
21
-3.924748307086614
0
LINE
8
BLACK
6
CONTINUOUS
10
6.9467083858267715
20
-3.924748307086614
11
6.94462811023622
21
-3.9216349999999998
0
LINE
8
BLACK
6
CONTINUOUS
10
6.94462811023622
20
-3.9216349999999998
11
6.943897637795275
21
-3.9179625984251967
0
LINE
8
BLACK
6
CONTINUOUS
10
6.943897637795275
20
-3.9179625984251967
11
6.943897637795275
21
-3.8820374015748031
0
LINE
8
BLACK
6
CONTINUOUS
10
6.943897637795275
20
-3.8820374015748031
11
6.94462811023622
21
-3.8783650000000001
0
LINE
8
BLACK
6
CONTINUOUS
10
6.94462811023622
20
-3.8783650000000001
11
6.9467083858267715
21
-3.8752516929133858
0
LINE
8
BLACK
6
CONTINUOUS
10
6.9467083858267715
20
-3.8752516929133858
11
6.9498216929133854
21
-3.8731714173228347
0
LINE
8
BLACK
6
CONTINUOUS
10
6.9498216929133854
20
-3.8731714173228347
11
6.9534940944881889
21
-3.8724409448818897
0
LINE
8
BLACK
6
CONTINUOUS
10
6.9534940944881889
20
-3.8724409448818897
11
6.9726870078740157
21
-3.8724409448818897
0
LINE
8
BLACK
6
CONTINUOUS
10
6.9726870078740157
20
-3.8724409448818897
11
6.9763594094488184
21
-3.8731714173228347
0
LINE
8
BLACK
6
CONTINUOUS
10
7.0501783070866137
20
-3.8731714173228347
11
7.0532916141732285
21
-3.8752516929133858
0
LINE
8
BLACK
6
CONTINUOUS
10
7.0532916141732285
20
-3.8752516929133858
11
7.0553718897637792
21
-3.8783650000000001
0
LINE
8
BLACK
6
CONTINUOUS
10
7.0553718897637792
20
-3.8783650000000001
11
7.0561023622047241
21
-3.8820374015748031
0
LINE
8
BLACK
6
CONTINUOUS
10
7.0561023622047241
20
-3.8820374015748031
11
7.0561023622047241
21
-3.9179625984251967
0
LINE
8
BLACK
6
CONTINUOUS
10
7.0561023622047241
20
-3.9179625984251967
11
7.0553718897637792
21
-3.9216349999999998
0
LINE
8
BLACK
6
CONTINUOUS
10
7.0553718897637792
20
-3.9216349999999998
11
7.0532916141732285
21
-3.924748307086614
0
LINE
8
BLACK
6
CONTINUOUS
10
7.0532916141732285
20
-3.924748307086614
11
7.0501783070866137
21
-3.9268285826771652
0
LINE
8
BLACK
6
CONTINUOUS
10
7.0501783070866137
20
-3.9268285826771652
11
7.0465059055118111
21
-3.9275590551181101
0
LINE
8
BLACK
6
CONTINUOUS
10
7.0465059055118111
20
-3.9275590551181101
11
7.0273129921259843
21
-3.9275590551181101
0
LINE
8
BLACK
6
CONTINUOUS
10
7.0273129921259843
20
-3.9275590551181101
11
7.0236405905511807
21
-3.9268285826771652
0
LINE
8
BLACK
6
CONTINUOUS
10
7.0236405905511807
20
-3.9268285826771652
11
7.0205272834645669
21
-3.924748307086614
0
LINE
8
BLACK
6
CONTINUOUS
10
7.0205272834645669
20
-3.924748307086614
11
7.0184470078740153
21
-3.9216349999999998
0
LINE
8
BLACK
6
CONTINUOUS
10
7.0184470078740153
20
-3.9216349999999998
11
7.0177165354330704
21
-3.9179625984251967
0
LINE
8
BLACK
6
CONTINUOUS
10
7.0177165354330704
20
-3.9179625984251967
11
7.0177165354330704
21
-3.8820374015748031
0
LINE
8
BLACK
6
CONTINUOUS
10
7.0177165354330704
20
-3.8820374015748031
11
7.0184470078740153
21
-3.8783650000000001
0
LINE
8
BLACK
6
CONTINUOUS
10
7.0184470078740153
20
-3.8783650000000001
11
7.0205272834645669
21
-3.8752516929133858
0
LINE
8
BLACK
6
CONTINUOUS
10
7.0205272834645669
20
-3.8752516929133858
11
7.0236405905511807
21
-3.8731714173228347
0
LINE
8
BLACK
6
CONTINUOUS
10
7.0236405905511807
20
-3.8731714173228347
11
7.0273129921259843
21
-3.8724409448818897
0
LINE
8
BLACK
6
CONTINUOUS
10
7.0273129921259843
20
-3.8724409448818897
11
7.0465059055118111
21
-3.8724409448818897
0
LINE
8
BLACK
6
CONTINUOUS
10
7.0465059055118111
20
-3.8724409448818897
11
7.0501783070866137
21
-3.8731714173228347
0
LINE
8
BLACK
6
CONTINUOUS
10
5.8422508267716537
20
-3.7731901574803151
11
5.8454439763779522
21
-3.7753237401574804
0
LINE
8
BLACK
6
CONTINUOUS
10
5.8454439763779522
20
-3.7753237401574804
11
5.847577559055118
21
-3.7785168897637793
0
LINE
8
BLACK
6
CONTINUOUS
10
5.847577559055118
20
-3.7785168897637793
11
5.848326771653543
21
-3.782283464566929
0
LINE
8
BLACK
6
CONTINUOUS
10
5.848326771653543
20
-3.782283464566929
11
5.848326771653543
21
-3.8177165354330707
0
LINE
8
BLACK
6
CONTINUOUS
10
5.848326771653543
20
-3.8177165354330707
11
5.847577559055118
21
-3.8214831102362203
0
LINE
8
BLACK
6
CONTINUOUS
10
5.847577559055118
20
-3.8214831102362203
11
5.8454439763779522
21
-3.8246762598425197
0
LINE
8
BLACK
6
CONTINUOUS
10
5.8454439763779522
20
-3.8246762598425197
11
5.8422508267716537
21
-3.826809842519685
0
LINE
8
BLACK
6
CONTINUOUS
10
5.8422508267716537
20
-3.826809842519685
11
5.8384842519685041
21
-3.82755905511811
0
LINE
8
BLACK
6
CONTINUOUS
10
5.8384842519685041
20
-3.82755905511811
11
5.8178149606299208
21
-3.82755905511811
0
LINE
8
BLACK
6
CONTINUOUS
10
5.8178149606299208
20
-3.82755905511811
11
5.8140483858267711
21
-3.826809842519685
0
LINE
8
BLACK
6
CONTINUOUS
10
5.8140483858267711
20
-3.826809842519685
11
5.8108552362204726
21
-3.8246762598425197
0
LINE
8
BLACK
6
CONTINUOUS
10
5.8108552362204726
20
-3.8246762598425197
11
5.8087216535433068
21
-3.8214831102362203
0
LINE
8
BLACK
6
CONTINUOUS
10
5.8087216535433068
20
-3.8214831102362203
11
5.8079724409448819
21
-3.8177165354330707
0
LINE
8
BLACK
6
CONTINUOUS
10
5.8079724409448819
20
-3.8177165354330707
11
5.8079724409448819
21
-3.782283464566929
0
LINE
8
BLACK
6
CONTINUOUS
10
5.8079724409448819
20
-3.782283464566929
11
5.8087216535433068
21
-3.7785168897637793
0
LINE
8
BLACK
6
CONTINUOUS
10
5.8087216535433068
20
-3.7785168897637793
11
5.8108552362204726
21
-3.7753237401574804
0
LINE
8
BLACK
6
CONTINUOUS
10
5.8108552362204726
20
-3.7753237401574804
11
5.8140483858267711
21
-3.7731901574803151
0
LINE
8
BLACK
6
CONTINUOUS
10
5.8140483858267711
20
-3.7731901574803151
11
5.8178149606299208
21
-3.7724409448818896
0
LINE
8
BLACK
6
CONTINUOUS
10
5.8178149606299208
20
-3.7724409448818896
11
5.8384842519685041
21
-3.7724409448818896
0
LINE
8
BLACK
6
CONTINUOUS
10
5.8384842519685041
20
-3.7724409448818896
11
5.8422508267716537
21
-3.7731901574803151
0
LINE
8
BLACK
6
CONTINUOUS
10
5.9141012204724408
20
-3.7731901574803151
11
5.9172943700787402
21
-3.7753237401574804
0
LINE
8
BLACK
6
CONTINUOUS
10
5.9172943700787402
20
-3.7753237401574804
11
5.9194279527559051
21
-3.7785168897637793
0
LINE
8
BLACK
6
CONTINUOUS
10
5.9194279527559051
20
-3.7785168897637793
11
5.9201771653543309
21
-3.782283464566929
0
LINE
8
BLACK
6
CONTINUOUS
10
5.9201771653543309
20
-3.782283464566929
11
5.9201771653543309
21
-3.8177165354330707
0
LINE
8
BLACK
6
CONTINUOUS
10
5.9201771653543309
20
-3.8177165354330707
11
5.9194279527559051
21
-3.8214831102362203
0
LINE
8
BLACK
6
CONTINUOUS
10
5.9194279527559051
20
-3.8214831102362203
11
5.9172943700787402
21
-3.8246762598425197
0
LINE
8
BLACK
6
CONTINUOUS
10
5.9172943700787402
20
-3.8246762598425197
11
5.9141012204724408
21
-3.826809842519685
0
LINE
8
BLACK
6
CONTINUOUS
10
5.9141012204724408
20
-3.826809842519685
11
5.9103346456692911
21
-3.82755905511811
0
LINE
8
BLACK
6
CONTINUOUS
10
5.9103346456692911
20
-3.82755905511811
11
5.8896653543307087
21
-3.82755905511811
0
LINE
8
BLACK
6
CONTINUOUS
10
5.8896653543307087
20
-3.82755905511811
11
5.885898779527559
21
-3.826809842519685
0
LINE
8
BLACK
6
CONTINUOUS
10
5.885898779527559
20
-3.826809842519685
11
5.8827056299212597
21
-3.8246762598425197
0
LINE
8
BLACK
6
CONTINUOUS
10
5.8827056299212597
20
-3.8246762598425197
11
5.8805720472440948
21
-3.8214831102362203
0
LINE
8
BLACK
6
CONTINUOUS
10
5.8805720472440948
20
-3.8214831102362203
11
5.8798228346456689
21
-3.8177165354330707
0
LINE
8
BLACK
6
CONTINUOUS
10
5.8798228346456689
20
-3.8177165354330707
11
5.8798228346456689
21
-3.782283464566929
0
LINE
8
BLACK
6
CONTINUOUS
10
5.8798228346456689
20
-3.782283464566929
11
5.8805720472440948
21
-3.7785168897637793
0
LINE
8
BLACK
6
CONTINUOUS
10
5.8805720472440948
20
-3.7785168897637793
11
5.8827056299212597
21
-3.7753237401574804
0
LINE
8
BLACK
6
CONTINUOUS
10
5.8827056299212597
20
-3.7753237401574804
11
5.885898779527559
21
-3.7731901574803151
0
LINE
8
BLACK
6
CONTINUOUS
10
5.885898779527559
20
-3.7731901574803151
11
5.8896653543307087
21
-3.7724409448818896
0
LINE
8
BLACK
6
CONTINUOUS
10
5.8896653543307087
20
-3.7724409448818896
11
5.9103346456692911
21
-3.7724409448818896
0
LINE
8
BLACK
6
CONTINUOUS
10
5.9103346456692911
20
-3.7724409448818896
11
5.9141012204724408
21
-3.7731901574803151
0
LINE
8
BLACK
6
CONTINUOUS
10
6.9763594094488184
20
-3.7731714173228346
11
6.9794727165354331
21
-3.7752516929133857
0
LINE
8
BLACK
6
CONTINUOUS
10
6.9794727165354331
20
-3.7752516929133857
11
6.9815529921259838
21
-3.778365
0
LINE
8
BLACK
6
CONTINUOUS
10
6.9815529921259838
20
-3.778365
11
6.9822834645669287
21
-3.7820374015748031
0
LINE
8
BLACK
6
CONTINUOUS
10
6.9822834645669287
20
-3.7820374015748031
11
6.9822834645669287
21
-3.8179625984251966
0
LINE
8
BLACK
6
CONTINUOUS
10
6.9822834645669287
20
-3.8179625984251966
11
6.9815529921259838
21
-3.8216350000000001
0
LINE
8
BLACK
6
CONTINUOUS
10
6.9815529921259838
20
-3.8216350000000001
11
6.9794727165354331
21
-3.824748307086614
0
LINE
8
BLACK
6
CONTINUOUS
10
6.9794727165354331
20
-3.824748307086614
11
6.9763594094488184
21
-3.8268285826771651
0
LINE
8
BLACK
6
CONTINUOUS
10
6.9763594094488184
20
-3.8268285826771651
11
6.9726870078740157
21
-3.82755905511811
0
LINE
8
BLACK
6
CONTINUOUS
10
6.9726870078740157
20
-3.82755905511811
11
6.9534940944881889
21
-3.82755905511811
0
LINE
8
BLACK
6
CONTINUOUS
10
6.9534940944881889
20
-3.82755905511811
11
6.9498216929133854
21
-3.8268285826771651
0
LINE
8
BLACK
6
CONTINUOUS
10
6.9498216929133854
20
-3.8268285826771651
11
6.9467083858267715
21
-3.824748307086614
0
LINE
8
BLACK
6
CONTINUOUS
10
6.9467083858267715
20
-3.824748307086614
11
6.94462811023622
21
-3.8216350000000001
0
LINE
8
BLACK
6
CONTINUOUS
10
6.94462811023622
20
-3.8216350000000001
11
6.943897637795275
21
-3.8179625984251966
0
LINE
8
BLACK
6
CONTINUOUS
10
6.943897637795275
20
-3.8179625984251966
11
6.943897637795275
21
-3.7820374015748031
0
LINE
8
BLACK
6
CONTINUOUS
10
6.943897637795275
20
-3.7820374015748031
11
6.94462811023622
21
-3.778365
0
LINE
8
BLACK
6
CONTINUOUS
10
6.94462811023622
20
-3.778365
11
6.9467083858267715
21
-3.7752516929133857
0
LINE
8
BLACK
6
CONTINUOUS
10
6.9467083858267715
20
-3.7752516929133857
11
6.9498216929133854
21
-3.7731714173228346
0
LINE
8
BLACK
6
CONTINUOUS
10
6.9498216929133854
20
-3.7731714173228346
11
6.9534940944881889
21
-3.7724409448818896
0
LINE
8
BLACK
6
CONTINUOUS
10
6.9534940944881889
20
-3.7724409448818896
11
6.9726870078740157
21
-3.7724409448818896
0
LINE
8
BLACK
6
CONTINUOUS
10
6.9726870078740157
20
-3.7724409448818896
11
6.9763594094488184
21
-3.7731714173228346
0
LINE
8
BLACK
6
CONTINUOUS
10
7.0501783070866137
20
-3.7731714173228346
11
7.0532916141732285
21
-3.7752516929133857
0
LINE
8
BLACK
6
CONTINUOUS
10
7.0532916141732285
20
-3.7752516929133857
11
7.0553718897637792
21
-3.778365
0
LINE
8
BLACK
6
CONTINUOUS
10
7.0553718897637792
20
-3.778365
11
7.0561023622047241
21
-3.7820374015748031
0
LINE
8
BLACK
6
CONTINUOUS
10
7.0561023622047241
20
-3.7820374015748031
11
7.0561023622047241
21
-3.8179625984251966
0
LINE
8
BLACK
6
CONTINUOUS
10
7.0561023622047241
20
-3.8179625984251966
11
7.0553718897637792
21
-3.8216350000000001
0
LINE
8
BLACK
6
CONTINUOUS
10
7.0553718897637792
20
-3.8216350000000001
11
7.0532916141732285
21
-3.824748307086614
0
LINE
8
BLACK
6
CONTINUOUS
10
7.0532916141732285
20
-3.824748307086614
11
7.0501783070866137
21
-3.8268285826771651
0
LINE
8
BLACK
6
CONTINUOUS
10
7.0501783070866137
20
-3.8268285826771651
11
7.0465059055118111
21
-3.82755905511811
0
LINE
8
BLACK
6
CONTINUOUS
10
7.0465059055118111
20
-3.82755905511811
11
7.0273129921259843
21
-3.82755905511811
0
LINE
8
BLACK
6
CONTINUOUS
10
7.0273129921259843
20
-3.82755905511811
11
7.0236405905511807
21
-3.8268285826771651
0
LINE
8
BLACK
6
CONTINUOUS
10
7.0236405905511807
20
-3.8268285826771651
11
7.0205272834645669
21
-3.824748307086614
0
LINE
8
BLACK
6
CONTINUOUS
10
7.0205272834645669
20
-3.824748307086614
11
7.0184470078740153
21
-3.8216350000000001
0
LINE
8
BLACK
6
CONTINUOUS
10
7.0184470078740153
20
-3.8216350000000001
11
7.0177165354330704
21
-3.8179625984251966
0
LINE
8
BLACK
6
CONTINUOUS
10
7.0177165354330704
20
-3.8179625984251966
11
7.0177165354330704
21
-3.7820374015748031
0
LINE
8
BLACK
6
CONTINUOUS
10
7.0177165354330704
20
-3.7820374015748031
11
7.0184470078740153
21
-3.778365
0
LINE
8
BLACK
6
CONTINUOUS
10
7.0184470078740153
20
-3.778365
11
7.0205272834645669
21
-3.7752516929133857
0
LINE
8
BLACK
6
CONTINUOUS
10
7.0205272834645669
20
-3.7752516929133857
11
7.0236405905511807
21
-3.7731714173228346
0
LINE
8
BLACK
6
CONTINUOUS
10
7.0236405905511807
20
-3.7731714173228346
11
7.0273129921259843
21
-3.7724409448818896
0
LINE
8
BLACK
6
CONTINUOUS
10
7.0273129921259843
20
-3.7724409448818896
11
7.0465059055118111
21
-3.7724409448818896
0
LINE
8
BLACK
6
CONTINUOUS
10
7.0465059055118111
20
-3.7724409448818896
11
7.0501783070866137
21
-3.7731714173228346
0
LINE
8
BLACK
6
CONTINUOUS
10
5.8422508267716537
20
-3.673190157480315
11
5.8454439763779522
21
-3.6753237401574803
0
LINE
8
BLACK
6
CONTINUOUS
10
5.8454439763779522
20
-3.6753237401574803
11
5.847577559055118
21
-3.6785168897637797
0
LINE
8
BLACK
6
CONTINUOUS
10
5.847577559055118
20
-3.6785168897637797
11
5.848326771653543
21
-3.6822834645669289
0
LINE
8
BLACK
6
CONTINUOUS
10
5.848326771653543
20
-3.6822834645669289
11
5.848326771653543
21
-3.7177165354330706
0
LINE
8
BLACK
6
CONTINUOUS
10
5.848326771653543
20
-3.7177165354330706
11
5.847577559055118
21
-3.7214831102362202
0
LINE
8
BLACK
6
CONTINUOUS
10
5.847577559055118
20
-3.7214831102362202
11
5.8454439763779522
21
-3.7246762598425196
0
LINE
8
BLACK
6
CONTINUOUS
10
5.8454439763779522
20
-3.7246762598425196
11
5.8422508267716537
21
-3.7268098425196849
0
LINE
8
BLACK
6
CONTINUOUS
10
5.8422508267716537
20
-3.7268098425196849
11
5.8384842519685041
21
-3.7275590551181104
0
LINE
8
BLACK
6
CONTINUOUS
10
5.8384842519685041
20
-3.7275590551181104
11
5.8178149606299208
21
-3.7275590551181104
0
LINE
8
BLACK
6
CONTINUOUS
10
5.8178149606299208
20
-3.7275590551181104
11
5.8140483858267711
21
-3.7268098425196849
0
LINE
8
BLACK
6
CONTINUOUS
10
5.8140483858267711
20
-3.7268098425196849
11
5.8108552362204726
21
-3.7246762598425196
0
LINE
8
BLACK
6
CONTINUOUS
10
5.8108552362204726
20
-3.7246762598425196
11
5.8087216535433068
21
-3.7214831102362202
0
LINE
8
BLACK
6
CONTINUOUS
10
5.8087216535433068
20
-3.7214831102362202
11
5.8079724409448819
21
-3.7177165354330706
0
LINE
8
BLACK
6
CONTINUOUS
10
5.8079724409448819
20
-3.7177165354330706
11
5.8079724409448819
21
-3.6822834645669289
0
LINE
8
BLACK
6
CONTINUOUS
10
5.8079724409448819
20
-3.6822834645669289
11
5.8087216535433068
21
-3.6785168897637797
0
LINE
8
BLACK
6
CONTINUOUS
10
5.8087216535433068
20
-3.6785168897637797
11
5.8108552362204726
21
-3.6753237401574803
0
LINE
8
BLACK
6
CONTINUOUS
10
5.8108552362204726
20
-3.6753237401574803
11
5.8140483858267711
21
-3.673190157480315
0
LINE
8
BLACK
6
CONTINUOUS
10
5.8140483858267711
20
-3.673190157480315
11
5.8178149606299208
21
-3.6724409448818895
0
LINE
8
BLACK
6
CONTINUOUS
10
5.8178149606299208
20
-3.6724409448818895
11
5.8384842519685041
21
-3.6724409448818895
0
LINE
8
BLACK
6
CONTINUOUS
10
5.8384842519685041
20
-3.6724409448818895
11
5.8422508267716537
21
-3.673190157480315
0
LINE
8
BLACK
6
CONTINUOUS
10
5.9141012204724408
20
-3.673190157480315
11
5.9172943700787402
21
-3.6753237401574803
0
LINE
8
BLACK
6
CONTINUOUS
10
5.9172943700787402
20
-3.6753237401574803
11
5.9194279527559051
21
-3.6785168897637797
0
LINE
8
BLACK
6
CONTINUOUS
10
5.9194279527559051
20
-3.6785168897637797
11
5.9201771653543309
21
-3.6822834645669289
0
LINE
8
BLACK
6
CONTINUOUS
10
5.9201771653543309
20
-3.6822834645669289
11
5.9201771653543309
21
-3.7177165354330706
0
LINE
8
BLACK
6
CONTINUOUS
10
5.9201771653543309
20
-3.7177165354330706
11
5.9194279527559051
21
-3.7214831102362202
0
LINE
8
BLACK
6
CONTINUOUS
10
5.9194279527559051
20
-3.7214831102362202
11
5.9172943700787402
21
-3.7246762598425196
0
LINE
8
BLACK
6
CONTINUOUS
10
5.9172943700787402
20
-3.7246762598425196
11
5.9141012204724408
21
-3.7268098425196849
0
LINE
8
BLACK
6
CONTINUOUS
10
5.9141012204724408
20
-3.7268098425196849
11
5.9103346456692911
21
-3.7275590551181104
0
LINE
8
BLACK
6
CONTINUOUS
10
5.9103346456692911
20
-3.7275590551181104
11
5.8896653543307087
21
-3.7275590551181104
0
LINE
8
BLACK
6
CONTINUOUS
10
5.8896653543307087
20
-3.7275590551181104
11
5.885898779527559
21
-3.7268098425196849
0
LINE
8
BLACK
6
CONTINUOUS
10
5.885898779527559
20
-3.7268098425196849
11
5.8827056299212597
21
-3.7246762598425196
0
LINE
8
BLACK
6
CONTINUOUS
10
5.8827056299212597
20
-3.7246762598425196
11
5.8805720472440948
21
-3.7214831102362202
0
LINE
8
BLACK
6
CONTINUOUS
10
5.8805720472440948
20
-3.7214831102362202
11
5.8798228346456689
21
-3.7177165354330706
0
LINE
8
BLACK
6
CONTINUOUS
10
5.8798228346456689
20
-3.7177165354330706
11
5.8798228346456689
21
-3.6822834645669289
0
LINE
8
BLACK
6
CONTINUOUS
10
5.8798228346456689
20
-3.6822834645669289
11
5.8805720472440948
21
-3.6785168897637797
0
LINE
8
BLACK
6
CONTINUOUS
10
5.8805720472440948
20
-3.6785168897637797
11
5.8827056299212597
21
-3.6753237401574803
0
LINE
8
BLACK
6
CONTINUOUS
10
5.8827056299212597
20
-3.6753237401574803
11
5.885898779527559
21
-3.673190157480315
0
LINE
8
BLACK
6
CONTINUOUS
10
5.885898779527559
20
-3.673190157480315
11
5.8896653543307087
21
-3.6724409448818895
0
LINE
8
BLACK
6
CONTINUOUS
10
5.8896653543307087
20
-3.6724409448818895
11
5.9103346456692911
21
-3.6724409448818895
0
LINE
8
BLACK
6
CONTINUOUS
10
5.9103346456692911
20
-3.6724409448818895
11
5.9141012204724408
21
-3.673190157480315
0
LINE
8
BLACK
6
CONTINUOUS
10
6.9763594094488184
20
-3.6731714173228345
11
6.9794727165354331
21
-3.6752516929133856
0
LINE
8
BLACK
6
CONTINUOUS
10
6.9794727165354331
20
-3.6752516929133856
11
6.9815529921259838
21
-3.6783649999999999
0
LINE
8
BLACK
6
CONTINUOUS
10
6.9815529921259838
20
-3.6783649999999999
11
6.9822834645669287
21
-3.682037401574803
0
LINE
8
BLACK
6
CONTINUOUS
10
6.9822834645669287
20
-3.682037401574803
11
6.9822834645669287
21
-3.7179625984251969
0
LINE
8
BLACK
6
CONTINUOUS
10
6.9822834645669287
20
-3.7179625984251969
11
6.9815529921259838
21
-3.721635
0
LINE
8
BLACK
6
CONTINUOUS
10
6.9815529921259838
20
-3.721635
11
6.9794727165354331
21
-3.7247483070866143
0
LINE
8
BLACK
6
CONTINUOUS
10
6.9794727165354331
20
-3.7247483070866143
11
6.9763594094488184
21
-3.7268285826771654
0
LINE
8
BLACK
6
CONTINUOUS
10
6.9763594094488184
20
-3.7268285826771654
11
6.9726870078740157
21
-3.7275590551181104
0
LINE
8
BLACK
6
CONTINUOUS
10
6.9726870078740157
20
-3.7275590551181104
11
6.9534940944881889
21
-3.7275590551181104
0
LINE
8
BLACK
6
CONTINUOUS
10
6.9534940944881889
20
-3.7275590551181104
11
6.9498216929133854
21
-3.7268285826771654
0
LINE
8
BLACK
6
CONTINUOUS
10
6.9498216929133854
20
-3.7268285826771654
11
6.9467083858267715
21
-3.7247483070866143
0
LINE
8
BLACK
6
CONTINUOUS
10
6.9467083858267715
20
-3.7247483070866143
11
6.94462811023622
21
-3.721635
0
LINE
8
BLACK
6
CONTINUOUS
10
6.94462811023622
20
-3.721635
11
6.943897637795275
21
-3.7179625984251969
0
LINE
8
BLACK
6
CONTINUOUS
10
6.943897637795275
20
-3.7179625984251969
11
6.943897637795275
21
-3.682037401574803
0
LINE
8
BLACK
6
CONTINUOUS
10
6.943897637795275
20
-3.682037401574803
11
6.94462811023622
21
-3.6783649999999999
0
LINE
8
BLACK
6
CONTINUOUS
10
6.94462811023622
20
-3.6783649999999999
11
6.9467083858267715
21
-3.6752516929133856
0
LINE
8
BLACK
6
CONTINUOUS
10
6.9467083858267715
20
-3.6752516929133856
11
6.9498216929133854
21
-3.6731714173228345
0
LINE
8
BLACK
6
CONTINUOUS
10
6.9498216929133854
20
-3.6731714173228345
11
6.9534940944881889
21
-3.6724409448818895
0
LINE
8
BLACK
6
CONTINUOUS
10
6.9534940944881889
20
-3.6724409448818895
11
6.9726870078740157
21
-3.6724409448818895
0
LINE
8
BLACK
6
CONTINUOUS
10
6.9726870078740157
20
-3.6724409448818895
11
6.9763594094488184
21
-3.6731714173228345
0
LINE
8
BLACK
6
CONTINUOUS
10
7.0501783070866137
20
-3.6731714173228345
11
7.0532916141732285
21
-3.6752516929133856
0
LINE
8
BLACK
6
CONTINUOUS
10
7.0532916141732285
20
-3.6752516929133856
11
7.0553718897637792
21
-3.6783649999999999
0
LINE
8
BLACK
6
CONTINUOUS
10
7.0553718897637792
20
-3.6783649999999999
11
7.0561023622047241
21
-3.682037401574803
0
LINE
8
BLACK
6
CONTINUOUS
10
7.0561023622047241
20
-3.682037401574803
11
7.0561023622047241
21
-3.7179625984251969
0
LINE
8
BLACK
6
CONTINUOUS
10
7.0561023622047241
20
-3.7179625984251969
11
7.0553718897637792
21
-3.721635
0
LINE
8
BLACK
6
CONTINUOUS
10
7.0553718897637792
20
-3.721635
11
7.0532916141732285
21
-3.7247483070866143
0
LINE
8
BLACK
6
CONTINUOUS
10
7.0532916141732285
20
-3.7247483070866143
11
7.0501783070866137
21
-3.7268285826771654
0
LINE
8
BLACK
6
CONTINUOUS
10
7.0501783070866137
20
-3.7268285826771654
11
7.0465059055118111
21
-3.7275590551181104
0
LINE
8
BLACK
6
CONTINUOUS
10
7.0465059055118111
20
-3.7275590551181104
11
7.0273129921259843
21
-3.7275590551181104
0
LINE
8
BLACK
6
CONTINUOUS
10
7.0273129921259843
20
-3.7275590551181104
11
7.0236405905511807
21
-3.7268285826771654
0
LINE
8
BLACK
6
CONTINUOUS
10
7.0236405905511807
20
-3.7268285826771654
11
7.0205272834645669
21
-3.7247483070866143
0
LINE
8
BLACK
6
CONTINUOUS
10
7.0205272834645669
20
-3.7247483070866143
11
7.0184470078740153
21
-3.721635
0
LINE
8
BLACK
6
CONTINUOUS
10
7.0184470078740153
20
-3.721635
11
7.0177165354330704
21
-3.7179625984251969
0
LINE
8
BLACK
6
CONTINUOUS
10
7.0177165354330704
20
-3.7179625984251969
11
7.0177165354330704
21
-3.682037401574803
0
LINE
8
BLACK
6
CONTINUOUS
10
7.0177165354330704
20
-3.682037401574803
11
7.0184470078740153
21
-3.6783649999999999
0
LINE
8
BLACK
6
CONTINUOUS
10
7.0184470078740153
20
-3.6783649999999999
11
7.0205272834645669
21
-3.6752516929133856
0
LINE
8
BLACK
6
CONTINUOUS
10
7.0205272834645669
20
-3.6752516929133856
11
7.0236405905511807
21
-3.6731714173228345
0
LINE
8
BLACK
6
CONTINUOUS
10
7.0236405905511807
20
-3.6731714173228345
11
7.0273129921259843
21
-3.6724409448818895
0
LINE
8
BLACK
6
CONTINUOUS
10
7.0273129921259843
20
-3.6724409448818895
11
7.0465059055118111
21
-3.6724409448818895
0
LINE
8
BLACK
6
CONTINUOUS
10
7.0465059055118111
20
-3.6724409448818895
11
7.0501783070866137
21
-3.6731714173228345
0
LINE
8
BLACK
6
CONTINUOUS
10
5.8422508267716537
20
-3.5731901574803149
11
5.8454439763779522
21
-3.5753237401574802
0
LINE
8
BLACK
6
CONTINUOUS
10
5.8454439763779522
20
-3.5753237401574802
11
5.847577559055118
21
-3.5785168897637796
0
LINE
8
BLACK
6
CONTINUOUS
10
5.847577559055118
20
-3.5785168897637796
11
5.848326771653543
21
-3.5822834645669293
0
LINE
8
BLACK
6
CONTINUOUS
10
5.848326771653543
20
-3.5822834645669293
11
5.848326771653543
21
-3.6177165354330709
0
LINE
8
BLACK
6
CONTINUOUS
10
5.848326771653543
20
-3.6177165354330709
11
5.847577559055118
21
-3.6214831102362206
0
LINE
8
BLACK
6
CONTINUOUS
10
5.847577559055118
20
-3.6214831102362206
11
5.8454439763779522
21
-3.6246762598425195
0
LINE
8
BLACK
6
CONTINUOUS
10
5.8454439763779522
20
-3.6246762598425195
11
5.8422508267716537
21
-3.6268098425196849
0
LINE
8
BLACK
6
CONTINUOUS
10
5.8422508267716537
20
-3.6268098425196849
11
5.8384842519685041
21
-3.6275590551181103
0
LINE
8
BLACK
6
CONTINUOUS
10
5.8384842519685041
20
-3.6275590551181103
11
5.8178149606299208
21
-3.6275590551181103
0
LINE
8
BLACK
6
CONTINUOUS
10
5.8178149606299208
20
-3.6275590551181103
11
5.8140483858267711
21
-3.6268098425196849
0
LINE
8
BLACK
6
CONTINUOUS
10
5.8140483858267711
20
-3.6268098425196849
11
5.8108552362204726
21
-3.6246762598425195
0
LINE
8
BLACK
6
CONTINUOUS
10
5.8108552362204726
20
-3.6246762598425195
11
5.8087216535433068
21
-3.6214831102362206
0
LINE
8
BLACK
6
CONTINUOUS
10
5.8087216535433068
20
-3.6214831102362206
11
5.8079724409448819
21
-3.6177165354330709
0
LINE
8
BLACK
6
CONTINUOUS
10
5.8079724409448819
20
-3.6177165354330709
11
5.8079724409448819
21
-3.5822834645669293
0
LINE
8
BLACK
6
CONTINUOUS
10
5.8079724409448819
20
-3.5822834645669293
11
5.8087216535433068
21
-3.5785168897637796
0
LINE
8
BLACK
6
CONTINUOUS
10
5.8087216535433068
20
-3.5785168897637796
11
5.8108552362204726
21
-3.5753237401574802
0
LINE
8
BLACK
6
CONTINUOUS
10
5.8108552362204726
20
-3.5753237401574802
11
5.8140483858267711
21
-3.5731901574803149
0
LINE
8
BLACK
6
CONTINUOUS
10
5.8140483858267711
20
-3.5731901574803149
11
5.8178149606299208
21
-3.5724409448818899
0
LINE
8
BLACK
6
CONTINUOUS
10
5.8178149606299208
20
-3.5724409448818899
11
5.8384842519685041
21
-3.5724409448818899
0
LINE
8
BLACK
6
CONTINUOUS
10
5.8384842519685041
20
-3.5724409448818899
11
5.8422508267716537
21
-3.5731901574803149
0
LINE
8
BLACK
6
CONTINUOUS
10
5.9141012204724408
20
-3.5731901574803149
11
5.9172943700787402
21
-3.5753237401574802
0
LINE
8
BLACK
6
CONTINUOUS
10
5.9172943700787402
20
-3.5753237401574802
11
5.9194279527559051
21
-3.5785168897637796
0
LINE
8
BLACK
6
CONTINUOUS
10
5.9194279527559051
20
-3.5785168897637796
11
5.9201771653543309
21
-3.5822834645669293
0
LINE
8
BLACK
6
CONTINUOUS
10
5.9201771653543309
20
-3.5822834645669293
11
5.9201771653543309
21
-3.6177165354330709
0
LINE
8
BLACK
6
CONTINUOUS
10
5.9201771653543309
20
-3.6177165354330709
11
5.9194279527559051
21
-3.6214831102362206
0
LINE
8
BLACK
6
CONTINUOUS
10
5.9194279527559051
20
-3.6214831102362206
11
5.9172943700787402
21
-3.6246762598425195
0
LINE
8
BLACK
6
CONTINUOUS
10
5.9172943700787402
20
-3.6246762598425195
11
5.9141012204724408
21
-3.6268098425196849
0
LINE
8
BLACK
6
CONTINUOUS
10
5.9141012204724408
20
-3.6268098425196849
11
5.9103346456692911
21
-3.6275590551181103
0
LINE
8
BLACK
6
CONTINUOUS
10
5.9103346456692911
20
-3.6275590551181103
11
5.8896653543307087
21
-3.6275590551181103
0
LINE
8
BLACK
6
CONTINUOUS
10
5.8896653543307087
20
-3.6275590551181103
11
5.885898779527559
21
-3.6268098425196849
0
LINE
8
BLACK
6
CONTINUOUS
10
5.885898779527559
20
-3.6268098425196849
11
5.8827056299212597
21
-3.6246762598425195
0
LINE
8
BLACK
6
CONTINUOUS
10
5.8827056299212597
20
-3.6246762598425195
11
5.8805720472440948
21
-3.6214831102362206
0
LINE
8
BLACK
6
CONTINUOUS
10
5.8805720472440948
20
-3.6214831102362206
11
5.8798228346456689
21
-3.6177165354330709
0
LINE
8
BLACK
6
CONTINUOUS
10
5.8798228346456689
20
-3.6177165354330709
11
5.8798228346456689
21
-3.5822834645669293
0
LINE
8
BLACK
6
CONTINUOUS
10
5.8798228346456689
20
-3.5822834645669293
11
5.8805720472440948
21
-3.5785168897637796
0
LINE
8
BLACK
6
CONTINUOUS
10
5.8805720472440948
20
-3.5785168897637796
11
5.8827056299212597
21
-3.5753237401574802
0
LINE
8
BLACK
6
CONTINUOUS
10
5.8827056299212597
20
-3.5753237401574802
11
5.885898779527559
21
-3.5731901574803149
0
LINE
8
BLACK
6
CONTINUOUS
10
5.885898779527559
20
-3.5731901574803149
11
5.8896653543307087
21
-3.5724409448818899
0
LINE
8
BLACK
6
CONTINUOUS
10
5.8896653543307087
20
-3.5724409448818899
11
5.9103346456692911
21
-3.5724409448818899
0
LINE
8
BLACK
6
CONTINUOUS
10
5.9103346456692911
20
-3.5724409448818899
11
5.9141012204724408
21
-3.5731901574803149
0
LINE
8
BLACK
6
CONTINUOUS
10
6.9763594094488184
20
-3.5731714173228344
11
6.9794727165354331
21
-3.575251692913386
0
LINE
8
BLACK
6
CONTINUOUS
10
6.9794727165354331
20
-3.575251692913386
11
6.9815529921259838
21
-3.5783649999999998
0
LINE
8
BLACK
6
CONTINUOUS
10
6.9815529921259838
20
-3.5783649999999998
11
6.9822834645669287
21
-3.5820374015748029
0
LINE
8
BLACK
6
CONTINUOUS
10
6.9822834645669287
20
-3.5820374015748029
11
6.9822834645669287
21
-3.6179625984251969
0
LINE
8
BLACK
6
CONTINUOUS
10
6.9822834645669287
20
-3.6179625984251969
11
6.9815529921259838
21
-3.6216349999999999
0
LINE
8
BLACK
6
CONTINUOUS
10
6.9815529921259838
20
-3.6216349999999999
11
6.9794727165354331
21
-3.6247483070866142
0
LINE
8
BLACK
6
CONTINUOUS
10
6.9794727165354331
20
-3.6247483070866142
11
6.9763594094488184
21
-3.6268285826771653
0
LINE
8
BLACK
6
CONTINUOUS
10
6.9763594094488184
20
-3.6268285826771653
11
6.9726870078740157
21
-3.6275590551181103
0
LINE
8
BLACK
6
CONTINUOUS
10
6.9726870078740157
20
-3.6275590551181103
11
6.9534940944881889
21
-3.6275590551181103
0
LINE
8
BLACK
6
CONTINUOUS
10
6.9534940944881889
20
-3.6275590551181103
11
6.9498216929133854
21
-3.6268285826771653
0
LINE
8
BLACK
6
CONTINUOUS
10
6.9498216929133854
20
-3.6268285826771653
11
6.9467083858267715
21
-3.6247483070866142
0
LINE
8
BLACK
6
CONTINUOUS
10
6.9467083858267715
20
-3.6247483070866142
11
6.94462811023622
21
-3.6216349999999999
0
LINE
8
BLACK
6
CONTINUOUS
10
6.94462811023622
20
-3.6216349999999999
11
6.943897637795275
21
-3.6179625984251969
0
LINE
8
BLACK
6
CONTINUOUS
10
6.943897637795275
20
-3.6179625984251969
11
6.943897637795275
21
-3.5820374015748029
0
LINE
8
BLACK
6
CONTINUOUS
10
6.943897637795275
20
-3.5820374015748029
11
6.94462811023622
21
-3.5783649999999998
0
LINE
8
BLACK
6
CONTINUOUS
10
6.94462811023622
20
-3.5783649999999998
11
6.9467083858267715
21
-3.575251692913386
0
LINE
8
BLACK
6
CONTINUOUS
10
6.9467083858267715
20
-3.575251692913386
11
6.9498216929133854
21
-3.5731714173228344
0
LINE
8
BLACK
6
CONTINUOUS
10
6.9498216929133854
20
-3.5731714173228344
11
6.9534940944881889
21
-3.5724409448818899
0
LINE
8
BLACK
6
CONTINUOUS
10
6.9534940944881889
20
-3.5724409448818899
11
6.9726870078740157
21
-3.5724409448818899
0
LINE
8
BLACK
6
CONTINUOUS
10
6.9726870078740157
20
-3.5724409448818899
11
6.9763594094488184
21
-3.5731714173228344
0
LINE
8
BLACK
6
CONTINUOUS
10
7.0501783070866137
20
-3.5731714173228344
11
7.0532916141732285
21
-3.575251692913386
0
LINE
8
BLACK
6
CONTINUOUS
10
7.0532916141732285
20
-3.575251692913386
11
7.0553718897637792
21
-3.5783649999999998
0
LINE
8
BLACK
6
CONTINUOUS
10
7.0553718897637792
20
-3.5783649999999998
11
7.0561023622047241
21
-3.5820374015748029
0
LINE
8
BLACK
6
CONTINUOUS
10
7.0561023622047241
20
-3.5820374015748029
11
7.0561023622047241
21
-3.6179625984251969
0
LINE
8
BLACK
6
CONTINUOUS
10
7.0561023622047241
20
-3.6179625984251969
11
7.0553718897637792
21
-3.6216349999999999
0
LINE
8
BLACK
6
CONTINUOUS
10
7.0553718897637792
20
-3.6216349999999999
11
7.0532916141732285
21
-3.6247483070866142
0
LINE
8
BLACK
6
CONTINUOUS
10
7.0532916141732285
20
-3.6247483070866142
11
7.0501783070866137
21
-3.6268285826771653
0
LINE
8
BLACK
6
CONTINUOUS
10
7.0501783070866137
20
-3.6268285826771653
11
7.0465059055118111
21
-3.6275590551181103
0
LINE
8
BLACK
6
CONTINUOUS
10
7.0465059055118111
20
-3.6275590551181103
11
7.0273129921259843
21
-3.6275590551181103
0
LINE
8
BLACK
6
CONTINUOUS
10
7.0273129921259843
20
-3.6275590551181103
11
7.0236405905511807
21
-3.6268285826771653
0
LINE
8
BLACK
6
CONTINUOUS
10
7.0236405905511807
20
-3.6268285826771653
11
7.0205272834645669
21
-3.6247483070866142
0
LINE
8
BLACK
6
CONTINUOUS
10
7.0205272834645669
20
-3.6247483070866142
11
7.0184470078740153
21
-3.6216349999999999
0
LINE
8
BLACK
6
CONTINUOUS
10
7.0184470078740153
20
-3.6216349999999999
11
7.0177165354330704
21
-3.6179625984251969
0
LINE
8
BLACK
6
CONTINUOUS
10
7.0177165354330704
20
-3.6179625984251969
11
7.0177165354330704
21
-3.5820374015748029
0
LINE
8
BLACK
6
CONTINUOUS
10
7.0177165354330704
20
-3.5820374015748029
11
7.0184470078740153
21
-3.5783649999999998
0
LINE
8
BLACK
6
CONTINUOUS
10
7.0184470078740153
20
-3.5783649999999998
11
7.0205272834645669
21
-3.575251692913386
0
LINE
8
BLACK
6
CONTINUOUS
10
7.0205272834645669
20
-3.575251692913386
11
7.0236405905511807
21
-3.5731714173228344
0
LINE
8
BLACK
6
CONTINUOUS
10
7.0236405905511807
20
-3.5731714173228344
11
7.0273129921259843
21
-3.5724409448818899
0
LINE
8
BLACK
6
CONTINUOUS
10
7.0273129921259843
20
-3.5724409448818899
11
7.0465059055118111
21
-3.5724409448818899
0
LINE
8
BLACK
6
CONTINUOUS
10
7.0465059055118111
20
-3.5724409448818899
11
7.0501783070866137
21
-3.5731714173228344
0
LINE
8
BLACK
6
CONTINUOUS
10
5.8422508267716537
20
-3.4731901574803148
11
5.8454439763779522
21
-3.4753237401574801
0
LINE
8
BLACK
6
CONTINUOUS
10
5.8454439763779522
20
-3.4753237401574801
11
5.847577559055118
21
-3.4785168897637795
0
LINE
8
BLACK
6
CONTINUOUS
10
5.847577559055118
20
-3.4785168897637795
11
5.848326771653543
21
-3.4822834645669292
0
LINE
8
BLACK
6
CONTINUOUS
10
5.848326771653543
20
-3.4822834645669292
11
5.848326771653543
21
-3.5177165354330708
0
LINE
8
BLACK
6
CONTINUOUS
10
5.848326771653543
20
-3.5177165354330708
11
5.847577559055118
21
-3.5214831102362205
0
LINE
8
BLACK
6
CONTINUOUS
10
5.847577559055118
20
-3.5214831102362205
11
5.8454439763779522
21
-3.5246762598425194
0
LINE
8
BLACK
6
CONTINUOUS
10
5.8454439763779522
20
-3.5246762598425194
11
5.8422508267716537
21
-3.5268098425196848
0
LINE
8
BLACK
6
CONTINUOUS
10
5.8422508267716537
20
-3.5268098425196848
11
5.8384842519685041
21
-3.5275590551181102
0
LINE
8
BLACK
6
CONTINUOUS
10
5.8384842519685041
20
-3.5275590551181102
11
5.8178149606299208
21
-3.5275590551181102
0
LINE
8
BLACK
6
CONTINUOUS
10
5.8178149606299208
20
-3.5275590551181102
11
5.8140483858267711
21
-3.5268098425196848
0
LINE
8
BLACK
6
CONTINUOUS
10
5.8140483858267711
20
-3.5268098425196848
11
5.8108552362204726
21
-3.5246762598425194
0
LINE
8
BLACK
6
CONTINUOUS
10
5.8108552362204726
20
-3.5246762598425194
11
5.8087216535433068
21
-3.5214831102362205
0
LINE
8
BLACK
6
CONTINUOUS
10
5.8087216535433068
20
-3.5214831102362205
11
5.8079724409448819
21
-3.5177165354330708
0
LINE
8
BLACK
6
CONTINUOUS
10
5.8079724409448819
20
-3.5177165354330708
11
5.8079724409448819
21
-3.4822834645669292
0
LINE
8
BLACK
6
CONTINUOUS
10
5.8079724409448819
20
-3.4822834645669292
11
5.8087216535433068
21
-3.4785168897637795
0
LINE
8
BLACK
6
CONTINUOUS
10
5.8087216535433068
20
-3.4785168897637795
11
5.8108552362204726
21
-3.4753237401574801
0
LINE
8
BLACK
6
CONTINUOUS
10
5.8108552362204726
20
-3.4753237401574801
11
5.8140483858267711
21
-3.4731901574803148
0
LINE
8
BLACK
6
CONTINUOUS
10
5.8140483858267711
20
-3.4731901574803148
11
5.8178149606299208
21
-3.4724409448818898
0
LINE
8
BLACK
6
CONTINUOUS
10
5.8178149606299208
20
-3.4724409448818898
11
5.8384842519685041
21
-3.4724409448818898
0
LINE
8
BLACK
6
CONTINUOUS
10
5.8384842519685041
20
-3.4724409448818898
11
5.8422508267716537
21
-3.4731901574803148
0
LINE
8
BLACK
6
CONTINUOUS
10
5.9141012204724408
20
-3.4731901574803148
11
5.9172943700787402
21
-3.4753237401574801
0
LINE
8
BLACK
6
CONTINUOUS
10
5.9172943700787402
20
-3.4753237401574801
11
5.9194279527559051
21
-3.4785168897637795
0
LINE
8
BLACK
6
CONTINUOUS
10
5.9194279527559051
20
-3.4785168897637795
11
5.9201771653543309
21
-3.4822834645669292
0
LINE
8
BLACK
6
CONTINUOUS
10
5.9201771653543309
20
-3.4822834645669292
11
5.9201771653543309
21
-3.5177165354330708
0
LINE
8
BLACK
6
CONTINUOUS
10
5.9201771653543309
20
-3.5177165354330708
11
5.9194279527559051
21
-3.5214831102362205
0
LINE
8
BLACK
6
CONTINUOUS
10
5.9194279527559051
20
-3.5214831102362205
11
5.9172943700787402
21
-3.5246762598425194
0
LINE
8
BLACK
6
CONTINUOUS
10
5.9172943700787402
20
-3.5246762598425194
11
5.9141012204724408
21
-3.5268098425196848
0
LINE
8
BLACK
6
CONTINUOUS
10
5.9141012204724408
20
-3.5268098425196848
11
5.9103346456692911
21
-3.5275590551181102
0
LINE
8
BLACK
6
CONTINUOUS
10
5.9103346456692911
20
-3.5275590551181102
11
5.8896653543307087
21
-3.5275590551181102
0
LINE
8
BLACK
6
CONTINUOUS
10
5.8896653543307087
20
-3.5275590551181102
11
5.885898779527559
21
-3.5268098425196848
0
LINE
8
BLACK
6
CONTINUOUS
10
5.885898779527559
20
-3.5268098425196848
11
5.8827056299212597
21
-3.5246762598425194
0
LINE
8
BLACK
6
CONTINUOUS
10
5.8827056299212597
20
-3.5246762598425194
11
5.8805720472440948
21
-3.5214831102362205
0
LINE
8
BLACK
6
CONTINUOUS
10
5.8805720472440948
20
-3.5214831102362205
11
5.8798228346456689
21
-3.5177165354330708
0
LINE
8
BLACK
6
CONTINUOUS
10
5.8798228346456689
20
-3.5177165354330708
11
5.8798228346456689
21
-3.4822834645669292
0
LINE
8
BLACK
6
CONTINUOUS
10
5.8798228346456689
20
-3.4822834645669292
11
5.8805720472440948
21
-3.4785168897637795
0
LINE
8
BLACK
6
CONTINUOUS
10
5.8805720472440948
20
-3.4785168897637795
11
5.8827056299212597
21
-3.4753237401574801
0
LINE
8
BLACK
6
CONTINUOUS
10
5.8827056299212597
20
-3.4753237401574801
11
5.885898779527559
21
-3.4731901574803148
0
LINE
8
BLACK
6
CONTINUOUS
10
5.885898779527559
20
-3.4731901574803148
11
5.8896653543307087
21
-3.4724409448818898
0
LINE
8
BLACK
6
CONTINUOUS
10
5.8896653543307087
20
-3.4724409448818898
11
5.9103346456692911
21
-3.4724409448818898
0
LINE
8
BLACK
6
CONTINUOUS
10
5.9103346456692911
20
-3.4724409448818898
11
5.9141012204724408
21
-3.4731901574803148
0
LINE
8
BLACK
6
CONTINUOUS
10
6.9763594094488184
20
-3.4731714173228347
11
6.9794727165354331
21
-3.4752516929133859
0
LINE
8
BLACK
6
CONTINUOUS
10
6.9794727165354331
20
-3.4752516929133859
11
6.9815529921259838
21
-3.4783649999999997
0
LINE
8
BLACK
6
CONTINUOUS
10
6.9815529921259838
20
-3.4783649999999997
11
6.9822834645669287
21
-3.4820374015748032
0
LINE
8
BLACK
6
CONTINUOUS
10
6.9822834645669287
20
-3.4820374015748032
11
6.9822834645669287
21
-3.5179625984251968
0
LINE
8
BLACK
6
CONTINUOUS
10
6.9822834645669287
20
-3.5179625984251968
11
6.9815529921259838
21
-3.5216349999999998
0
LINE
8
BLACK
6
CONTINUOUS
10
6.9815529921259838
20
-3.5216349999999998
11
6.9794727165354331
21
-3.5247483070866141
0
LINE
8
BLACK
6
CONTINUOUS
10
6.9794727165354331
20
-3.5247483070866141
11
6.9763594094488184
21
-3.5268285826771653
0
LINE
8
BLACK
6
CONTINUOUS
10
6.9763594094488184
20
-3.5268285826771653
11
6.9726870078740157
21
-3.5275590551181102
0
LINE
8
BLACK
6
CONTINUOUS
10
6.9726870078740157
20
-3.5275590551181102
11
6.9534940944881889
21
-3.5275590551181102
0
LINE
8
BLACK
6
CONTINUOUS
10
6.9534940944881889
20
-3.5275590551181102
11
6.9498216929133854
21
-3.5268285826771653
0
LINE
8
BLACK
6
CONTINUOUS
10
6.9498216929133854
20
-3.5268285826771653
11
6.9467083858267715
21
-3.5247483070866141
0
LINE
8
BLACK
6
CONTINUOUS
10
6.9467083858267715
20
-3.5247483070866141
11
6.94462811023622
21
-3.5216349999999998
0
LINE
8
BLACK
6
CONTINUOUS
10
6.94462811023622
20
-3.5216349999999998
11
6.943897637795275
21
-3.5179625984251968
0
LINE
8
BLACK
6
CONTINUOUS
10
6.943897637795275
20
-3.5179625984251968
11
6.943897637795275
21
-3.4820374015748032
0
LINE
8
BLACK
6
CONTINUOUS
10
6.943897637795275
20
-3.4820374015748032
11
6.94462811023622
21
-3.4783649999999997
0
LINE
8
BLACK
6
CONTINUOUS
10
6.94462811023622
20
-3.4783649999999997
11
6.9467083858267715
21
-3.4752516929133859
0
LINE
8
BLACK
6
CONTINUOUS
10
6.9467083858267715
20
-3.4752516929133859
11
6.9498216929133854
21
-3.4731714173228347
0
LINE
8
BLACK
6
CONTINUOUS
10
6.9498216929133854
20
-3.4731714173228347
11
6.9534940944881889
21
-3.4724409448818898
0
LINE
8
BLACK
6
CONTINUOUS
10
6.9534940944881889
20
-3.4724409448818898
11
6.9726870078740157
21
-3.4724409448818898
0
LINE
8
BLACK
6
CONTINUOUS
10
6.9726870078740157
20
-3.4724409448818898
11
6.9763594094488184
21
-3.4731714173228347
0
LINE
8
BLACK
6
CONTINUOUS
10
7.0501783070866137
20
-3.4731714173228347
11
7.0532916141732285
21
-3.4752516929133859
0
LINE
8
BLACK
6
CONTINUOUS
10
7.0532916141732285
20
-3.4752516929133859
11
7.0553718897637792
21
-3.4783649999999997
0
LINE
8
BLACK
6
CONTINUOUS
10
7.0553718897637792
20
-3.4783649999999997
11
7.0561023622047241
21
-3.4820374015748032
0
LINE
8
BLACK
6
CONTINUOUS
10
7.0561023622047241
20
-3.4820374015748032
11
7.0561023622047241
21
-3.5179625984251968
0
LINE
8
BLACK
6
CONTINUOUS
10
7.0561023622047241
20
-3.5179625984251968
11
7.0553718897637792
21
-3.5216349999999998
0
LINE
8
BLACK
6
CONTINUOUS
10
7.0553718897637792
20
-3.5216349999999998
11
7.0532916141732285
21
-3.5247483070866141
0
LINE
8
BLACK
6
CONTINUOUS
10
7.0532916141732285
20
-3.5247483070866141
11
7.0501783070866137
21
-3.5268285826771653
0
LINE
8
BLACK
6
CONTINUOUS
10
7.0501783070866137
20
-3.5268285826771653
11
7.0465059055118111
21
-3.5275590551181102
0
LINE
8
BLACK
6
CONTINUOUS
10
7.0465059055118111
20
-3.5275590551181102
11
7.0273129921259843
21
-3.5275590551181102
0
LINE
8
BLACK
6
CONTINUOUS
10
7.0273129921259843
20
-3.5275590551181102
11
7.0236405905511807
21
-3.5268285826771653
0
LINE
8
BLACK
6
CONTINUOUS
10
7.0236405905511807
20
-3.5268285826771653
11
7.0205272834645669
21
-3.5247483070866141
0
LINE
8
BLACK
6
CONTINUOUS
10
7.0205272834645669
20
-3.5247483070866141
11
7.0184470078740153
21
-3.5216349999999998
0
LINE
8
BLACK
6
CONTINUOUS
10
7.0184470078740153
20
-3.5216349999999998
11
7.0177165354330704
21
-3.5179625984251968
0
LINE
8
BLACK
6
CONTINUOUS
10
7.0177165354330704
20
-3.5179625984251968
11
7.0177165354330704
21
-3.4820374015748032
0
LINE
8
BLACK
6
CONTINUOUS
10
7.0177165354330704
20
-3.4820374015748032
11
7.0184470078740153
21
-3.4783649999999997
0
LINE
8
BLACK
6
CONTINUOUS
10
7.0184470078740153
20
-3.4783649999999997
11
7.0205272834645669
21
-3.4752516929133859
0
LINE
8
BLACK
6
CONTINUOUS
10
7.0205272834645669
20
-3.4752516929133859
11
7.0236405905511807
21
-3.4731714173228347
0
LINE
8
BLACK
6
CONTINUOUS
10
7.0236405905511807
20
-3.4731714173228347
11
7.0273129921259843
21
-3.4724409448818898
0
LINE
8
BLACK
6
CONTINUOUS
10
7.0273129921259843
20
-3.4724409448818898
11
7.0465059055118111
21
-3.4724409448818898
0
LINE
8
BLACK
6
CONTINUOUS
10
7.0465059055118111
20
-3.4724409448818898
11
7.0501783070866137
21
-3.4731714173228347
0
LINE
8
BLACK
6
CONTINUOUS
10
5.8422508267716537
20
-3.3731901574803147
11
5.8454439763779522
21
-3.37532374015748
0
LINE
8
BLACK
6
CONTINUOUS
10
5.8454439763779522
20
-3.37532374015748
11
5.847577559055118
21
-3.3785168897637794
0
LINE
8
BLACK
6
CONTINUOUS
10
5.847577559055118
20
-3.3785168897637794
11
5.848326771653543
21
-3.3822834645669291
0
LINE
8
BLACK
6
CONTINUOUS
10
5.848326771653543
20
-3.3822834645669291
11
5.848326771653543
21
-3.4177165354330707
0
LINE
8
BLACK
6
CONTINUOUS
10
5.848326771653543
20
-3.4177165354330707
11
5.847577559055118
21
-3.4214831102362204
0
LINE
8
BLACK
6
CONTINUOUS
10
5.847577559055118
20
-3.4214831102362204
11
5.8454439763779522
21
-3.4246762598425198
0
LINE
8
BLACK
6
CONTINUOUS
10
5.8454439763779522
20
-3.4246762598425198
11
5.8422508267716537
21
-3.4268098425196851
0
LINE
8
BLACK
6
CONTINUOUS
10
5.8422508267716537
20
-3.4268098425196851
11
5.8384842519685041
21
-3.4275590551181101
0
LINE
8
BLACK
6
CONTINUOUS
10
5.8384842519685041
20
-3.4275590551181101
11
5.8178149606299208
21
-3.4275590551181101
0
LINE
8
BLACK
6
CONTINUOUS
10
5.8178149606299208
20
-3.4275590551181101
11
5.8140483858267711
21
-3.4268098425196851
0
LINE
8
BLACK
6
CONTINUOUS
10
5.8140483858267711
20
-3.4268098425196851
11
5.8108552362204726
21
-3.4246762598425198
0
LINE
8
BLACK
6
CONTINUOUS
10
5.8108552362204726
20
-3.4246762598425198
11
5.8087216535433068
21
-3.4214831102362204
0
LINE
8
BLACK
6
CONTINUOUS
10
5.8087216535433068
20
-3.4214831102362204
11
5.8079724409448819
21
-3.4177165354330707
0
LINE
8
BLACK
6
CONTINUOUS
10
5.8079724409448819
20
-3.4177165354330707
11
5.8079724409448819
21
-3.3822834645669291
0
LINE
8
BLACK
6
CONTINUOUS
10
5.8079724409448819
20
-3.3822834645669291
11
5.8087216535433068
21
-3.3785168897637794
0
LINE
8
BLACK
6
CONTINUOUS
10
5.8087216535433068
20
-3.3785168897637794
11
5.8108552362204726
21
-3.37532374015748
0
LINE
8
BLACK
6
CONTINUOUS
10
5.8108552362204726
20
-3.37532374015748
11
5.8140483858267711
21
-3.3731901574803147
0
LINE
8
BLACK
6
CONTINUOUS
10
5.8140483858267711
20
-3.3731901574803147
11
5.8178149606299208
21
-3.3724409448818897
0
LINE
8
BLACK
6
CONTINUOUS
10
5.8178149606299208
20
-3.3724409448818897
11
5.8384842519685041
21
-3.3724409448818897
0
LINE
8
BLACK
6
CONTINUOUS
10
5.8384842519685041
20
-3.3724409448818897
11
5.8422508267716537
21
-3.3731901574803147
0
LINE
8
BLACK
6
CONTINUOUS
10
5.9141012204724408
20
-3.3731901574803147
11
5.9172943700787402
21
-3.37532374015748
0
LINE
8
BLACK
6
CONTINUOUS
10
5.9172943700787402
20
-3.37532374015748
11
5.9194279527559051
21
-3.3785168897637794
0
LINE
8
BLACK
6
CONTINUOUS
10
5.9194279527559051
20
-3.3785168897637794
11
5.9201771653543309
21
-3.3822834645669291
0
LINE
8
BLACK
6
CONTINUOUS
10
5.9201771653543309
20
-3.3822834645669291
11
5.9201771653543309
21
-3.4177165354330707
0
LINE
8
BLACK
6
CONTINUOUS
10
5.9201771653543309
20
-3.4177165354330707
11
5.9194279527559051
21
-3.4214831102362204
0
LINE
8
BLACK
6
CONTINUOUS
10
5.9194279527559051
20
-3.4214831102362204
11
5.9172943700787402
21
-3.4246762598425198
0
LINE
8
BLACK
6
CONTINUOUS
10
5.9172943700787402
20
-3.4246762598425198
11
5.9141012204724408
21
-3.4268098425196851
0
LINE
8
BLACK
6
CONTINUOUS
10
5.9141012204724408
20
-3.4268098425196851
11
5.9103346456692911
21
-3.4275590551181101
0
LINE
8
BLACK
6
CONTINUOUS
10
5.9103346456692911
20
-3.4275590551181101
11
5.8896653543307087
21
-3.4275590551181101
0
LINE
8
BLACK
6
CONTINUOUS
10
5.8896653543307087
20
-3.4275590551181101
11
5.885898779527559
21
-3.4268098425196851
0
LINE
8
BLACK
6
CONTINUOUS
10
5.885898779527559
20
-3.4268098425196851
11
5.8827056299212597
21
-3.4246762598425198
0
LINE
8
BLACK
6
CONTINUOUS
10
5.8827056299212597
20
-3.4246762598425198
11
5.8805720472440948
21
-3.4214831102362204
0
LINE
8
BLACK
6
CONTINUOUS
10
5.8805720472440948
20
-3.4214831102362204
11
5.8798228346456689
21
-3.4177165354330707
0
LINE
8
BLACK
6
CONTINUOUS
10
5.8798228346456689
20
-3.4177165354330707
11
5.8798228346456689
21
-3.3822834645669291
0
LINE
8
BLACK
6
CONTINUOUS
10
5.8798228346456689
20
-3.3822834645669291
11
5.8805720472440948
21
-3.3785168897637794
0
LINE
8
BLACK
6
CONTINUOUS
10
5.8805720472440948
20
-3.3785168897637794
11
5.8827056299212597
21
-3.37532374015748
0
LINE
8
BLACK
6
CONTINUOUS
10
5.8827056299212597
20
-3.37532374015748
11
5.885898779527559
21
-3.3731901574803147
0
LINE
8
BLACK
6
CONTINUOUS
10
5.885898779527559
20
-3.3731901574803147
11
5.8896653543307087
21
-3.3724409448818897
0
LINE
8
BLACK
6
CONTINUOUS
10
5.8896653543307087
20
-3.3724409448818897
11
5.9103346456692911
21
-3.3724409448818897
0
LINE
8
BLACK
6
CONTINUOUS
10
5.9103346456692911
20
-3.3724409448818897
11
5.9141012204724408
21
-3.3731901574803147
0
LINE
8
BLACK
6
CONTINUOUS
10
6.9763594094488184
20
-3.3731714173228347
11
6.9794727165354331
21
-3.3752516929133858
0
LINE
8
BLACK
6
CONTINUOUS
10
6.9794727165354331
20
-3.3752516929133858
11
6.9815529921259838
21
-3.3783650000000001
0
LINE
8
BLACK
6
CONTINUOUS
10
6.9815529921259838
20
-3.3783650000000001
11
6.9822834645669287
21
-3.3820374015748031
0
LINE
8
BLACK
6
CONTINUOUS
10
6.9822834645669287
20
-3.3820374015748031
11
6.9822834645669287
21
-3.4179625984251967
0
LINE
8
BLACK
6
CONTINUOUS
10
6.9822834645669287
20
-3.4179625984251967
11
6.9815529921259838
21
-3.4216349999999998
0
LINE
8
BLACK
6
CONTINUOUS
10
6.9815529921259838
20
-3.4216349999999998
11
6.9794727165354331
21
-3.424748307086614
0
LINE
8
BLACK
6
CONTINUOUS
10
6.9794727165354331
20
-3.424748307086614
11
6.9763594094488184
21
-3.4268285826771652
0
LINE
8
BLACK
6
CONTINUOUS
10
6.9763594094488184
20
-3.4268285826771652
11
6.9726870078740157
21
-3.4275590551181101
0
LINE
8
BLACK
6
CONTINUOUS
10
6.9726870078740157
20
-3.4275590551181101
11
6.9534940944881889
21
-3.4275590551181101
0
LINE
8
BLACK
6
CONTINUOUS
10
6.9534940944881889
20
-3.4275590551181101
11
6.9498216929133854
21
-3.4268285826771652
0
LINE
8
BLACK
6
CONTINUOUS
10
6.9498216929133854
20
-3.4268285826771652
11
6.9467083858267715
21
-3.424748307086614
0
LINE
8
BLACK
6
CONTINUOUS
10
6.9467083858267715
20
-3.424748307086614
11
6.94462811023622
21
-3.4216349999999998
0
LINE
8
BLACK
6
CONTINUOUS
10
6.94462811023622
20
-3.4216349999999998
11
6.943897637795275
21
-3.4179625984251967
0
LINE
8
BLACK
6
CONTINUOUS
10
6.943897637795275
20
-3.4179625984251967
11
6.943897637795275
21
-3.3820374015748031
0
LINE
8
BLACK
6
CONTINUOUS
10
6.943897637795275
20
-3.3820374015748031
11
6.94462811023622
21
-3.3783650000000001
0
LINE
8
BLACK
6
CONTINUOUS
10
6.94462811023622
20
-3.3783650000000001
11
6.9467083858267715
21
-3.3752516929133858
0
LINE
8
BLACK
6
CONTINUOUS
10
6.9467083858267715
20
-3.3752516929133858
11
6.9498216929133854
21
-3.3731714173228347
0
LINE
8
BLACK
6
CONTINUOUS
10
6.9498216929133854
20
-3.3731714173228347
11
6.9534940944881889
21
-3.3724409448818897
0
LINE
8
BLACK
6
CONTINUOUS
10
6.9534940944881889
20
-3.3724409448818897
11
6.9726870078740157
21
-3.3724409448818897
0
LINE
8
BLACK
6
CONTINUOUS
10
6.9726870078740157
20
-3.3724409448818897
11
6.9763594094488184
21
-3.3731714173228347
0
LINE
8
BLACK
6
CONTINUOUS
10
7.0501783070866137
20
-3.3731714173228347
11
7.0532916141732285
21
-3.3752516929133858
0
LINE
8
BLACK
6
CONTINUOUS
10
7.0532916141732285
20
-3.3752516929133858
11
7.0553718897637792
21
-3.3783650000000001
0
LINE
8
BLACK
6
CONTINUOUS
10
7.0553718897637792
20
-3.3783650000000001
11
7.0561023622047241
21
-3.3820374015748031
0
LINE
8
BLACK
6
CONTINUOUS
10
7.0561023622047241
20
-3.3820374015748031
11
7.0561023622047241
21
-3.4179625984251967
0
LINE
8
BLACK
6
CONTINUOUS
10
7.0561023622047241
20
-3.4179625984251967
11
7.0553718897637792
21
-3.4216349999999998
0
LINE
8
BLACK
6
CONTINUOUS
10
7.0553718897637792
20
-3.4216349999999998
11
7.0532916141732285
21
-3.424748307086614
0
LINE
8
BLACK
6
CONTINUOUS
10
7.0532916141732285
20
-3.424748307086614
11
7.0501783070866137
21
-3.4268285826771652
0
LINE
8
BLACK
6
CONTINUOUS
10
7.0501783070866137
20
-3.4268285826771652
11
7.0465059055118111
21
-3.4275590551181101
0
LINE
8
BLACK
6
CONTINUOUS
10
7.0465059055118111
20
-3.4275590551181101
11
7.0273129921259843
21
-3.4275590551181101
0
LINE
8
BLACK
6
CONTINUOUS
10
7.0273129921259843
20
-3.4275590551181101
11
7.0236405905511807
21
-3.4268285826771652
0
LINE
8
BLACK
6
CONTINUOUS
10
7.0236405905511807
20
-3.4268285826771652
11
7.0205272834645669
21
-3.424748307086614
0
LINE
8
BLACK
6
CONTINUOUS
10
7.0205272834645669
20
-3.424748307086614
11
7.0184470078740153
21
-3.4216349999999998
0
LINE
8
BLACK
6
CONTINUOUS
10
7.0184470078740153
20
-3.4216349999999998
11
7.0177165354330704
21
-3.4179625984251967
0
LINE
8
BLACK
6
CONTINUOUS
10
7.0177165354330704
20
-3.4179625984251967
11
7.0177165354330704
21
-3.3820374015748031
0
LINE
8
BLACK
6
CONTINUOUS
10
7.0177165354330704
20
-3.3820374015748031
11
7.0184470078740153
21
-3.3783650000000001
0
LINE
8
BLACK
6
CONTINUOUS
10
7.0184470078740153
20
-3.3783650000000001
11
7.0205272834645669
21
-3.3752516929133858
0
LINE
8
BLACK
6
CONTINUOUS
10
7.0205272834645669
20
-3.3752516929133858
11
7.0236405905511807
21
-3.3731714173228347
0
LINE
8
BLACK
6
CONTINUOUS
10
7.0236405905511807
20
-3.3731714173228347
11
7.0273129921259843
21
-3.3724409448818897
0
LINE
8
BLACK
6
CONTINUOUS
10
7.0273129921259843
20
-3.3724409448818897
11
7.0465059055118111
21
-3.3724409448818897
0
LINE
8
BLACK
6
CONTINUOUS
10
7.0465059055118111
20
-3.3724409448818897
11
7.0501783070866137
21
-3.3731714173228347
0
LINE
8
BLACK
6
CONTINUOUS
10
5.8422508267716537
20
-3.2731901574803151
11
5.8454439763779522
21
-3.2753237401574804
0
LINE
8
BLACK
6
CONTINUOUS
10
5.8454439763779522
20
-3.2753237401574804
11
5.847577559055118
21
-3.2785168897637793
0
LINE
8
BLACK
6
CONTINUOUS
10
5.847577559055118
20
-3.2785168897637793
11
5.848326771653543
21
-3.282283464566929
0
LINE
8
BLACK
6
CONTINUOUS
10
5.848326771653543
20
-3.282283464566929
11
5.848326771653543
21
-3.3177165354330707
0
LINE
8
BLACK
6
CONTINUOUS
10
5.848326771653543
20
-3.3177165354330707
11
5.847577559055118
21
-3.3214831102362203
0
LINE
8
BLACK
6
CONTINUOUS
10
5.847577559055118
20
-3.3214831102362203
11
5.8454439763779522
21
-3.3246762598425197
0
LINE
8
BLACK
6
CONTINUOUS
10
5.8454439763779522
20
-3.3246762598425197
11
5.8422508267716537
21
-3.326809842519685
0
LINE
8
BLACK
6
CONTINUOUS
10
5.8422508267716537
20
-3.326809842519685
11
5.8384842519685041
21
-3.32755905511811
0
LINE
8
BLACK
6
CONTINUOUS
10
5.8384842519685041
20
-3.32755905511811
11
5.8178149606299208
21
-3.32755905511811
0
LINE
8
BLACK
6
CONTINUOUS
10
5.8178149606299208
20
-3.32755905511811
11
5.8140483858267711
21
-3.326809842519685
0
LINE
8
BLACK
6
CONTINUOUS
10
5.8140483858267711
20
-3.326809842519685
11
5.8108552362204726
21
-3.3246762598425197
0
LINE
8
BLACK
6
CONTINUOUS
10
5.8108552362204726
20
-3.3246762598425197
11
5.8087216535433068
21
-3.3214831102362203
0
LINE
8
BLACK
6
CONTINUOUS
10
5.8087216535433068
20
-3.3214831102362203
11
5.8079724409448819
21
-3.3177165354330707
0
LINE
8
BLACK
6
CONTINUOUS
10
5.8079724409448819
20
-3.3177165354330707
11
5.8079724409448819
21
-3.282283464566929
0
LINE
8
BLACK
6
CONTINUOUS
10
5.8079724409448819
20
-3.282283464566929
11
5.8087216535433068
21
-3.2785168897637793
0
LINE
8
BLACK
6
CONTINUOUS
10
5.8087216535433068
20
-3.2785168897637793
11
5.8108552362204726
21
-3.2753237401574804
0
LINE
8
BLACK
6
CONTINUOUS
10
5.8108552362204726
20
-3.2753237401574804
11
5.8140483858267711
21
-3.2731901574803151
0
LINE
8
BLACK
6
CONTINUOUS
10
5.8140483858267711
20
-3.2731901574803151
11
5.8178149606299208
21
-3.2724409448818896
0
LINE
8
BLACK
6
CONTINUOUS
10
5.8178149606299208
20
-3.2724409448818896
11
5.8384842519685041
21
-3.2724409448818896
0
LINE
8
BLACK
6
CONTINUOUS
10
5.8384842519685041
20
-3.2724409448818896
11
5.8422508267716537
21
-3.2731901574803151
0
LINE
8
BLACK
6
CONTINUOUS
10
5.9141012204724408
20
-3.2731901574803151
11
5.9172943700787402
21
-3.2753237401574804
0
LINE
8
BLACK
6
CONTINUOUS
10
5.9172943700787402
20
-3.2753237401574804
11
5.9194279527559051
21
-3.2785168897637793
0
LINE
8
BLACK
6
CONTINUOUS
10
5.9194279527559051
20
-3.2785168897637793
11
5.9201771653543309
21
-3.282283464566929
0
LINE
8
BLACK
6
CONTINUOUS
10
5.9201771653543309
20
-3.282283464566929
11
5.9201771653543309
21
-3.3177165354330707
0
LINE
8
BLACK
6
CONTINUOUS
10
5.9201771653543309
20
-3.3177165354330707
11
5.9194279527559051
21
-3.3214831102362203
0
LINE
8
BLACK
6
CONTINUOUS
10
5.9194279527559051
20
-3.3214831102362203
11
5.9172943700787402
21
-3.3246762598425197
0
LINE
8
BLACK
6
CONTINUOUS
10
5.9172943700787402
20
-3.3246762598425197
11
5.9141012204724408
21
-3.326809842519685
0
LINE
8
BLACK
6
CONTINUOUS
10
5.9141012204724408
20
-3.326809842519685
11
5.9103346456692911
21
-3.32755905511811
0
LINE
8
BLACK
6
CONTINUOUS
10
5.9103346456692911
20
-3.32755905511811
11
5.8896653543307087
21
-3.32755905511811
0
LINE
8
BLACK
6
CONTINUOUS
10
5.8896653543307087
20
-3.32755905511811
11
5.885898779527559
21
-3.326809842519685
0
LINE
8
BLACK
6
CONTINUOUS
10
5.885898779527559
20
-3.326809842519685
11
5.8827056299212597
21
-3.3246762598425197
0
LINE
8
BLACK
6
CONTINUOUS
10
5.8827056299212597
20
-3.3246762598425197
11
5.8805720472440948
21
-3.3214831102362203
0
LINE
8
BLACK
6
CONTINUOUS
10
5.8805720472440948
20
-3.3214831102362203
11
5.8798228346456689
21
-3.3177165354330707
0
LINE
8
BLACK
6
CONTINUOUS
10
5.8798228346456689
20
-3.3177165354330707
11
5.8798228346456689
21
-3.282283464566929
0
LINE
8
BLACK
6
CONTINUOUS
10
5.8798228346456689
20
-3.282283464566929
11
5.8805720472440948
21
-3.2785168897637793
0
LINE
8
BLACK
6
CONTINUOUS
10
5.8805720472440948
20
-3.2785168897637793
11
5.8827056299212597
21
-3.2753237401574804
0
LINE
8
BLACK
6
CONTINUOUS
10
5.8827056299212597
20
-3.2753237401574804
11
5.885898779527559
21
-3.2731901574803151
0
LINE
8
BLACK
6
CONTINUOUS
10
5.885898779527559
20
-3.2731901574803151
11
5.8896653543307087
21
-3.2724409448818896
0
LINE
8
BLACK
6
CONTINUOUS
10
5.8896653543307087
20
-3.2724409448818896
11
5.9103346456692911
21
-3.2724409448818896
0
LINE
8
BLACK
6
CONTINUOUS
10
5.9103346456692911
20
-3.2724409448818896
11
5.9141012204724408
21
-3.2731901574803151
0
LINE
8
BLACK
6
CONTINUOUS
10
6.9763594094488184
20
-3.2731714173228346
11
6.9794727165354331
21
-3.2752516929133857
0
LINE
8
BLACK
6
CONTINUOUS
10
6.9794727165354331
20
-3.2752516929133857
11
6.9815529921259838
21
-3.278365
0
LINE
8
BLACK
6
CONTINUOUS
10
6.9815529921259838
20
-3.278365
11
6.9822834645669287
21
-3.2820374015748031
0
LINE
8
BLACK
6
CONTINUOUS
10
6.9822834645669287
20
-3.2820374015748031
11
6.9822834645669287
21
-3.3179625984251966
0
LINE
8
BLACK
6
CONTINUOUS
10
6.9822834645669287
20
-3.3179625984251966
11
6.9815529921259838
21
-3.3216350000000001
0
LINE
8
BLACK
6
CONTINUOUS
10
6.9815529921259838
20
-3.3216350000000001
11
6.9794727165354331
21
-3.324748307086614
0
LINE
8
BLACK
6
CONTINUOUS
10
6.9794727165354331
20
-3.324748307086614
11
6.9763594094488184
21
-3.3268285826771651
0
LINE
8
BLACK
6
CONTINUOUS
10
6.9763594094488184
20
-3.3268285826771651
11
6.9726870078740157
21
-3.32755905511811
0
LINE
8
BLACK
6
CONTINUOUS
10
6.9726870078740157
20
-3.32755905511811
11
6.9534940944881889
21
-3.32755905511811
0
LINE
8
BLACK
6
CONTINUOUS
10
6.9534940944881889
20
-3.32755905511811
11
6.9498216929133854
21
-3.3268285826771651
0
LINE
8
BLACK
6
CONTINUOUS
10
6.9498216929133854
20
-3.3268285826771651
11
6.9467083858267715
21
-3.324748307086614
0
LINE
8
BLACK
6
CONTINUOUS
10
6.9467083858267715
20
-3.324748307086614
11
6.94462811023622
21
-3.3216350000000001
0
LINE
8
BLACK
6
CONTINUOUS
10
6.94462811023622
20
-3.3216350000000001
11
6.943897637795275
21
-3.3179625984251966
0
LINE
8
BLACK
6
CONTINUOUS
10
6.943897637795275
20
-3.3179625984251966
11
6.943897637795275
21
-3.2820374015748031
0
LINE
8
BLACK
6
CONTINUOUS
10
6.943897637795275
20
-3.2820374015748031
11
6.94462811023622
21
-3.278365
0
LINE
8
BLACK
6
CONTINUOUS
10
6.94462811023622
20
-3.278365
11
6.9467083858267715
21
-3.2752516929133857
0
LINE
8
BLACK
6
CONTINUOUS
10
6.9467083858267715
20
-3.2752516929133857
11
6.9498216929133854
21
-3.2731714173228346
0
LINE
8
BLACK
6
CONTINUOUS
10
6.9498216929133854
20
-3.2731714173228346
11
6.9534940944881889
21
-3.2724409448818896
0
LINE
8
BLACK
6
CONTINUOUS
10
6.9534940944881889
20
-3.2724409448818896
11
6.9726870078740157
21
-3.2724409448818896
0
LINE
8
BLACK
6
CONTINUOUS
10
6.9726870078740157
20
-3.2724409448818896
11
6.9763594094488184
21
-3.2731714173228346
0
LINE
8
BLACK
6
CONTINUOUS
10
7.0501783070866137
20
-3.2731714173228346
11
7.0532916141732285
21
-3.2752516929133857
0
LINE
8
BLACK
6
CONTINUOUS
10
7.0532916141732285
20
-3.2752516929133857
11
7.0553718897637792
21
-3.278365
0
LINE
8
BLACK
6
CONTINUOUS
10
7.0553718897637792
20
-3.278365
11
7.0561023622047241
21
-3.2820374015748031
0
LINE
8
BLACK
6
CONTINUOUS
10
7.0561023622047241
20
-3.2820374015748031
11
7.0561023622047241
21
-3.3179625984251966
0
LINE
8
BLACK
6
CONTINUOUS
10
7.0561023622047241
20
-3.3179625984251966
11
7.0553718897637792
21
-3.3216350000000001
0
LINE
8
BLACK
6
CONTINUOUS
10
7.0553718897637792
20
-3.3216350000000001
11
7.0532916141732285
21
-3.324748307086614
0
LINE
8
BLACK
6
CONTINUOUS
10
7.0532916141732285
20
-3.324748307086614
11
7.0501783070866137
21
-3.3268285826771651
0
LINE
8
BLACK
6
CONTINUOUS
10
7.0501783070866137
20
-3.3268285826771651
11
7.0465059055118111
21
-3.32755905511811
0
LINE
8
BLACK
6
CONTINUOUS
10
7.0465059055118111
20
-3.32755905511811
11
7.0273129921259843
21
-3.32755905511811
0
LINE
8
BLACK
6
CONTINUOUS
10
7.0273129921259843
20
-3.32755905511811
11
7.0236405905511807
21
-3.3268285826771651
0
LINE
8
BLACK
6
CONTINUOUS
10
7.0236405905511807
20
-3.3268285826771651
11
7.0205272834645669
21
-3.324748307086614
0
LINE
8
BLACK
6
CONTINUOUS
10
7.0205272834645669
20
-3.324748307086614
11
7.0184470078740153
21
-3.3216350000000001
0
LINE
8
BLACK
6
CONTINUOUS
10
7.0184470078740153
20
-3.3216350000000001
11
7.0177165354330704
21
-3.3179625984251966
0
LINE
8
BLACK
6
CONTINUOUS
10
7.0177165354330704
20
-3.3179625984251966
11
7.0177165354330704
21
-3.2820374015748031
0
LINE
8
BLACK
6
CONTINUOUS
10
7.0177165354330704
20
-3.2820374015748031
11
7.0184470078740153
21
-3.278365
0
LINE
8
BLACK
6
CONTINUOUS
10
7.0184470078740153
20
-3.278365
11
7.0205272834645669
21
-3.2752516929133857
0
LINE
8
BLACK
6
CONTINUOUS
10
7.0205272834645669
20
-3.2752516929133857
11
7.0236405905511807
21
-3.2731714173228346
0
LINE
8
BLACK
6
CONTINUOUS
10
7.0236405905511807
20
-3.2731714173228346
11
7.0273129921259843
21
-3.2724409448818896
0
LINE
8
BLACK
6
CONTINUOUS
10
7.0273129921259843
20
-3.2724409448818896
11
7.0465059055118111
21
-3.2724409448818896
0
LINE
8
BLACK
6
CONTINUOUS
10
7.0465059055118111
20
-3.2724409448818896
11
7.0501783070866137
21
-3.2731714173228346
0
LINE
8
BLACK
6
CONTINUOUS
10
3.4422508267716534
20
-2.9731901574803148
11
3.4454439763779527
21
-2.9753237401574801
0
LINE
8
BLACK
6
CONTINUOUS
10
3.4454439763779527
20
-2.9753237401574801
11
3.4475775590551181
21
-2.9785168897637795
0
LINE
8
BLACK
6
CONTINUOUS
10
3.4475775590551181
20
-2.9785168897637795
11
3.4483267716535431
21
-2.9822834645669292
0
LINE
8
BLACK
6
CONTINUOUS
10
3.4483267716535431
20
-2.9822834645669292
11
3.4483267716535431
21
-3.0177165354330708
0
LINE
8
BLACK
6
CONTINUOUS
10
3.4483267716535431
20
-3.0177165354330708
11
3.4475775590551181
21
-3.0214831102362205
0
LINE
8
BLACK
6
CONTINUOUS
10
3.4475775590551181
20
-3.0214831102362205
11
3.4454439763779527
21
-3.0246762598425194
0
LINE
8
BLACK
6
CONTINUOUS
10
3.4454439763779527
20
-3.0246762598425194
11
3.4422508267716534
21
-3.0268098425196848
0
LINE
8
BLACK
6
CONTINUOUS
10
3.4422508267716534
20
-3.0268098425196848
11
3.4384842519685037
21
-3.0275590551181102
0
LINE
8
BLACK
6
CONTINUOUS
10
3.4384842519685037
20
-3.0275590551181102
11
3.4178149606299213
21
-3.0275590551181102
0
LINE
8
BLACK
6
CONTINUOUS
10
3.4178149606299213
20
-3.0275590551181102
11
3.4140483858267716
21
-3.0268098425196848
0
LINE
8
BLACK
6
CONTINUOUS
10
3.4140483858267716
20
-3.0268098425196848
11
3.4108552362204723
21
-3.0246762598425194
0
LINE
8
BLACK
6
CONTINUOUS
10
3.4108552362204723
20
-3.0246762598425194
11
3.4087216535433069
21
-3.0214831102362205
0
LINE
8
BLACK
6
CONTINUOUS
10
3.4087216535433069
20
-3.0214831102362205
11
3.4079724409448819
21
-3.0177165354330708
0
LINE
8
BLACK
6
CONTINUOUS
10
3.4079724409448819
20
-3.0177165354330708
11
3.4079724409448819
21
-2.9822834645669292
0
LINE
8
BLACK
6
CONTINUOUS
10
3.4079724409448819
20
-2.9822834645669292
11
3.4087216535433069
21
-2.9785168897637795
0
LINE
8
BLACK
6
CONTINUOUS
10
3.4087216535433069
20
-2.9785168897637795
11
3.4108552362204723
21
-2.9753237401574801
0
LINE
8
BLACK
6
CONTINUOUS
10
3.4108552362204723
20
-2.9753237401574801
11
3.4140483858267716
21
-2.9731901574803148
0
LINE
8
BLACK
6
CONTINUOUS
10
3.4140483858267716
20
-2.9731901574803148
11
3.4178149606299213
21
-2.9724409448818898
0
LINE
8
BLACK
6
CONTINUOUS
10
3.4178149606299213
20
-2.9724409448818898
11
3.4384842519685037
21
-2.9724409448818898
0
LINE
8
BLACK
6
CONTINUOUS
10
3.4384842519685037
20
-2.9724409448818898
11
3.4422508267716534
21
-2.9731901574803148
0
LINE
8
BLACK
6
CONTINUOUS
10
3.5141012204724409
20
-2.9731901574803148
11
3.5172943700787402
21
-2.9753237401574801
0
LINE
8
BLACK
6
CONTINUOUS
10
3.5172943700787402
20
-2.9753237401574801
11
3.5194279527559056
21
-2.9785168897637795
0
LINE
8
BLACK
6
CONTINUOUS
10
3.5194279527559056
20
-2.9785168897637795
11
3.5201771653543306
21
-2.9822834645669292
0
LINE
8
BLACK
6
CONTINUOUS
10
3.5201771653543306
20
-2.9822834645669292
11
3.5201771653543306
21
-3.0177165354330708
0
LINE
8
BLACK
6
CONTINUOUS
10
3.5201771653543306
20
-3.0177165354330708
11
3.5194279527559056
21
-3.0214831102362205
0
LINE
8
BLACK
6
CONTINUOUS
10
3.5194279527559056
20
-3.0214831102362205
11
3.5172943700787402
21
-3.0246762598425194
0
LINE
8
BLACK
6
CONTINUOUS
10
3.5172943700787402
20
-3.0246762598425194
11
3.5141012204724409
21
-3.0268098425196848
0
LINE
8
BLACK
6
CONTINUOUS
10
3.5141012204724409
20
-3.0268098425196848
11
3.5103346456692912
21
-3.0275590551181102
0
LINE
8
BLACK
6
CONTINUOUS
10
3.5103346456692912
20
-3.0275590551181102
11
3.4896653543307088
21
-3.0275590551181102
0
LINE
8
BLACK
6
CONTINUOUS
10
3.4896653543307088
20
-3.0275590551181102
11
3.4858987795275591
21
-3.0268098425196848
0
LINE
8
BLACK
6
CONTINUOUS
10
3.4858987795275591
20
-3.0268098425196848
11
3.4827056299212598
21
-3.0246762598425194
0
LINE
8
BLACK
6
CONTINUOUS
10
3.4827056299212598
20
-3.0246762598425194
11
3.4805720472440944
21
-3.0214831102362205
0
LINE
8
BLACK
6
CONTINUOUS
10
3.4805720472440944
20
-3.0214831102362205
11
3.479822834645669
21
-3.0177165354330708
0
LINE
8
BLACK
6
CONTINUOUS
10
3.479822834645669
20
-3.0177165354330708
11
3.479822834645669
21
-2.9822834645669292
0
LINE
8
BLACK
6
CONTINUOUS
10
3.479822834645669
20
-2.9822834645669292
11
3.4805720472440944
21
-2.9785168897637795
0
LINE
8
BLACK
6
CONTINUOUS
10
3.4805720472440944
20
-2.9785168897637795
11
3.4827056299212598
21
-2.9753237401574801
0
LINE
8
BLACK
6
CONTINUOUS
10
3.4827056299212598
20
-2.9753237401574801
11
3.4858987795275591
21
-2.9731901574803148
0
LINE
8
BLACK
6
CONTINUOUS
10
3.4858987795275591
20
-2.9731901574803148
11
3.4896653543307088
21
-2.9724409448818898
0
LINE
8
BLACK
6
CONTINUOUS
10
3.4896653543307088
20
-2.9724409448818898
11
3.5103346456692912
21
-2.9724409448818898
0
LINE
8
BLACK
6
CONTINUOUS
10
3.5103346456692912
20
-2.9724409448818898
11
3.5141012204724409
21
-2.9731901574803148
  0
ENDSEC
  0
EOF
