  0
SECTION
  2
HEADER
  9
$ANGBASE
  50
0.0
  9
$ANGDIR
  70
1
  9
$MEASUREMENT
  70
0
  0
ENDSEC
  0
SECTION
  2
TABLES
  0
TABLE
  2
LTYPE
  70
4
  0
LTYPE
  5
40F
  2
CONTINUOUS
  70
0
  3
Solid line
  72
65
  73
0
  40
0.0
  0
LTYPE
  5
410
  2
DASHDOT
 70
0
  3
Dash Dot ____ _ ____ _
 72
65
 73
4
 40
2.0
 49
1.25
 49
-0.25
 49
0.25
 49
-0.25
  0
LTYPE
  5
411
  2
DASHED
 70
0
  3
Dashed __ __ __ __ __
 72
65
 73
2
 40
0.75
 49
0.5
 49
-0.25
  0
LTYPE
  5
43B
  2
DOTTED
 70
0
  3
Dotted .  .  .  .
 72
65
 73
2
 40
0.2
 49
0.0
 49
-0.2
  0
ENDTAB
  0
TABLE
  2
STYLE
  70
4
  0
STYLE
  2
KICAD
  70
0
  40
0
  41
1
  42
1
  50
0
  71
0
  3
isocp.shx
  0
STYLE
  2
KICADB
  70
0
  40
0
  41
1
  42
1
  50
0
  71
0
  3
isocp.shx
  0
STYLE
  2
KICADI
  70
0
  40
0
  41
1
  42
1
  50
15
  71
0
  3
isocp.shx
  0
STYLE
  2
KICADBI
  70
0
  40
0
  41
1
  42
1
  50
15
  71
0
  3
isocp.shx
  0
ENDTAB
  0
TABLE
  2
LAYER
  70
1
  0
LAYER
  2
BLACK
  70
0
  62
7
  6
CONTINUOUS
  0
ENDTAB
  0
ENDSEC
  0
SECTION
  2
ENTITIES
0
LINE
8
BLACK
6
CONTINUOUS
10
7.0410403937007873
20
-3.8605344094488188
11
7.041732283464567
21
-3.8622047244094486
0
LINE
8
BLACK
6
CONTINUOUS
10
7.041732283464567
20
-3.8622047244094486
11
7.0410403937007873
21
-3.8638750393700785
0
LINE
8
BLACK
6
CONTINUOUS
10
7.0410403937007873
20
-3.8638750393700785
11
7.0393700787401574
21
-3.8645669291338582
0
LINE
8
BLACK
6
CONTINUOUS
10
7.0393700787401574
20
-3.8645669291338582
11
6.9360236220472435
21
-3.8645669291338582
0
LINE
8
BLACK
6
CONTINUOUS
10
6.9360236220472435
20
-3.8645669291338582
11
6.9360236220472435
21
-3.9354330708661416
0
LINE
8
BLACK
6
CONTINUOUS
10
6.9360236220472435
20
-3.9354330708661416
11
7.0393700787401574
21
-3.9354330708661416
0
LINE
8
BLACK
6
CONTINUOUS
10
7.0393700787401574
20
-3.9354330708661416
11
7.0410403937007873
21
-3.9361249606299213
0
LINE
8
BLACK
6
CONTINUOUS
10
7.0410403937007873
20
-3.9361249606299213
11
7.041732283464567
21
-3.9377952755905512
0
LINE
8
BLACK
6
CONTINUOUS
10
7.041732283464567
20
-3.9377952755905512
11
7.0410403937007873
21
-3.9394655905511811
0
LINE
8
BLACK
6
CONTINUOUS
10
7.0410403937007873
20
-3.9394655905511811
11
7.0393700787401574
21
-3.9401574803149604
0
LINE
8
BLACK
6
CONTINUOUS
10
7.0393700787401574
20
-3.9401574803149604
11
6.9336614173228348
21
-3.9401574803149604
0
LINE
8
BLACK
6
CONTINUOUS
10
6.9336614173228348
20
-3.9401574803149604
11
6.9319911023622049
21
-3.9394655905511811
0
LINE
8
BLACK
6
CONTINUOUS
10
6.9319911023622049
20
-3.9394655905511811
11
6.9312992125984252
21
-3.9377952755905512
0
LINE
8
BLACK
6
CONTINUOUS
10
6.9312992125984252
20
-3.9377952755905512
11
6.9312992125984252
21
-3.8622047244094486
0
LINE
8
BLACK
6
CONTINUOUS
10
6.9312992125984252
20
-3.8622047244094486
11
6.9319911023622049
21
-3.8605344094488188
0
LINE
8
BLACK
6
CONTINUOUS
10
6.9319911023622049
20
-3.8605344094488188
11
6.9336614173228348
21
-3.8598425196850394
0
LINE
8
BLACK
6
CONTINUOUS
10
6.9336614173228348
20
-3.8598425196850394
11
7.0393700787401574
21
-3.8598425196850394
0
LINE
8
BLACK
6
CONTINUOUS
10
7.0393700787401574
20
-3.8598425196850394
11
7.0410403937007873
21
-3.8605344094488188
0
LINE
8
BLACK
6
CONTINUOUS
10
5.8746846456692916
20
-3.9272666929133857
11
5.8753765354330705
21
-3.9289370078740156
0
LINE
8
BLACK
6
CONTINUOUS
10
5.8753765354330705
20
-3.9289370078740156
11
5.8746846456692916
21
-3.9306073228346454
0
LINE
8
BLACK
6
CONTINUOUS
10
5.8746846456692916
20
-3.9306073228346454
11
5.8730143307086609
21
-3.9312992125984252
0
LINE
8
BLACK
6
CONTINUOUS
10
5.8730143307086609
20
-3.9312992125984252
11
5.855135275590551
21
-3.9312992125984252
0
LINE
8
BLACK
6
CONTINUOUS
10
5.855135275590551
20
-3.9312992125984252
11
5.8534649606299212
21
-3.9306073228346454
0
LINE
8
BLACK
6
CONTINUOUS
10
5.8534649606299212
20
-3.9306073228346454
11
5.8527730708661414
21
-3.9289370078740156
0
LINE
8
BLACK
6
CONTINUOUS
10
5.8527730708661414
20
-3.9289370078740156
11
5.8534649606299212
21
-3.9272666929133857
0
LINE
8
BLACK
6
CONTINUOUS
10
5.8534649606299212
20
-3.9272666929133857
11
5.855135275590551
21
-3.9265748031496064
0
LINE
8
BLACK
6
CONTINUOUS
10
5.855135275590551
20
-3.9265748031496064
11
5.8730143307086609
21
-3.9265748031496064
0
LINE
8
BLACK
6
CONTINUOUS
10
5.8730143307086609
20
-3.9265748031496064
11
5.8746846456692916
21
-3.9272666929133857
0
LINE
8
BLACK
6
CONTINUOUS
10
5.8746846456692916
20
-3.8693926771653544
11
5.8753765354330705
21
-3.8710629921259843
0
LINE
8
BLACK
6
CONTINUOUS
10
5.8753765354330705
20
-3.8710629921259843
11
5.8746846456692916
21
-3.8727333070866141
0
LINE
8
BLACK
6
CONTINUOUS
10
5.8746846456692916
20
-3.8727333070866141
11
5.8730143307086609
21
-3.8734251968503934
0
LINE
8
BLACK
6
CONTINUOUS
10
5.8730143307086609
20
-3.8734251968503934
11
5.855135275590551
21
-3.8734251968503934
0
LINE
8
BLACK
6
CONTINUOUS
10
5.855135275590551
20
-3.8734251968503934
11
5.8534649606299212
21
-3.8727333070866141
0
LINE
8
BLACK
6
CONTINUOUS
10
5.8534649606299212
20
-3.8727333070866141
11
5.8527730708661414
21
-3.8710629921259843
0
LINE
8
BLACK
6
CONTINUOUS
10
5.8527730708661414
20
-3.8710629921259843
11
5.8534649606299212
21
-3.8693926771653544
0
LINE
8
BLACK
6
CONTINUOUS
10
5.8534649606299212
20
-3.8693926771653544
11
5.855135275590551
21
-3.8687007874015746
0
LINE
8
BLACK
6
CONTINUOUS
10
5.855135275590551
20
-3.8687007874015746
11
5.8730143307086609
21
-3.8687007874015746
0
LINE
8
BLACK
6
CONTINUOUS
10
5.8730143307086609
20
-3.8687007874015746
11
5.8746846456692916
21
-3.8693926771653544
0
LINE
8
BLACK
6
CONTINUOUS
10
7.0410403937007873
20
-3.7605344094488187
11
7.041732283464567
21
-3.7622047244094485
0
LINE
8
BLACK
6
CONTINUOUS
10
7.041732283464567
20
-3.7622047244094485
11
7.0410403937007873
21
-3.7638750393700788
0
LINE
8
BLACK
6
CONTINUOUS
10
7.0410403937007873
20
-3.7638750393700788
11
7.0393700787401574
21
-3.7645669291338582
0
LINE
8
BLACK
6
CONTINUOUS
10
7.0393700787401574
20
-3.7645669291338582
11
6.9360236220472435
21
-3.7645669291338582
0
LINE
8
BLACK
6
CONTINUOUS
10
6.9360236220472435
20
-3.7645669291338582
11
6.9360236220472435
21
-3.8354330708661415
0
LINE
8
BLACK
6
CONTINUOUS
10
6.9360236220472435
20
-3.8354330708661415
11
7.0393700787401574
21
-3.8354330708661415
0
LINE
8
BLACK
6
CONTINUOUS
10
7.0393700787401574
20
-3.8354330708661415
11
7.0410403937007873
21
-3.8361249606299213
0
LINE
8
BLACK
6
CONTINUOUS
10
7.0410403937007873
20
-3.8361249606299213
11
7.041732283464567
21
-3.8377952755905511
0
LINE
8
BLACK
6
CONTINUOUS
10
7.041732283464567
20
-3.8377952755905511
11
7.0410403937007873
21
-3.839465590551181
0
LINE
8
BLACK
6
CONTINUOUS
10
7.0410403937007873
20
-3.839465590551181
11
7.0393700787401574
21
-3.8401574803149607
0
LINE
8
BLACK
6
CONTINUOUS
10
7.0393700787401574
20
-3.8401574803149607
11
6.9336614173228348
21
-3.8401574803149607
0
LINE
8
BLACK
6
CONTINUOUS
10
6.9336614173228348
20
-3.8401574803149607
11
6.9319911023622049
21
-3.839465590551181
0
LINE
8
BLACK
6
CONTINUOUS
10
6.9319911023622049
20
-3.839465590551181
11
6.9312992125984252
21
-3.8377952755905511
0
LINE
8
BLACK
6
CONTINUOUS
10
6.9312992125984252
20
-3.8377952755905511
11
6.9312992125984252
21
-3.7622047244094485
0
LINE
8
BLACK
6
CONTINUOUS
10
6.9312992125984252
20
-3.7622047244094485
11
6.9319911023622049
21
-3.7605344094488187
0
LINE
8
BLACK
6
CONTINUOUS
10
6.9319911023622049
20
-3.7605344094488187
11
6.9336614173228348
21
-3.7598425196850394
0
LINE
8
BLACK
6
CONTINUOUS
10
6.9336614173228348
20
-3.7598425196850394
11
7.0393700787401574
21
-3.7598425196850394
0
LINE
8
BLACK
6
CONTINUOUS
10
7.0393700787401574
20
-3.7598425196850394
11
7.0410403937007873
21
-3.7605344094488187
0
LINE
8
BLACK
6
CONTINUOUS
10
5.8746846456692916
20
-3.8272666929133856
11
5.8753765354330705
21
-3.8289370078740155
0
LINE
8
BLACK
6
CONTINUOUS
10
5.8753765354330705
20
-3.8289370078740155
11
5.8746846456692916
21
-3.8306073228346458
0
LINE
8
BLACK
6
CONTINUOUS
10
5.8746846456692916
20
-3.8306073228346458
11
5.8730143307086609
21
-3.8312992125984251
0
LINE
8
BLACK
6
CONTINUOUS
10
5.8730143307086609
20
-3.8312992125984251
11
5.855135275590551
21
-3.8312992125984251
0
LINE
8
BLACK
6
CONTINUOUS
10
5.855135275590551
20
-3.8312992125984251
11
5.8534649606299212
21
-3.8306073228346458
0
LINE
8
BLACK
6
CONTINUOUS
10
5.8534649606299212
20
-3.8306073228346458
11
5.8527730708661414
21
-3.8289370078740155
0
LINE
8
BLACK
6
CONTINUOUS
10
5.8527730708661414
20
-3.8289370078740155
11
5.8534649606299212
21
-3.8272666929133856
0
LINE
8
BLACK
6
CONTINUOUS
10
5.8534649606299212
20
-3.8272666929133856
11
5.855135275590551
21
-3.8265748031496063
0
LINE
8
BLACK
6
CONTINUOUS
10
5.855135275590551
20
-3.8265748031496063
11
5.8730143307086609
21
-3.8265748031496063
0
LINE
8
BLACK
6
CONTINUOUS
10
5.8730143307086609
20
-3.8265748031496063
11
5.8746846456692916
21
-3.8272666929133856
0
LINE
8
BLACK
6
CONTINUOUS
10
5.8746846456692916
20
-3.7693926771653543
11
5.8753765354330705
21
-3.7710629921259842
0
LINE
8
BLACK
6
CONTINUOUS
10
5.8753765354330705
20
-3.7710629921259842
11
5.8746846456692916
21
-3.772733307086614
0
LINE
8
BLACK
6
CONTINUOUS
10
5.8746846456692916
20
-3.772733307086614
11
5.8730143307086609
21
-3.7734251968503938
0
LINE
8
BLACK
6
CONTINUOUS
10
5.8730143307086609
20
-3.7734251968503938
11
5.855135275590551
21
-3.7734251968503938
0
LINE
8
BLACK
6
CONTINUOUS
10
5.855135275590551
20
-3.7734251968503938
11
5.8534649606299212
21
-3.772733307086614
0
LINE
8
BLACK
6
CONTINUOUS
10
5.8534649606299212
20
-3.772733307086614
11
5.8527730708661414
21
-3.7710629921259842
0
LINE
8
BLACK
6
CONTINUOUS
10
5.8527730708661414
20
-3.7710629921259842
11
5.8534649606299212
21
-3.7693926771653543
0
LINE
8
BLACK
6
CONTINUOUS
10
5.8534649606299212
20
-3.7693926771653543
11
5.855135275590551
21
-3.7687007874015745
0
LINE
8
BLACK
6
CONTINUOUS
10
5.855135275590551
20
-3.7687007874015745
11
5.8730143307086609
21
-3.7687007874015745
0
LINE
8
BLACK
6
CONTINUOUS
10
5.8730143307086609
20
-3.7687007874015745
11
5.8746846456692916
21
-3.7693926771653543
0
LINE
8
BLACK
6
CONTINUOUS
10
7.0410403937007873
20
-3.660534409448819
11
7.041732283464567
21
-3.6622047244094489
0
LINE
8
BLACK
6
CONTINUOUS
10
7.041732283464567
20
-3.6622047244094489
11
7.0410403937007873
21
-3.6638750393700787
0
LINE
8
BLACK
6
CONTINUOUS
10
7.0410403937007873
20
-3.6638750393700787
11
7.0393700787401574
21
-3.6645669291338581
0
LINE
8
BLACK
6
CONTINUOUS
10
7.0393700787401574
20
-3.6645669291338581
11
6.9360236220472435
21
-3.6645669291338581
0
LINE
8
BLACK
6
CONTINUOUS
10
6.9360236220472435
20
-3.6645669291338581
11
6.9360236220472435
21
-3.7354330708661418
0
LINE
8
BLACK
6
CONTINUOUS
10
6.9360236220472435
20
-3.7354330708661418
11
7.0393700787401574
21
-3.7354330708661418
0
LINE
8
BLACK
6
CONTINUOUS
10
7.0393700787401574
20
-3.7354330708661418
11
7.0410403937007873
21
-3.7361249606299212
0
LINE
8
BLACK
6
CONTINUOUS
10
7.0410403937007873
20
-3.7361249606299212
11
7.041732283464567
21
-3.737795275590551
0
LINE
8
BLACK
6
CONTINUOUS
10
7.041732283464567
20
-3.737795275590551
11
7.0410403937007873
21
-3.7394655905511809
0
LINE
8
BLACK
6
CONTINUOUS
10
7.0410403937007873
20
-3.7394655905511809
11
7.0393700787401574
21
-3.7401574803149606
0
LINE
8
BLACK
6
CONTINUOUS
10
7.0393700787401574
20
-3.7401574803149606
11
6.9336614173228348
21
-3.7401574803149606
0
LINE
8
BLACK
6
CONTINUOUS
10
6.9336614173228348
20
-3.7401574803149606
11
6.9319911023622049
21
-3.7394655905511809
0
LINE
8
BLACK
6
CONTINUOUS
10
6.9319911023622049
20
-3.7394655905511809
11
6.9312992125984252
21
-3.737795275590551
0
LINE
8
BLACK
6
CONTINUOUS
10
6.9312992125984252
20
-3.737795275590551
11
6.9312992125984252
21
-3.6622047244094489
0
LINE
8
BLACK
6
CONTINUOUS
10
6.9312992125984252
20
-3.6622047244094489
11
6.9319911023622049
21
-3.660534409448819
0
LINE
8
BLACK
6
CONTINUOUS
10
6.9319911023622049
20
-3.660534409448819
11
6.9336614173228348
21
-3.6598425196850393
0
LINE
8
BLACK
6
CONTINUOUS
10
6.9336614173228348
20
-3.6598425196850393
11
7.0393700787401574
21
-3.6598425196850393
0
LINE
8
BLACK
6
CONTINUOUS
10
7.0393700787401574
20
-3.6598425196850393
11
7.0410403937007873
21
-3.660534409448819
0
LINE
8
BLACK
6
CONTINUOUS
10
5.8746846456692916
20
-3.7272666929133855
11
5.8753765354330705
21
-3.7289370078740158
0
LINE
8
BLACK
6
CONTINUOUS
10
5.8753765354330705
20
-3.7289370078740158
11
5.8746846456692916
21
-3.7306073228346457
0
LINE
8
BLACK
6
CONTINUOUS
10
5.8746846456692916
20
-3.7306073228346457
11
5.8730143307086609
21
-3.731299212598425
0
LINE
8
BLACK
6
CONTINUOUS
10
5.8730143307086609
20
-3.731299212598425
11
5.855135275590551
21
-3.731299212598425
0
LINE
8
BLACK
6
CONTINUOUS
10
5.855135275590551
20
-3.731299212598425
11
5.8534649606299212
21
-3.7306073228346457
0
LINE
8
BLACK
6
CONTINUOUS
10
5.8534649606299212
20
-3.7306073228346457
11
5.8527730708661414
21
-3.7289370078740158
0
LINE
8
BLACK
6
CONTINUOUS
10
5.8527730708661414
20
-3.7289370078740158
11
5.8534649606299212
21
-3.7272666929133855
0
LINE
8
BLACK
6
CONTINUOUS
10
5.8534649606299212
20
-3.7272666929133855
11
5.855135275590551
21
-3.7265748031496062
0
LINE
8
BLACK
6
CONTINUOUS
10
5.855135275590551
20
-3.7265748031496062
11
5.8730143307086609
21
-3.7265748031496062
0
LINE
8
BLACK
6
CONTINUOUS
10
5.8730143307086609
20
-3.7265748031496062
11
5.8746846456692916
21
-3.7272666929133855
0
LINE
8
BLACK
6
CONTINUOUS
10
5.8746846456692916
20
-3.6693926771653542
11
5.8753765354330705
21
-3.6710629921259841
0
LINE
8
BLACK
6
CONTINUOUS
10
5.8753765354330705
20
-3.6710629921259841
11
5.8746846456692916
21
-3.6727333070866139
0
LINE
8
BLACK
6
CONTINUOUS
10
5.8746846456692916
20
-3.6727333070866139
11
5.8730143307086609
21
-3.6734251968503937
0
LINE
8
BLACK
6
CONTINUOUS
10
5.8730143307086609
20
-3.6734251968503937
11
5.855135275590551
21
-3.6734251968503937
0
LINE
8
BLACK
6
CONTINUOUS
10
5.855135275590551
20
-3.6734251968503937
11
5.8534649606299212
21
-3.6727333070866139
0
LINE
8
BLACK
6
CONTINUOUS
10
5.8534649606299212
20
-3.6727333070866139
11
5.8527730708661414
21
-3.6710629921259841
0
LINE
8
BLACK
6
CONTINUOUS
10
5.8527730708661414
20
-3.6710629921259841
11
5.8534649606299212
21
-3.6693926771653542
0
LINE
8
BLACK
6
CONTINUOUS
10
5.8534649606299212
20
-3.6693926771653542
11
5.855135275590551
21
-3.6687007874015749
0
LINE
8
BLACK
6
CONTINUOUS
10
5.855135275590551
20
-3.6687007874015749
11
5.8730143307086609
21
-3.6687007874015749
0
LINE
8
BLACK
6
CONTINUOUS
10
5.8730143307086609
20
-3.6687007874015749
11
5.8746846456692916
21
-3.6693926771653542
0
LINE
8
BLACK
6
CONTINUOUS
10
7.0410403937007873
20
-3.5605344094488189
11
7.041732283464567
21
-3.5622047244094488
0
LINE
8
BLACK
6
CONTINUOUS
10
7.041732283464567
20
-3.5622047244094488
11
7.0410403937007873
21
-3.5638750393700787
0
LINE
8
BLACK
6
CONTINUOUS
10
7.0410403937007873
20
-3.5638750393700787
11
7.0393700787401574
21
-3.564566929133858
0
LINE
8
BLACK
6
CONTINUOUS
10
7.0393700787401574
20
-3.564566929133858
11
6.9360236220472435
21
-3.564566929133858
0
LINE
8
BLACK
6
CONTINUOUS
10
6.9360236220472435
20
-3.564566929133858
11
6.9360236220472435
21
-3.6354330708661418
0
LINE
8
BLACK
6
CONTINUOUS
10
6.9360236220472435
20
-3.6354330708661418
11
7.0393700787401574
21
-3.6354330708661418
0
LINE
8
BLACK
6
CONTINUOUS
10
7.0393700787401574
20
-3.6354330708661418
11
7.0410403937007873
21
-3.6361249606299211
0
LINE
8
BLACK
6
CONTINUOUS
10
7.0410403937007873
20
-3.6361249606299211
11
7.041732283464567
21
-3.6377952755905509
0
LINE
8
BLACK
6
CONTINUOUS
10
7.041732283464567
20
-3.6377952755905509
11
7.0410403937007873
21
-3.6394655905511812
0
LINE
8
BLACK
6
CONTINUOUS
10
7.0410403937007873
20
-3.6394655905511812
11
7.0393700787401574
21
-3.6401574803149606
0
LINE
8
BLACK
6
CONTINUOUS
10
7.0393700787401574
20
-3.6401574803149606
11
6.9336614173228348
21
-3.6401574803149606
0
LINE
8
BLACK
6
CONTINUOUS
10
6.9336614173228348
20
-3.6401574803149606
11
6.9319911023622049
21
-3.6394655905511812
0
LINE
8
BLACK
6
CONTINUOUS
10
6.9319911023622049
20
-3.6394655905511812
11
6.9312992125984252
21
-3.6377952755905509
0
LINE
8
BLACK
6
CONTINUOUS
10
6.9312992125984252
20
-3.6377952755905509
11
6.9312992125984252
21
-3.5622047244094488
0
LINE
8
BLACK
6
CONTINUOUS
10
6.9312992125984252
20
-3.5622047244094488
11
6.9319911023622049
21
-3.5605344094488189
0
LINE
8
BLACK
6
CONTINUOUS
10
6.9319911023622049
20
-3.5605344094488189
11
6.9336614173228348
21
-3.5598425196850392
0
LINE
8
BLACK
6
CONTINUOUS
10
6.9336614173228348
20
-3.5598425196850392
11
7.0393700787401574
21
-3.5598425196850392
0
LINE
8
BLACK
6
CONTINUOUS
10
7.0393700787401574
20
-3.5598425196850392
11
7.0410403937007873
21
-3.5605344094488189
0
LINE
8
BLACK
6
CONTINUOUS
10
5.8746846456692916
20
-3.6272666929133859
11
5.8753765354330705
21
-3.6289370078740157
0
LINE
8
BLACK
6
CONTINUOUS
10
5.8753765354330705
20
-3.6289370078740157
11
5.8746846456692916
21
-3.6306073228346456
0
LINE
8
BLACK
6
CONTINUOUS
10
5.8746846456692916
20
-3.6306073228346456
11
5.8730143307086609
21
-3.6312992125984249
0
LINE
8
BLACK
6
CONTINUOUS
10
5.8730143307086609
20
-3.6312992125984249
11
5.855135275590551
21
-3.6312992125984249
0
LINE
8
BLACK
6
CONTINUOUS
10
5.855135275590551
20
-3.6312992125984249
11
5.8534649606299212
21
-3.6306073228346456
0
LINE
8
BLACK
6
CONTINUOUS
10
5.8534649606299212
20
-3.6306073228346456
11
5.8527730708661414
21
-3.6289370078740157
0
LINE
8
BLACK
6
CONTINUOUS
10
5.8527730708661414
20
-3.6289370078740157
11
5.8534649606299212
21
-3.6272666929133859
0
LINE
8
BLACK
6
CONTINUOUS
10
5.8534649606299212
20
-3.6272666929133859
11
5.855135275590551
21
-3.6265748031496061
0
LINE
8
BLACK
6
CONTINUOUS
10
5.855135275590551
20
-3.6265748031496061
11
5.8730143307086609
21
-3.6265748031496061
0
LINE
8
BLACK
6
CONTINUOUS
10
5.8730143307086609
20
-3.6265748031496061
11
5.8746846456692916
21
-3.6272666929133859
0
LINE
8
BLACK
6
CONTINUOUS
10
5.8746846456692916
20
-3.5693926771653541
11
5.8753765354330705
21
-3.571062992125984
0
LINE
8
BLACK
6
CONTINUOUS
10
5.8753765354330705
20
-3.571062992125984
11
5.8746846456692916
21
-3.5727333070866143
0
LINE
8
BLACK
6
CONTINUOUS
10
5.8746846456692916
20
-3.5727333070866143
11
5.8730143307086609
21
-3.5734251968503936
0
LINE
8
BLACK
6
CONTINUOUS
10
5.8730143307086609
20
-3.5734251968503936
11
5.855135275590551
21
-3.5734251968503936
0
LINE
8
BLACK
6
CONTINUOUS
10
5.855135275590551
20
-3.5734251968503936
11
5.8534649606299212
21
-3.5727333070866143
0
LINE
8
BLACK
6
CONTINUOUS
10
5.8534649606299212
20
-3.5727333070866143
11
5.8527730708661414
21
-3.571062992125984
0
LINE
8
BLACK
6
CONTINUOUS
10
5.8527730708661414
20
-3.571062992125984
11
5.8534649606299212
21
-3.5693926771653541
0
LINE
8
BLACK
6
CONTINUOUS
10
5.8534649606299212
20
-3.5693926771653541
11
5.855135275590551
21
-3.5687007874015748
0
LINE
8
BLACK
6
CONTINUOUS
10
5.855135275590551
20
-3.5687007874015748
11
5.8730143307086609
21
-3.5687007874015748
0
LINE
8
BLACK
6
CONTINUOUS
10
5.8730143307086609
20
-3.5687007874015748
11
5.8746846456692916
21
-3.5693926771653541
0
LINE
8
BLACK
6
CONTINUOUS
10
4.8346327952755903
20
-3.5395125984251967
11
4.8353346456692909
21
-3.5414409448818898
0
LINE
8
BLACK
6
CONTINUOUS
10
4.8353346456692909
20
-3.5414409448818898
11
4.8353346456692909
21
-3.5564409448818899
0
LINE
8
BLACK
6
CONTINUOUS
10
4.8353346456692909
20
-3.5564409448818899
11
4.835265905511811
21
-3.5568307086614173
0
LINE
8
BLACK
6
CONTINUOUS
10
4.835265905511811
20
-3.5568307086614173
11
4.8352890551181105
21
-3.5569618897637794
0
LINE
8
BLACK
6
CONTINUOUS
10
4.8352890551181105
20
-3.5569618897637794
11
4.8352224409448814
21
-3.5570772047244095
0
LINE
8
BLACK
6
CONTINUOUS
10
4.8352224409448814
20
-3.5570772047244095
11
4.8351537401574802
21
-3.5574670078740156
0
LINE
8
BLACK
6
CONTINUOUS
10
4.8351537401574802
20
-3.5574670078740156
11
4.8346526377952754
21
-3.5580641338582675
0
LINE
8
BLACK
6
CONTINUOUS
10
4.8346526377952754
20
-3.5580641338582675
11
4.8342629921259839
21
-3.5587390944881889
0
LINE
8
BLACK
6
CONTINUOUS
10
4.8342629921259839
20
-3.5587390944881889
11
4.8340086220472438
21
-3.5588316535433071
0
LINE
8
BLACK
6
CONTINUOUS
10
4.8340086220472438
20
-3.5588316535433071
11
4.8338346456692909
21
-3.5590390157480316
0
LINE
8
BLACK
6
CONTINUOUS
10
4.8338346456692909
20
-3.5590390157480316
11
4.8330671259842521
21
-3.5591743307086614
0
LINE
8
BLACK
6
CONTINUOUS
10
4.8330671259842521
20
-3.5591743307086614
11
4.8323346456692908
21
-3.5594409448818896
0
LINE
8
BLACK
6
CONTINUOUS
10
4.8323346456692908
20
-3.5594409448818896
11
4.572334645669291
21
-3.5594409448818896
0
LINE
8
BLACK
6
CONTINUOUS
10
4.572334645669291
20
-3.5594409448818896
11
4.5719448425196854
21
-3.5593722047244092
0
LINE
8
BLACK
6
CONTINUOUS
10
4.5719448425196854
20
-3.5593722047244092
11
4.5718137007874011
21
-3.5593953543307086
0
LINE
8
BLACK
6
CONTINUOUS
10
4.5718137007874011
20
-3.5593953543307086
11
4.5716983464566932
21
-3.55932874015748
0
LINE
8
BLACK
6
CONTINUOUS
10
4.5716983464566932
20
-3.55932874015748
11
4.5713085826771653
21
-3.5592600393700788
0
LINE
8
BLACK
6
CONTINUOUS
10
4.5713085826771653
20
-3.5592600393700788
11
4.5707114173228343
21
-3.558758937007874
0
LINE
8
BLACK
6
CONTINUOUS
10
4.5707114173228343
20
-3.558758937007874
11
4.5700364960629924
21
-3.5583692913385825
0
LINE
8
BLACK
6
CONTINUOUS
10
4.5700364960629924
20
-3.5583692913385825
11
4.5699438976377955
21
-3.5581149212598424
0
LINE
8
BLACK
6
CONTINUOUS
10
4.5699438976377955
20
-3.5581149212598424
11
4.5697365748031498
21
-3.5579409448818895
0
LINE
8
BLACK
6
CONTINUOUS
10
4.5697365748031498
20
-3.5579409448818895
11
4.5696012204724408
21
-3.5571734251968503
0
LINE
8
BLACK
6
CONTINUOUS
10
4.5696012204724408
20
-3.5571734251968503
11
4.5693346456692909
21
-3.5564409448818899
0
LINE
8
BLACK
6
CONTINUOUS
10
4.5693346456692909
20
-3.5564409448818899
11
4.5693346456692909
21
-3.5414409448818898
0
LINE
8
BLACK
6
CONTINUOUS
10
4.5693346456692909
20
-3.5414409448818898
11
4.5695155511811025
21
-3.5404148818897636
0
LINE
8
BLACK
6
CONTINUOUS
10
4.5695155511811025
20
-3.5404148818897636
11
4.570834645669291
21
-3.538842874015748
0
LINE
8
BLACK
6
CONTINUOUS
10
4.570834645669291
20
-3.538842874015748
11
4.572855590551181
21
-3.5384865354330706
0
LINE
8
BLACK
6
CONTINUOUS
10
4.572855590551181
20
-3.5384865354330706
11
4.5746327952755905
21
-3.5395125984251967
0
LINE
8
BLACK
6
CONTINUOUS
10
4.5746327952755905
20
-3.5395125984251967
11
4.5753346456692912
21
-3.5414409448818898
0
LINE
8
BLACK
6
CONTINUOUS
10
4.5753346456692912
20
-3.5414409448818898
11
4.5753346456692912
21
-3.5534409448818898
0
LINE
8
BLACK
6
CONTINUOUS
10
4.5753346456692912
20
-3.5534409448818898
11
4.8293346456692916
21
-3.5534409448818898
0
LINE
8
BLACK
6
CONTINUOUS
10
4.8293346456692916
20
-3.5534409448818898
11
4.8293346456692916
21
-3.5414409448818898
0
LINE
8
BLACK
6
CONTINUOUS
10
4.8293346456692916
20
-3.5414409448818898
11
4.8295155511811023
21
-3.5404148818897636
0
LINE
8
BLACK
6
CONTINUOUS
10
4.8295155511811023
20
-3.5404148818897636
11
4.8308346456692917
21
-3.538842874015748
0
LINE
8
BLACK
6
CONTINUOUS
10
4.8308346456692917
20
-3.538842874015748
11
4.8328555905511807
21
-3.5384865354330706
0
LINE
8
BLACK
6
CONTINUOUS
10
4.8328555905511807
20
-3.5384865354330706
11
4.8346327952755903
21
-3.5395125984251967
0
LINE
8
BLACK
6
CONTINUOUS
10
7.0410403937007873
20
-3.4605344094488188
11
7.041732283464567
21
-3.4622047244094487
0
LINE
8
BLACK
6
CONTINUOUS
10
7.041732283464567
20
-3.4622047244094487
11
7.0410403937007873
21
-3.4638750393700786
0
LINE
8
BLACK
6
CONTINUOUS
10
7.0410403937007873
20
-3.4638750393700786
11
7.0393700787401574
21
-3.4645669291338583
0
LINE
8
BLACK
6
CONTINUOUS
10
7.0393700787401574
20
-3.4645669291338583
11
6.9360236220472435
21
-3.4645669291338583
0
LINE
8
BLACK
6
CONTINUOUS
10
6.9360236220472435
20
-3.4645669291338583
11
6.9360236220472435
21
-3.5354330708661417
0
LINE
8
BLACK
6
CONTINUOUS
10
6.9360236220472435
20
-3.5354330708661417
11
7.0393700787401574
21
-3.5354330708661417
0
LINE
8
BLACK
6
CONTINUOUS
10
7.0393700787401574
20
-3.5354330708661417
11
7.0410403937007873
21
-3.536124960629921
0
LINE
8
BLACK
6
CONTINUOUS
10
7.0410403937007873
20
-3.536124960629921
11
7.041732283464567
21
-3.5377952755905513
0
LINE
8
BLACK
6
CONTINUOUS
10
7.041732283464567
20
-3.5377952755905513
11
7.0410403937007873
21
-3.5394655905511812
0
LINE
8
BLACK
6
CONTINUOUS
10
7.0410403937007873
20
-3.5394655905511812
11
7.0393700787401574
21
-3.5401574803149605
0
LINE
8
BLACK
6
CONTINUOUS
10
7.0393700787401574
20
-3.5401574803149605
11
6.9336614173228348
21
-3.5401574803149605
0
LINE
8
BLACK
6
CONTINUOUS
10
6.9336614173228348
20
-3.5401574803149605
11
6.9319911023622049
21
-3.5394655905511812
0
LINE
8
BLACK
6
CONTINUOUS
10
6.9319911023622049
20
-3.5394655905511812
11
6.9312992125984252
21
-3.5377952755905513
0
LINE
8
BLACK
6
CONTINUOUS
10
6.9312992125984252
20
-3.5377952755905513
11
6.9312992125984252
21
-3.4622047244094487
0
LINE
8
BLACK
6
CONTINUOUS
10
6.9312992125984252
20
-3.4622047244094487
11
6.9319911023622049
21
-3.4605344094488188
0
LINE
8
BLACK
6
CONTINUOUS
10
6.9319911023622049
20
-3.4605344094488188
11
6.9336614173228348
21
-3.4598425196850391
0
LINE
8
BLACK
6
CONTINUOUS
10
6.9336614173228348
20
-3.4598425196850391
11
7.0393700787401574
21
-3.4598425196850391
0
LINE
8
BLACK
6
CONTINUOUS
10
7.0393700787401574
20
-3.4598425196850391
11
7.0410403937007873
21
-3.4605344094488188
0
LINE
8
BLACK
6
CONTINUOUS
10
5.8746846456692916
20
-3.5272666929133858
11
5.8753765354330705
21
-3.5289370078740157
0
LINE
8
BLACK
6
CONTINUOUS
10
5.8753765354330705
20
-3.5289370078740157
11
5.8746846456692916
21
-3.5306073228346455
0
LINE
8
BLACK
6
CONTINUOUS
10
5.8746846456692916
20
-3.5306073228346455
11
5.8730143307086609
21
-3.5312992125984253
0
LINE
8
BLACK
6
CONTINUOUS
10
5.8730143307086609
20
-3.5312992125984253
11
5.855135275590551
21
-3.5312992125984253
0
LINE
8
BLACK
6
CONTINUOUS
10
5.855135275590551
20
-3.5312992125984253
11
5.8534649606299212
21
-3.5306073228346455
0
LINE
8
BLACK
6
CONTINUOUS
10
5.8534649606299212
20
-3.5306073228346455
11
5.8527730708661414
21
-3.5289370078740157
0
LINE
8
BLACK
6
CONTINUOUS
10
5.8527730708661414
20
-3.5289370078740157
11
5.8534649606299212
21
-3.5272666929133858
0
LINE
8
BLACK
6
CONTINUOUS
10
5.8534649606299212
20
-3.5272666929133858
11
5.855135275590551
21
-3.526574803149606
0
LINE
8
BLACK
6
CONTINUOUS
10
5.855135275590551
20
-3.526574803149606
11
5.8730143307086609
21
-3.526574803149606
0
LINE
8
BLACK
6
CONTINUOUS
10
5.8730143307086609
20
-3.526574803149606
11
5.8746846456692916
21
-3.5272666929133858
0
LINE
8
BLACK
6
CONTINUOUS
10
5.8746846456692916
20
-3.469392677165354
11
5.8753765354330705
21
-3.4710629921259843
0
LINE
8
BLACK
6
CONTINUOUS
10
5.8753765354330705
20
-3.4710629921259843
11
5.8746846456692916
21
-3.4727333070866142
0
LINE
8
BLACK
6
CONTINUOUS
10
5.8746846456692916
20
-3.4727333070866142
11
5.8730143307086609
21
-3.4734251968503935
0
LINE
8
BLACK
6
CONTINUOUS
10
5.8730143307086609
20
-3.4734251968503935
11
5.855135275590551
21
-3.4734251968503935
0
LINE
8
BLACK
6
CONTINUOUS
10
5.855135275590551
20
-3.4734251968503935
11
5.8534649606299212
21
-3.4727333070866142
0
LINE
8
BLACK
6
CONTINUOUS
10
5.8534649606299212
20
-3.4727333070866142
11
5.8527730708661414
21
-3.4710629921259843
0
LINE
8
BLACK
6
CONTINUOUS
10
5.8527730708661414
20
-3.4710629921259843
11
5.8534649606299212
21
-3.469392677165354
0
LINE
8
BLACK
6
CONTINUOUS
10
5.8534649606299212
20
-3.469392677165354
11
5.855135275590551
21
-3.4687007874015747
0
LINE
8
BLACK
6
CONTINUOUS
10
5.855135275590551
20
-3.4687007874015747
11
5.8730143307086609
21
-3.4687007874015747
0
LINE
8
BLACK
6
CONTINUOUS
10
5.8730143307086609
20
-3.4687007874015747
11
5.8746846456692916
21
-3.469392677165354
0
LINE
8
BLACK
6
CONTINUOUS
10
4.5746327952755905
20
-3.4395125984251966
11
4.5753346456692912
21
-3.4414409448818897
0
LINE
8
BLACK
6
CONTINUOUS
10
4.5753346456692912
20
-3.4414409448818897
11
4.5753346456692912
21
-3.4654409448818897
0
LINE
8
BLACK
6
CONTINUOUS
10
4.5753346456692912
20
-3.4654409448818897
11
4.5751537401574804
21
-3.4664670078740158
0
LINE
8
BLACK
6
CONTINUOUS
10
4.5751537401574804
20
-3.4664670078740158
11
4.5738346456692911
21
-3.4680390157480314
0
LINE
8
BLACK
6
CONTINUOUS
10
4.5738346456692911
20
-3.4680390157480314
11
4.5718137007874011
21
-3.4683953543307084
0
LINE
8
BLACK
6
CONTINUOUS
10
4.5718137007874011
20
-3.4683953543307084
11
4.5700364960629924
21
-3.4673692913385827
0
LINE
8
BLACK
6
CONTINUOUS
10
4.5700364960629924
20
-3.4673692913385827
11
4.5693346456692909
21
-3.4654409448818897
0
LINE
8
BLACK
6
CONTINUOUS
10
4.5693346456692909
20
-3.4654409448818897
11
4.5693346456692909
21
-3.4414409448818897
0
LINE
8
BLACK
6
CONTINUOUS
10
4.5693346456692909
20
-3.4414409448818897
11
4.5695155511811025
21
-3.4404148818897635
0
LINE
8
BLACK
6
CONTINUOUS
10
4.5695155511811025
20
-3.4404148818897635
11
4.570834645669291
21
-3.438842874015748
0
LINE
8
BLACK
6
CONTINUOUS
10
4.570834645669291
20
-3.438842874015748
11
4.572855590551181
21
-3.4384865354330709
0
LINE
8
BLACK
6
CONTINUOUS
10
4.572855590551181
20
-3.4384865354330709
11
4.5746327952755905
21
-3.4395125984251966
0
LINE
8
BLACK
6
CONTINUOUS
10
4.8346327952755903
20
-3.4395125984251966
11
4.8353346456692909
21
-3.4414409448818897
0
LINE
8
BLACK
6
CONTINUOUS
10
4.8353346456692909
20
-3.4414409448818897
11
4.8353346456692909
21
-3.4654409448818897
0
LINE
8
BLACK
6
CONTINUOUS
10
4.8353346456692909
20
-3.4654409448818897
11
4.8351537401574802
21
-3.4664670078740158
0
LINE
8
BLACK
6
CONTINUOUS
10
4.8351537401574802
20
-3.4664670078740158
11
4.8338346456692909
21
-3.4680390157480314
0
LINE
8
BLACK
6
CONTINUOUS
10
4.8338346456692909
20
-3.4680390157480314
11
4.8318137007874018
21
-3.4683953543307084
0
LINE
8
BLACK
6
CONTINUOUS
10
4.8318137007874018
20
-3.4683953543307084
11
4.8300364960629922
21
-3.4673692913385827
0
LINE
8
BLACK
6
CONTINUOUS
10
4.8300364960629922
20
-3.4673692913385827
11
4.8293346456692916
21
-3.4654409448818897
0
LINE
8
BLACK
6
CONTINUOUS
10
4.8293346456692916
20
-3.4654409448818897
11
4.8293346456692916
21
-3.4414409448818897
0
LINE
8
BLACK
6
CONTINUOUS
10
4.8293346456692916
20
-3.4414409448818897
11
4.8295155511811023
21
-3.4404148818897635
0
LINE
8
BLACK
6
CONTINUOUS
10
4.8295155511811023
20
-3.4404148818897635
11
4.8308346456692917
21
-3.438842874015748
0
LINE
8
BLACK
6
CONTINUOUS
10
4.8308346456692917
20
-3.438842874015748
11
4.8328555905511807
21
-3.4384865354330709
0
LINE
8
BLACK
6
CONTINUOUS
10
4.8328555905511807
20
-3.4384865354330709
11
4.8346327952755903
21
-3.4395125984251966
0
LINE
8
BLACK
6
CONTINUOUS
10
7.0410403937007873
20
-3.3605344094488188
11
7.041732283464567
21
-3.3622047244094486
0
LINE
8
BLACK
6
CONTINUOUS
10
7.041732283464567
20
-3.3622047244094486
11
7.0410403937007873
21
-3.3638750393700785
0
LINE
8
BLACK
6
CONTINUOUS
10
7.0410403937007873
20
-3.3638750393700785
11
7.0393700787401574
21
-3.3645669291338582
0
LINE
8
BLACK
6
CONTINUOUS
10
7.0393700787401574
20
-3.3645669291338582
11
6.9360236220472435
21
-3.3645669291338582
0
LINE
8
BLACK
6
CONTINUOUS
10
6.9360236220472435
20
-3.3645669291338582
11
6.9360236220472435
21
-3.4354330708661416
0
LINE
8
BLACK
6
CONTINUOUS
10
6.9360236220472435
20
-3.4354330708661416
11
7.0393700787401574
21
-3.4354330708661416
0
LINE
8
BLACK
6
CONTINUOUS
10
7.0393700787401574
20
-3.4354330708661416
11
7.0410403937007873
21
-3.4361249606299213
0
LINE
8
BLACK
6
CONTINUOUS
10
7.0410403937007873
20
-3.4361249606299213
11
7.041732283464567
21
-3.4377952755905512
0
LINE
8
BLACK
6
CONTINUOUS
10
7.041732283464567
20
-3.4377952755905512
11
7.0410403937007873
21
-3.4394655905511811
0
LINE
8
BLACK
6
CONTINUOUS
10
7.0410403937007873
20
-3.4394655905511811
11
7.0393700787401574
21
-3.4401574803149604
0
LINE
8
BLACK
6
CONTINUOUS
10
7.0393700787401574
20
-3.4401574803149604
11
6.9336614173228348
21
-3.4401574803149604
0
LINE
8
BLACK
6
CONTINUOUS
10
6.9336614173228348
20
-3.4401574803149604
11
6.9319911023622049
21
-3.4394655905511811
0
LINE
8
BLACK
6
CONTINUOUS
10
6.9319911023622049
20
-3.4394655905511811
11
6.9312992125984252
21
-3.4377952755905512
0
LINE
8
BLACK
6
CONTINUOUS
10
6.9312992125984252
20
-3.4377952755905512
11
6.9312992125984252
21
-3.3622047244094486
0
LINE
8
BLACK
6
CONTINUOUS
10
6.9312992125984252
20
-3.3622047244094486
11
6.9319911023622049
21
-3.3605344094488188
0
LINE
8
BLACK
6
CONTINUOUS
10
6.9319911023622049
20
-3.3605344094488188
11
6.9336614173228348
21
-3.3598425196850394
0
LINE
8
BLACK
6
CONTINUOUS
10
6.9336614173228348
20
-3.3598425196850394
11
7.0393700787401574
21
-3.3598425196850394
0
LINE
8
BLACK
6
CONTINUOUS
10
7.0393700787401574
20
-3.3598425196850394
11
7.0410403937007873
21
-3.3605344094488188
0
LINE
8
BLACK
6
CONTINUOUS
10
5.8746846456692916
20
-3.4272666929133857
11
5.8753765354330705
21
-3.4289370078740156
0
LINE
8
BLACK
6
CONTINUOUS
10
5.8753765354330705
20
-3.4289370078740156
11
5.8746846456692916
21
-3.4306073228346454
0
LINE
8
BLACK
6
CONTINUOUS
10
5.8746846456692916
20
-3.4306073228346454
11
5.8730143307086609
21
-3.4312992125984252
0
LINE
8
BLACK
6
CONTINUOUS
10
5.8730143307086609
20
-3.4312992125984252
11
5.855135275590551
21
-3.4312992125984252
0
LINE
8
BLACK
6
CONTINUOUS
10
5.855135275590551
20
-3.4312992125984252
11
5.8534649606299212
21
-3.4306073228346454
0
LINE
8
BLACK
6
CONTINUOUS
10
5.8534649606299212
20
-3.4306073228346454
11
5.8527730708661414
21
-3.4289370078740156
0
LINE
8
BLACK
6
CONTINUOUS
10
5.8527730708661414
20
-3.4289370078740156
11
5.8534649606299212
21
-3.4272666929133857
0
LINE
8
BLACK
6
CONTINUOUS
10
5.8534649606299212
20
-3.4272666929133857
11
5.855135275590551
21
-3.4265748031496064
0
LINE
8
BLACK
6
CONTINUOUS
10
5.855135275590551
20
-3.4265748031496064
11
5.8730143307086609
21
-3.4265748031496064
0
LINE
8
BLACK
6
CONTINUOUS
10
5.8730143307086609
20
-3.4265748031496064
11
5.8746846456692916
21
-3.4272666929133857
0
LINE
8
BLACK
6
CONTINUOUS
10
5.8746846456692916
20
-3.3693926771653544
11
5.8753765354330705
21
-3.3710629921259843
0
LINE
8
BLACK
6
CONTINUOUS
10
5.8753765354330705
20
-3.3710629921259843
11
5.8746846456692916
21
-3.3727333070866141
0
LINE
8
BLACK
6
CONTINUOUS
10
5.8746846456692916
20
-3.3727333070866141
11
5.8730143307086609
21
-3.3734251968503934
0
LINE
8
BLACK
6
CONTINUOUS
10
5.8730143307086609
20
-3.3734251968503934
11
5.855135275590551
21
-3.3734251968503934
0
LINE
8
BLACK
6
CONTINUOUS
10
5.855135275590551
20
-3.3734251968503934
11
5.8534649606299212
21
-3.3727333070866141
0
LINE
8
BLACK
6
CONTINUOUS
10
5.8534649606299212
20
-3.3727333070866141
11
5.8527730708661414
21
-3.3710629921259843
0
LINE
8
BLACK
6
CONTINUOUS
10
5.8527730708661414
20
-3.3710629921259843
11
5.8534649606299212
21
-3.3693926771653544
0
LINE
8
BLACK
6
CONTINUOUS
10
5.8534649606299212
20
-3.3693926771653544
11
5.855135275590551
21
-3.3687007874015746
0
LINE
8
BLACK
6
CONTINUOUS
10
5.855135275590551
20
-3.3687007874015746
11
5.8730143307086609
21
-3.3687007874015746
0
LINE
8
BLACK
6
CONTINUOUS
10
5.8730143307086609
20
-3.3687007874015746
11
5.8746846456692916
21
-3.3693926771653544
0
LINE
8
BLACK
6
CONTINUOUS
10
4.5746327952755905
20
-3.339512598425197
11
4.5753346456692912
21
-3.3414409448818896
0
LINE
8
BLACK
6
CONTINUOUS
10
4.5753346456692912
20
-3.3414409448818896
11
4.5753346456692912
21
-3.3654409448818896
0
LINE
8
BLACK
6
CONTINUOUS
10
4.5753346456692912
20
-3.3654409448818896
11
4.5751537401574804
21
-3.3664670078740158
0
LINE
8
BLACK
6
CONTINUOUS
10
4.5751537401574804
20
-3.3664670078740158
11
4.5738346456692911
21
-3.3680390157480313
0
LINE
8
BLACK
6
CONTINUOUS
10
4.5738346456692911
20
-3.3680390157480313
11
4.5718137007874011
21
-3.3683953543307088
0
LINE
8
BLACK
6
CONTINUOUS
10
4.5718137007874011
20
-3.3683953543307088
11
4.5700364960629924
21
-3.3673692913385826
0
LINE
8
BLACK
6
CONTINUOUS
10
4.5700364960629924
20
-3.3673692913385826
11
4.5693346456692909
21
-3.3654409448818896
0
LINE
8
BLACK
6
CONTINUOUS
10
4.5693346456692909
20
-3.3654409448818896
11
4.5693346456692909
21
-3.3414409448818896
0
LINE
8
BLACK
6
CONTINUOUS
10
4.5693346456692909
20
-3.3414409448818896
11
4.5695155511811025
21
-3.3404148818897639
0
LINE
8
BLACK
6
CONTINUOUS
10
4.5695155511811025
20
-3.3404148818897639
11
4.570834645669291
21
-3.3388428740157479
0
LINE
8
BLACK
6
CONTINUOUS
10
4.570834645669291
20
-3.3388428740157479
11
4.572855590551181
21
-3.3384865354330708
0
LINE
8
BLACK
6
CONTINUOUS
10
4.572855590551181
20
-3.3384865354330708
11
4.5746327952755905
21
-3.339512598425197
0
LINE
8
BLACK
6
CONTINUOUS
10
4.8346327952755903
20
-3.339512598425197
11
4.8353346456692909
21
-3.3414409448818896
0
LINE
8
BLACK
6
CONTINUOUS
10
4.8353346456692909
20
-3.3414409448818896
11
4.8353346456692909
21
-3.3654409448818896
0
LINE
8
BLACK
6
CONTINUOUS
10
4.8353346456692909
20
-3.3654409448818896
11
4.8351537401574802
21
-3.3664670078740158
0
LINE
8
BLACK
6
CONTINUOUS
10
4.8351537401574802
20
-3.3664670078740158
11
4.8338346456692909
21
-3.3680390157480313
0
LINE
8
BLACK
6
CONTINUOUS
10
4.8338346456692909
20
-3.3680390157480313
11
4.8318137007874018
21
-3.3683953543307088
0
LINE
8
BLACK
6
CONTINUOUS
10
4.8318137007874018
20
-3.3683953543307088
11
4.8300364960629922
21
-3.3673692913385826
0
LINE
8
BLACK
6
CONTINUOUS
10
4.8300364960629922
20
-3.3673692913385826
11
4.8293346456692916
21
-3.3654409448818896
0
LINE
8
BLACK
6
CONTINUOUS
10
4.8293346456692916
20
-3.3654409448818896
11
4.8293346456692916
21
-3.3414409448818896
0
LINE
8
BLACK
6
CONTINUOUS
10
4.8293346456692916
20
-3.3414409448818896
11
4.8295155511811023
21
-3.3404148818897639
0
LINE
8
BLACK
6
CONTINUOUS
10
4.8295155511811023
20
-3.3404148818897639
11
4.8308346456692917
21
-3.3388428740157479
0
LINE
8
BLACK
6
CONTINUOUS
10
4.8308346456692917
20
-3.3388428740157479
11
4.8328555905511807
21
-3.3384865354330708
0
LINE
8
BLACK
6
CONTINUOUS
10
4.8328555905511807
20
-3.3384865354330708
11
4.8346327952755903
21
-3.339512598425197
0
LINE
8
BLACK
6
CONTINUOUS
10
7.0410403937007873
20
-3.2605344094488187
11
7.041732283464567
21
-3.2622047244094485
0
LINE
8
BLACK
6
CONTINUOUS
10
7.041732283464567
20
-3.2622047244094485
11
7.0410403937007873
21
-3.2638750393700788
0
LINE
8
BLACK
6
CONTINUOUS
10
7.0410403937007873
20
-3.2638750393700788
11
7.0393700787401574
21
-3.2645669291338582
0
LINE
8
BLACK
6
CONTINUOUS
10
7.0393700787401574
20
-3.2645669291338582
11
6.9360236220472435
21
-3.2645669291338582
0
LINE
8
BLACK
6
CONTINUOUS
10
6.9360236220472435
20
-3.2645669291338582
11
6.9360236220472435
21
-3.3354330708661415
0
LINE
8
BLACK
6
CONTINUOUS
10
6.9360236220472435
20
-3.3354330708661415
11
7.0393700787401574
21
-3.3354330708661415
0
LINE
8
BLACK
6
CONTINUOUS
10
7.0393700787401574
20
-3.3354330708661415
11
7.0410403937007873
21
-3.3361249606299213
0
LINE
8
BLACK
6
CONTINUOUS
10
7.0410403937007873
20
-3.3361249606299213
11
7.041732283464567
21
-3.3377952755905511
0
LINE
8
BLACK
6
CONTINUOUS
10
7.041732283464567
20
-3.3377952755905511
11
7.0410403937007873
21
-3.339465590551181
0
LINE
8
BLACK
6
CONTINUOUS
10
7.0410403937007873
20
-3.339465590551181
11
7.0393700787401574
21
-3.3401574803149607
0
LINE
8
BLACK
6
CONTINUOUS
10
7.0393700787401574
20
-3.3401574803149607
11
6.9336614173228348
21
-3.3401574803149607
0
LINE
8
BLACK
6
CONTINUOUS
10
6.9336614173228348
20
-3.3401574803149607
11
6.9319911023622049
21
-3.339465590551181
0
LINE
8
BLACK
6
CONTINUOUS
10
6.9319911023622049
20
-3.339465590551181
11
6.9312992125984252
21
-3.3377952755905511
0
LINE
8
BLACK
6
CONTINUOUS
10
6.9312992125984252
20
-3.3377952755905511
11
6.9312992125984252
21
-3.2622047244094485
0
LINE
8
BLACK
6
CONTINUOUS
10
6.9312992125984252
20
-3.2622047244094485
11
6.9319911023622049
21
-3.2605344094488187
0
LINE
8
BLACK
6
CONTINUOUS
10
6.9319911023622049
20
-3.2605344094488187
11
6.9336614173228348
21
-3.2598425196850394
0
LINE
8
BLACK
6
CONTINUOUS
10
6.9336614173228348
20
-3.2598425196850394
11
7.0393700787401574
21
-3.2598425196850394
0
LINE
8
BLACK
6
CONTINUOUS
10
7.0393700787401574
20
-3.2598425196850394
11
7.0410403937007873
21
-3.2605344094488187
0
LINE
8
BLACK
6
CONTINUOUS
10
5.8746846456692916
20
-3.3272666929133856
11
5.8753765354330705
21
-3.3289370078740155
0
LINE
8
BLACK
6
CONTINUOUS
10
5.8753765354330705
20
-3.3289370078740155
11
5.8746846456692916
21
-3.3306073228346458
0
LINE
8
BLACK
6
CONTINUOUS
10
5.8746846456692916
20
-3.3306073228346458
11
5.8730143307086609
21
-3.3312992125984251
0
LINE
8
BLACK
6
CONTINUOUS
10
5.8730143307086609
20
-3.3312992125984251
11
5.855135275590551
21
-3.3312992125984251
0
LINE
8
BLACK
6
CONTINUOUS
10
5.855135275590551
20
-3.3312992125984251
11
5.8534649606299212
21
-3.3306073228346458
0
LINE
8
BLACK
6
CONTINUOUS
10
5.8534649606299212
20
-3.3306073228346458
11
5.8527730708661414
21
-3.3289370078740155
0
LINE
8
BLACK
6
CONTINUOUS
10
5.8527730708661414
20
-3.3289370078740155
11
5.8534649606299212
21
-3.3272666929133856
0
LINE
8
BLACK
6
CONTINUOUS
10
5.8534649606299212
20
-3.3272666929133856
11
5.855135275590551
21
-3.3265748031496063
0
LINE
8
BLACK
6
CONTINUOUS
10
5.855135275590551
20
-3.3265748031496063
11
5.8730143307086609
21
-3.3265748031496063
0
LINE
8
BLACK
6
CONTINUOUS
10
5.8730143307086609
20
-3.3265748031496063
11
5.8746846456692916
21
-3.3272666929133856
0
LINE
8
BLACK
6
CONTINUOUS
10
5.8746846456692916
20
-3.2693926771653543
11
5.8753765354330705
21
-3.2710629921259842
0
LINE
8
BLACK
6
CONTINUOUS
10
5.8753765354330705
20
-3.2710629921259842
11
5.8746846456692916
21
-3.272733307086614
0
LINE
8
BLACK
6
CONTINUOUS
10
5.8746846456692916
20
-3.272733307086614
11
5.8730143307086609
21
-3.2734251968503938
0
LINE
8
BLACK
6
CONTINUOUS
10
5.8730143307086609
20
-3.2734251968503938
11
5.855135275590551
21
-3.2734251968503938
0
LINE
8
BLACK
6
CONTINUOUS
10
5.855135275590551
20
-3.2734251968503938
11
5.8534649606299212
21
-3.272733307086614
0
LINE
8
BLACK
6
CONTINUOUS
10
5.8534649606299212
20
-3.272733307086614
11
5.8527730708661414
21
-3.2710629921259842
0
LINE
8
BLACK
6
CONTINUOUS
10
5.8527730708661414
20
-3.2710629921259842
11
5.8534649606299212
21
-3.2693926771653543
0
LINE
8
BLACK
6
CONTINUOUS
10
5.8534649606299212
20
-3.2693926771653543
11
5.855135275590551
21
-3.2687007874015745
0
LINE
8
BLACK
6
CONTINUOUS
10
5.855135275590551
20
-3.2687007874015745
11
5.8730143307086609
21
-3.2687007874015745
0
LINE
8
BLACK
6
CONTINUOUS
10
5.8730143307086609
20
-3.2687007874015745
11
5.8746846456692916
21
-3.2693926771653543
0
LINE
8
BLACK
6
CONTINUOUS
10
4.5746327952755905
20
-3.2395125984251969
11
4.5753346456692912
21
-3.2414409448818895
0
LINE
8
BLACK
6
CONTINUOUS
10
4.5753346456692912
20
-3.2414409448818895
11
4.5753346456692912
21
-3.2654409448818895
0
LINE
8
BLACK
6
CONTINUOUS
10
4.5753346456692912
20
-3.2654409448818895
11
4.5751537401574804
21
-3.2664670078740157
0
LINE
8
BLACK
6
CONTINUOUS
10
4.5751537401574804
20
-3.2664670078740157
11
4.5738346456692911
21
-3.2680390157480312
0
LINE
8
BLACK
6
CONTINUOUS
10
4.5738346456692911
20
-3.2680390157480312
11
4.5718137007874011
21
-3.2683953543307087
0
LINE
8
BLACK
6
CONTINUOUS
10
4.5718137007874011
20
-3.2683953543307087
11
4.5700364960629924
21
-3.2673692913385826
0
LINE
8
BLACK
6
CONTINUOUS
10
4.5700364960629924
20
-3.2673692913385826
11
4.5693346456692909
21
-3.2654409448818895
0
LINE
8
BLACK
6
CONTINUOUS
10
4.5693346456692909
20
-3.2654409448818895
11
4.5693346456692909
21
-3.2414409448818895
0
LINE
8
BLACK
6
CONTINUOUS
10
4.5693346456692909
20
-3.2414409448818895
11
4.5695155511811025
21
-3.2404148818897638
0
LINE
8
BLACK
6
CONTINUOUS
10
4.5695155511811025
20
-3.2404148818897638
11
4.570834645669291
21
-3.2388428740157478
0
LINE
8
BLACK
6
CONTINUOUS
10
4.570834645669291
20
-3.2388428740157478
11
4.572855590551181
21
-3.2384865354330707
0
LINE
8
BLACK
6
CONTINUOUS
10
4.572855590551181
20
-3.2384865354330707
11
4.5746327952755905
21
-3.2395125984251969
0
LINE
8
BLACK
6
CONTINUOUS
10
4.8346327952755903
20
-3.2395125984251969
11
4.8353346456692909
21
-3.2414409448818895
0
LINE
8
BLACK
6
CONTINUOUS
10
4.8353346456692909
20
-3.2414409448818895
11
4.8353346456692909
21
-3.2654409448818895
0
LINE
8
BLACK
6
CONTINUOUS
10
4.8353346456692909
20
-3.2654409448818895
11
4.8351537401574802
21
-3.2664670078740157
0
LINE
8
BLACK
6
CONTINUOUS
10
4.8351537401574802
20
-3.2664670078740157
11
4.8338346456692909
21
-3.2680390157480312
0
LINE
8
BLACK
6
CONTINUOUS
10
4.8338346456692909
20
-3.2680390157480312
11
4.8318137007874018
21
-3.2683953543307087
0
LINE
8
BLACK
6
CONTINUOUS
10
4.8318137007874018
20
-3.2683953543307087
11
4.8300364960629922
21
-3.2673692913385826
0
LINE
8
BLACK
6
CONTINUOUS
10
4.8300364960629922
20
-3.2673692913385826
11
4.8293346456692916
21
-3.2654409448818895
0
LINE
8
BLACK
6
CONTINUOUS
10
4.8293346456692916
20
-3.2654409448818895
11
4.8293346456692916
21
-3.2414409448818895
0
LINE
8
BLACK
6
CONTINUOUS
10
4.8293346456692916
20
-3.2414409448818895
11
4.8295155511811023
21
-3.2404148818897638
0
LINE
8
BLACK
6
CONTINUOUS
10
4.8295155511811023
20
-3.2404148818897638
11
4.8308346456692917
21
-3.2388428740157478
0
LINE
8
BLACK
6
CONTINUOUS
10
4.8308346456692917
20
-3.2388428740157478
11
4.8328555905511807
21
-3.2384865354330707
0
LINE
8
BLACK
6
CONTINUOUS
10
4.8328555905511807
20
-3.2384865354330707
11
4.8346327952755903
21
-3.2395125984251969
0
LINE
8
BLACK
6
CONTINUOUS
10
4.5746327952755905
20
-3.1395125984251968
11
4.5753346456692912
21
-3.1414409448818899
0
LINE
8
BLACK
6
CONTINUOUS
10
4.5753346456692912
20
-3.1414409448818899
11
4.5753346456692912
21
-3.1654409448818899
0
LINE
8
BLACK
6
CONTINUOUS
10
4.5753346456692912
20
-3.1654409448818899
11
4.5751537401574804
21
-3.1664670078740156
0
LINE
8
BLACK
6
CONTINUOUS
10
4.5751537401574804
20
-3.1664670078740156
11
4.5738346456692911
21
-3.1680390157480316
0
LINE
8
BLACK
6
CONTINUOUS
10
4.5738346456692911
20
-3.1680390157480316
11
4.5718137007874011
21
-3.1683953543307086
0
LINE
8
BLACK
6
CONTINUOUS
10
4.5718137007874011
20
-3.1683953543307086
11
4.5700364960629924
21
-3.1673692913385825
0
LINE
8
BLACK
6
CONTINUOUS
10
4.5700364960629924
20
-3.1673692913385825
11
4.5693346456692909
21
-3.1654409448818899
0
LINE
8
BLACK
6
CONTINUOUS
10
4.5693346456692909
20
-3.1654409448818899
11
4.5693346456692909
21
-3.1414409448818899
0
LINE
8
BLACK
6
CONTINUOUS
10
4.5693346456692909
20
-3.1414409448818899
11
4.5695155511811025
21
-3.1404148818897637
0
LINE
8
BLACK
6
CONTINUOUS
10
4.5695155511811025
20
-3.1404148818897637
11
4.570834645669291
21
-3.1388428740157481
0
LINE
8
BLACK
6
CONTINUOUS
10
4.570834645669291
20
-3.1388428740157481
11
4.572855590551181
21
-3.1384865354330707
0
LINE
8
BLACK
6
CONTINUOUS
10
4.572855590551181
20
-3.1384865354330707
11
4.5746327952755905
21
-3.1395125984251968
0
LINE
8
BLACK
6
CONTINUOUS
10
4.8346327952755903
20
-3.1395125984251968
11
4.8353346456692909
21
-3.1414409448818899
0
LINE
8
BLACK
6
CONTINUOUS
10
4.8353346456692909
20
-3.1414409448818899
11
4.8353346456692909
21
-3.1654409448818899
0
LINE
8
BLACK
6
CONTINUOUS
10
4.8353346456692909
20
-3.1654409448818899
11
4.8351537401574802
21
-3.1664670078740156
0
LINE
8
BLACK
6
CONTINUOUS
10
4.8351537401574802
20
-3.1664670078740156
11
4.8338346456692909
21
-3.1680390157480316
0
LINE
8
BLACK
6
CONTINUOUS
10
4.8338346456692909
20
-3.1680390157480316
11
4.8318137007874018
21
-3.1683953543307086
0
LINE
8
BLACK
6
CONTINUOUS
10
4.8318137007874018
20
-3.1683953543307086
11
4.8300364960629922
21
-3.1673692913385825
0
LINE
8
BLACK
6
CONTINUOUS
10
4.8300364960629922
20
-3.1673692913385825
11
4.8293346456692916
21
-3.1654409448818899
0
LINE
8
BLACK
6
CONTINUOUS
10
4.8293346456692916
20
-3.1654409448818899
11
4.8293346456692916
21
-3.1414409448818899
0
LINE
8
BLACK
6
CONTINUOUS
10
4.8293346456692916
20
-3.1414409448818899
11
4.8295155511811023
21
-3.1404148818897637
0
LINE
8
BLACK
6
CONTINUOUS
10
4.8295155511811023
20
-3.1404148818897637
11
4.8308346456692917
21
-3.1388428740157481
0
LINE
8
BLACK
6
CONTINUOUS
10
4.8308346456692917
20
-3.1388428740157481
11
4.8328555905511807
21
-3.1384865354330707
0
LINE
8
BLACK
6
CONTINUOUS
10
4.8328555905511807
20
-3.1384865354330707
11
4.8346327952755903
21
-3.1395125984251968
0
LINE
8
BLACK
6
CONTINUOUS
10
4.5746327952755905
20
-3.0395125984251967
11
4.5753346456692912
21
-3.0414409448818898
0
LINE
8
BLACK
6
CONTINUOUS
10
4.5753346456692912
20
-3.0414409448818898
11
4.5753346456692912
21
-3.0654409448818898
0
LINE
8
BLACK
6
CONTINUOUS
10
4.5753346456692912
20
-3.0654409448818898
11
4.5751537401574804
21
-3.0664670078740155
0
LINE
8
BLACK
6
CONTINUOUS
10
4.5751537401574804
20
-3.0664670078740155
11
4.5738346456692911
21
-3.0680390157480315
0
LINE
8
BLACK
6
CONTINUOUS
10
4.5738346456692911
20
-3.0680390157480315
11
4.5718137007874011
21
-3.0683953543307085
0
LINE
8
BLACK
6
CONTINUOUS
10
4.5718137007874011
20
-3.0683953543307085
11
4.5700364960629924
21
-3.0673692913385828
0
LINE
8
BLACK
6
CONTINUOUS
10
4.5700364960629924
20
-3.0673692913385828
11
4.5693346456692909
21
-3.0654409448818898
0
LINE
8
BLACK
6
CONTINUOUS
10
4.5693346456692909
20
-3.0654409448818898
11
4.5693346456692909
21
-3.0414409448818898
0
LINE
8
BLACK
6
CONTINUOUS
10
4.5693346456692909
20
-3.0414409448818898
11
4.5695155511811025
21
-3.0404148818897636
0
LINE
8
BLACK
6
CONTINUOUS
10
4.5695155511811025
20
-3.0404148818897636
11
4.570834645669291
21
-3.038842874015748
0
LINE
8
BLACK
6
CONTINUOUS
10
4.570834645669291
20
-3.038842874015748
11
4.572855590551181
21
-3.038486535433071
0
LINE
8
BLACK
6
CONTINUOUS
10
4.572855590551181
20
-3.038486535433071
11
4.5746327952755905
21
-3.0395125984251967
0
LINE
8
BLACK
6
CONTINUOUS
10
4.8346327952755903
20
-3.0395125984251967
11
4.8353346456692909
21
-3.0414409448818898
0
LINE
8
BLACK
6
CONTINUOUS
10
4.8353346456692909
20
-3.0414409448818898
11
4.8353346456692909
21
-3.0654409448818898
0
LINE
8
BLACK
6
CONTINUOUS
10
4.8353346456692909
20
-3.0654409448818898
11
4.8351537401574802
21
-3.0664670078740155
0
LINE
8
BLACK
6
CONTINUOUS
10
4.8351537401574802
20
-3.0664670078740155
11
4.8338346456692909
21
-3.0680390157480315
0
LINE
8
BLACK
6
CONTINUOUS
10
4.8338346456692909
20
-3.0680390157480315
11
4.8318137007874018
21
-3.0683953543307085
0
LINE
8
BLACK
6
CONTINUOUS
10
4.8318137007874018
20
-3.0683953543307085
11
4.8300364960629922
21
-3.0673692913385828
0
LINE
8
BLACK
6
CONTINUOUS
10
4.8300364960629922
20
-3.0673692913385828
11
4.8293346456692916
21
-3.0654409448818898
0
LINE
8
BLACK
6
CONTINUOUS
10
4.8293346456692916
20
-3.0654409448818898
11
4.8293346456692916
21
-3.0414409448818898
0
LINE
8
BLACK
6
CONTINUOUS
10
4.8293346456692916
20
-3.0414409448818898
11
4.8295155511811023
21
-3.0404148818897636
0
LINE
8
BLACK
6
CONTINUOUS
10
4.8295155511811023
20
-3.0404148818897636
11
4.8308346456692917
21
-3.038842874015748
0
LINE
8
BLACK
6
CONTINUOUS
10
4.8308346456692917
20
-3.038842874015748
11
4.8328555905511807
21
-3.038486535433071
0
LINE
8
BLACK
6
CONTINUOUS
10
4.8328555905511807
20
-3.038486535433071
11
4.8346327952755903
21
-3.0395125984251967
0
LINE
8
BLACK
6
CONTINUOUS
10
3.4746846456692912
20
-3.0272666929133858
11
3.4753765354330706
21
-3.0289370078740157
0
LINE
8
BLACK
6
CONTINUOUS
10
3.4753765354330706
20
-3.0289370078740157
11
3.4746846456692912
21
-3.0306073228346455
0
LINE
8
BLACK
6
CONTINUOUS
10
3.4746846456692912
20
-3.0306073228346455
11
3.4730143307086614
21
-3.0312992125984253
0
LINE
8
BLACK
6
CONTINUOUS
10
3.4730143307086614
20
-3.0312992125984253
11
3.4551352755905511
21
-3.0312992125984253
0
LINE
8
BLACK
6
CONTINUOUS
10
3.4551352755905511
20
-3.0312992125984253
11
3.4534649606299213
21
-3.0306073228346455
0
LINE
8
BLACK
6
CONTINUOUS
10
3.4534649606299213
20
-3.0306073228346455
11
3.4527730708661415
21
-3.0289370078740157
0
LINE
8
BLACK
6
CONTINUOUS
10
3.4527730708661415
20
-3.0289370078740157
11
3.4534649606299213
21
-3.0272666929133858
0
LINE
8
BLACK
6
CONTINUOUS
10
3.4534649606299213
20
-3.0272666929133858
11
3.4551352755905511
21
-3.026574803149606
0
LINE
8
BLACK
6
CONTINUOUS
10
3.4551352755905511
20
-3.026574803149606
11
3.4730143307086614
21
-3.026574803149606
0
LINE
8
BLACK
6
CONTINUOUS
10
3.4730143307086614
20
-3.026574803149606
11
3.4746846456692912
21
-3.0272666929133858
0
LINE
8
BLACK
6
CONTINUOUS
10
3.4746846456692912
20
-2.969392677165354
11
3.4753765354330706
21
-2.9710629921259843
0
LINE
8
BLACK
6
CONTINUOUS
10
3.4753765354330706
20
-2.9710629921259843
11
3.4746846456692912
21
-2.9727333070866142
0
LINE
8
BLACK
6
CONTINUOUS
10
3.4746846456692912
20
-2.9727333070866142
11
3.4730143307086614
21
-2.9734251968503935
0
LINE
8
BLACK
6
CONTINUOUS
10
3.4730143307086614
20
-2.9734251968503935
11
3.4551352755905511
21
-2.9734251968503935
0
LINE
8
BLACK
6
CONTINUOUS
10
3.4551352755905511
20
-2.9734251968503935
11
3.4534649606299213
21
-2.9727333070866142
0
LINE
8
BLACK
6
CONTINUOUS
10
3.4534649606299213
20
-2.9727333070866142
11
3.4527730708661415
21
-2.9710629921259843
0
LINE
8
BLACK
6
CONTINUOUS
10
3.4527730708661415
20
-2.9710629921259843
11
3.4534649606299213
21
-2.969392677165354
0
LINE
8
BLACK
6
CONTINUOUS
10
3.4534649606299213
20
-2.969392677165354
11
3.4551352755905511
21
-2.9687007874015747
0
LINE
8
BLACK
6
CONTINUOUS
10
3.4551352755905511
20
-2.9687007874015747
11
3.4730143307086614
21
-2.9687007874015747
0
LINE
8
BLACK
6
CONTINUOUS
10
3.4730143307086614
20
-2.9687007874015747
11
3.4746846456692912
21
-2.969392677165354
0
LINE
8
BLACK
6
CONTINUOUS
10
4.5746327952755905
20
-2.9395125984251966
11
4.5753346456692912
21
-2.9414409448818897
0
LINE
8
BLACK
6
CONTINUOUS
10
4.5753346456692912
20
-2.9414409448818897
11
4.5753346456692912
21
-2.9654409448818897
0
LINE
8
BLACK
6
CONTINUOUS
10
4.5753346456692912
20
-2.9654409448818897
11
4.5751537401574804
21
-2.9664670078740158
0
LINE
8
BLACK
6
CONTINUOUS
10
4.5751537401574804
20
-2.9664670078740158
11
4.5738346456692911
21
-2.9680390157480314
0
LINE
8
BLACK
6
CONTINUOUS
10
4.5738346456692911
20
-2.9680390157480314
11
4.5718137007874011
21
-2.9683953543307084
0
LINE
8
BLACK
6
CONTINUOUS
10
4.5718137007874011
20
-2.9683953543307084
11
4.5700364960629924
21
-2.9673692913385827
0
LINE
8
BLACK
6
CONTINUOUS
10
4.5700364960629924
20
-2.9673692913385827
11
4.5693346456692909
21
-2.9654409448818897
0
LINE
8
BLACK
6
CONTINUOUS
10
4.5693346456692909
20
-2.9654409448818897
11
4.5693346456692909
21
-2.9414409448818897
0
LINE
8
BLACK
6
CONTINUOUS
10
4.5693346456692909
20
-2.9414409448818897
11
4.5695155511811025
21
-2.9404148818897635
0
LINE
8
BLACK
6
CONTINUOUS
10
4.5695155511811025
20
-2.9404148818897635
11
4.570834645669291
21
-2.938842874015748
0
LINE
8
BLACK
6
CONTINUOUS
10
4.570834645669291
20
-2.938842874015748
11
4.572855590551181
21
-2.9384865354330709
0
LINE
8
BLACK
6
CONTINUOUS
10
4.572855590551181
20
-2.9384865354330709
11
4.5746327952755905
21
-2.9395125984251966
0
LINE
8
BLACK
6
CONTINUOUS
10
4.8346327952755903
20
-2.9395125984251966
11
4.8353346456692909
21
-2.9414409448818897
0
LINE
8
BLACK
6
CONTINUOUS
10
4.8353346456692909
20
-2.9414409448818897
11
4.8353346456692909
21
-2.9654409448818897
0
LINE
8
BLACK
6
CONTINUOUS
10
4.8353346456692909
20
-2.9654409448818897
11
4.8351537401574802
21
-2.9664670078740158
0
LINE
8
BLACK
6
CONTINUOUS
10
4.8351537401574802
20
-2.9664670078740158
11
4.8338346456692909
21
-2.9680390157480314
0
LINE
8
BLACK
6
CONTINUOUS
10
4.8338346456692909
20
-2.9680390157480314
11
4.8318137007874018
21
-2.9683953543307084
0
LINE
8
BLACK
6
CONTINUOUS
10
4.8318137007874018
20
-2.9683953543307084
11
4.8300364960629922
21
-2.9673692913385827
0
LINE
8
BLACK
6
CONTINUOUS
10
4.8300364960629922
20
-2.9673692913385827
11
4.8293346456692916
21
-2.9654409448818897
0
LINE
8
BLACK
6
CONTINUOUS
10
4.8293346456692916
20
-2.9654409448818897
11
4.8293346456692916
21
-2.9414409448818897
0
LINE
8
BLACK
6
CONTINUOUS
10
4.8293346456692916
20
-2.9414409448818897
11
4.8295155511811023
21
-2.9404148818897635
0
LINE
8
BLACK
6
CONTINUOUS
10
4.8295155511811023
20
-2.9404148818897635
11
4.8308346456692917
21
-2.938842874015748
0
LINE
8
BLACK
6
CONTINUOUS
10
4.8308346456692917
20
-2.938842874015748
11
4.8328555905511807
21
-2.9384865354330709
0
LINE
8
BLACK
6
CONTINUOUS
10
4.8328555905511807
20
-2.9384865354330709
11
4.8346327952755903
21
-2.9395125984251966
0
LINE
8
BLACK
6
CONTINUOUS
10
3.4841053543307088
20
-2.910697086614173
11
3.4842725984251968
21
-2.9106676377952754
0
LINE
8
BLACK
6
CONTINUOUS
10
3.4842725984251968
20
-2.9106676377952754
11
3.4850146456692914
21
-2.9110960629921259
0
LINE
8
BLACK
6
CONTINUOUS
10
3.4850146456692914
20
-2.9110960629921259
11
3.4857994881889764
21
-2.9114404330708661
0
LINE
8
BLACK
6
CONTINUOUS
10
3.4857994881889764
20
-2.9114404330708661
11
3.4858747244094488
21
-2.9115926771653542
0
LINE
8
BLACK
6
CONTINUOUS
10
3.4858747244094488
20
-2.9115926771653542
11
3.4860217716535433
21
-2.9116775590551178
0
LINE
8
BLACK
6
CONTINUOUS
10
3.4860217716535433
20
-2.9116775590551178
11
3.4863148425196848
21
-2.9124827952755905
0
LINE
8
BLACK
6
CONTINUOUS
10
3.4863148425196848
20
-2.9124827952755905
11
3.4866946850393701
21
-2.9132510236220472
0
LINE
8
BLACK
6
CONTINUOUS
10
3.4866946850393701
20
-2.9132510236220472
11
3.4866544881889765
21
-2.9134159448818897
0
LINE
8
BLACK
6
CONTINUOUS
10
3.4866544881889765
20
-2.9134159448818897
11
3.4867125984251968
21
-2.9135755511811023
0
LINE
8
BLACK
6
CONTINUOUS
10
3.4867125984251968
20
-2.9135755511811023
11
3.4867125984251968
21
-2.9499928740157482
0
LINE
8
BLACK
6
CONTINUOUS
10
3.4867125984251968
20
-2.9499928740157482
11
3.4950084251968505
21
-2.9499928740157482
0
LINE
8
BLACK
6
CONTINUOUS
10
3.4950084251968505
20
-2.9499928740157482
11
3.496018346456693
21
-2.9501709448818896
0
LINE
8
BLACK
6
CONTINUOUS
10
3.496018346456693
20
-2.9501709448818896
11
3.4975655905511811
21
-2.9514692519685037
0
LINE
8
BLACK
6
CONTINUOUS
10
3.4975655905511811
20
-2.9514692519685037
11
3.497916338582677
21
-2.9534583858267718
0
LINE
8
BLACK
6
CONTINUOUS
10
3.497916338582677
20
-2.9534583858267718
11
3.4969064173228346
21
-2.9552075590551179
0
LINE
8
BLACK
6
CONTINUOUS
10
3.4969064173228346
20
-2.9552075590551179
11
3.4950084251968505
21
-2.9558983858267718
0
LINE
8
BLACK
6
CONTINUOUS
10
3.4950084251968505
20
-2.9558983858267718
11
3.4725112598425194
21
-2.9558983858267718
0
LINE
8
BLACK
6
CONTINUOUS
10
3.4725112598425194
20
-2.9558983858267718
11
3.471501338582677
21
-2.9557203149606299
0
LINE
8
BLACK
6
CONTINUOUS
10
3.471501338582677
20
-2.9557203149606299
11
3.4699540944881888
21
-2.9544220078740158
0
LINE
8
BLACK
6
CONTINUOUS
10
3.4699540944881888
20
-2.9544220078740158
11
3.4696033464566929
21
-2.9524328740157482
0
LINE
8
BLACK
6
CONTINUOUS
10
3.4696033464566929
20
-2.9524328740157482
11
3.4706132677165353
21
-2.9506837007874016
0
LINE
8
BLACK
6
CONTINUOUS
10
3.4706132677165353
20
-2.9506837007874016
11
3.4725112598425194
21
-2.9499928740157482
0
LINE
8
BLACK
6
CONTINUOUS
10
3.4725112598425194
20
-2.9499928740157482
11
3.4808070866141732
21
-2.9499928740157482
0
LINE
8
BLACK
6
CONTINUOUS
10
3.4808070866141732
20
-2.9499928740157482
11
3.4808070866141732
21
-2.9225788976377953
0
LINE
8
BLACK
6
CONTINUOUS
10
3.4808070866141732
20
-2.9225788976377953
11
3.4783487007874014
21
-2.925037283464567
0
LINE
8
BLACK
6
CONTINUOUS
10
3.4783487007874014
20
-2.925037283464567
11
3.477625590551181
21
-2.9255435433070867
0
LINE
8
BLACK
6
CONTINUOUS
10
3.477625590551181
20
-2.9255435433070867
11
3.4775812992125985
21
-2.9255903937007872
0
LINE
8
BLACK
6
CONTINUOUS
10
3.4775812992125985
20
-2.9255903937007872
11
3.4738317716535434
21
-2.9274651574803148
0
LINE
8
BLACK
6
CONTINUOUS
10
3.4738317716535434
20
-2.9274651574803148
11
3.4728488188976376
21
-2.9277575196850392
0
LINE
8
BLACK
6
CONTINUOUS
10
3.4728488188976376
20
-2.9277575196850392
11
3.4708843307086612
21
-2.9272882283464567
0
LINE
8
BLACK
6
CONTINUOUS
10
3.4708843307086612
20
-2.9272882283464567
11
3.469681023622047
21
-2.9256659842519683
0
LINE
8
BLACK
6
CONTINUOUS
10
3.469681023622047
20
-2.9256659842519683
11
3.4698020866141732
21
-2.9236498031496061
0
LINE
8
BLACK
6
CONTINUOUS
10
3.4698020866141732
20
-2.9236498031496061
11
3.4711907480314959
21
-2.9221831102362206
0
LINE
8
BLACK
6
CONTINUOUS
10
3.4711907480314959
20
-2.9221831102362206
11
3.4745116929133859
21
-2.9205226377952753
0
LINE
8
BLACK
6
CONTINUOUS
10
3.4745116929133859
20
-2.9205226377952753
11
3.4777155905511812
21
-2.9173187401574801
0
LINE
8
BLACK
6
CONTINUOUS
10
3.4777155905511812
20
-2.9173187401574801
11
3.4813029921259844
21
-2.9119376377952757
0
LINE
8
BLACK
6
CONTINUOUS
10
3.4813029921259844
20
-2.9119376377952757
11
3.4820113779527557
21
-2.9111961023622048
0
LINE
8
BLACK
6
CONTINUOUS
10
3.4820113779527557
20
-2.9111961023622048
11
3.4821743307086614
21
-2.9111483858267717
0
LINE
8
BLACK
6
CONTINUOUS
10
3.4821743307086614
20
-2.9111483858267717
11
3.4822834645669292
21
-2.9110183858267717
0
LINE
8
BLACK
6
CONTINUOUS
10
3.4822834645669292
20
-2.9110183858267717
11
3.4831272440944883
21
-2.9108695669291338
0
LINE
8
BLACK
6
CONTINUOUS
10
3.4831272440944883
20
-2.9108695669291338
11
3.4839498818897638
21
-2.9106288976377952
0
LINE
8
BLACK
6
CONTINUOUS
10
3.4839498818897638
20
-2.9106288976377952
11
3.4841053543307088
21
-2.910697086614173
0
LINE
8
BLACK
6
CONTINUOUS
10
3.4510239763779529
20
-2.9108008661417322
11
3.4511592125984252
21
-2.9109143307086613
0
LINE
8
BLACK
6
CONTINUOUS
10
3.4511592125984252
20
-2.9109143307086613
11
3.451334566929134
21
-2.9109345275590552
0
LINE
8
BLACK
6
CONTINUOUS
10
3.451334566929134
20
-2.9109345275590552
11
3.4550840944881891
21
-2.9128092913385828
0
LINE
8
BLACK
6
CONTINUOUS
10
3.4550840944881891
20
-2.9128092913385828
11
3.4557931496062992
21
-2.9133351968503938
0
LINE
8
BLACK
6
CONTINUOUS
10
3.4557931496062992
20
-2.9133351968503938
11
3.455851496062992
21
-2.913362401574803
0
LINE
8
BLACK
6
CONTINUOUS
10
3.455851496062992
20
-2.913362401574803
11
3.4577262598425196
21
-2.9152371653543305
0
LINE
8
BLACK
6
CONTINUOUS
10
3.4577262598425196
20
-2.9152371653543305
11
3.4582325196850392
21
-2.9159602362204722
0
LINE
8
BLACK
6
CONTINUOUS
10
3.4582325196850392
20
-2.9159602362204722
11
3.4582793700787402
21
-2.9160045669291339
0
LINE
8
BLACK
6
CONTINUOUS
10
3.4582793700787402
20
-2.9160045669291339
11
3.4601541338582678
21
-2.919754094488189
0
LINE
8
BLACK
6
CONTINUOUS
10
3.4601541338582678
20
-2.919754094488189
11
3.4604464960629921
21
-2.9207370078740156
0
LINE
8
BLACK
6
CONTINUOUS
10
3.4604464960629921
20
-2.9207370078740156
11
3.4604054724409448
21
-2.9209087007874017
0
LINE
8
BLACK
6
CONTINUOUS
10
3.4604054724409448
20
-2.9209087007874017
11
3.4604658661417322
21
-2.9210746062992126
0
LINE
8
BLACK
6
CONTINUOUS
10
3.4604658661417322
20
-2.9210746062992126
11
3.4604658661417322
21
-2.9266988976377952
0
LINE
8
BLACK
6
CONTINUOUS
10
3.4604658661417322
20
-2.9266988976377952
11
3.4602877952755904
21
-2.9277088188976377
0
LINE
8
BLACK
6
CONTINUOUS
10
3.4602877952755904
20
-2.9277088188976377
11
3.4601742913385825
21
-2.92784405511811
0
LINE
8
BLACK
6
CONTINUOUS
10
3.4601742913385825
20
-2.92784405511811
11
3.4601541338582678
21
-2.9280194094488188
0
LINE
8
BLACK
6
CONTINUOUS
10
3.4601541338582678
20
-2.9280194094488188
11
3.4582793700787402
21
-2.9317689370078739
0
LINE
8
BLACK
6
CONTINUOUS
10
3.4582793700787402
20
-2.9317689370078739
11
3.4577534645669292
21
-2.932477992125984
0
LINE
8
BLACK
6
CONTINUOUS
10
3.4577534645669292
20
-2.932477992125984
11
3.4577262598425196
21
-2.9325363385826773
0
LINE
8
BLACK
6
CONTINUOUS
10
3.4577262598425196
20
-2.9325363385826773
11
3.455851496062992
21
-2.9344111023622048
0
LINE
8
BLACK
6
CONTINUOUS
10
3.455851496062992
20
-2.9344111023622048
11
3.4551283858267716
21
-2.9349173622047244
0
LINE
8
BLACK
6
CONTINUOUS
10
3.4551283858267716
20
-2.9349173622047244
11
3.4550840944881891
21
-2.934964212598425
0
LINE
8
BLACK
6
CONTINUOUS
10
3.4550840944881891
20
-2.934964212598425
11
3.451334566929134
21
-2.9368389763779525
0
LINE
8
BLACK
6
CONTINUOUS
10
3.451334566929134
20
-2.9368389763779525
11
3.4503516141732282
21
-2.9371313385826769
0
LINE
8
BLACK
6
CONTINUOUS
10
3.4503516141732282
20
-2.9371313385826769
11
3.4501799212598425
21
-2.93709031496063
0
LINE
8
BLACK
6
CONTINUOUS
10
3.4501799212598425
20
-2.93709031496063
11
3.4500514173228347
21
-2.9371370866141731
0
LINE
8
BLACK
6
CONTINUOUS
10
3.4500514173228347
20
-2.9371370866141731
11
3.4599321259842517
21
-2.9512523622047242
0
LINE
8
BLACK
6
CONTINUOUS
10
3.4599321259842517
20
-2.9512523622047242
11
3.4603653937007874
21
-2.952181811023622
0
LINE
8
BLACK
6
CONTINUOUS
10
3.4603653937007874
20
-2.952181811023622
11
3.4601890551181103
21
-2.9541938976377953
0
LINE
8
BLACK
6
CONTINUOUS
10
3.4601890551181103
20
-2.9541938976377953
11
3.4587606299212599
21
-2.9556219291338581
0
LINE
8
BLACK
6
CONTINUOUS
10
3.4587606299212599
20
-2.9556219291338581
11
3.4567485039370078
21
-2.9557976771653545
0
LINE
8
BLACK
6
CONTINUOUS
10
3.4567485039370078
20
-2.9557976771653545
11
3.4550941338582675
21
-2.9546389370078741
0
LINE
8
BLACK
6
CONTINUOUS
10
3.4550941338582675
20
-2.9546389370078741
11
3.442852401574803
21
-2.9371507086614175
0
LINE
8
BLACK
6
CONTINUOUS
10
3.442852401574803
20
-2.9371507086614175
11
3.4379687007874016
21
-2.9371507086614175
0
LINE
8
BLACK
6
CONTINUOUS
10
3.4379687007874016
20
-2.9371507086614175
11
3.4379687007874016
21
-2.9529456299212598
0
LINE
8
BLACK
6
CONTINUOUS
10
3.4379687007874016
20
-2.9529456299212598
11
3.4377906299212597
21
-2.9539555511811022
0
LINE
8
BLACK
6
CONTINUOUS
10
3.4377906299212597
20
-2.9539555511811022
11
3.4364923228346456
21
-2.9555027952755903
0
LINE
8
BLACK
6
CONTINUOUS
10
3.4364923228346456
20
-2.9555027952755903
11
3.434503188976378
21
-2.9558535433070867
0
LINE
8
BLACK
6
CONTINUOUS
10
3.434503188976378
20
-2.9558535433070867
11
3.4327540157480314
21
-2.9548436220472438
0
LINE
8
BLACK
6
CONTINUOUS
10
3.4327540157480314
20
-2.9548436220472438
11
3.432063188976378
21
-2.9529456299212598
0
LINE
8
BLACK
6
CONTINUOUS
10
3.432063188976378
20
-2.9529456299212598
11
3.432063188976378
21
-2.9135755511811023
0
LINE
8
BLACK
6
CONTINUOUS
10
3.432063188976378
20
-2.9135755511811023
11
3.4321307874015745
21
-2.9131920078740157
0
LINE
8
BLACK
6
CONTINUOUS
10
3.4321307874015745
20
-2.9131920078740157
11
3.432108031496063
21
-2.9130627952755903
0
LINE
8
BLACK
6
CONTINUOUS
10
3.432108031496063
20
-2.9130627952755903
11
3.4321736220472441
21
-2.9129491732283466
0
LINE
8
BLACK
6
CONTINUOUS
10
3.4321736220472441
20
-2.9129491732283466
11
3.4322412598425198
21
-2.9125656299212599
0
LINE
8
BLACK
6
CONTINUOUS
10
3.4322412598425198
20
-2.9125656299212599
11
3.43273437007874
21
-2.9119779133858268
0
LINE
8
BLACK
6
CONTINUOUS
10
3.43273437007874
20
-2.9119779133858268
11
3.4331179527559055
21
-2.9113136220472442
0
LINE
8
BLACK
6
CONTINUOUS
10
3.4331179527559055
20
-2.9113136220472442
11
3.4333682677165354
21
-2.9112224803149607
0
LINE
8
BLACK
6
CONTINUOUS
10
3.4333682677165354
20
-2.9112224803149607
11
3.433539566929134
21
-2.9110183858267717
0
LINE
8
BLACK
6
CONTINUOUS
10
3.433539566929134
20
-2.9110183858267717
11
3.4342951181102364
21
-2.9108851181102362
0
LINE
8
BLACK
6
CONTINUOUS
10
3.4342951181102364
20
-2.9108851181102362
11
3.4350159448818895
21
-2.9106227952755903
0
LINE
8
BLACK
6
CONTINUOUS
10
3.4350159448818895
20
-2.9106227952755903
11
3.45001405511811
21
-2.9106227952755903
0
LINE
8
BLACK
6
CONTINUOUS
10
3.45001405511811
20
-2.9106227952755903
11
3.4510239763779529
21
-2.9108008661417322
0
LINE
8
BLACK
6
CONTINUOUS
10
3.4379687007874016
20
-2.9312451968503934
11
3.4493170078740159
21
-2.9312451968503934
0
LINE
8
BLACK
6
CONTINUOUS
10
3.4493170078740159
20
-2.9312451968503934
11
3.4520144881889765
21
-2.9298964566929131
0
LINE
8
BLACK
6
CONTINUOUS
10
3.4520144881889765
20
-2.9298964566929131
11
3.4532116141732283
21
-2.9286993307086613
0
LINE
8
BLACK
6
CONTINUOUS
10
3.4532116141732283
20
-2.9286993307086613
11
3.4545603543307086
21
-2.9260018503937006
0
LINE
8
BLACK
6
CONTINUOUS
10
3.4545603543307086
20
-2.9260018503937006
11
3.4545603543307086
21
-2.9217716535433071
0
LINE
8
BLACK
6
CONTINUOUS
10
3.4545603543307086
20
-2.9217716535433071
11
3.4532116141732283
21
-2.9190741732283465
0
LINE
8
BLACK
6
CONTINUOUS
10
3.4532116141732283
20
-2.9190741732283465
11
3.4520144881889765
21
-2.9178770472440942
0
LINE
8
BLACK
6
CONTINUOUS
10
3.4520144881889765
20
-2.9178770472440942
11
3.4493170078740159
21
-2.9165283070866139
0
LINE
8
BLACK
6
CONTINUOUS
10
3.4493170078740159
20
-2.9165283070866139
11
3.4379687007874016
21
-2.9165283070866139
0
LINE
8
BLACK
6
CONTINUOUS
10
3.4379687007874016
20
-2.9165283070866139
11
3.4379687007874016
21
-2.9312451968503934
0
LINE
8
BLACK
6
CONTINUOUS
10
5.9122672047244089
20
-2.4720018897637797
11
5.9243555511811019
21
-2.4742171259842518
0
LINE
8
BLACK
6
CONTINUOUS
10
5.9243555511811019
20
-2.4742171259842518
11
5.93608874015748
21
-2.4778733464566929
0
LINE
8
BLACK
6
CONTINUOUS
10
5.93608874015748
20
-2.4778733464566929
11
5.9472956299212596
21
-2.4829171653543307
0
LINE
8
BLACK
6
CONTINUOUS
10
5.9472956299212596
20
-2.4829171653543307
11
5.9578128740157483
21
-2.4892750787401576
0
LINE
8
BLACK
6
CONTINUOUS
10
5.9578128740157483
20
-2.4892750787401576
11
5.9674870866141729
21
-2.4968543307086613
0
LINE
8
BLACK
6
CONTINUOUS
10
5.9674870866141729
20
-2.4968543307086613
11
5.976177165354331
21
-2.5055444094488188
0
LINE
8
BLACK
6
CONTINUOUS
10
5.976177165354331
20
-2.5055444094488188
11
5.9837564173228346
21
-2.5152186220472439
0
LINE
8
BLACK
6
CONTINUOUS
10
5.9837564173228346
20
-2.5152186220472439
11
5.9901143307086615
21
-2.5257358661417322
0
LINE
8
BLACK
6
CONTINUOUS
10
5.9901143307086615
20
-2.5257358661417322
11
5.9951581496062989
21
-2.5369427559055118
0
LINE
8
BLACK
6
CONTINUOUS
10
5.9951581496062989
20
-2.5369427559055118
11
5.9988143700787404
21
-2.5486759448818899
0
LINE
8
BLACK
6
CONTINUOUS
10
5.9988143700787404
20
-2.5486759448818899
11
6.0010296062992126
21
-2.5607642913385824
0
LINE
8
BLACK
6
CONTINUOUS
10
6.0010296062992126
20
-2.5607642913385824
11
6.0017716535433072
21
-2.5730314960629919
0
LINE
8
BLACK
6
CONTINUOUS
10
6.0017716535433072
20
-2.5730314960629919
11
6.0017716535433072
21
-2.8190944881889761
0
LINE
8
BLACK
6
CONTINUOUS
10
6.0017716535433072
20
-2.8190944881889761
11
6.0010296062992126
21
-2.8313616929133856
0
LINE
8
BLACK
6
CONTINUOUS
10
6.0010296062992126
20
-2.8313616929133856
11
5.9988143700787404
21
-2.8434500393700786
0
LINE
8
BLACK
6
CONTINUOUS
10
5.9988143700787404
20
-2.8434500393700786
11
5.9951581496062989
21
-2.8551832283464567
0
LINE
8
BLACK
6
CONTINUOUS
10
5.9951581496062989
20
-2.8551832283464567
11
5.9901143307086615
21
-2.8663901181102363
0
LINE
8
BLACK
6
CONTINUOUS
10
5.9901143307086615
20
-2.8663901181102363
11
5.9837564173228346
21
-2.8769073622047245
0
LINE
8
BLACK
6
CONTINUOUS
10
5.9837564173228346
20
-2.8769073622047245
11
5.976177165354331
21
-2.8865815748031496
0
LINE
8
BLACK
6
CONTINUOUS
10
5.976177165354331
20
-2.8865815748031496
11
5.9674870866141729
21
-2.8952716535433072
0
LINE
8
BLACK
6
CONTINUOUS
10
5.9674870866141729
20
-2.8952716535433072
11
5.9578128740157483
21
-2.9028509055118108
0
LINE
8
BLACK
6
CONTINUOUS
10
5.9578128740157483
20
-2.9028509055118108
11
5.9472956299212596
21
-2.9092088188976377
0
LINE
8
BLACK
6
CONTINUOUS
10
5.9472956299212596
20
-2.9092088188976377
11
5.93608874015748
21
-2.9142526377952755
0
LINE
8
BLACK
6
CONTINUOUS
10
5.93608874015748
20
-2.9142526377952755
11
5.9243555511811019
21
-2.9179088582677166
0
LINE
8
BLACK
6
CONTINUOUS
10
5.9243555511811019
20
-2.9179088582677166
11
5.9122672047244089
21
-2.9201240944881888
0
LINE
8
BLACK
6
CONTINUOUS
10
5.9122672047244089
20
-2.9201240944881888
11
5.8999999999999995
21
-2.9208661417322834
0
LINE
8
BLACK
6
CONTINUOUS
10
5.8999999999999995
20
-2.9208661417322834
11
5.88773279527559
21
-2.9201240944881888
0
LINE
8
BLACK
6
CONTINUOUS
10
5.88773279527559
20
-2.9201240944881888
11
5.8756444488188979
21
-2.9179088582677166
0
LINE
8
BLACK
6
CONTINUOUS
10
5.8756444488188979
20
-2.9179088582677166
11
5.8639112598425198
21
-2.9142526377952755
0
LINE
8
BLACK
6
CONTINUOUS
10
5.8639112598425198
20
-2.9142526377952755
11
5.8527043700787402
21
-2.9092088188976377
0
LINE
8
BLACK
6
CONTINUOUS
10
5.8527043700787402
20
-2.9092088188976377
11
5.8421871259842515
21
-2.9028509055118108
0
LINE
8
BLACK
6
CONTINUOUS
10
5.8421871259842515
20
-2.9028509055118108
11
5.8325129133858269
21
-2.8952716535433072
0
LINE
8
BLACK
6
CONTINUOUS
10
5.8325129133858269
20
-2.8952716535433072
11
5.8238228346456689
21
-2.8865815748031496
0
LINE
8
BLACK
6
CONTINUOUS
10
5.8238228346456689
20
-2.8865815748031496
11
5.8162435826771652
21
-2.8769073622047245
0
LINE
8
BLACK
6
CONTINUOUS
10
5.8162435826771652
20
-2.8769073622047245
11
5.8098856692913383
21
-2.8663901181102363
0
LINE
8
BLACK
6
CONTINUOUS
10
5.8098856692913383
20
-2.8663901181102363
11
5.8048418503937009
21
-2.8551832283464567
0
LINE
8
BLACK
6
CONTINUOUS
10
5.8048418503937009
20
-2.8551832283464567
11
5.8011856299212594
21
-2.8434500393700786
0
LINE
8
BLACK
6
CONTINUOUS
10
5.8011856299212594
20
-2.8434500393700786
11
5.7989703937007873
21
-2.8313616929133856
0
LINE
8
BLACK
6
CONTINUOUS
10
5.7989703937007873
20
-2.8313616929133856
11
5.7982283464566926
21
-2.8190944881889761
0
LINE
8
BLACK
6
CONTINUOUS
10
5.7982283464566926
20
-2.8190944881889761
11
5.7982283464566926
21
-2.5730314960629919
0
LINE
8
BLACK
6
CONTINUOUS
10
5.7982283464566926
20
-2.5730314960629919
11
5.7989703937007873
21
-2.5607642913385824
0
LINE
8
BLACK
6
CONTINUOUS
10
5.7989703937007873
20
-2.5607642913385824
11
5.8011856299212594
21
-2.5486759448818899
0
LINE
8
BLACK
6
CONTINUOUS
10
5.8011856299212594
20
-2.5486759448818899
11
5.8048418503937009
21
-2.5369427559055118
0
LINE
8
BLACK
6
CONTINUOUS
10
5.8048418503937009
20
-2.5369427559055118
11
5.8098856692913383
21
-2.5257358661417322
0
LINE
8
BLACK
6
CONTINUOUS
10
5.8098856692913383
20
-2.5257358661417322
11
5.8162435826771652
21
-2.5152186220472439
0
LINE
8
BLACK
6
CONTINUOUS
10
5.8162435826771652
20
-2.5152186220472439
11
5.8238228346456689
21
-2.5055444094488188
0
LINE
8
BLACK
6
CONTINUOUS
10
5.8238228346456689
20
-2.5055444094488188
11
5.8325129133858269
21
-2.4968543307086613
0
LINE
8
BLACK
6
CONTINUOUS
10
5.8325129133858269
20
-2.4968543307086613
11
5.8421871259842515
21
-2.4892750787401576
0
LINE
8
BLACK
6
CONTINUOUS
10
5.8421871259842515
20
-2.4892750787401576
11
5.8527043700787402
21
-2.4829171653543307
0
LINE
8
BLACK
6
CONTINUOUS
10
5.8527043700787402
20
-2.4829171653543307
11
5.8639112598425198
21
-2.4778733464566929
0
LINE
8
BLACK
6
CONTINUOUS
10
5.8639112598425198
20
-2.4778733464566929
11
5.8756444488188979
21
-2.4742171259842518
0
LINE
8
BLACK
6
CONTINUOUS
10
5.8756444488188979
20
-2.4742171259842518
11
5.88773279527559
21
-2.4720018897637797
0
LINE
8
BLACK
6
CONTINUOUS
10
5.88773279527559
20
-2.4720018897637797
11
5.8999999999999995
21
-2.471259842519685
0
LINE
8
BLACK
6
CONTINUOUS
10
5.8999999999999995
20
-2.471259842519685
11
5.9122672047244089
21
-2.4720018897637797
0
LINE
8
BLACK
6
CONTINUOUS
10
5.8824747637795278
20
-2.4773994488188977
11
5.8710753937007869
21
-2.4802091338582675
0
LINE
8
BLACK
6
CONTINUOUS
10
5.8710753937007869
20
-2.4802091338582675
11
5.8600977952755908
21
-2.4843724015748032
0
LINE
8
BLACK
6
CONTINUOUS
10
5.8600977952755908
20
-2.4843724015748032
11
5.8497020472440946
21
-2.4898285039370078
0
LINE
8
BLACK
6
CONTINUOUS
10
5.8497020472440946
20
-2.4898285039370078
11
5.8400397637795276
21
-2.496497874015748
0
LINE
8
BLACK
6
CONTINUOUS
10
5.8400397637795276
20
-2.496497874015748
11
5.8312518110236216
21
-2.504283307086614
0
LINE
8
BLACK
6
CONTINUOUS
10
5.8312518110236216
20
-2.504283307086614
11
5.823466377952756
21
-2.5130712598425196
0
LINE
8
BLACK
6
CONTINUOUS
10
5.823466377952756
20
-2.5130712598425196
11
5.8167970078740154
21
-2.5227335433070865
0
LINE
8
BLACK
6
CONTINUOUS
10
5.8167970078740154
20
-2.5227335433070865
11
5.8113409055118108
21
-2.5331292913385828
0
LINE
8
BLACK
6
CONTINUOUS
10
5.8113409055118108
20
-2.5331292913385828
11
5.8071776377952755
21
-2.5441068897637793
0
LINE
8
BLACK
6
CONTINUOUS
10
5.8071776377952755
20
-2.5441068897637793
11
5.8043679527559053
21
-2.5555062598425198
0
LINE
8
BLACK
6
CONTINUOUS
10
5.8043679527559053
20
-2.5555062598425198
11
5.8029527559055119
21
-2.5671612204724408
0
LINE
8
BLACK
6
CONTINUOUS
10
5.8029527559055119
20
-2.5671612204724408
11
5.8029527559055119
21
-2.5730314960629919
0
LINE
8
BLACK
6
CONTINUOUS
10
5.8029527559055119
20
-2.5730314960629919
11
5.8029527559055119
21
-2.8190944881889761
0
LINE
8
BLACK
6
CONTINUOUS
10
5.8029527559055119
20
-2.8190944881889761
11
5.8029527559055119
21
-2.8249647637795277
0
LINE
8
BLACK
6
CONTINUOUS
10
5.8029527559055119
20
-2.8249647637795277
11
5.8043679527559053
21
-2.8366197244094487
0
LINE
8
BLACK
6
CONTINUOUS
10
5.8043679527559053
20
-2.8366197244094487
11
5.8071776377952755
21
-2.8480190944881891
0
LINE
8
BLACK
6
CONTINUOUS
10
5.8071776377952755
20
-2.8480190944881891
11
5.8113409055118108
21
-2.8589966929133857
0
LINE
8
BLACK
6
CONTINUOUS
10
5.8113409055118108
20
-2.8589966929133857
11
5.8167970078740154
21
-2.8693924409448819
0
LINE
8
BLACK
6
CONTINUOUS
10
5.8167970078740154
20
-2.8693924409448819
11
5.823466377952756
21
-2.8790547244094489
0
LINE
8
BLACK
6
CONTINUOUS
10
5.823466377952756
20
-2.8790547244094489
11
5.8312518110236216
21
-2.8878426771653545
0
LINE
8
BLACK
6
CONTINUOUS
10
5.8312518110236216
20
-2.8878426771653545
11
5.8400397637795276
21
-2.8956281102362205
0
LINE
8
BLACK
6
CONTINUOUS
10
5.8400397637795276
20
-2.8956281102362205
11
5.8497020472440946
21
-2.9022974803149606
0
LINE
8
BLACK
6
CONTINUOUS
10
5.8497020472440946
20
-2.9022974803149606
11
5.8600977952755908
21
-2.9077535826771652
0
LINE
8
BLACK
6
CONTINUOUS
10
5.8600977952755908
20
-2.9077535826771652
11
5.8710753937007869
21
-2.9119168503937005
0
LINE
8
BLACK
6
CONTINUOUS
10
5.8710753937007869
20
-2.9119168503937005
11
5.8824747637795278
21
-2.9147265354330707
0
LINE
8
BLACK
6
CONTINUOUS
10
5.8824747637795278
20
-2.9147265354330707
11
5.8941297244094484
21
-2.9161417322834646
0
LINE
8
BLACK
6
CONTINUOUS
10
5.8941297244094484
20
-2.9161417322834646
11
5.9058702755905514
21
-2.9161417322834646
0
LINE
8
BLACK
6
CONTINUOUS
10
5.9058702755905514
20
-2.9161417322834646
11
5.917525236220472
21
-2.9147265354330707
0
LINE
8
BLACK
6
CONTINUOUS
10
5.917525236220472
20
-2.9147265354330707
11
5.928924606299212
21
-2.9119168503937005
0
LINE
8
BLACK
6
CONTINUOUS
10
5.928924606299212
20
-2.9119168503937005
11
5.939902204724409
21
-2.9077535826771652
0
LINE
8
BLACK
6
CONTINUOUS
10
5.939902204724409
20
-2.9077535826771652
11
5.9502979527559052
21
-2.9022974803149606
0
LINE
8
BLACK
6
CONTINUOUS
10
5.9502979527559052
20
-2.9022974803149606
11
5.9599602362204722
21
-2.8956281102362205
0
LINE
8
BLACK
6
CONTINUOUS
10
5.9599602362204722
20
-2.8956281102362205
11
5.9687481889763774
21
-2.8878426771653545
0
LINE
8
BLACK
6
CONTINUOUS
10
5.9687481889763774
20
-2.8878426771653545
11
5.9765336220472438
21
-2.8790547244094489
0
LINE
8
BLACK
6
CONTINUOUS
10
5.9765336220472438
20
-2.8790547244094489
11
5.9832029921259844
21
-2.8693924409448819
0
LINE
8
BLACK
6
CONTINUOUS
10
5.9832029921259844
20
-2.8693924409448819
11
5.988659094488189
21
-2.8589966929133857
0
LINE
8
BLACK
6
CONTINUOUS
10
5.988659094488189
20
-2.8589966929133857
11
5.9928223622047243
21
-2.8480190944881891
0
LINE
8
BLACK
6
CONTINUOUS
10
5.9928223622047243
20
-2.8480190944881891
11
5.9956320472440945
21
-2.8366197244094487
0
LINE
8
BLACK
6
CONTINUOUS
10
5.9956320472440945
20
-2.8366197244094487
11
5.997047244094488
21
-2.8249647637795277
0
LINE
8
BLACK
6
CONTINUOUS
10
5.997047244094488
20
-2.8249647637795277
11
5.997047244094488
21
-2.8190944881889761
0
LINE
8
BLACK
6
CONTINUOUS
10
5.997047244094488
20
-2.8190944881889761
11
5.997047244094488
21
-2.5730314960629919
0
LINE
8
BLACK
6
CONTINUOUS
10
5.997047244094488
20
-2.5730314960629919
11
5.997047244094488
21
-2.5671612204724408
0
LINE
8
BLACK
6
CONTINUOUS
10
5.997047244094488
20
-2.5671612204724408
11
5.9956320472440945
21
-2.5555062598425198
0
LINE
8
BLACK
6
CONTINUOUS
10
5.9956320472440945
20
-2.5555062598425198
11
5.9928223622047243
21
-2.5441068897637793
0
LINE
8
BLACK
6
CONTINUOUS
10
5.9928223622047243
20
-2.5441068897637793
11
5.988659094488189
21
-2.5331292913385828
0
LINE
8
BLACK
6
CONTINUOUS
10
5.988659094488189
20
-2.5331292913385828
11
5.9832029921259844
21
-2.5227335433070865
0
LINE
8
BLACK
6
CONTINUOUS
10
5.9832029921259844
20
-2.5227335433070865
11
5.9765336220472438
21
-2.5130712598425196
0
LINE
8
BLACK
6
CONTINUOUS
10
5.9765336220472438
20
-2.5130712598425196
11
5.9687481889763774
21
-2.504283307086614
0
LINE
8
BLACK
6
CONTINUOUS
10
5.9687481889763774
20
-2.504283307086614
11
5.9599602362204722
21
-2.496497874015748
0
LINE
8
BLACK
6
CONTINUOUS
10
5.9599602362204722
20
-2.496497874015748
11
5.9502979527559052
21
-2.4898285039370078
0
LINE
8
BLACK
6
CONTINUOUS
10
5.9502979527559052
20
-2.4898285039370078
11
5.939902204724409
21
-2.4843724015748032
0
LINE
8
BLACK
6
CONTINUOUS
10
5.939902204724409
20
-2.4843724015748032
11
5.928924606299212
21
-2.4802091338582675
0
LINE
8
BLACK
6
CONTINUOUS
10
5.928924606299212
20
-2.4802091338582675
11
5.917525236220472
21
-2.4773994488188977
0
LINE
8
BLACK
6
CONTINUOUS
10
5.917525236220472
20
-2.4773994488188977
11
5.9058702755905514
21
-2.4759842519685038
0
LINE
8
BLACK
6
CONTINUOUS
10
5.9058702755905514
20
-2.4759842519685038
11
5.8941297244094484
21
-2.4759842519685038
0
LINE
8
BLACK
6
CONTINUOUS
10
5.8941297244094484
20
-2.4759842519685038
11
5.8824747637795278
21
-2.4773994488188977
0
LINE
8
BLACK
6
CONTINUOUS
10
3.1287401574803151
20
-2.4960629921259843
11
3.1304104724409449
21
-2.4967548818897636
0
LINE
8
BLACK
6
CONTINUOUS
10
3.1304104724409449
20
-2.4967548818897636
11
3.1311023622047243
21
-2.4984251968503934
0
LINE
8
BLACK
6
CONTINUOUS
10
3.1311023622047243
20
-2.4984251968503934
11
3.1311023622047243
21
-2.901574803149606
0
LINE
8
BLACK
6
CONTINUOUS
10
3.1311023622047243
20
-2.901574803149606
11
3.1304104724409449
21
-2.9032451181102363
0
LINE
8
BLACK
6
CONTINUOUS
10
3.1304104724409449
20
-2.9032451181102363
11
3.1287401574803151
21
-2.9039370078740157
0
LINE
8
BLACK
6
CONTINUOUS
10
3.1287401574803151
20
-2.9039370078740157
11
3.0692913385826772
21
-2.9039370078740157
0
LINE
8
BLACK
6
CONTINUOUS
10
3.0692913385826772
20
-2.9039370078740157
11
2.9460236220472442
21
-2.9039370078740157
0
LINE
8
BLACK
6
CONTINUOUS
10
2.9460236220472442
20
-2.9039370078740157
11
2.9443533070866139
21
-2.9032451181102363
0
LINE
8
BLACK
6
CONTINUOUS
10
2.9443533070866139
20
-2.9032451181102363
11
2.9436614173228346
21
-2.901574803149606
0
LINE
8
BLACK
6
CONTINUOUS
10
2.9436614173228346
20
-2.901574803149606
11
2.9436614173228346
21
-2.4984251968503934
0
LINE
8
BLACK
6
CONTINUOUS
10
2.9436614173228346
20
-2.4984251968503934
11
2.9443533070866139
21
-2.4967548818897636
0
LINE
8
BLACK
6
CONTINUOUS
10
2.9443533070866139
20
-2.4967548818897636
11
2.9460236220472442
21
-2.4960629921259843
0
LINE
8
BLACK
6
CONTINUOUS
10
2.9460236220472442
20
-2.4960629921259843
11
3.1287401574803151
21
-2.4960629921259843
0
LINE
8
BLACK
6
CONTINUOUS
10
2.9483858267716534
20
-2.5007874015748031
11
2.9483858267716534
21
-2.8992125984251969
0
LINE
8
BLACK
6
CONTINUOUS
10
2.9483858267716534
20
-2.8992125984251969
11
3.0669291338582676
21
-2.8992125984251969
0
LINE
8
BLACK
6
CONTINUOUS
10
3.0669291338582676
20
-2.8992125984251969
11
3.0669291338582676
21
-2.5007874015748031
0
LINE
8
BLACK
6
CONTINUOUS
10
3.0669291338582676
20
-2.5007874015748031
11
2.9483858267716534
21
-2.5007874015748031
0
LINE
8
BLACK
6
CONTINUOUS
10
3.0716535433070864
20
-2.7752362204724408
11
3.0716535433070864
21
-2.8992125984251969
0
LINE
8
BLACK
6
CONTINUOUS
10
3.0716535433070864
20
-2.8992125984251969
11
3.1263779527559055
21
-2.8992125984251969
0
LINE
8
BLACK
6
CONTINUOUS
10
3.1263779527559055
20
-2.8992125984251969
11
3.1263779527559055
21
-2.7752362204724408
0
LINE
8
BLACK
6
CONTINUOUS
10
3.1263779527559055
20
-2.7752362204724408
11
3.0716535433070864
21
-2.7752362204724408
0
LINE
8
BLACK
6
CONTINUOUS
10
3.0716535433070864
20
-2.6295275590551181
11
3.0716535433070864
21
-2.770511811023622
0
LINE
8
BLACK
6
CONTINUOUS
10
3.0716535433070864
20
-2.770511811023622
11
3.1263779527559055
21
-2.770511811023622
0
LINE
8
BLACK
6
CONTINUOUS
10
3.1263779527559055
20
-2.770511811023622
11
3.1263779527559055
21
-2.6295275590551181
0
LINE
8
BLACK
6
CONTINUOUS
10
3.1263779527559055
20
-2.6295275590551181
11
3.0716535433070864
21
-2.6295275590551181
0
LINE
8
BLACK
6
CONTINUOUS
10
3.0716535433070864
20
-2.5007874015748031
11
3.0716535433070864
21
-2.6248031496062993
0
LINE
8
BLACK
6
CONTINUOUS
10
3.0716535433070864
20
-2.6248031496062993
11
3.1263779527559055
21
-2.6248031496062993
0
LINE
8
BLACK
6
CONTINUOUS
10
3.1263779527559055
20
-2.6248031496062993
11
3.1263779527559055
21
-2.5007874015748031
0
LINE
8
BLACK
6
CONTINUOUS
10
3.1263779527559055
20
-2.5007874015748031
11
3.0716535433070864
21
-2.5007874015748031
0
LINE
8
BLACK
6
CONTINUOUS
10
6.8363391732283461
20
-2.8462883858267718
11
6.8366675196850393
21
-2.8462650787401573
0
LINE
8
BLACK
6
CONTINUOUS
10
6.8366675196850393
20
-2.8462650787401573
11
6.8432389763779522
21
-2.8484555511811025
0
LINE
8
BLACK
6
CONTINUOUS
10
6.8432389763779522
20
-2.8484555511811025
11
6.8435906299212599
21
-2.8487605511811025
0
LINE
8
BLACK
6
CONTINUOUS
10
6.8435906299212599
20
-2.8487605511811025
11
6.8440207086614171
21
-2.8489387007874014
0
LINE
8
BLACK
6
CONTINUOUS
10
6.8440207086614171
20
-2.8489387007874014
11
6.8462111811023618
21
-2.8511291732283466
0
LINE
8
BLACK
6
CONTINUOUS
10
6.8462111811023618
20
-2.8511291732283466
11
6.8467969685039369
21
-2.8525433858267717
0
LINE
8
BLACK
6
CONTINUOUS
10
6.8467969685039369
20
-2.8525433858267717
11
6.8462111811023618
21
-2.8539575984251968
0
LINE
8
BLACK
6
CONTINUOUS
10
6.8462111811023618
20
-2.8539575984251968
11
6.8447969685039372
21
-2.8545433858267715
0
LINE
8
BLACK
6
CONTINUOUS
10
6.8447969685039372
20
-2.8545433858267715
11
6.8433827559055116
21
-2.8539575984251968
0
LINE
8
BLACK
6
CONTINUOUS
10
6.8433827559055116
20
-2.8539575984251968
11
6.8415261023622049
21
-2.8521009448818897
0
LINE
8
BLACK
6
CONTINUOUS
10
6.8415261023622049
20
-2.8521009448818897
11
6.8357105511811023
21
-2.850162440944882
0
LINE
8
BLACK
6
CONTINUOUS
10
6.8357105511811023
20
-2.850162440944882
11
6.8319787007874018
21
-2.850162440944882
0
LINE
8
BLACK
6
CONTINUOUS
10
6.8319787007874018
20
-2.850162440944882
11
6.8261630314960628
21
-2.8521009448818897
0
LINE
8
BLACK
6
CONTINUOUS
10
6.8261630314960628
20
-2.8521009448818897
11
6.8223454330708657
21
-2.8559185433070864
0
LINE
8
BLACK
6
CONTINUOUS
10
6.8223454330708657
20
-2.8559185433070864
11
6.8203982677165351
21
-2.859812874015748
0
LINE
8
BLACK
6
CONTINUOUS
10
6.8203982677165351
20
-2.859812874015748
11
6.818320787401575
21
-2.8681228740157478
0
LINE
8
BLACK
6
CONTINUOUS
10
6.818320787401575
20
-2.8681228740157478
11
6.818320787401575
21
-2.8742019685039368
0
LINE
8
BLACK
6
CONTINUOUS
10
6.818320787401575
20
-2.8742019685039368
11
6.8203982677165351
21
-2.8825119291338583
0
LINE
8
BLACK
6
CONTINUOUS
10
6.8203982677165351
20
-2.8825119291338583
11
6.8223454330708657
21
-2.8864062992125983
0
LINE
8
BLACK
6
CONTINUOUS
10
6.8223454330708657
20
-2.8864062992125983
11
6.8261630314960628
21
-2.8902238976377954
0
LINE
8
BLACK
6
CONTINUOUS
10
6.8261630314960628
20
-2.8902238976377954
11
6.8319787007874018
21
-2.8921624409448818
0
LINE
8
BLACK
6
CONTINUOUS
10
6.8319787007874018
20
-2.8921624409448818
11
6.8357105511811023
21
-2.8921624409448818
0
LINE
8
BLACK
6
CONTINUOUS
10
6.8357105511811023
20
-2.8921624409448818
11
6.8415261023622049
21
-2.8902238976377954
0
LINE
8
BLACK
6
CONTINUOUS
10
6.8415261023622049
20
-2.8902238976377954
11
6.8433827559055116
21
-2.8883672440944883
0
LINE
8
BLACK
6
CONTINUOUS
10
6.8433827559055116
20
-2.8883672440944883
11
6.8447969685039372
21
-2.8877814566929132
0
LINE
8
BLACK
6
CONTINUOUS
10
6.8447969685039372
20
-2.8877814566929132
11
6.8462111811023618
21
-2.8883672047244096
0
LINE
8
BLACK
6
CONTINUOUS
10
6.8462111811023618
20
-2.8883672047244096
11
6.8467969685039369
21
-2.8897814173228347
0
LINE
8
BLACK
6
CONTINUOUS
10
6.8467969685039369
20
-2.8897814173228347
11
6.8462112204724406
21
-2.8911956692913385
0
LINE
8
BLACK
6
CONTINUOUS
10
6.8462112204724406
20
-2.8911956692913385
11
6.8440207086614171
21
-2.893386181102362
0
LINE
8
BLACK
6
CONTINUOUS
10
6.8440207086614171
20
-2.893386181102362
11
6.8435906299212599
21
-2.8935642913385826
0
LINE
8
BLACK
6
CONTINUOUS
10
6.8435906299212599
20
-2.8935642913385826
11
6.8432389763779522
21
-2.8938693307086614
0
LINE
8
BLACK
6
CONTINUOUS
10
6.8432389763779522
20
-2.8938693307086614
11
6.8366675196850393
21
-2.8960598031496061
0
LINE
8
BLACK
6
CONTINUOUS
10
6.8366675196850393
20
-2.8960598031496061
11
6.8363391732283461
21
-2.8960364566929133
0
LINE
8
BLACK
6
CONTINUOUS
10
6.8363391732283461
20
-2.8960364566929133
11
6.8360350787401574
21
-2.8961624409448818
0
LINE
8
BLACK
6
CONTINUOUS
10
6.8360350787401574
20
-2.8961624409448818
11
6.8316541338582679
21
-2.8961624409448818
0
LINE
8
BLACK
6
CONTINUOUS
10
6.8316541338582679
20
-2.8961624409448818
11
6.8313499999999996
21
-2.8960364566929133
0
LINE
8
BLACK
6
CONTINUOUS
10
6.8313499999999996
20
-2.8960364566929133
11
6.831021692913386
21
-2.8960598031496061
0
LINE
8
BLACK
6
CONTINUOUS
10
6.831021692913386
20
-2.8960598031496061
11
6.8244502362204722
21
-2.8938693307086614
0
LINE
8
BLACK
6
CONTINUOUS
10
6.8244502362204722
20
-2.8938693307086614
11
6.8240985433070867
21
-2.8935642913385826
0
LINE
8
BLACK
6
CONTINUOUS
10
6.8240985433070867
20
-2.8935642913385826
11
6.8236684645669285
21
-2.893386181102362
0
LINE
8
BLACK
6
CONTINUOUS
10
6.8236684645669285
20
-2.893386181102362
11
6.8192875196850391
21
-2.8890051968503938
0
LINE
8
BLACK
6
CONTINUOUS
10
6.8192875196850391
20
-2.8890051968503938
11
6.8191615354330706
21
-2.8887010629921259
0
LINE
8
BLACK
6
CONTINUOUS
10
6.8191615354330706
20
-2.8887010629921259
11
6.8189128740157479
21
-2.8884853937007873
0
LINE
8
BLACK
6
CONTINUOUS
10
6.8189128740157479
20
-2.8884853937007873
11
6.8167224015748031
21
-2.8841044488188974
0
LINE
8
BLACK
6
CONTINUOUS
10
6.8167224015748031
20
-2.8841044488188974
11
6.8167062598425199
21
-2.8838776771653545
0
LINE
8
BLACK
6
CONTINUOUS
10
6.8167062598425199
20
-2.8838776771653545
11
6.8165709842519684
21
-2.8836950787401574
0
LINE
8
BLACK
6
CONTINUOUS
10
6.8165709842519684
20
-2.8836950787401574
11
6.8143805118110237
21
-2.8749332283464568
0
LINE
8
BLACK
6
CONTINUOUS
10
6.8143805118110237
20
-2.8749332283464568
11
6.81441779527559
21
-2.8746824015748031
0
LINE
8
BLACK
6
CONTINUOUS
10
6.81441779527559
20
-2.8746824015748031
11
6.8143207874015745
21
-2.874448149606299
0
LINE
8
BLACK
6
CONTINUOUS
10
6.8143207874015745
20
-2.874448149606299
11
6.8143207874015745
21
-2.8678766929133857
0
LINE
8
BLACK
6
CONTINUOUS
10
6.8143207874015745
20
-2.8678766929133857
11
6.81441779527559
21
-2.8676424015748032
0
LINE
8
BLACK
6
CONTINUOUS
10
6.81441779527559
20
-2.8676424015748032
11
6.8143805118110237
21
-2.8673916141732283
0
LINE
8
BLACK
6
CONTINUOUS
10
6.8143805118110237
20
-2.8673916141732283
11
6.8165709842519684
21
-2.8586297637795277
0
LINE
8
BLACK
6
CONTINUOUS
10
6.8165709842519684
20
-2.8586297637795277
11
6.8167062598425199
21
-2.8584471259842519
0
LINE
8
BLACK
6
CONTINUOUS
10
6.8167062598425199
20
-2.8584471259842519
11
6.8167224015748031
21
-2.8582203937007873
0
LINE
8
BLACK
6
CONTINUOUS
10
6.8167224015748031
20
-2.8582203937007873
11
6.8189128740157479
21
-2.8538394488188974
0
LINE
8
BLACK
6
CONTINUOUS
10
6.8189128740157479
20
-2.8538394488188974
11
6.8191615354330706
21
-2.8536237401574804
0
LINE
8
BLACK
6
CONTINUOUS
10
6.8191615354330706
20
-2.8536237401574804
11
6.8192875196850391
21
-2.8533196456692913
0
LINE
8
BLACK
6
CONTINUOUS
10
6.8192875196850391
20
-2.8533196456692913
11
6.8236684645669285
21
-2.8489387007874014
0
LINE
8
BLACK
6
CONTINUOUS
10
6.8236684645669285
20
-2.8489387007874014
11
6.8240985433070867
21
-2.8487605511811025
0
LINE
8
BLACK
6
CONTINUOUS
10
6.8240985433070867
20
-2.8487605511811025
11
6.8244502362204722
21
-2.8484555511811025
0
LINE
8
BLACK
6
CONTINUOUS
10
6.8244502362204722
20
-2.8484555511811025
11
6.831021692913386
21
-2.8462650787401573
0
LINE
8
BLACK
6
CONTINUOUS
10
6.831021692913386
20
-2.8462650787401573
11
6.8313499999999996
21
-2.8462883858267718
0
LINE
8
BLACK
6
CONTINUOUS
10
6.8313499999999996
20
-2.8462883858267718
11
6.8316541338582679
21
-2.846162440944882
0
LINE
8
BLACK
6
CONTINUOUS
10
6.8316541338582679
20
-2.846162440944882
11
6.8360350787401574
21
-2.846162440944882
0
LINE
8
BLACK
6
CONTINUOUS
10
6.8360350787401574
20
-2.846162440944882
11
6.8363391732283461
21
-2.8462883858267718
0
LINE
8
BLACK
6
CONTINUOUS
10
6.8802746456692914
20
-2.8463405511811022
11
6.8807390157480315
21
-2.8463735826771654
0
LINE
8
BLACK
6
CONTINUOUS
10
6.8807390157480315
20
-2.8463735826771654
11
6.8851199606299209
21
-2.8485640551181102
0
LINE
8
BLACK
6
CONTINUOUS
10
6.8851199606299209
20
-2.8485640551181102
11
6.8853356299212596
21
-2.8488127165354329
0
LINE
8
BLACK
6
CONTINUOUS
10
6.8853356299212596
20
-2.8488127165354329
11
6.885639763779527
21
-2.8489387007874014
0
LINE
8
BLACK
6
CONTINUOUS
10
6.885639763779527
20
-2.8489387007874014
11
6.8878302362204726
21
-2.8511291732283466
0
LINE
8
BLACK
6
CONTINUOUS
10
6.8878302362204726
20
-2.8511291732283466
11
6.8879561811023624
21
-2.851433307086614
0
LINE
8
BLACK
6
CONTINUOUS
10
6.8879561811023624
20
-2.851433307086614
11
6.8882048818897639
21
-2.8516489763779527
0
LINE
8
BLACK
6
CONTINUOUS
10
6.8882048818897639
20
-2.8516489763779527
11
6.8903953543307086
21
-2.8560298818897638
0
LINE
8
BLACK
6
CONTINUOUS
10
6.8903953543307086
20
-2.8560298818897638
11
6.8904283464566927
21
-2.8564942519685039
0
LINE
8
BLACK
6
CONTINUOUS
10
6.8904283464566927
20
-2.8564942519685039
11
6.8906064960629916
21
-2.8569243307086611
0
LINE
8
BLACK
6
CONTINUOUS
10
6.8906064960629916
20
-2.8569243307086611
11
6.8906064960629916
21
-2.861305275590551
0
LINE
8
BLACK
6
CONTINUOUS
10
6.8906064960629916
20
-2.861305275590551
11
6.8904805118110231
21
-2.8616093700787402
0
LINE
8
BLACK
6
CONTINUOUS
10
6.8904805118110231
20
-2.8616093700787402
11
6.8905038582677163
21
-2.8619377165354329
0
LINE
8
BLACK
6
CONTINUOUS
10
6.8905038582677163
20
-2.8619377165354329
11
6.8883133858267716
21
-2.8685091338582676
0
LINE
8
BLACK
6
CONTINUOUS
10
6.8883133858267716
20
-2.8685091338582676
11
6.8880083858267716
21
-2.8688607874015748
0
LINE
8
BLACK
6
CONTINUOUS
10
6.8880083858267716
20
-2.8688607874015748
11
6.8878302362204726
21
-2.8692909055118108
0
LINE
8
BLACK
6
CONTINUOUS
10
6.8878302362204726
20
-2.8692909055118108
11
6.8649587401574799
21
-2.8921624409448818
0
LINE
8
BLACK
6
CONTINUOUS
10
6.8649587401574799
20
-2.8921624409448818
11
6.8886064960629918
21
-2.8921624409448818
0
LINE
8
BLACK
6
CONTINUOUS
10
6.8886064960629918
20
-2.8921624409448818
11
6.8900207086614174
21
-2.8927482283464565
0
LINE
8
BLACK
6
CONTINUOUS
10
6.8900207086614174
20
-2.8927482283464565
11
6.8906064960629916
21
-2.8941624409448816
0
LINE
8
BLACK
6
CONTINUOUS
10
6.8906064960629916
20
-2.8941624409448816
11
6.8900207086614174
21
-2.8955766535433072
0
LINE
8
BLACK
6
CONTINUOUS
10
6.8900207086614174
20
-2.8955766535433072
11
6.8886064960629918
21
-2.8961624409448818
0
LINE
8
BLACK
6
CONTINUOUS
10
6.8886064960629918
20
-2.8961624409448818
11
6.8601303149606299
21
-2.8961624409448818
0
LINE
8
BLACK
6
CONTINUOUS
10
6.8601303149606299
20
-2.8961624409448818
11
6.8587161023622043
21
-2.8955766535433072
0
LINE
8
BLACK
6
CONTINUOUS
10
6.8587161023622043
20
-2.8955766535433072
11
6.8581303149606301
21
-2.8941624409448816
0
LINE
8
BLACK
6
CONTINUOUS
10
6.8581303149606301
20
-2.8941624409448816
11
6.8587161023622043
21
-2.8927482283464565
0
LINE
8
BLACK
6
CONTINUOUS
10
6.8587161023622043
20
-2.8927482283464565
11
6.8846679527559056
21
-2.8667962992125982
0
LINE
8
BLACK
6
CONTINUOUS
10
6.8846679527559056
20
-2.8667962992125982
11
6.886606496062992
21
-2.8609807086614172
0
LINE
8
BLACK
6
CONTINUOUS
10
6.886606496062992
20
-2.8609807086614172
11
6.886606496062992
21
-2.8573964566929133
0
LINE
8
BLACK
6
CONTINUOUS
10
6.886606496062992
20
-2.8573964566929133
11
6.8847723228346451
21
-2.8537281102362204
0
LINE
8
BLACK
6
CONTINUOUS
10
6.8847723228346451
20
-2.8537281102362204
11
6.8830408267716532
21
-2.8519966141732285
0
LINE
8
BLACK
6
CONTINUOUS
10
6.8830408267716532
20
-2.8519966141732285
11
6.8793724803149603
21
-2.850162440944882
0
LINE
8
BLACK
6
CONTINUOUS
10
6.8793724803149603
20
-2.850162440944882
11
6.8693643307086614
21
-2.850162440944882
0
LINE
8
BLACK
6
CONTINUOUS
10
6.8693643307086614
20
-2.850162440944882
11
6.8656959842519685
21
-2.8519966141732285
0
LINE
8
BLACK
6
CONTINUOUS
10
6.8656959842519685
20
-2.8519966141732285
11
6.8637350000000001
21
-2.8539575984251968
0
LINE
8
BLACK
6
CONTINUOUS
10
6.8637350000000001
20
-2.8539575984251968
11
6.8623207874015746
21
-2.8545433858267715
0
LINE
8
BLACK
6
CONTINUOUS
10
6.8623207874015746
20
-2.8545433858267715
11
6.860906574803149
21
-2.8539575984251968
0
LINE
8
BLACK
6
CONTINUOUS
10
6.860906574803149
20
-2.8539575984251968
11
6.8603207874015748
21
-2.8525433858267717
0
LINE
8
BLACK
6
CONTINUOUS
10
6.8603207874015748
20
-2.8525433858267717
11
6.860906574803149
21
-2.8511291732283466
0
LINE
8
BLACK
6
CONTINUOUS
10
6.860906574803149
20
-2.8511291732283466
11
6.8630970472440946
21
-2.8489387007874014
0
LINE
8
BLACK
6
CONTINUOUS
10
6.8630970472440946
20
-2.8489387007874014
11
6.8634011811023621
21
-2.8488127165354329
0
LINE
8
BLACK
6
CONTINUOUS
10
6.8634011811023621
20
-2.8488127165354329
11
6.8636168503937007
21
-2.8485640551181102
0
LINE
8
BLACK
6
CONTINUOUS
10
6.8636168503937007
20
-2.8485640551181102
11
6.8679977559055114
21
-2.8463735826771654
0
LINE
8
BLACK
6
CONTINUOUS
10
6.8679977559055114
20
-2.8463735826771654
11
6.8684621259842515
21
-2.8463405511811022
0
LINE
8
BLACK
6
CONTINUOUS
10
6.8684621259842515
20
-2.8463405511811022
11
6.8688922047244096
21
-2.846162440944882
0
LINE
8
BLACK
6
CONTINUOUS
10
6.8688922047244096
20
-2.846162440944882
11
6.879844606299212
21
-2.846162440944882
0
LINE
8
BLACK
6
CONTINUOUS
10
6.879844606299212
20
-2.846162440944882
11
6.8802746456692914
21
-2.8463405511811022
0
LINE
8
BLACK
6
CONTINUOUS
10
4.5746327952755905
20
-2.839512598425197
11
4.5753346456692912
21
-2.8414409448818896
0
LINE
8
BLACK
6
CONTINUOUS
10
4.5753346456692912
20
-2.8414409448818896
11
4.5753346456692912
21
-2.8654409448818896
0
LINE
8
BLACK
6
CONTINUOUS
10
4.5753346456692912
20
-2.8654409448818896
11
4.5751537401574804
21
-2.8664670078740158
0
LINE
8
BLACK
6
CONTINUOUS
10
4.5751537401574804
20
-2.8664670078740158
11
4.5738346456692911
21
-2.8680390157480313
0
LINE
8
BLACK
6
CONTINUOUS
10
4.5738346456692911
20
-2.8680390157480313
11
4.5718137007874011
21
-2.8683953543307088
0
LINE
8
BLACK
6
CONTINUOUS
10
4.5718137007874011
20
-2.8683953543307088
11
4.5700364960629924
21
-2.8673692913385826
0
LINE
8
BLACK
6
CONTINUOUS
10
4.5700364960629924
20
-2.8673692913385826
11
4.5693346456692909
21
-2.8654409448818896
0
LINE
8
BLACK
6
CONTINUOUS
10
4.5693346456692909
20
-2.8654409448818896
11
4.5693346456692909
21
-2.8414409448818896
0
LINE
8
BLACK
6
CONTINUOUS
10
4.5693346456692909
20
-2.8414409448818896
11
4.5695155511811025
21
-2.8404148818897639
0
LINE
8
BLACK
6
CONTINUOUS
10
4.5695155511811025
20
-2.8404148818897639
11
4.570834645669291
21
-2.8388428740157479
0
LINE
8
BLACK
6
CONTINUOUS
10
4.570834645669291
20
-2.8388428740157479
11
4.572855590551181
21
-2.8384865354330708
0
LINE
8
BLACK
6
CONTINUOUS
10
4.572855590551181
20
-2.8384865354330708
11
4.5746327952755905
21
-2.839512598425197
0
LINE
8
BLACK
6
CONTINUOUS
10
4.8346327952755903
20
-2.839512598425197
11
4.8353346456692909
21
-2.8414409448818896
0
LINE
8
BLACK
6
CONTINUOUS
10
4.8353346456692909
20
-2.8414409448818896
11
4.8353346456692909
21
-2.8654409448818896
0
LINE
8
BLACK
6
CONTINUOUS
10
4.8353346456692909
20
-2.8654409448818896
11
4.8351537401574802
21
-2.8664670078740158
0
LINE
8
BLACK
6
CONTINUOUS
10
4.8351537401574802
20
-2.8664670078740158
11
4.8338346456692909
21
-2.8680390157480313
0
LINE
8
BLACK
6
CONTINUOUS
10
4.8338346456692909
20
-2.8680390157480313
11
4.8318137007874018
21
-2.8683953543307088
0
LINE
8
BLACK
6
CONTINUOUS
10
4.8318137007874018
20
-2.8683953543307088
11
4.8300364960629922
21
-2.8673692913385826
0
LINE
8
BLACK
6
CONTINUOUS
10
4.8300364960629922
20
-2.8673692913385826
11
4.8293346456692916
21
-2.8654409448818896
0
LINE
8
BLACK
6
CONTINUOUS
10
4.8293346456692916
20
-2.8654409448818896
11
4.8293346456692916
21
-2.8414409448818896
0
LINE
8
BLACK
6
CONTINUOUS
10
4.8293346456692916
20
-2.8414409448818896
11
4.8295155511811023
21
-2.8404148818897639
0
LINE
8
BLACK
6
CONTINUOUS
10
4.8295155511811023
20
-2.8404148818897639
11
4.8308346456692917
21
-2.8388428740157479
0
LINE
8
BLACK
6
CONTINUOUS
10
4.8308346456692917
20
-2.8388428740157479
11
4.8328555905511807
21
-2.8384865354330708
0
LINE
8
BLACK
6
CONTINUOUS
10
4.8328555905511807
20
-2.8384865354330708
11
4.8346327952755903
21
-2.839512598425197
0
LINE
8
BLACK
6
CONTINUOUS
10
6.9805079133858268
20
-2.8255944488188978
11
6.9812401574803147
21
-2.8273622047244094
0
LINE
8
BLACK
6
CONTINUOUS
10
6.9812401574803147
20
-2.8273622047244094
11
6.9812401574803147
21
-2.8413385826771651
0
LINE
8
BLACK
6
CONTINUOUS
10
6.9812401574803147
20
-2.8413385826771651
11
6.9805079133858268
21
-2.8431063385826771
0
LINE
8
BLACK
6
CONTINUOUS
10
6.9805079133858268
20
-2.8431063385826771
11
6.9787401574803152
21
-2.8438385826771655
0
LINE
8
BLACK
6
CONTINUOUS
10
6.9787401574803152
20
-2.8438385826771655
11
6.8212598425196846
21
-2.8438385826771655
0
LINE
8
BLACK
6
CONTINUOUS
10
6.8212598425196846
20
-2.8438385826771655
11
6.8194920866141731
21
-2.8431063385826771
0
LINE
8
BLACK
6
CONTINUOUS
10
6.8194920866141731
20
-2.8431063385826771
11
6.8187598425196851
21
-2.8413385826771651
0
LINE
8
BLACK
6
CONTINUOUS
10
6.8187598425196851
20
-2.8413385826771651
11
6.8187598425196851
21
-2.8273622047244094
0
LINE
8
BLACK
6
CONTINUOUS
10
6.8187598425196851
20
-2.8273622047244094
11
6.8194920866141731
21
-2.8255944488188978
0
LINE
8
BLACK
6
CONTINUOUS
10
6.8194920866141731
20
-2.8255944488188978
11
6.8212598425196846
21
-2.8248622047244094
0
LINE
8
BLACK
6
CONTINUOUS
10
6.8212598425196846
20
-2.8248622047244094
11
6.8230275984251971
21
-2.8255944488188978
0
LINE
8
BLACK
6
CONTINUOUS
10
6.8230275984251971
20
-2.8255944488188978
11
6.823759842519685
21
-2.8273622047244094
0
LINE
8
BLACK
6
CONTINUOUS
10
6.823759842519685
20
-2.8273622047244094
11
6.823759842519685
21
-2.8388385826771652
0
LINE
8
BLACK
6
CONTINUOUS
10
6.823759842519685
20
-2.8388385826771652
11
6.9762401574803148
21
-2.8388385826771652
0
LINE
8
BLACK
6
CONTINUOUS
10
6.9762401574803148
20
-2.8388385826771652
11
6.9762401574803148
21
-2.8273622047244094
0
LINE
8
BLACK
6
CONTINUOUS
10
6.9762401574803148
20
-2.8273622047244094
11
6.9769724015748027
21
-2.8255944488188978
0
LINE
8
BLACK
6
CONTINUOUS
10
6.9769724015748027
20
-2.8255944488188978
11
6.9787401574803152
21
-2.8248622047244094
0
LINE
8
BLACK
6
CONTINUOUS
10
6.9787401574803152
20
-2.8248622047244094
11
6.9805079133858268
21
-2.8255944488188978
0
LINE
8
BLACK
6
CONTINUOUS
10
3.837296062992126
20
-2.7430595275590552
11
3.8373604330708662
21
-2.7430577952755906
0
LINE
8
BLACK
6
CONTINUOUS
10
3.8373604330708662
20
-2.7430577952755906
11
3.8429847244094488
21
-2.7449325590551181
0
LINE
8
BLACK
6
CONTINUOUS
10
3.8429847244094488
20
-2.7449325590551181
11
3.8438864960629919
21
-2.7454208267716536
0
LINE
8
BLACK
6
CONTINUOUS
10
3.8438864960629919
20
-2.7454208267716536
11
3.8449437795275592
21
-2.7471418110236221
0
LINE
8
BLACK
6
CONTINUOUS
10
3.8449437795275592
20
-2.7471418110236221
11
3.8446475196850391
21
-2.7491397637795276
0
LINE
8
BLACK
6
CONTINUOUS
10
3.8446475196850391
20
-2.7491397637795276
11
3.8431362598425194
21
-2.750479842519685
0
LINE
8
BLACK
6
CONTINUOUS
10
3.8431362598425194
20
-2.750479842519685
11
3.8411172047244095
21
-2.7505349999999997
0
LINE
8
BLACK
6
CONTINUOUS
10
3.8411172047244095
20
-2.7505349999999997
11
3.8359475590551182
21
-2.7488117716535432
0
LINE
8
BLACK
6
CONTINUOUS
10
3.8359475590551182
20
-2.7488117716535432
11
3.8277499212598425
21
-2.7488117716535432
0
LINE
8
BLACK
6
CONTINUOUS
10
3.8277499212598425
20
-2.7488117716535432
11
3.8250524409448818
21
-2.7501605118110235
0
LINE
8
BLACK
6
CONTINUOUS
10
3.8250524409448818
20
-2.7501605118110235
11
3.82385531496063
21
-2.7513576377952753
0
LINE
8
BLACK
6
CONTINUOUS
10
3.82385531496063
20
-2.7513576377952753
11
3.8225065748031497
21
-2.754055118110236
0
LINE
8
BLACK
6
CONTINUOUS
10
3.8225065748031497
20
-2.754055118110236
11
3.8225065748031497
21
-2.7564105511811023
0
LINE
8
BLACK
6
CONTINUOUS
10
3.8225065748031497
20
-2.7564105511811023
11
3.82385531496063
21
-2.759108031496063
0
LINE
8
BLACK
6
CONTINUOUS
10
3.82385531496063
20
-2.759108031496063
11
3.8250524409448818
21
-2.7603051574803148
0
LINE
8
BLACK
6
CONTINUOUS
10
3.8250524409448818
20
-2.7603051574803148
11
3.8280834251968505
21
-2.7618206299212598
0
LINE
8
BLACK
6
CONTINUOUS
10
3.8280834251968505
20
-2.7618206299212598
11
3.8352680708661415
21
-2.7636168110236219
0
LINE
8
BLACK
6
CONTINUOUS
10
3.8352680708661415
20
-2.7636168110236219
11
3.835733503937008
21
-2.7638243700787402
0
LINE
8
BLACK
6
CONTINUOUS
10
3.835733503937008
20
-2.7638243700787402
11
3.8358724409448817
21
-2.7638403937007872
0
LINE
8
BLACK
6
CONTINUOUS
10
3.8358724409448817
20
-2.7638403937007872
11
3.8396219685039368
21
-2.7657151574803147
0
LINE
8
BLACK
6
CONTINUOUS
10
3.8396219685039368
20
-2.7657151574803147
11
3.8403310236220474
21
-2.7662410629921261
0
LINE
8
BLACK
6
CONTINUOUS
10
3.8403310236220474
20
-2.7662410629921261
11
3.8403893700787401
21
-2.7662682677165353
0
LINE
8
BLACK
6
CONTINUOUS
10
3.8403893700787401
20
-2.7662682677165353
11
3.8422641338582677
21
-2.7681430314960629
0
LINE
8
BLACK
6
CONTINUOUS
10
3.8422641338582677
20
-2.7681430314960629
11
3.8427703937007873
21
-2.7688661023622045
0
LINE
8
BLACK
6
CONTINUOUS
10
3.8427703937007873
20
-2.7688661023622045
11
3.8428172440944879
21
-2.7689104330708663
0
LINE
8
BLACK
6
CONTINUOUS
10
3.8428172440944879
20
-2.7689104330708663
11
3.8446920078740159
21
-2.7726599606299214
0
LINE
8
BLACK
6
CONTINUOUS
10
3.8446920078740159
20
-2.7726599606299214
11
3.8449843700787403
21
-2.7736428740157479
0
LINE
8
BLACK
6
CONTINUOUS
10
3.8449843700787403
20
-2.7736428740157479
11
3.8449433464566929
21
-2.7738145669291336
0
LINE
8
BLACK
6
CONTINUOUS
10
3.8449433464566929
20
-2.7738145669291336
11
3.8450037401574804
21
-2.7739804724409449
0
LINE
8
BLACK
6
CONTINUOUS
10
3.8450037401574804
20
-2.7739804724409449
11
3.8450037401574804
21
-2.77773
0
LINE
8
BLACK
6
CONTINUOUS
10
3.8450037401574804
20
-2.77773
11
3.8448256692913385
21
-2.7787399212598425
0
LINE
8
BLACK
6
CONTINUOUS
10
3.8448256692913385
20
-2.7787399212598425
11
3.8447121653543306
21
-2.7788751574803148
0
LINE
8
BLACK
6
CONTINUOUS
10
3.8447121653543306
20
-2.7788751574803148
11
3.8446920078740159
21
-2.7790505118110236
0
LINE
8
BLACK
6
CONTINUOUS
10
3.8446920078740159
20
-2.7790505118110236
11
3.8428172440944879
21
-2.7828000393700787
0
LINE
8
BLACK
6
CONTINUOUS
10
3.8428172440944879
20
-2.7828000393700787
11
3.8422912992125982
21
-2.7835090944881888
0
LINE
8
BLACK
6
CONTINUOUS
10
3.8422912992125982
20
-2.7835090944881888
11
3.8422641338582677
21
-2.7835674409448816
0
LINE
8
BLACK
6
CONTINUOUS
10
3.8422641338582677
20
-2.7835674409448816
11
3.8403894094488189
21
-2.7854422047244092
0
LINE
8
BLACK
6
CONTINUOUS
10
3.8403894094488189
20
-2.7854422047244092
11
3.839666220472441
21
-2.7859485826771655
0
LINE
8
BLACK
6
CONTINUOUS
10
3.839666220472441
20
-2.7859485826771655
11
3.8396219685039368
21
-2.7859953543307086
0
LINE
8
BLACK
6
CONTINUOUS
10
3.8396219685039368
20
-2.7859953543307086
11
3.8358724409448817
21
-2.7878701181102361
0
LINE
8
BLACK
6
CONTINUOUS
10
3.8358724409448817
20
-2.7878701181102361
11
3.8348894881889763
21
-2.7881624803149605
0
LINE
8
BLACK
6
CONTINUOUS
10
3.8348894881889763
20
-2.7881624803149605
11
3.8347177952755906
21
-2.7881214566929131
0
LINE
8
BLACK
6
CONTINUOUS
10
3.8347177952755906
20
-2.7881214566929131
11
3.8345519291338581
21
-2.7881818503937006
0
LINE
8
BLACK
6
CONTINUOUS
10
3.8345519291338581
20
-2.7881818503937006
11
3.8251781102362203
21
-2.7881818503937006
0
LINE
8
BLACK
6
CONTINUOUS
10
3.8251781102362203
20
-2.7881818503937006
11
3.8243087007874017
21
-2.7880285433070866
0
LINE
8
BLACK
6
CONTINUOUS
10
3.8243087007874017
20
-2.7880285433070866
11
3.8242443307086615
21
-2.78803031496063
0
LINE
8
BLACK
6
CONTINUOUS
10
3.8242443307086615
20
-2.78803031496063
11
3.8186200787401572
21
-2.7861555511811025
0
LINE
8
BLACK
6
CONTINUOUS
10
3.8186200787401572
20
-2.7861555511811025
11
3.8177183070866141
21
-2.7856672440944883
0
LINE
8
BLACK
6
CONTINUOUS
10
3.8177183070866141
20
-2.7856672440944883
11
3.8166610236220473
21
-2.7839462992125985
0
LINE
8
BLACK
6
CONTINUOUS
10
3.8166610236220473
20
-2.7839462992125985
11
3.8169572834645669
21
-2.7819483070866142
0
LINE
8
BLACK
6
CONTINUOUS
10
3.8169572834645669
20
-2.7819483070866142
11
3.8184685039370079
21
-2.7806082677165356
0
LINE
8
BLACK
6
CONTINUOUS
10
3.8184685039370079
20
-2.7806082677165356
11
3.8204875590551182
21
-2.7805531102362204
0
LINE
8
BLACK
6
CONTINUOUS
10
3.8204875590551182
20
-2.7805531102362204
11
3.8256572440944883
21
-2.782276338582677
0
LINE
8
BLACK
6
CONTINUOUS
10
3.8256572440944883
20
-2.782276338582677
11
3.8338548818897635
21
-2.782276338582677
0
LINE
8
BLACK
6
CONTINUOUS
10
3.8338548818897635
20
-2.782276338582677
11
3.8365523228346454
21
-2.7809275984251967
0
LINE
8
BLACK
6
CONTINUOUS
10
3.8365523228346454
20
-2.7809275984251967
11
3.8377494488188977
21
-2.7797304330708661
0
LINE
8
BLACK
6
CONTINUOUS
10
3.8377494488188977
20
-2.7797304330708661
11
3.8390982283464568
21
-2.7770329527559054
0
LINE
8
BLACK
6
CONTINUOUS
10
3.8390982283464568
20
-2.7770329527559054
11
3.8390982283464568
21
-2.7746775196850395
0
LINE
8
BLACK
6
CONTINUOUS
10
3.8390982283464568
20
-2.7746775196850395
11
3.8377494881889764
21
-2.7719800393700789
0
LINE
8
BLACK
6
CONTINUOUS
10
3.8377494881889764
20
-2.7719800393700789
11
3.8365523622047242
21
-2.7707829133858266
0
LINE
8
BLACK
6
CONTINUOUS
10
3.8365523622047242
20
-2.7707829133858266
11
3.8335213779527559
21
-2.7692674015748029
0
LINE
8
BLACK
6
CONTINUOUS
10
3.8335213779527559
20
-2.7692674015748029
11
3.8263367322834645
21
-2.7674712598425195
0
LINE
8
BLACK
6
CONTINUOUS
10
3.8263367322834645
20
-2.7674712598425195
11
3.8258712598425197
21
-2.7672636614173229
0
LINE
8
BLACK
6
CONTINUOUS
10
3.8258712598425197
20
-2.7672636614173229
11
3.8257323622047243
21
-2.7672476771653542
0
LINE
8
BLACK
6
CONTINUOUS
10
3.8257323622047243
20
-2.7672476771653542
11
3.8219828346456692
21
-2.7653729133858267
0
LINE
8
BLACK
6
CONTINUOUS
10
3.8219828346456692
20
-2.7653729133858267
11
3.8212737401574803
21
-2.7648470078740157
0
LINE
8
BLACK
6
CONTINUOUS
10
3.8212737401574803
20
-2.7648470078740157
11
3.8212154330708659
21
-2.7648198031496061
0
LINE
8
BLACK
6
CONTINUOUS
10
3.8212154330708659
20
-2.7648198031496061
11
3.8193406692913383
21
-2.7629450393700785
0
LINE
8
BLACK
6
CONTINUOUS
10
3.8193406692913383
20
-2.7629450393700785
11
3.8188343700787399
21
-2.7622219291338581
0
LINE
8
BLACK
6
CONTINUOUS
10
3.8188343700787399
20
-2.7622219291338581
11
3.8187875590551181
21
-2.7621776377952756
0
LINE
8
BLACK
6
CONTINUOUS
10
3.8187875590551181
20
-2.7621776377952756
11
3.8169127952755906
21
-2.7584281102362205
0
LINE
8
BLACK
6
CONTINUOUS
10
3.8169127952755906
20
-2.7584281102362205
11
3.8166204330708662
21
-2.7574451574803147
0
LINE
8
BLACK
6
CONTINUOUS
10
3.8166204330708662
20
-2.7574451574803147
11
3.8166614173228344
21
-2.757273464566929
0
LINE
8
BLACK
6
CONTINUOUS
10
3.8166614173228344
20
-2.757273464566929
11
3.8166010629921261
21
-2.7571075984251969
0
LINE
8
BLACK
6
CONTINUOUS
10
3.8166010629921261
20
-2.7571075984251969
11
3.8166010629921261
21
-2.7533580708661418
0
LINE
8
BLACK
6
CONTINUOUS
10
3.8166010629921261
20
-2.7533580708661418
11
3.8167791338582675
21
-2.7523481496062994
0
LINE
8
BLACK
6
CONTINUOUS
10
3.8167791338582675
20
-2.7523481496062994
11
3.8168925984251967
21
-2.7522128740157479
0
LINE
8
BLACK
6
CONTINUOUS
10
3.8168925984251967
20
-2.7522128740157479
11
3.8169127952755906
21
-2.7520375590551183
0
LINE
8
BLACK
6
CONTINUOUS
10
3.8169127952755906
20
-2.7520375590551183
11
3.8187875590551181
21
-2.7482880314960627
0
LINE
8
BLACK
6
CONTINUOUS
10
3.8187875590551181
20
-2.7482880314960627
11
3.8193134645669291
21
-2.7475789370078738
0
LINE
8
BLACK
6
CONTINUOUS
10
3.8193134645669291
20
-2.7475789370078738
11
3.8193406692913383
21
-2.7475206299212598
0
LINE
8
BLACK
6
CONTINUOUS
10
3.8193406692913383
20
-2.7475206299212598
11
3.8212154330708659
21
-2.7456458661417322
0
LINE
8
BLACK
6
CONTINUOUS
10
3.8212154330708659
20
-2.7456458661417322
11
3.821938503937008
21
-2.7451395669291339
0
LINE
8
BLACK
6
CONTINUOUS
10
3.821938503937008
20
-2.7451395669291339
11
3.8219828346456692
21
-2.7450927559055116
0
LINE
8
BLACK
6
CONTINUOUS
10
3.8219828346456692
20
-2.7450927559055116
11
3.8257323622047243
21
-2.7432179921259841
0
LINE
8
BLACK
6
CONTINUOUS
10
3.8257323622047243
20
-2.7432179921259841
11
3.8267152755905509
21
-2.7429256299212597
0
LINE
8
BLACK
6
CONTINUOUS
10
3.8267152755905509
20
-2.7429256299212597
11
3.8268869685039371
21
-2.7429666141732283
0
LINE
8
BLACK
6
CONTINUOUS
10
3.8268869685039371
20
-2.7429666141732283
11
3.8270528740157479
21
-2.7429062598425196
0
LINE
8
BLACK
6
CONTINUOUS
10
3.8270528740157479
20
-2.7429062598425196
11
3.8364266929133857
21
-2.7429062598425196
0
LINE
8
BLACK
6
CONTINUOUS
10
3.8364266929133857
20
-2.7429062598425196
11
3.837296062992126
21
-2.7430595275590552
0
LINE
8
BLACK
6
CONTINUOUS
10
3.9136375984251965
20
-2.7429805511811023
11
3.913804842519685
21
-2.7429511023622046
0
LINE
8
BLACK
6
CONTINUOUS
10
3.913804842519685
20
-2.7429511023622046
11
3.9145468897637796
21
-2.7433795275590551
0
LINE
8
BLACK
6
CONTINUOUS
10
3.9145468897637796
20
-2.7433795275590551
11
3.9153317322834646
21
-2.7437238976377953
0
LINE
8
BLACK
6
CONTINUOUS
10
3.9153317322834646
20
-2.7437238976377953
11
3.915406968503937
21
-2.7438761417322834
0
LINE
8
BLACK
6
CONTINUOUS
10
3.915406968503937
20
-2.7438761417322834
11
3.9155540157480315
21
-2.7439610236220471
0
LINE
8
BLACK
6
CONTINUOUS
10
3.9155540157480315
20
-2.7439610236220471
11
3.915847086614173
21
-2.7447662598425198
0
LINE
8
BLACK
6
CONTINUOUS
10
3.915847086614173
20
-2.7447662598425198
11
3.9162269291338583
21
-2.7455344881889765
0
LINE
8
BLACK
6
CONTINUOUS
10
3.9162269291338583
20
-2.7455344881889765
11
3.9161867322834647
21
-2.745699409448819
0
LINE
8
BLACK
6
CONTINUOUS
10
3.9161867322834647
20
-2.745699409448819
11
3.916244842519685
21
-2.7458590157480316
0
LINE
8
BLACK
6
CONTINUOUS
10
3.916244842519685
20
-2.7458590157480316
11
3.916244842519685
21
-2.782276338582677
0
LINE
8
BLACK
6
CONTINUOUS
10
3.916244842519685
20
-2.782276338582677
11
3.9245406692913387
21
-2.782276338582677
0
LINE
8
BLACK
6
CONTINUOUS
10
3.9245406692913387
20
-2.782276338582677
11
3.9255505905511812
21
-2.7824544094488188
0
LINE
8
BLACK
6
CONTINUOUS
10
3.9255505905511812
20
-2.7824544094488188
11
3.9270978346456693
21
-2.783752716535433
0
LINE
8
BLACK
6
CONTINUOUS
10
3.9270978346456693
20
-2.783752716535433
11
3.9274485826771652
21
-2.7857418503937006
0
LINE
8
BLACK
6
CONTINUOUS
10
3.9274485826771652
20
-2.7857418503937006
11
3.9264386614173228
21
-2.7874910236220471
0
LINE
8
BLACK
6
CONTINUOUS
10
3.9264386614173228
20
-2.7874910236220471
11
3.9245406692913387
21
-2.7881818503937006
0
LINE
8
BLACK
6
CONTINUOUS
10
3.9245406692913387
20
-2.7881818503937006
11
3.9020435039370076
21
-2.7881818503937006
0
LINE
8
BLACK
6
CONTINUOUS
10
3.9020435039370076
20
-2.7881818503937006
11
3.9010335826771652
21
-2.7880037795275592
0
LINE
8
BLACK
6
CONTINUOUS
10
3.9010335826771652
20
-2.7880037795275592
11
3.899486338582677
21
-2.786705472440945
0
LINE
8
BLACK
6
CONTINUOUS
10
3.899486338582677
20
-2.786705472440945
11
3.8991355905511811
21
-2.784716338582677
0
LINE
8
BLACK
6
CONTINUOUS
10
3.8991355905511811
20
-2.784716338582677
11
3.9001455118110235
21
-2.7829671653543309
0
LINE
8
BLACK
6
CONTINUOUS
10
3.9001455118110235
20
-2.7829671653543309
11
3.9020435039370076
21
-2.782276338582677
0
LINE
8
BLACK
6
CONTINUOUS
10
3.9020435039370076
20
-2.782276338582677
11
3.9103393307086614
21
-2.782276338582677
0
LINE
8
BLACK
6
CONTINUOUS
10
3.9103393307086614
20
-2.782276338582677
11
3.9103393307086614
21
-2.7548623622047241
0
LINE
8
BLACK
6
CONTINUOUS
10
3.9103393307086614
20
-2.7548623622047241
11
3.9078809448818896
21
-2.7573207480314958
0
LINE
8
BLACK
6
CONTINUOUS
10
3.9078809448818896
20
-2.7573207480314958
11
3.9071578346456692
21
-2.7578270078740155
0
LINE
8
BLACK
6
CONTINUOUS
10
3.9071578346456692
20
-2.7578270078740155
11
3.9071135433070867
21
-2.7578738582677165
0
LINE
8
BLACK
6
CONTINUOUS
10
3.9071135433070867
20
-2.7578738582677165
11
3.9033640157480316
21
-2.759748622047244
0
LINE
8
BLACK
6
CONTINUOUS
10
3.9033640157480316
20
-2.759748622047244
11
3.9023810629921258
21
-2.7600409842519684
0
LINE
8
BLACK
6
CONTINUOUS
10
3.9023810629921258
20
-2.7600409842519684
11
3.9004165748031494
21
-2.7595716929133856
0
LINE
8
BLACK
6
CONTINUOUS
10
3.9004165748031494
20
-2.7595716929133856
11
3.8992132677165352
21
-2.7579494488188976
0
LINE
8
BLACK
6
CONTINUOUS
10
3.8992132677165352
20
-2.7579494488188976
11
3.8993343307086614
21
-2.7559332677165354
0
LINE
8
BLACK
6
CONTINUOUS
10
3.8993343307086614
20
-2.7559332677165354
11
3.9007229921259841
21
-2.7544665748031494
0
LINE
8
BLACK
6
CONTINUOUS
10
3.9007229921259841
20
-2.7544665748031494
11
3.9040439370078741
21
-2.7528061023622046
0
LINE
8
BLACK
6
CONTINUOUS
10
3.9040439370078741
20
-2.7528061023622046
11
3.9072478346456694
21
-2.7496022047244093
0
LINE
8
BLACK
6
CONTINUOUS
10
3.9072478346456694
20
-2.7496022047244093
11
3.9108352362204721
21
-2.7442211023622045
0
LINE
8
BLACK
6
CONTINUOUS
10
3.9108352362204721
20
-2.7442211023622045
11
3.9115436220472439
21
-2.7434795669291336
0
LINE
8
BLACK
6
CONTINUOUS
10
3.9115436220472439
20
-2.7434795669291336
11
3.9117065748031496
21
-2.7434318503937005
0
LINE
8
BLACK
6
CONTINUOUS
10
3.9117065748031496
20
-2.7434318503937005
11
3.9118157086614174
21
-2.7433018503937006
0
LINE
8
BLACK
6
CONTINUOUS
10
3.9118157086614174
20
-2.7433018503937006
11
3.9126594881889765
21
-2.743153031496063
0
LINE
8
BLACK
6
CONTINUOUS
10
3.9126594881889765
20
-2.743153031496063
11
3.913482125984252
21
-2.7429123622047245
0
LINE
8
BLACK
6
CONTINUOUS
10
3.913482125984252
20
-2.7429123622047245
11
3.9136375984251965
21
-2.7429805511811023
0
LINE
8
BLACK
6
CONTINUOUS
10
3.856935157480315
20
-2.7434887401574803
11
3.8580468110236219
21
-2.7451750787401572
0
LINE
8
BLACK
6
CONTINUOUS
10
3.8580468110236219
20
-2.7451750787401572
11
3.8647102362204722
21
-2.7731615354330708
0
LINE
8
BLACK
6
CONTINUOUS
10
3.8647102362204722
20
-2.7731615354330708
11
3.8691941732283466
21
-2.756346771653543
0
LINE
8
BLACK
6
CONTINUOUS
10
3.8691941732283466
20
-2.756346771653543
11
3.8696264566929135
21
-2.7554168503937007
0
LINE
8
BLACK
6
CONTINUOUS
10
3.8696264566929135
20
-2.7554168503937007
11
3.869847440944882
21
-2.7552616929133857
0
LINE
8
BLACK
6
CONTINUOUS
10
3.869847440944882
20
-2.7552616929133857
11
3.8699618503937008
21
-2.7550171653543307
0
LINE
8
BLACK
6
CONTINUOUS
10
3.8699618503937008
20
-2.7550171653543307
11
3.8706544094488189
21
-2.7546951968503937
0
LINE
8
BLACK
6
CONTINUOUS
10
3.8706544094488189
20
-2.7546951968503937
11
3.8712796062992125
21
-2.7542563385826773
0
LINE
8
BLACK
6
CONTINUOUS
10
3.8712796062992125
20
-2.7542563385826773
11
3.8715485826771654
21
-2.754279527559055
0
LINE
8
BLACK
6
CONTINUOUS
10
3.8715485826771654
20
-2.754279527559055
11
3.8717934251968504
21
-2.7541657480314958
0
LINE
8
BLACK
6
CONTINUOUS
10
3.8717934251968504
20
-2.7541657480314958
11
3.8725307874015749
21
-2.7543642519685041
0
LINE
8
BLACK
6
CONTINUOUS
10
3.8725307874015749
20
-2.7543642519685041
11
3.8732919685039371
21
-2.7544299606299214
0
LINE
8
BLACK
6
CONTINUOUS
10
3.8732919685039371
20
-2.7544299606299214
11
3.8734831496062991
21
-2.7546206692913384
0
LINE
8
BLACK
6
CONTINUOUS
10
3.8734831496062991
20
-2.7546206692913384
11
3.8737437401574804
21
-2.7546908661417322
0
LINE
8
BLACK
6
CONTINUOUS
10
3.8737437401574804
20
-2.7546908661417322
11
3.8741809842519683
21
-2.7553168897637796
0
LINE
8
BLACK
6
CONTINUOUS
10
3.8741809842519683
20
-2.7553168897637796
11
3.8747218503937009
21
-2.7558564960629921
0
LINE
8
BLACK
6
CONTINUOUS
10
3.8747218503937009
20
-2.7558564960629921
11
3.8747456692913387
21
-2.7561253937007875
0
LINE
8
BLACK
6
CONTINUOUS
10
3.8747456692913387
20
-2.7561253937007875
11
3.8749003149606298
21
-2.756346771653543
0
LINE
8
BLACK
6
CONTINUOUS
10
3.8749003149606298
20
-2.756346771653543
11
3.879384212598425
21
-2.7731615354330708
0
LINE
8
BLACK
6
CONTINUOUS
10
3.879384212598425
20
-2.7731615354330708
11
3.8860477165354328
21
-2.745175118110236
0
LINE
8
BLACK
6
CONTINUOUS
10
3.8860477165354328
20
-2.745175118110236
11
3.8864548425196848
21
-2.7442338976377951
0
LINE
8
BLACK
6
CONTINUOUS
10
3.8864548425196848
20
-2.7442338976377951
11
3.8880762204724411
21
-2.7430294488188975
0
LINE
8
BLACK
6
CONTINUOUS
10
3.8880762204724411
20
-2.7430294488188975
11
3.8900925196850391
21
-2.7431489370078741
0
LINE
8
BLACK
6
CONTINUOUS
10
3.8900925196850391
20
-2.7431489370078741
11
3.8915601968503934
21
-2.7445365354330709
0
LINE
8
BLACK
6
CONTINUOUS
10
3.8915601968503934
20
-2.7445365354330709
11
3.8917925984251966
21
-2.7465429527559055
0
LINE
8
BLACK
6
CONTINUOUS
10
3.8917925984251966
20
-2.7465429527559055
11
3.8824187401574801
21
-2.785913031496063
0
LINE
8
BLACK
6
CONTINUOUS
10
3.8824187401574801
20
-2.785913031496063
11
3.8820116141732282
21
-2.786854212598425
0
LINE
8
BLACK
6
CONTINUOUS
10
3.8820116141732282
20
-2.786854212598425
11
3.8817629921259842
21
-2.7870388582677164
0
LINE
8
BLACK
6
CONTINUOUS
10
3.8817629921259842
20
-2.7870388582677164
11
3.8816317322834646
21
-2.7873195275590552
0
LINE
8
BLACK
6
CONTINUOUS
10
3.8816317322834646
20
-2.7873195275590552
11
3.8809730314960631
21
-2.7876257086614173
0
LINE
8
BLACK
6
CONTINUOUS
10
3.8809730314960631
20
-2.7876257086614173
11
3.8803902362204723
21
-2.7880586614173226
0
LINE
8
BLACK
6
CONTINUOUS
10
3.8803902362204723
20
-2.7880586614173226
11
3.8800810629921259
21
-2.7880403149606297
0
LINE
8
BLACK
6
CONTINUOUS
10
3.8800810629921259
20
-2.7880403149606297
11
3.8798001181102362
21
-2.7881709448818897
0
LINE
8
BLACK
6
CONTINUOUS
10
3.8798001181102362
20
-2.7881709448818897
11
3.8790988582677164
21
-2.7879821259842519
0
LINE
8
BLACK
6
CONTINUOUS
10
3.8790988582677164
20
-2.7879821259842519
11
3.8783739370078738
21
-2.7879391732283465
0
LINE
8
BLACK
6
CONTINUOUS
10
3.8783739370078738
20
-2.7879391732283465
11
3.8781487795275589
21
-2.7877262992125984
0
LINE
8
BLACK
6
CONTINUOUS
10
3.8781487795275589
20
-2.7877262992125984
11
3.8778498031496063
21
-2.7876458267716533
0
LINE
8
BLACK
6
CONTINUOUS
10
3.8778498031496063
20
-2.7876458267716533
11
3.8774340157480314
21
-2.7870505118110236
0
LINE
8
BLACK
6
CONTINUOUS
10
3.8774340157480314
20
-2.7870505118110236
11
3.8769062598425195
21
-2.7865515748031497
0
LINE
8
BLACK
6
CONTINUOUS
10
3.8769062598425195
20
-2.7865515748031497
11
3.8768705905511811
21
-2.786243897637795
0
LINE
8
BLACK
6
CONTINUOUS
10
3.8768705905511811
20
-2.786243897637795
11
3.8766932283464568
21
-2.7859899212598425
0
LINE
8
BLACK
6
CONTINUOUS
10
3.8766932283464568
20
-2.7859899212598425
11
3.8720472047244092
21
-2.7685674409448819
0
LINE
8
BLACK
6
CONTINUOUS
10
3.8720472047244092
20
-2.7685674409448819
11
3.8674012598425196
21
-2.7859899212598425
0
LINE
8
BLACK
6
CONTINUOUS
10
3.8674012598425196
20
-2.7859899212598425
11
3.8669689763779527
21
-2.7869198425196848
0
LINE
8
BLACK
6
CONTINUOUS
10
3.8669689763779527
20
-2.7869198425196848
11
3.8667153937007872
21
-2.7870977952755904
0
LINE
8
BLACK
6
CONTINUOUS
10
3.8667153937007872
20
-2.7870977952755904
11
3.8665766929133856
21
-2.7873747637795274
0
LINE
8
BLACK
6
CONTINUOUS
10
3.8665766929133856
20
-2.7873747637795274
11
3.865910157480315
21
-2.7876630708661416
0
LINE
8
BLACK
6
CONTINUOUS
10
3.865910157480315
20
-2.7876630708661416
11
3.8653158267716536
21
-2.7880803149606299
0
LINE
8
BLACK
6
CONTINUOUS
10
3.8653158267716536
20
-2.7880803149606299
11
3.865007244094488
21
-2.7880536614173228
0
LINE
8
BLACK
6
CONTINUOUS
10
3.865007244094488
20
-2.7880536614173228
11
3.8647229133858265
21
-2.7881766929133858
0
LINE
8
BLACK
6
CONTINUOUS
10
3.8647229133858265
20
-2.7881766929133858
11
3.864026968503937
21
-2.7879690944881887
0
LINE
8
BLACK
6
CONTINUOUS
10
3.864026968503937
20
-2.7879690944881887
11
3.8633035039370078
21
-2.7879066929133858
0
LINE
8
BLACK
6
CONTINUOUS
10
3.8633035039370078
20
-2.7879066929133858
11
3.8630841732283465
21
-2.7876878740157478
0
LINE
8
BLACK
6
CONTINUOUS
10
3.8630841732283465
20
-2.7876878740157478
11
3.8627874015748032
21
-2.7875993700787403
0
LINE
8
BLACK
6
CONTINUOUS
10
3.8627874015748032
20
-2.7875993700787403
11
3.8623877559055115
21
-2.7869931496062992
0
LINE
8
BLACK
6
CONTINUOUS
10
3.8623877559055115
20
-2.7869931496062992
11
3.8618735826771653
21
-2.7864801968503938
0
LINE
8
BLACK
6
CONTINUOUS
10
3.8618735826771653
20
-2.7864801968503938
11
3.8618461811023623
21
-2.7861716141732282
0
LINE
8
BLACK
6
CONTINUOUS
10
3.8618461811023623
20
-2.7861716141732282
11
3.8616757480314958
21
-2.785913031496063
0
LINE
8
BLACK
6
CONTINUOUS
10
3.8616757480314958
20
-2.785913031496063
11
3.852301929133858
21
-2.7465429527559055
0
LINE
8
BLACK
6
CONTINUOUS
10
3.852301929133858
20
-2.7465429527559055
11
3.852241220472441
21
-2.7455192125984254
0
LINE
8
BLACK
6
CONTINUOUS
10
3.852241220472441
20
-2.7455192125984254
11
3.8531458661417322
21
-2.7437133464566927
0
LINE
8
BLACK
6
CONTINUOUS
10
3.8531458661417322
20
-2.7437133464566927
11
3.8549996456692912
21
-2.7429114173228344
0
LINE
8
BLACK
6
CONTINUOUS
10
3.8549996456692912
20
-2.7429114173228344
11
3.856935157480315
21
-2.7434887401574803
0
LINE
8
BLACK
6
CONTINUOUS
10
4.5746327952755905
20
-2.7445125984251968
11
4.5753346456692912
21
-2.7464409448818898
0
LINE
8
BLACK
6
CONTINUOUS
10
4.5753346456692912
20
-2.7464409448818898
11
4.5753346456692912
21
-2.7654409448818895
0
LINE
8
BLACK
6
CONTINUOUS
10
4.5753346456692912
20
-2.7654409448818895
11
4.5751537401574804
21
-2.7664670078740157
0
LINE
8
BLACK
6
CONTINUOUS
10
4.5751537401574804
20
-2.7664670078740157
11
4.5738346456692911
21
-2.7680390157480312
0
LINE
8
BLACK
6
CONTINUOUS
10
4.5738346456692911
20
-2.7680390157480312
11
4.5718137007874011
21
-2.7683953543307087
0
LINE
8
BLACK
6
CONTINUOUS
10
4.5718137007874011
20
-2.7683953543307087
11
4.5700364960629924
21
-2.7673692913385826
0
LINE
8
BLACK
6
CONTINUOUS
10
4.5700364960629924
20
-2.7673692913385826
11
4.5693346456692909
21
-2.7654409448818895
0
LINE
8
BLACK
6
CONTINUOUS
10
4.5693346456692909
20
-2.7654409448818895
11
4.5693346456692909
21
-2.7464409448818898
0
LINE
8
BLACK
6
CONTINUOUS
10
4.5693346456692909
20
-2.7464409448818898
11
4.5695155511811025
21
-2.7454148818897637
0
LINE
8
BLACK
6
CONTINUOUS
10
4.5695155511811025
20
-2.7454148818897637
11
4.570834645669291
21
-2.7438428740157481
0
LINE
8
BLACK
6
CONTINUOUS
10
4.570834645669291
20
-2.7438428740157481
11
4.572855590551181
21
-2.7434865354330706
0
LINE
8
BLACK
6
CONTINUOUS
10
4.572855590551181
20
-2.7434865354330706
11
4.5746327952755905
21
-2.7445125984251968
0
LINE
8
BLACK
6
CONTINUOUS
10
4.8346327952755903
20
-2.7395125984251969
11
4.8353346456692909
21
-2.7414409448818895
0
LINE
8
BLACK
6
CONTINUOUS
10
4.8353346456692909
20
-2.7414409448818895
11
4.8353346456692909
21
-2.7654409448818895
0
LINE
8
BLACK
6
CONTINUOUS
10
4.8353346456692909
20
-2.7654409448818895
11
4.8351537401574802
21
-2.7664670078740157
0
LINE
8
BLACK
6
CONTINUOUS
10
4.8351537401574802
20
-2.7664670078740157
11
4.8338346456692909
21
-2.7680390157480312
0
LINE
8
BLACK
6
CONTINUOUS
10
4.8338346456692909
20
-2.7680390157480312
11
4.8318137007874018
21
-2.7683953543307087
0
LINE
8
BLACK
6
CONTINUOUS
10
4.8318137007874018
20
-2.7683953543307087
11
4.8300364960629922
21
-2.7673692913385826
0
LINE
8
BLACK
6
CONTINUOUS
10
4.8300364960629922
20
-2.7673692913385826
11
4.8293346456692916
21
-2.7654409448818895
0
LINE
8
BLACK
6
CONTINUOUS
10
4.8293346456692916
20
-2.7654409448818895
11
4.8293346456692916
21
-2.7414409448818895
0
LINE
8
BLACK
6
CONTINUOUS
10
4.8293346456692916
20
-2.7414409448818895
11
4.8295155511811023
21
-2.7404148818897638
0
LINE
8
BLACK
6
CONTINUOUS
10
4.8295155511811023
20
-2.7404148818897638
11
4.8308346456692917
21
-2.7388428740157478
0
LINE
8
BLACK
6
CONTINUOUS
10
4.8308346456692917
20
-2.7388428740157478
11
4.8328555905511807
21
-2.7384865354330707
0
LINE
8
BLACK
6
CONTINUOUS
10
4.8328555905511807
20
-2.7384865354330707
11
4.8346327952755903
21
-2.7395125984251969
0
LINE
8
BLACK
6
CONTINUOUS
10
6.9787401574803152
20
-2.7404133858267716
11
6.9805079133858268
21
-2.74114562992126
0
LINE
8
BLACK
6
CONTINUOUS
10
6.9805079133858268
20
-2.74114562992126
11
6.9812401574803147
21
-2.7429133858267716
0
LINE
8
BLACK
6
CONTINUOUS
10
6.9812401574803147
20
-2.7429133858267716
11
6.9812401574803147
21
-2.7568897637795273
0
LINE
8
BLACK
6
CONTINUOUS
10
6.9812401574803147
20
-2.7568897637795273
11
6.9805079133858268
21
-2.7586575196850394
0
LINE
8
BLACK
6
CONTINUOUS
10
6.9805079133858268
20
-2.7586575196850394
11
6.9787401574803152
21
-2.7593897637795277
0
LINE
8
BLACK
6
CONTINUOUS
10
6.9787401574803152
20
-2.7593897637795277
11
6.9769724015748027
21
-2.7586575196850394
0
LINE
8
BLACK
6
CONTINUOUS
10
6.9769724015748027
20
-2.7586575196850394
11
6.9762401574803148
21
-2.7568897637795273
0
LINE
8
BLACK
6
CONTINUOUS
10
6.9762401574803148
20
-2.7568897637795273
11
6.9762401574803148
21
-2.7454133858267715
0
LINE
8
BLACK
6
CONTINUOUS
10
6.9762401574803148
20
-2.7454133858267715
11
6.823759842519685
21
-2.7454133858267715
0
LINE
8
BLACK
6
CONTINUOUS
10
6.823759842519685
20
-2.7454133858267715
11
6.823759842519685
21
-2.7568897637795273
0
LINE
8
BLACK
6
CONTINUOUS
10
6.823759842519685
20
-2.7568897637795273
11
6.8230275984251971
21
-2.7586575196850394
0
LINE
8
BLACK
6
CONTINUOUS
10
6.8230275984251971
20
-2.7586575196850394
11
6.8212598425196846
21
-2.7593897637795277
0
LINE
8
BLACK
6
CONTINUOUS
10
6.8212598425196846
20
-2.7593897637795277
11
6.8194920866141731
21
-2.7586575196850394
0
LINE
8
BLACK
6
CONTINUOUS
10
6.8194920866141731
20
-2.7586575196850394
11
6.8187598425196851
21
-2.7568897637795273
0
LINE
8
BLACK
6
CONTINUOUS
10
6.8187598425196851
20
-2.7568897637795273
11
6.8187598425196851
21
-2.7429133858267716
0
LINE
8
BLACK
6
CONTINUOUS
10
6.8187598425196851
20
-2.7429133858267716
11
6.8194920866141731
21
-2.74114562992126
0
LINE
8
BLACK
6
CONTINUOUS
10
6.8194920866141731
20
-2.74114562992126
11
6.8212598425196846
21
-2.7404133858267716
0
LINE
8
BLACK
6
CONTINUOUS
10
6.8212598425196846
20
-2.7404133858267716
11
6.9787401574803152
21
-2.7404133858267716
0
LINE
8
BLACK
6
CONTINUOUS
10
3.1795273228346455
20
-2.7047243700787402
11
3.1796625590551182
21
-2.7048378346456694
0
LINE
8
BLACK
6
CONTINUOUS
10
3.1796625590551182
20
-2.7048378346456694
11
3.1798379133858266
21
-2.7048580314960629
0
LINE
8
BLACK
6
CONTINUOUS
10
3.1798379133858266
20
-2.7048580314960629
11
3.1835874409448817
21
-2.7067327952755904
0
LINE
8
BLACK
6
CONTINUOUS
10
3.1835874409448817
20
-2.7067327952755904
11
3.1842964173228347
21
-2.7072586220472439
0
LINE
8
BLACK
6
CONTINUOUS
10
3.1842964173228347
20
-2.7072586220472439
11
3.1843548031496063
21
-2.7072858661417323
0
LINE
8
BLACK
6
CONTINUOUS
10
3.1843548031496063
20
-2.7072858661417323
11
3.1862296062992126
21
-2.7091606299212598
0
LINE
8
BLACK
6
CONTINUOUS
10
3.1862296062992126
20
-2.7091606299212598
11
3.1867359842519685
21
-2.709883779527559
0
LINE
8
BLACK
6
CONTINUOUS
10
3.1867359842519685
20
-2.709883779527559
11
3.1867827559055115
21
-2.7099280708661415
0
LINE
8
BLACK
6
CONTINUOUS
10
3.1867827559055115
20
-2.7099280708661415
11
3.1886575196850391
21
-2.7136775984251966
0
LINE
8
BLACK
6
CONTINUOUS
10
3.1886575196850391
20
-2.7136775984251966
11
3.1889498818897639
21
-2.7146605118110236
0
LINE
8
BLACK
6
CONTINUOUS
10
3.1889498818897639
20
-2.7146605118110236
11
3.1889088582677165
21
-2.7148322047244093
0
LINE
8
BLACK
6
CONTINUOUS
10
3.1889088582677165
20
-2.7148322047244093
11
3.188969251968504
21
-2.7149981102362206
0
LINE
8
BLACK
6
CONTINUOUS
10
3.188969251968504
20
-2.7149981102362206
11
3.188969251968504
21
-2.7224971653543308
0
LINE
8
BLACK
6
CONTINUOUS
10
3.188969251968504
20
-2.7224971653543308
11
3.1887911811023621
21
-2.7235070866141733
0
LINE
8
BLACK
6
CONTINUOUS
10
3.1887911811023621
20
-2.7235070866141733
11
3.1886776771653542
21
-2.7236423228346456
0
LINE
8
BLACK
6
CONTINUOUS
10
3.1886776771653542
20
-2.7236423228346456
11
3.1886575196850391
21
-2.7238176771653544
0
LINE
8
BLACK
6
CONTINUOUS
10
3.1886575196850391
20
-2.7238176771653544
11
3.1867827559055115
21
-2.7275672047244095
0
LINE
8
BLACK
6
CONTINUOUS
10
3.1867827559055115
20
-2.7275672047244095
11
3.186256771653543
21
-2.7282762992125984
0
LINE
8
BLACK
6
CONTINUOUS
10
3.186256771653543
20
-2.7282762992125984
11
3.1862296062992126
21
-2.7283346456692912
0
LINE
8
BLACK
6
CONTINUOUS
10
3.1862296062992126
20
-2.7283346456692912
11
3.1843548031496063
21
-2.7302094094488187
0
LINE
8
BLACK
6
CONTINUOUS
10
3.1843548031496063
20
-2.7302094094488187
11
3.1836317322834646
21
-2.7307156692913384
0
LINE
8
BLACK
6
CONTINUOUS
10
3.1836317322834646
20
-2.7307156692913384
11
3.1835874409448817
21
-2.7307624803149606
0
LINE
8
BLACK
6
CONTINUOUS
10
3.1835874409448817
20
-2.7307624803149606
11
3.1798379133858266
21
-2.7326372440944882
0
LINE
8
BLACK
6
CONTINUOUS
10
3.1798379133858266
20
-2.7326372440944882
11
3.1788549606299212
21
-2.7329296062992126
0
LINE
8
BLACK
6
CONTINUOUS
10
3.1788549606299212
20
-2.7329296062992126
11
3.1786832677165355
21
-2.7328885826771652
0
LINE
8
BLACK
6
CONTINUOUS
10
3.1786832677165355
20
-2.7328885826771652
11
3.178517401574803
21
-2.7329489763779526
0
LINE
8
BLACK
6
CONTINUOUS
10
3.178517401574803
20
-2.7329489763779526
11
3.1466464173228346
21
-2.7329489763779526
0
LINE
8
BLACK
6
CONTINUOUS
10
3.1466464173228346
20
-2.7329489763779526
11
3.1456364960629921
21
-2.7327709055118108
0
LINE
8
BLACK
6
CONTINUOUS
10
3.1456364960629921
20
-2.7327709055118108
11
3.144089251968504
21
-2.7314725984251966
0
LINE
8
BLACK
6
CONTINUOUS
10
3.144089251968504
20
-2.7314725984251966
11
3.1437385039370076
21
-2.729483464566929
0
LINE
8
BLACK
6
CONTINUOUS
10
3.1437385039370076
20
-2.729483464566929
11
3.1447484251968505
21
-2.7277342913385825
0
LINE
8
BLACK
6
CONTINUOUS
10
3.1447484251968505
20
-2.7277342913385825
11
3.1466464173228346
21
-2.727043464566929
0
LINE
8
BLACK
6
CONTINUOUS
10
3.1466464173228346
20
-2.727043464566929
11
3.1778203543307084
21
-2.727043464566929
0
LINE
8
BLACK
6
CONTINUOUS
10
3.1778203543307084
20
-2.727043464566929
11
3.1805178346456691
21
-2.72569468503937
0
LINE
8
BLACK
6
CONTINUOUS
10
3.1805178346456691
20
-2.72569468503937
11
3.1817150000000001
21
-2.7244975590551181
0
LINE
8
BLACK
6
CONTINUOUS
10
3.1817150000000001
20
-2.7244975590551181
11
3.1830637401574804
21
-2.7218001181102363
0
LINE
8
BLACK
6
CONTINUOUS
10
3.1830637401574804
20
-2.7218001181102363
11
3.1830637401574804
21
-2.7156951574803148
0
LINE
8
BLACK
6
CONTINUOUS
10
3.1830637401574804
20
-2.7156951574803148
11
3.1817150000000001
21
-2.7129976771653541
0
LINE
8
BLACK
6
CONTINUOUS
10
3.1817150000000001
20
-2.7129976771653541
11
3.1805178346456691
21
-2.7118005511811023
0
LINE
8
BLACK
6
CONTINUOUS
10
3.1805178346456691
20
-2.7118005511811023
11
3.1778203543307084
21
-2.710451811023622
0
LINE
8
BLACK
6
CONTINUOUS
10
3.1778203543307084
20
-2.710451811023622
11
3.1466464173228346
21
-2.710451811023622
0
LINE
8
BLACK
6
CONTINUOUS
10
3.1466464173228346
20
-2.710451811023622
11
3.1456364960629921
21
-2.7102737401574801
0
LINE
8
BLACK
6
CONTINUOUS
10
3.1456364960629921
20
-2.7102737401574801
11
3.144089251968504
21
-2.708975433070866
0
LINE
8
BLACK
6
CONTINUOUS
10
3.144089251968504
20
-2.708975433070866
11
3.1437385039370076
21
-2.7069862992125984
0
LINE
8
BLACK
6
CONTINUOUS
10
3.1437385039370076
20
-2.7069862992125984
11
3.1447484251968505
21
-2.7052371259842518
0
LINE
8
BLACK
6
CONTINUOUS
10
3.1447484251968505
20
-2.7052371259842518
11
3.1466464173228346
21
-2.7045462992125984
0
LINE
8
BLACK
6
CONTINUOUS
10
3.1466464173228346
20
-2.7045462992125984
11
3.178517401574803
21
-2.7045462992125984
0
LINE
8
BLACK
6
CONTINUOUS
10
3.178517401574803
20
-2.7045462992125984
11
3.1795273228346455
21
-2.7047243700787402
0
LINE
8
BLACK
6
CONTINUOUS
10
6.0189009842519683
20
-2.6991961417322834
11
6.0387979921259838
21
-2.711857874015748
0
LINE
8
BLACK
6
CONTINUOUS
10
6.0387979921259838
20
-2.711857874015748
11
6.0566857874015749
21
-2.711857874015748
0
LINE
8
BLACK
6
CONTINUOUS
10
6.0566857874015749
20
-2.711857874015748
11
6.0576957086614174
21
-2.7120359448818898
0
LINE
8
BLACK
6
CONTINUOUS
10
6.0576957086614174
20
-2.7120359448818898
11
6.0592429527559055
21
-2.713334251968504
0
LINE
8
BLACK
6
CONTINUOUS
10
6.0592429527559055
20
-2.713334251968504
11
6.059593700787401
21
-2.7153233858267716
0
LINE
8
BLACK
6
CONTINUOUS
10
6.059593700787401
20
-2.7153233858267716
11
6.0585837795275586
21
-2.7170725590551181
0
LINE
8
BLACK
6
CONTINUOUS
10
6.0585837795275586
20
-2.7170725590551181
11
6.0566857874015749
21
-2.7177633858267716
0
LINE
8
BLACK
6
CONTINUOUS
10
6.0566857874015749
20
-2.7177633858267716
11
6.0387979921259838
21
-2.7177633858267716
0
LINE
8
BLACK
6
CONTINUOUS
10
6.0387979921259838
20
-2.7177633858267716
11
6.0189009842519683
21
-2.7304251181102361
0
LINE
8
BLACK
6
CONTINUOUS
10
6.0189009842519683
20
-2.7304251181102361
11
6.017953346456693
21
-2.7308170866141732
0
LINE
8
BLACK
6
CONTINUOUS
10
6.017953346456693
20
-2.7308170866141732
11
6.0159509448818893
21
-2.7305524015748031
0
LINE
8
BLACK
6
CONTINUOUS
10
6.0159509448818893
20
-2.7305524015748031
11
6.014587125984252
21
-2.7290625590551181
0
LINE
8
BLACK
6
CONTINUOUS
10
6.014587125984252
20
-2.7290625590551181
11
6.0145000787401575
21
-2.7270446456692912
0
LINE
8
BLACK
6
CONTINUOUS
10
6.0145000787401575
20
-2.7270446456692912
11
6.0157304330708659
21
-2.7254428346456692
0
LINE
8
BLACK
6
CONTINUOUS
10
6.0157304330708659
20
-2.7254428346456692
11
6.0324381889763776
21
-2.71481062992126
0
LINE
8
BLACK
6
CONTINUOUS
10
6.0324381889763776
20
-2.71481062992126
11
6.0157304330708659
21
-2.7041784251968504
0
LINE
8
BLACK
6
CONTINUOUS
10
6.0157304330708659
20
-2.7041784251968504
11
6.0149740157480309
21
-2.7034859842519685
0
LINE
8
BLACK
6
CONTINUOUS
10
6.0149740157480309
20
-2.7034859842519685
11
6.0143657086614173
21
-2.701559960629921
0
LINE
8
BLACK
6
CONTINUOUS
10
6.0143657086614173
20
-2.701559960629921
11
6.0151377165354329
21
-2.699693503937008
0
LINE
8
BLACK
6
CONTINUOUS
10
6.0151377165354329
20
-2.699693503937008
11
6.0169288188976378
21
-2.69876
0
LINE
8
BLACK
6
CONTINUOUS
10
6.0169288188976378
20
-2.69876
11
6.0189009842519683
21
-2.6991961417322834
0
LINE
8
BLACK
6
CONTINUOUS
10
3.9623002362204724
20
-2.7262824409448818
11
3.9629921259842518
21
-2.7279527559055117
0
LINE
8
BLACK
6
CONTINUOUS
10
3.9629921259842518
20
-2.7279527559055117
11
3.9623002362204724
21
-2.7296230708661415
0
LINE
8
BLACK
6
CONTINUOUS
10
3.9623002362204724
20
-2.7296230708661415
11
3.9606299212598426
21
-2.7303149606299213
0
LINE
8
BLACK
6
CONTINUOUS
10
3.9606299212598426
20
-2.7303149606299213
11
3.7834645669291338
21
-2.7303149606299213
0
LINE
8
BLACK
6
CONTINUOUS
10
3.7834645669291338
20
-2.7303149606299213
11
3.7817942519685039
21
-2.7296230708661415
0
LINE
8
BLACK
6
CONTINUOUS
10
3.7817942519685039
20
-2.7296230708661415
11
3.7811023622047242
21
-2.7279527559055117
0
LINE
8
BLACK
6
CONTINUOUS
10
3.7811023622047242
20
-2.7279527559055117
11
3.7817942519685039
21
-2.7262824409448818
0
LINE
8
BLACK
6
CONTINUOUS
10
3.7817942519685039
20
-2.7262824409448818
11
3.7834645669291338
21
-2.7255905511811025
0
LINE
8
BLACK
6
CONTINUOUS
10
3.7834645669291338
20
-2.7255905511811025
11
3.9606299212598426
21
-2.7255905511811025
0
LINE
8
BLACK
6
CONTINUOUS
10
3.9606299212598426
20
-2.7255905511811025
11
3.9623002362204724
21
-2.7262824409448818
0
LINE
8
BLACK
6
CONTINUOUS
10
6.9805079133858268
20
-2.6334684645669291
11
6.9812401574803147
21
-2.6352362204724411
0
LINE
8
BLACK
6
CONTINUOUS
10
6.9812401574803147
20
-2.6352362204724411
11
6.9812401574803147
21
-2.6492125984251969
0
LINE
8
BLACK
6
CONTINUOUS
10
6.9812401574803147
20
-2.6492125984251969
11
6.9805079133858268
21
-2.6509803543307084
0
LINE
8
BLACK
6
CONTINUOUS
10
6.9805079133858268
20
-2.6509803543307084
11
6.9787401574803152
21
-2.6517125984251968
0
LINE
8
BLACK
6
CONTINUOUS
10
6.9787401574803152
20
-2.6517125984251968
11
6.8774636220472436
21
-2.6517125984251968
0
LINE
8
BLACK
6
CONTINUOUS
10
6.8774636220472436
20
-2.6517125984251968
11
6.8774636220472436
21
-2.6921624409448817
0
LINE
8
BLACK
6
CONTINUOUS
10
6.8774636220472436
20
-2.6921624409448817
11
6.8886064960629918
21
-2.6921624409448817
0
LINE
8
BLACK
6
CONTINUOUS
10
6.8886064960629918
20
-2.6921624409448817
11
6.8900207086614174
21
-2.6927482283464568
0
LINE
8
BLACK
6
CONTINUOUS
10
6.8900207086614174
20
-2.6927482283464568
11
6.8906064960629916
21
-2.6941624409448819
0
LINE
8
BLACK
6
CONTINUOUS
10
6.8906064960629916
20
-2.6941624409448819
11
6.8900207086614174
21
-2.695576653543307
0
LINE
8
BLACK
6
CONTINUOUS
10
6.8900207086614174
20
-2.695576653543307
11
6.8886064960629918
21
-2.6961624409448817
0
LINE
8
BLACK
6
CONTINUOUS
10
6.8886064960629918
20
-2.6961624409448817
11
6.8754636220472438
21
-2.6961624409448817
0
LINE
8
BLACK
6
CONTINUOUS
10
6.8754636220472438
20
-2.6961624409448817
11
6.8623207874015746
21
-2.6961624409448817
0
LINE
8
BLACK
6
CONTINUOUS
10
6.8623207874015746
20
-2.6961624409448817
11
6.860906574803149
21
-2.695576653543307
0
LINE
8
BLACK
6
CONTINUOUS
10
6.860906574803149
20
-2.695576653543307
11
6.8603207874015748
21
-2.6941624409448819
0
LINE
8
BLACK
6
CONTINUOUS
10
6.8603207874015748
20
-2.6941624409448819
11
6.860906574803149
21
-2.6927482283464568
0
LINE
8
BLACK
6
CONTINUOUS
10
6.860906574803149
20
-2.6927482283464568
11
6.8623207874015746
21
-2.6921624409448817
0
LINE
8
BLACK
6
CONTINUOUS
10
6.8623207874015746
20
-2.6921624409448817
11
6.873463622047244
21
-2.6921624409448817
0
LINE
8
BLACK
6
CONTINUOUS
10
6.873463622047244
20
-2.6921624409448817
11
6.873463622047244
21
-2.6547679527559054
0
LINE
8
BLACK
6
CONTINUOUS
10
6.873463622047244
20
-2.6547679527559054
11
6.8727467716535431
21
-2.6558432677165356
0
LINE
8
BLACK
6
CONTINUOUS
10
6.8727467716535431
20
-2.6558432677165356
11
6.8725756692913382
21
-2.6559578346456694
0
LINE
8
BLACK
6
CONTINUOUS
10
6.8725756692913382
20
-2.6559578346456694
11
6.872496889763779
21
-2.6561480708661418
0
LINE
8
BLACK
6
CONTINUOUS
10
6.872496889763779
20
-2.6561480708661418
11
6.8681159448818896
21
-2.6605290157480312
0
LINE
8
BLACK
6
CONTINUOUS
10
6.8681159448818896
20
-2.6605290157480312
11
6.8678118110236221
21
-2.660654960629921
0
LINE
8
BLACK
6
CONTINUOUS
10
6.8678118110236221
20
-2.660654960629921
11
6.8675961417322835
21
-2.6609036614173229
0
LINE
8
BLACK
6
CONTINUOUS
10
6.8675961417322835
20
-2.6609036614173229
11
6.8632151968503932
21
-2.6630941338582677
0
LINE
8
BLACK
6
CONTINUOUS
10
6.8632151968503932
20
-2.6630941338582677
11
6.8616883464566927
21
-2.6632026377952753
0
LINE
8
BLACK
6
CONTINUOUS
10
6.8616883464566927
20
-2.6632026377952753
11
6.8605319291338578
21
-2.6621996850393699
0
LINE
8
BLACK
6
CONTINUOUS
10
6.8605319291338578
20
-2.6621996850393699
11
6.8604234251968501
21
-2.6606728346456694
0
LINE
8
BLACK
6
CONTINUOUS
10
6.8604234251968501
20
-2.6606728346456694
11
6.861426377952756
21
-2.6595164173228345
0
LINE
8
BLACK
6
CONTINUOUS
10
6.861426377952756
20
-2.6595164173228345
11
6.8655170078740158
21
-2.6574710629921259
0
LINE
8
BLACK
6
CONTINUOUS
10
6.8655170078740158
20
-2.6574710629921259
11
6.86952842519685
21
-2.6534596850393699
0
LINE
8
BLACK
6
CONTINUOUS
10
6.86952842519685
20
-2.6534596850393699
11
6.8706931496062991
21
-2.6517125984251968
0
LINE
8
BLACK
6
CONTINUOUS
10
6.8706931496062991
20
-2.6517125984251968
11
6.8464528346456692
21
-2.6517125984251968
0
LINE
8
BLACK
6
CONTINUOUS
10
6.8464528346456692
20
-2.6517125984251968
11
6.8467969685039369
21
-2.6525433858267715
0
LINE
8
BLACK
6
CONTINUOUS
10
6.8467969685039369
20
-2.6525433858267715
11
6.8462111811023618
21
-2.6539575984251966
0
LINE
8
BLACK
6
CONTINUOUS
10
6.8462111811023618
20
-2.6539575984251966
11
6.8447969685039372
21
-2.6545433858267717
0
LINE
8
BLACK
6
CONTINUOUS
10
6.8447969685039372
20
-2.6545433858267717
11
6.8433827559055116
21
-2.6539575984251966
0
LINE
8
BLACK
6
CONTINUOUS
10
6.8433827559055116
20
-2.6539575984251966
11
6.8415261023622049
21
-2.6521009448818895
0
LINE
8
BLACK
6
CONTINUOUS
10
6.8415261023622049
20
-2.6521009448818895
11
6.8403610629921259
21
-2.6517125984251968
0
LINE
8
BLACK
6
CONTINUOUS
10
6.8403610629921259
20
-2.6517125984251968
11
6.8273281102362207
21
-2.6517125984251968
0
LINE
8
BLACK
6
CONTINUOUS
10
6.8273281102362207
20
-2.6517125984251968
11
6.8261630314960628
21
-2.6521009448818895
0
LINE
8
BLACK
6
CONTINUOUS
10
6.8261630314960628
20
-2.6521009448818895
11
6.8223454330708657
21
-2.6559185433070867
0
LINE
8
BLACK
6
CONTINUOUS
10
6.8223454330708657
20
-2.6559185433070867
11
6.8203982677165351
21
-2.6598128740157478
0
LINE
8
BLACK
6
CONTINUOUS
10
6.8203982677165351
20
-2.6598128740157478
11
6.818320787401575
21
-2.6681228740157481
0
LINE
8
BLACK
6
CONTINUOUS
10
6.818320787401575
20
-2.6681228740157481
11
6.818320787401575
21
-2.6742019685039371
0
LINE
8
BLACK
6
CONTINUOUS
10
6.818320787401575
20
-2.6742019685039371
11
6.8203982677165351
21
-2.6825119291338582
0
LINE
8
BLACK
6
CONTINUOUS
10
6.8203982677165351
20
-2.6825119291338582
11
6.8223454330708657
21
-2.6864062992125985
0
LINE
8
BLACK
6
CONTINUOUS
10
6.8223454330708657
20
-2.6864062992125985
11
6.8261630314960628
21
-2.6902238976377952
0
LINE
8
BLACK
6
CONTINUOUS
10
6.8261630314960628
20
-2.6902238976377952
11
6.8319787007874018
21
-2.6921624409448817
0
LINE
8
BLACK
6
CONTINUOUS
10
6.8319787007874018
20
-2.6921624409448817
11
6.8357105511811023
21
-2.6921624409448817
0
LINE
8
BLACK
6
CONTINUOUS
10
6.8357105511811023
20
-2.6921624409448817
11
6.8415261023622049
21
-2.6902238976377952
0
LINE
8
BLACK
6
CONTINUOUS
10
6.8415261023622049
20
-2.6902238976377952
11
6.8433827559055116
21
-2.6883672440944881
0
LINE
8
BLACK
6
CONTINUOUS
10
6.8433827559055116
20
-2.6883672440944881
11
6.8447969685039372
21
-2.6877814566929135
0
LINE
8
BLACK
6
CONTINUOUS
10
6.8447969685039372
20
-2.6877814566929135
11
6.8462111811023618
21
-2.6883672047244094
0
LINE
8
BLACK
6
CONTINUOUS
10
6.8462111811023618
20
-2.6883672047244094
11
6.8467969685039369
21
-2.6897814173228345
0
LINE
8
BLACK
6
CONTINUOUS
10
6.8467969685039369
20
-2.6897814173228345
11
6.8462112204724406
21
-2.6911956692913384
0
LINE
8
BLACK
6
CONTINUOUS
10
6.8462112204724406
20
-2.6911956692913384
11
6.8440207086614171
21
-2.6933861811023623
0
LINE
8
BLACK
6
CONTINUOUS
10
6.8440207086614171
20
-2.6933861811023623
11
6.8435906299212599
21
-2.6935642913385824
0
LINE
8
BLACK
6
CONTINUOUS
10
6.8435906299212599
20
-2.6935642913385824
11
6.8432389763779522
21
-2.6938693307086612
0
LINE
8
BLACK
6
CONTINUOUS
10
6.8432389763779522
20
-2.6938693307086612
11
6.8366675196850393
21
-2.6960598031496064
0
LINE
8
BLACK
6
CONTINUOUS
10
6.8366675196850393
20
-2.6960598031496064
11
6.8363391732283461
21
-2.6960364566929131
0
LINE
8
BLACK
6
CONTINUOUS
10
6.8363391732283461
20
-2.6960364566929131
11
6.8360350787401574
21
-2.6961624409448817
0
LINE
8
BLACK
6
CONTINUOUS
10
6.8360350787401574
20
-2.6961624409448817
11
6.8316541338582679
21
-2.6961624409448817
0
LINE
8
BLACK
6
CONTINUOUS
10
6.8316541338582679
20
-2.6961624409448817
11
6.8313499999999996
21
-2.6960364566929131
0
LINE
8
BLACK
6
CONTINUOUS
10
6.8313499999999996
20
-2.6960364566929131
11
6.831021692913386
21
-2.6960598031496064
0
LINE
8
BLACK
6
CONTINUOUS
10
6.831021692913386
20
-2.6960598031496064
11
6.8244502362204722
21
-2.6938693307086612
0
LINE
8
BLACK
6
CONTINUOUS
10
6.8244502362204722
20
-2.6938693307086612
11
6.8240985433070867
21
-2.6935642913385824
0
LINE
8
BLACK
6
CONTINUOUS
10
6.8240985433070867
20
-2.6935642913385824
11
6.8236684645669285
21
-2.6933861811023623
0
LINE
8
BLACK
6
CONTINUOUS
10
6.8236684645669285
20
-2.6933861811023623
11
6.8192875196850391
21
-2.6890051968503936
0
LINE
8
BLACK
6
CONTINUOUS
10
6.8192875196850391
20
-2.6890051968503936
11
6.8191615354330706
21
-2.6887010629921257
0
LINE
8
BLACK
6
CONTINUOUS
10
6.8191615354330706
20
-2.6887010629921257
11
6.8189128740157479
21
-2.6884853937007875
0
LINE
8
BLACK
6
CONTINUOUS
10
6.8189128740157479
20
-2.6884853937007875
11
6.8167224015748031
21
-2.6841044488188976
0
LINE
8
BLACK
6
CONTINUOUS
10
6.8167224015748031
20
-2.6841044488188976
11
6.8167062598425199
21
-2.6838776771653543
0
LINE
8
BLACK
6
CONTINUOUS
10
6.8167062598425199
20
-2.6838776771653543
11
6.8165709842519684
21
-2.6836950787401572
0
LINE
8
BLACK
6
CONTINUOUS
10
6.8165709842519684
20
-2.6836950787401572
11
6.8143805118110237
21
-2.6749332283464566
0
LINE
8
BLACK
6
CONTINUOUS
10
6.8143805118110237
20
-2.6749332283464566
11
6.81441779527559
21
-2.674682401574803
0
LINE
8
BLACK
6
CONTINUOUS
10
6.81441779527559
20
-2.674682401574803
11
6.8143207874015745
21
-2.6744481496062993
0
LINE
8
BLACK
6
CONTINUOUS
10
6.8143207874015745
20
-2.6744481496062993
11
6.8143207874015745
21
-2.6678766929133859
0
LINE
8
BLACK
6
CONTINUOUS
10
6.8143207874015745
20
-2.6678766929133859
11
6.81441779527559
21
-2.667642401574803
0
LINE
8
BLACK
6
CONTINUOUS
10
6.81441779527559
20
-2.667642401574803
11
6.8143805118110237
21
-2.6673916141732281
0
LINE
8
BLACK
6
CONTINUOUS
10
6.8143805118110237
20
-2.6673916141732281
11
6.8165709842519684
21
-2.6586297637795275
0
LINE
8
BLACK
6
CONTINUOUS
10
6.8165709842519684
20
-2.6586297637795275
11
6.8167062598425199
21
-2.6584471259842517
0
LINE
8
BLACK
6
CONTINUOUS
10
6.8167062598425199
20
-2.6584471259842517
11
6.8167224015748031
21
-2.6582203937007876
0
LINE
8
BLACK
6
CONTINUOUS
10
6.8167224015748031
20
-2.6582203937007876
11
6.8189128740157479
21
-2.6538394488188977
0
LINE
8
BLACK
6
CONTINUOUS
10
6.8189128740157479
20
-2.6538394488188977
11
6.8191615354330706
21
-2.6536237401574803
0
LINE
8
BLACK
6
CONTINUOUS
10
6.8191615354330706
20
-2.6536237401574803
11
6.8192875196850391
21
-2.6533196456692911
0
LINE
8
BLACK
6
CONTINUOUS
10
6.8192875196850391
20
-2.6533196456692911
11
6.8210015354330711
21
-2.6516055905511808
0
LINE
8
BLACK
6
CONTINUOUS
10
6.8210015354330711
20
-2.6516055905511808
11
6.8194920866141731
21
-2.6509803543307084
0
LINE
8
BLACK
6
CONTINUOUS
10
6.8194920866141731
20
-2.6509803543307084
11
6.8187598425196851
21
-2.6492125984251969
0
LINE
8
BLACK
6
CONTINUOUS
10
6.8187598425196851
20
-2.6492125984251969
11
6.8187598425196851
21
-2.6352362204724411
0
LINE
8
BLACK
6
CONTINUOUS
10
6.8187598425196851
20
-2.6352362204724411
11
6.8194920866141731
21
-2.6334684645669291
0
LINE
8
BLACK
6
CONTINUOUS
10
6.8194920866141731
20
-2.6334684645669291
11
6.8212598425196846
21
-2.6327362204724407
0
LINE
8
BLACK
6
CONTINUOUS
10
6.8212598425196846
20
-2.6327362204724407
11
6.8230275984251971
21
-2.6334684645669291
0
LINE
8
BLACK
6
CONTINUOUS
10
6.8230275984251971
20
-2.6334684645669291
11
6.823759842519685
21
-2.6352362204724411
0
LINE
8
BLACK
6
CONTINUOUS
10
6.823759842519685
20
-2.6352362204724411
11
6.823759842519685
21
-2.6467125984251969
0
LINE
8
BLACK
6
CONTINUOUS
10
6.823759842519685
20
-2.6467125984251969
11
6.8296791338582672
21
-2.6467125984251969
0
LINE
8
BLACK
6
CONTINUOUS
10
6.8296791338582672
20
-2.6467125984251969
11
6.831021692913386
21
-2.6462650787401576
0
LINE
8
BLACK
6
CONTINUOUS
10
6.831021692913386
20
-2.6462650787401576
11
6.8313499999999996
21
-2.6462883858267716
0
LINE
8
BLACK
6
CONTINUOUS
10
6.8313499999999996
20
-2.6462883858267716
11
6.8316541338582679
21
-2.6461624409448818
0
LINE
8
BLACK
6
CONTINUOUS
10
6.8316541338582679
20
-2.6461624409448818
11
6.8360350787401574
21
-2.6461624409448818
0
LINE
8
BLACK
6
CONTINUOUS
10
6.8360350787401574
20
-2.6461624409448818
11
6.8363391732283461
21
-2.6462883858267716
0
LINE
8
BLACK
6
CONTINUOUS
10
6.8363391732283461
20
-2.6462883858267716
11
6.8366675196850393
21
-2.6462650787401576
0
LINE
8
BLACK
6
CONTINUOUS
10
6.8366675196850393
20
-2.6462650787401576
11
6.8380100787401572
21
-2.6467125984251969
0
LINE
8
BLACK
6
CONTINUOUS
10
6.8380100787401572
20
-2.6467125984251969
11
6.8741353937007874
21
-2.6467125984251969
0
LINE
8
BLACK
6
CONTINUOUS
10
6.8741353937007874
20
-2.6467125984251969
11
6.874587362204724
21
-2.6465253543307088
0
LINE
8
BLACK
6
CONTINUOUS
10
6.874587362204724
20
-2.6465253543307088
11
6.8750713779527555
21
-2.6462012598425195
0
LINE
8
BLACK
6
CONTINUOUS
10
6.8750713779527555
20
-2.6462012598425195
11
6.8752733858267714
21
-2.646241220472441
0
LINE
8
BLACK
6
CONTINUOUS
10
6.8752733858267714
20
-2.646241220472441
11
6.8754636220472438
21
-2.6461624409448818
0
LINE
8
BLACK
6
CONTINUOUS
10
6.8754636220472438
20
-2.6461624409448818
11
6.8760016535433071
21
-2.6463852755905513
0
LINE
8
BLACK
6
CONTINUOUS
10
6.8760016535433071
20
-2.6463852755905513
11
6.8765730314960631
21
-2.6464983464566929
0
LINE
8
BLACK
6
CONTINUOUS
10
6.8765730314960631
20
-2.6464983464566929
11
6.8766875984251969
21
-2.646669409448819
0
LINE
8
BLACK
6
CONTINUOUS
10
6.8766875984251969
20
-2.646669409448819
11
6.8767918503937002
21
-2.6467125984251969
0
LINE
8
BLACK
6
CONTINUOUS
10
6.8767918503937002
20
-2.6467125984251969
11
6.9762401574803148
21
-2.6467125984251969
0
LINE
8
BLACK
6
CONTINUOUS
10
6.9762401574803148
20
-2.6467125984251969
11
6.9762401574803148
21
-2.6352362204724411
0
LINE
8
BLACK
6
CONTINUOUS
10
6.9762401574803148
20
-2.6352362204724411
11
6.9769724015748027
21
-2.6334684645669291
0
LINE
8
BLACK
6
CONTINUOUS
10
6.9769724015748027
20
-2.6334684645669291
11
6.9787401574803152
21
-2.6327362204724407
0
LINE
8
BLACK
6
CONTINUOUS
10
6.9787401574803152
20
-2.6327362204724407
11
6.9805079133858268
21
-2.6334684645669291
0
LINE
8
BLACK
6
CONTINUOUS
10
3.1587643700787402
20
-2.6653294881889762
11
3.1588287401574804
21
-2.665327755905512
0
LINE
8
BLACK
6
CONTINUOUS
10
3.1588287401574804
20
-2.665327755905512
11
3.1644530314960631
21
-2.6672025196850395
0
LINE
8
BLACK
6
CONTINUOUS
10
3.1644530314960631
20
-2.6672025196850395
11
3.1653548031496062
21
-2.6676907874015749
0
LINE
8
BLACK
6
CONTINUOUS
10
3.1653548031496062
20
-2.6676907874015749
11
3.1654472047244093
21
-2.6678412204724409
0
LINE
8
BLACK
6
CONTINUOUS
10
3.1654472047244093
20
-2.6678412204724409
11
3.1656072047244095
21
-2.6679158267716536
0
LINE
8
BLACK
6
CONTINUOUS
10
3.1656072047244095
20
-2.6679158267716536
11
3.1830637401574804
21
-2.6853723228346458
0
LINE
8
BLACK
6
CONTINUOUS
10
3.1830637401574804
20
-2.6853723228346458
11
3.1830637401574804
21
-2.6681289763779525
0
LINE
8
BLACK
6
CONTINUOUS
10
3.1830637401574804
20
-2.6681289763779525
11
3.1832418110236218
21
-2.6671190551181101
0
LINE
8
BLACK
6
CONTINUOUS
10
3.1832418110236218
20
-2.6671190551181101
11
3.184540118110236
21
-2.665571811023622
0
LINE
8
BLACK
6
CONTINUOUS
10
3.184540118110236
20
-2.665571811023622
11
3.186529251968504
21
-2.665221062992126
0
LINE
8
BLACK
6
CONTINUOUS
10
3.186529251968504
20
-2.665221062992126
11
3.1882784251968501
21
-2.6662309842519685
0
LINE
8
BLACK
6
CONTINUOUS
10
3.1882784251968501
20
-2.6662309842519685
11
3.188969251968504
21
-2.6681289763779525
0
LINE
8
BLACK
6
CONTINUOUS
10
3.188969251968504
20
-2.6681289763779525
11
3.188969251968504
21
-2.6925009055118108
0
LINE
8
BLACK
6
CONTINUOUS
10
3.188969251968504
20
-2.6925009055118108
11
3.1888573228346457
21
-2.6931356299212599
0
LINE
8
BLACK
6
CONTINUOUS
10
3.1888573228346457
20
-2.6931356299212599
11
3.1888686614173229
21
-2.6932651181102361
0
LINE
8
BLACK
6
CONTINUOUS
10
3.1888686614173229
20
-2.6932651181102361
11
3.1888229921259841
21
-2.69333031496063
0
LINE
8
BLACK
6
CONTINUOUS
10
3.1888229921259841
20
-2.69333031496063
11
3.1887911811023621
21
-2.6935108267716537
0
LINE
8
BLACK
6
CONTINUOUS
10
3.1887911811023621
20
-2.6935108267716537
11
3.1882198818897636
21
-2.694191653543307
0
LINE
8
BLACK
6
CONTINUOUS
10
3.1882198818897636
20
-2.694191653543307
11
3.1877101181102363
21
-2.6949196850393702
0
LINE
8
BLACK
6
CONTINUOUS
10
3.1877101181102363
20
-2.6949196850393702
11
3.1875796456692913
21
-2.6949546062992127
0
LINE
8
BLACK
6
CONTINUOUS
10
3.1875796456692913
20
-2.6949546062992127
11
3.187492874015748
21
-2.6950580708661418
0
LINE
8
BLACK
6
CONTINUOUS
10
3.187492874015748
20
-2.6950580708661418
11
3.1866175196850395
21
-2.6952124015748029
0
LINE
8
BLACK
6
CONTINUOUS
10
3.1866175196850395
20
-2.6952124015748029
11
3.1857591732283463
21
-2.6954424015748031
0
LINE
8
BLACK
6
CONTINUOUS
10
3.1857591732283463
20
-2.6954424015748031
11
3.1856368110236222
21
-2.6953853149606299
0
LINE
8
BLACK
6
CONTINUOUS
10
3.1856368110236222
20
-2.6953853149606299
11
3.1855037401574804
21
-2.6954088188976377
0
LINE
8
BLACK
6
CONTINUOUS
10
3.1855037401574804
20
-2.6954088188976377
11
3.1847338188976377
21
-2.6949642913385827
0
LINE
8
BLACK
6
CONTINUOUS
10
3.1847338188976377
20
-2.6949642913385827
11
3.1839285826771655
21
-2.6945888188976377
0
LINE
8
BLACK
6
CONTINUOUS
10
3.1839285826771655
20
-2.6945888188976377
11
3.1619242519685038
21
-2.6725845275590552
0
LINE
8
BLACK
6
CONTINUOUS
10
3.1619242519685038
20
-2.6725845275590552
11
3.1574158661417324
21
-2.6710817322834646
0
LINE
8
BLACK
6
CONTINUOUS
10
3.1574158661417324
20
-2.6710817322834646
11
3.1548425196850394
21
-2.6710817322834646
0
LINE
8
BLACK
6
CONTINUOUS
10
3.1548425196850394
20
-2.6710817322834646
11
3.1521450393700787
21
-2.6724304724409449
0
LINE
8
BLACK
6
CONTINUOUS
10
3.1521450393700787
20
-2.6724304724409449
11
3.1509479133858269
21
-2.6736275984251967
0
LINE
8
BLACK
6
CONTINUOUS
10
3.1509479133858269
20
-2.6736275984251967
11
3.1495991732283466
21
-2.6763250787401573
0
LINE
8
BLACK
6
CONTINUOUS
10
3.1495991732283466
20
-2.6763250787401573
11
3.1495991732283466
21
-2.6843048031496064
0
LINE
8
BLACK
6
CONTINUOUS
10
3.1495991732283466
20
-2.6843048031496064
11
3.1509479133858269
21
-2.687002283464567
0
LINE
8
BLACK
6
CONTINUOUS
10
3.1509479133858269
20
-2.687002283464567
11
3.1524838582677166
21
-2.6885382283464567
0
LINE
8
BLACK
6
CONTINUOUS
10
3.1524838582677166
20
-2.6885382283464567
11
3.1530720472440943
21
-2.6893782677165352
0
LINE
8
BLACK
6
CONTINUOUS
10
3.1530720472440943
20
-2.6893782677165352
11
3.1532480708661415
21
-2.6913903543307085
0
LINE
8
BLACK
6
CONTINUOUS
10
3.1532480708661415
20
-2.6913903543307085
11
3.152089566929134
21
-2.6930449212598426
0
LINE
8
BLACK
6
CONTINUOUS
10
3.152089566929134
20
-2.6930449212598426
11
3.1501385826771653
21
-2.6935676377952755
0
LINE
8
BLACK
6
CONTINUOUS
10
3.1501385826771653
20
-2.6935676377952755
11
3.1483080314960628
21
-2.6927140551181101
0
LINE
8
BLACK
6
CONTINUOUS
10
3.1483080314960628
20
-2.6927140551181101
11
3.1464332677165352
21
-2.6908392913385826
0
LINE
8
BLACK
6
CONTINUOUS
10
3.1464332677165352
20
-2.6908392913385826
11
3.1459269685039368
21
-2.6901161811023622
0
LINE
8
BLACK
6
CONTINUOUS
10
3.1459269685039368
20
-2.6901161811023622
11
3.145880157480315
21
-2.6900718897637796
0
LINE
8
BLACK
6
CONTINUOUS
10
3.145880157480315
20
-2.6900718897637796
11
3.1440053937007875
21
-2.6863223622047245
0
LINE
8
BLACK
6
CONTINUOUS
10
3.1440053937007875
20
-2.6863223622047245
11
3.1437130314960631
21
-2.6853394094488188
0
LINE
8
BLACK
6
CONTINUOUS
10
3.1437130314960631
20
-2.6853394094488188
11
3.1437540157480313
21
-2.6851677165354331
0
LINE
8
BLACK
6
CONTINUOUS
10
3.1437540157480313
20
-2.6851677165354331
11
3.143693661417323
21
-2.6850018503937005
0
LINE
8
BLACK
6
CONTINUOUS
10
3.143693661417323
20
-2.6850018503937005
11
3.143693661417323
21
-2.6756280314960628
0
LINE
8
BLACK
6
CONTINUOUS
10
3.143693661417323
20
-2.6756280314960628
11
3.1438717322834644
21
-2.6746181102362203
0
LINE
8
BLACK
6
CONTINUOUS
10
3.1438717322834644
20
-2.6746181102362203
11
3.1439851968503936
21
-2.6744828346456693
0
LINE
8
BLACK
6
CONTINUOUS
10
3.1439851968503936
20
-2.6744828346456693
11
3.1440053937007875
21
-2.6743075196850392
0
LINE
8
BLACK
6
CONTINUOUS
10
3.1440053937007875
20
-2.6743075196850392
11
3.145880157480315
21
-2.6705579921259841
0
LINE
8
BLACK
6
CONTINUOUS
10
3.145880157480315
20
-2.6705579921259841
11
3.146406062992126
21
-2.6698488976377952
0
LINE
8
BLACK
6
CONTINUOUS
10
3.146406062992126
20
-2.6698488976377952
11
3.1464332677165352
21
-2.6697905905511812
0
LINE
8
BLACK
6
CONTINUOUS
10
3.1464332677165352
20
-2.6697905905511812
11
3.1483080314960628
21
-2.6679158267716536
0
LINE
8
BLACK
6
CONTINUOUS
10
3.1483080314960628
20
-2.6679158267716536
11
3.1490311023622048
21
-2.6674095275590552
0
LINE
8
BLACK
6
CONTINUOUS
10
3.1490311023622048
20
-2.6674095275590552
11
3.1490754330708661
21
-2.667362716535433
0
LINE
8
BLACK
6
CONTINUOUS
10
3.1490754330708661
20
-2.667362716535433
11
3.1528249606299212
21
-2.6654879527559054
0
LINE
8
BLACK
6
CONTINUOUS
10
3.1528249606299212
20
-2.6654879527559054
11
3.1538078740157478
21
-2.665195590551181
0
LINE
8
BLACK
6
CONTINUOUS
10
3.1538078740157478
20
-2.665195590551181
11
3.1539795669291339
21
-2.6652365748031497
0
LINE
8
BLACK
6
CONTINUOUS
10
3.1539795669291339
20
-2.6652365748031497
11
3.1541454724409448
21
-2.665176220472441
0
LINE
8
BLACK
6
CONTINUOUS
10
3.1541454724409448
20
-2.665176220472441
11
3.1578949999999999
21
-2.665176220472441
0
LINE
8
BLACK
6
CONTINUOUS
10
3.1578949999999999
20
-2.665176220472441
11
3.1587643700787402
21
-2.6653294881889762
0
LINE
8
BLACK
6
CONTINUOUS
10
6.0589477165354326
20
-2.6660435039370078
11
6.0596385433070861
21
-2.6679414960629919
0
LINE
8
BLACK
6
CONTINUOUS
10
6.0596385433070861
20
-2.6679414960629919
11
6.0596385433070861
21
-2.6904386614173226
0
LINE
8
BLACK
6
CONTINUOUS
10
6.0596385433070861
20
-2.6904386614173226
11
6.0594604724409447
21
-2.6914485826771655
0
LINE
8
BLACK
6
CONTINUOUS
10
6.0594604724409447
20
-2.6914485826771655
11
6.0581621653543305
21
-2.6929958267716536
0
LINE
8
BLACK
6
CONTINUOUS
10
6.0581621653543305
20
-2.6929958267716536
11
6.0561730314960629
21
-2.6933465748031495
0
LINE
8
BLACK
6
CONTINUOUS
10
6.0561730314960629
20
-2.6933465748031495
11
6.0544238582677163
21
-2.6923366535433071
0
LINE
8
BLACK
6
CONTINUOUS
10
6.0544238582677163
20
-2.6923366535433071
11
6.0537330314960629
21
-2.6904386614173226
0
LINE
8
BLACK
6
CONTINUOUS
10
6.0537330314960629
20
-2.6904386614173226
11
6.0537330314960629
21
-2.6821428346456693
0
LINE
8
BLACK
6
CONTINUOUS
10
6.0537330314960629
20
-2.6821428346456693
11
6.0263190551181101
21
-2.6821428346456693
0
LINE
8
BLACK
6
CONTINUOUS
10
6.0263190551181101
20
-2.6821428346456693
11
6.0287774409448813
21
-2.684601220472441
0
LINE
8
BLACK
6
CONTINUOUS
10
6.0287774409448813
20
-2.684601220472441
11
6.0292838188976381
21
-2.6853243700787401
0
LINE
8
BLACK
6
CONTINUOUS
10
6.0292838188976381
20
-2.6853243700787401
11
6.0293305511811024
21
-2.6853686220472439
0
LINE
8
BLACK
6
CONTINUOUS
10
6.0293305511811024
20
-2.6853686220472439
11
6.0312053149606299
21
-2.689118149606299
0
LINE
8
BLACK
6
CONTINUOUS
10
6.0312053149606299
20
-2.689118149606299
11
6.0314976771653539
21
-2.690101062992126
0
LINE
8
BLACK
6
CONTINUOUS
10
6.0314976771653539
20
-2.690101062992126
11
6.0310283858267715
21
-2.6920655905511812
0
LINE
8
BLACK
6
CONTINUOUS
10
6.0310283858267715
20
-2.6920655905511812
11
6.0294061023622048
21
-2.6932688976377954
0
LINE
8
BLACK
6
CONTINUOUS
10
6.0294061023622048
20
-2.6932688976377954
11
6.0273899606299208
21
-2.6931478346456692
0
LINE
8
BLACK
6
CONTINUOUS
10
6.0273899606299208
20
-2.6931478346456692
11
6.0259232677165349
21
-2.6917591732283466
0
LINE
8
BLACK
6
CONTINUOUS
10
6.0259232677165349
20
-2.6917591732283466
11
6.0242627952755905
21
-2.6884382283464565
0
LINE
8
BLACK
6
CONTINUOUS
10
6.0242627952755905
20
-2.6884382283464565
11
6.0210588188976377
21
-2.6852342519685037
0
LINE
8
BLACK
6
CONTINUOUS
10
6.0210588188976377
20
-2.6852342519685037
11
6.0156777952755904
21
-2.681646929133858
0
LINE
8
BLACK
6
CONTINUOUS
10
6.0156777952755904
20
-2.681646929133858
11
6.0149362992125983
21
-2.6809385433070867
0
LINE
8
BLACK
6
CONTINUOUS
10
6.0149362992125983
20
-2.6809385433070867
11
6.0148885826771652
21
-2.680775590551181
0
LINE
8
BLACK
6
CONTINUOUS
10
6.0148885826771652
20
-2.680775590551181
11
6.014758543307086
21
-2.6806664566929133
0
LINE
8
BLACK
6
CONTINUOUS
10
6.014758543307086
20
-2.6806664566929133
11
6.014609724409449
21
-2.6798225196850392
0
LINE
8
BLACK
6
CONTINUOUS
10
6.014609724409449
20
-2.6798225196850392
11
6.0143690551181104
21
-2.6790000393700786
0
LINE
8
BLACK
6
CONTINUOUS
10
6.0143690551181104
20
-2.6790000393700786
11
6.0144372440944878
21
-2.6788445275590549
0
LINE
8
BLACK
6
CONTINUOUS
10
6.0144372440944878
20
-2.6788445275590549
11
6.0144077952755906
21
-2.6786773228346457
0
LINE
8
BLACK
6
CONTINUOUS
10
6.0144077952755906
20
-2.6786773228346457
11
6.014836220472441
21
-2.6779352362204722
0
LINE
8
BLACK
6
CONTINUOUS
10
6.014836220472441
20
-2.6779352362204722
11
6.0151805905511813
21
-2.677150433070866
0
LINE
8
BLACK
6
CONTINUOUS
10
6.0151805905511813
20
-2.677150433070866
11
6.0153328346456689
21
-2.6770751574803149
0
LINE
8
BLACK
6
CONTINUOUS
10
6.0153328346456689
20
-2.6770751574803149
11
6.015417716535433
21
-2.6769281496062991
0
LINE
8
BLACK
6
CONTINUOUS
10
6.015417716535433
20
-2.6769281496062991
11
6.0162229527559052
21
-2.6766350393700789
0
LINE
8
BLACK
6
CONTINUOUS
10
6.0162229527559052
20
-2.6766350393700789
11
6.0169911811023624
21
-2.6762552362204723
0
LINE
8
BLACK
6
CONTINUOUS
10
6.0169911811023624
20
-2.6762552362204723
11
6.0171561023622049
21
-2.6762953937007872
0
LINE
8
BLACK
6
CONTINUOUS
10
6.0171561023622049
20
-2.6762953937007872
11
6.0173157086614175
21
-2.6762373228346457
0
LINE
8
BLACK
6
CONTINUOUS
10
6.0173157086614175
20
-2.6762373228346457
11
6.0537330314960629
21
-2.6762373228346457
0
LINE
8
BLACK
6
CONTINUOUS
10
6.0537330314960629
20
-2.6762373228346457
11
6.0537330314960629
21
-2.6679414960629919
0
LINE
8
BLACK
6
CONTINUOUS
10
6.0537330314960629
20
-2.6679414960629919
11
6.0539111023622043
21
-2.6669315748031495
0
LINE
8
BLACK
6
CONTINUOUS
10
6.0539111023622043
20
-2.6669315748031495
11
6.0552094094488185
21
-2.6653843307086613
0
LINE
8
BLACK
6
CONTINUOUS
10
6.0552094094488185
20
-2.6653843307086613
11
6.0571985433070861
21
-2.6650335826771654
0
LINE
8
BLACK
6
CONTINUOUS
10
6.0571985433070861
20
-2.6650335826771654
11
6.0589477165354326
21
-2.6660435039370078
0
LINE
8
BLACK
6
CONTINUOUS
10
4.6903346456692914
20
-2.6474409448818896
11
4.7143346456692914
21
-2.6474409448818896
0
LINE
8
BLACK
6
CONTINUOUS
10
4.7143346456692914
20
-2.6474409448818896
11
4.8323346456692908
21
-2.6474409448818896
0
LINE
8
BLACK
6
CONTINUOUS
10
4.8323346456692908
20
-2.6474409448818896
11
4.8327244094488186
21
-2.6475096456692913
0
LINE
8
BLACK
6
CONTINUOUS
10
4.8327244094488186
20
-2.6475096456692913
11
4.8328555905511807
21
-2.647486535433071
0
LINE
8
BLACK
6
CONTINUOUS
10
4.8328555905511807
20
-2.647486535433071
11
4.8329709055118109
21
-2.6475531102362204
0
LINE
8
BLACK
6
CONTINUOUS
10
4.8329709055118109
20
-2.6475531102362204
11
4.8333607086614174
21
-2.6476218503937008
0
LINE
8
BLACK
6
CONTINUOUS
10
4.8333607086614174
20
-2.6476218503937008
11
4.8339578346456689
21
-2.6481229133858268
0
LINE
8
BLACK
6
CONTINUOUS
10
4.8339578346456689
20
-2.6481229133858268
11
4.8346327952755903
21
-2.6485125984251967
0
LINE
8
BLACK
6
CONTINUOUS
10
4.8346327952755903
20
-2.6485125984251967
11
4.8347253543307085
21
-2.648766929133858
0
LINE
8
BLACK
6
CONTINUOUS
10
4.8347253543307085
20
-2.648766929133858
11
4.834932716535433
21
-2.6489409448818897
0
LINE
8
BLACK
6
CONTINUOUS
10
4.834932716535433
20
-2.6489409448818897
11
4.8350680314960632
21
-2.6497084251968501
0
LINE
8
BLACK
6
CONTINUOUS
10
4.8350680314960632
20
-2.6497084251968501
11
4.8353346456692909
21
-2.6504409448818897
0
LINE
8
BLACK
6
CONTINUOUS
10
4.8353346456692909
20
-2.6504409448818897
11
4.8353346456692909
21
-2.6654409448818899
0
LINE
8
BLACK
6
CONTINUOUS
10
4.8353346456692909
20
-2.6654409448818899
11
4.8351537401574802
21
-2.6664670078740156
0
LINE
8
BLACK
6
CONTINUOUS
10
4.8351537401574802
20
-2.6664670078740156
11
4.8338346456692909
21
-2.6680390157480316
0
LINE
8
BLACK
6
CONTINUOUS
10
4.8338346456692909
20
-2.6680390157480316
11
4.8318137007874018
21
-2.6683953543307086
0
LINE
8
BLACK
6
CONTINUOUS
10
4.8318137007874018
20
-2.6683953543307086
11
4.8300364960629922
21
-2.6673692913385825
0
LINE
8
BLACK
6
CONTINUOUS
10
4.8300364960629922
20
-2.6673692913385825
11
4.8293346456692916
21
-2.6654409448818899
0
LINE
8
BLACK
6
CONTINUOUS
10
4.8293346456692916
20
-2.6654409448818899
11
4.8293346456692916
21
-2.6534409448818899
0
LINE
8
BLACK
6
CONTINUOUS
10
4.8293346456692916
20
-2.6534409448818899
11
4.715827992125984
21
-2.6534409448818899
0
LINE
8
BLACK
6
CONTINUOUS
10
4.715827992125984
20
-2.6534409448818899
11
4.7156194881889766
21
-2.654757440944882
0
LINE
8
BLACK
6
CONTINUOUS
10
4.7156194881889766
20
-2.654757440944882
11
4.7136353937007875
21
-2.6586514173228344
0
LINE
8
BLACK
6
CONTINUOUS
10
4.7136353937007875
20
-2.6586514173228344
11
4.710545118110236
21
-2.6617416929133859
0
LINE
8
BLACK
6
CONTINUOUS
10
4.710545118110236
20
-2.6617416929133859
11
4.7066511417322836
21
-2.663725787401575
0
LINE
8
BLACK
6
CONTINUOUS
10
4.7066511417322836
20
-2.663725787401575
11
4.7023346456692909
21
-2.6644094488188976
0
LINE
8
BLACK
6
CONTINUOUS
10
4.7023346456692909
20
-2.6644094488188976
11
4.6980181496062992
21
-2.663725787401575
0
LINE
8
BLACK
6
CONTINUOUS
10
4.6980181496062992
20
-2.663725787401575
11
4.6941241732283467
21
-2.6617416929133859
0
LINE
8
BLACK
6
CONTINUOUS
10
4.6941241732283467
20
-2.6617416929133859
11
4.6910338976377952
21
-2.6586514173228344
0
LINE
8
BLACK
6
CONTINUOUS
10
4.6910338976377952
20
-2.6586514173228344
11
4.6890498031496062
21
-2.654757440944882
0
LINE
8
BLACK
6
CONTINUOUS
10
4.6890498031496062
20
-2.654757440944882
11
4.6888412992125987
21
-2.6534409448818899
0
LINE
8
BLACK
6
CONTINUOUS
10
4.6888412992125987
20
-2.6534409448818899
11
4.5753346456692912
21
-2.6534409448818899
0
LINE
8
BLACK
6
CONTINUOUS
10
4.5753346456692912
20
-2.6534409448818899
11
4.5753346456692912
21
-2.6604409448818895
0
LINE
8
BLACK
6
CONTINUOUS
10
4.5753346456692912
20
-2.6604409448818895
11
4.5751537401574804
21
-2.6614670078740157
0
LINE
8
BLACK
6
CONTINUOUS
10
4.5751537401574804
20
-2.6614670078740157
11
4.5738346456692911
21
-2.6630390157480313
0
LINE
8
BLACK
6
CONTINUOUS
10
4.5738346456692911
20
-2.6630390157480313
11
4.5718137007874011
21
-2.6633953543307087
0
LINE
8
BLACK
6
CONTINUOUS
10
4.5718137007874011
20
-2.6633953543307087
11
4.5700364960629924
21
-2.6623692913385826
0
LINE
8
BLACK
6
CONTINUOUS
10
4.5700364960629924
20
-2.6623692913385826
11
4.5693346456692909
21
-2.6604409448818895
0
LINE
8
BLACK
6
CONTINUOUS
10
4.5693346456692909
20
-2.6604409448818895
11
4.5693346456692909
21
-2.6504409448818897
0
LINE
8
BLACK
6
CONTINUOUS
10
4.5693346456692909
20
-2.6504409448818897
11
4.569403346456693
21
-2.6500511417322836
0
LINE
8
BLACK
6
CONTINUOUS
10
4.569403346456693
20
-2.6500511417322836
11
4.5693802362204723
21
-2.6499199999999998
0
LINE
8
BLACK
6
CONTINUOUS
10
4.5693802362204723
20
-2.6499199999999998
11
4.5694468110236217
21
-2.6498046456692914
0
LINE
8
BLACK
6
CONTINUOUS
10
4.5694468110236217
20
-2.6498046456692914
11
4.5695155511811025
21
-2.6494148818897636
0
LINE
8
BLACK
6
CONTINUOUS
10
4.5695155511811025
20
-2.6494148818897636
11
4.5700166141732286
21
-2.648817716535433
0
LINE
8
BLACK
6
CONTINUOUS
10
4.5700166141732286
20
-2.648817716535433
11
4.570406299212598
21
-2.6481427952755907
0
LINE
8
BLACK
6
CONTINUOUS
10
4.570406299212598
20
-2.6481427952755907
11
4.5706606299212593
21
-2.6480501968503938
0
LINE
8
BLACK
6
CONTINUOUS
10
4.5706606299212593
20
-2.6480501968503938
11
4.570834645669291
21
-2.647842874015748
0
LINE
8
BLACK
6
CONTINUOUS
10
4.570834645669291
20
-2.647842874015748
11
4.5716021259842519
21
-2.6477075196850395
0
LINE
8
BLACK
6
CONTINUOUS
10
4.5716021259842519
20
-2.6477075196850395
11
4.572334645669291
21
-2.6474409448818896
0
LINE
8
BLACK
6
CONTINUOUS
10
4.572334645669291
20
-2.6474409448818896
11
4.6903346456692914
21
-2.6474409448818896
0
LINE
8
BLACK
6
CONTINUOUS
10
4.6927512598425194
20
-2.6534409448818899
11
4.6935130708661417
21
-2.6555340944881891
0
LINE
8
BLACK
6
CONTINUOUS
10
4.6935130708661417
20
-2.6555340944881891
11
4.6957870472440941
21
-2.6582440551181103
0
LINE
8
BLACK
6
CONTINUOUS
10
4.6957870472440941
20
-2.6582440551181103
11
4.6988507480314956
21
-2.6600129133858266
0
LINE
8
BLACK
6
CONTINUOUS
10
4.6988507480314956
20
-2.6600129133858266
11
4.7023346456692909
21
-2.6606272047244093
0
LINE
8
BLACK
6
CONTINUOUS
10
4.7023346456692909
20
-2.6606272047244093
11
4.7058185433070863
21
-2.6600129133858266
0
LINE
8
BLACK
6
CONTINUOUS
10
4.7058185433070863
20
-2.6600129133858266
11
4.7088822440944877
21
-2.6582440551181103
0
LINE
8
BLACK
6
CONTINUOUS
10
4.7088822440944877
20
-2.6582440551181103
11
4.7111562204724411
21
-2.6555340944881891
0
LINE
8
BLACK
6
CONTINUOUS
10
4.7111562204724411
20
-2.6555340944881891
11
4.7119180314960625
21
-2.6534409448818899
0
LINE
8
BLACK
6
CONTINUOUS
10
4.7119180314960625
20
-2.6534409448818899
11
4.6927512598425194
21
-2.6534409448818899
0
LINE
8
BLACK
6
CONTINUOUS
10
4.5310363385826768
20
-2.6445936614173227
11
4.5317271653543303
21
-2.6464916535433072
0
LINE
8
BLACK
6
CONTINUOUS
10
4.5317271653543303
20
-2.6464916535433072
11
4.5317271653543303
21
-2.6515203937007872
0
LINE
8
BLACK
6
CONTINUOUS
10
4.5317271653543303
20
-2.6515203937007872
11
4.5370678346456694
21
-2.6493841338582675
0
LINE
8
BLACK
6
CONTINUOUS
10
4.5370678346456694
20
-2.6493841338582675
11
4.538071653543307
21
-2.6491744094488188
0
LINE
8
BLACK
6
CONTINUOUS
10
4.538071653543307
20
-2.6491744094488188
11
4.5399903937007871
21
-2.6498052362204723
0
LINE
8
BLACK
6
CONTINUOUS
10
4.5399903937007871
20
-2.6498052362204723
11
4.5410548031496063
21
-2.6515218110236218
0
LINE
8
BLACK
6
CONTINUOUS
10
4.5410548031496063
20
-2.6515218110236218
11
4.5407667322834646
21
-2.6535209448818895
0
LINE
8
BLACK
6
CONTINUOUS
10
4.5407667322834646
20
-2.6535209448818895
11
4.539261062992126
21
-2.6548672834645668
0
LINE
8
BLACK
6
CONTINUOUS
10
4.539261062992126
20
-2.6548672834645668
11
4.5334483070866138
21
-2.6571923622047242
0
LINE
8
BLACK
6
CONTINUOUS
10
4.5334483070866138
20
-2.6571923622047242
11
4.5367706299212598
21
-2.6616221259842519
0
LINE
8
BLACK
6
CONTINUOUS
10
4.5367706299212598
20
-2.6616221259842519
11
4.5372341338582673
21
-2.6625368897637793
0
LINE
8
BLACK
6
CONTINUOUS
10
4.5372341338582673
20
-2.6625368897637793
11
4.5371238188976379
21
-2.6645537007874016
0
LINE
8
BLACK
6
CONTINUOUS
10
4.5371238188976379
20
-2.6645537007874016
11
4.5357429527559052
21
-2.6660277559055117
0
LINE
8
BLACK
6
CONTINUOUS
10
4.5357429527559052
20
-2.6660277559055117
11
4.5337376771653544
21
-2.6662693307086616
0
LINE
8
BLACK
6
CONTINUOUS
10
4.5337376771653544
20
-2.6662693307086616
11
4.5320462204724405
21
-2.6651654330708663
0
LINE
8
BLACK
6
CONTINUOUS
10
4.5320462204724405
20
-2.6651654330708663
11
4.5287743700787404
21
-2.6608029921259844
0
LINE
8
BLACK
6
CONTINUOUS
10
4.5287743700787404
20
-2.6608029921259844
11
4.5255025590551181
21
-2.6651654330708663
0
LINE
8
BLACK
6
CONTINUOUS
10
4.5255025590551181
20
-2.6651654330708663
11
4.5247541338582673
21
-2.6658665354330706
0
LINE
8
BLACK
6
CONTINUOUS
10
4.5247541338582673
20
-2.6658665354330706
11
4.5227871653543303
21
-2.6663253543307084
0
LINE
8
BLACK
6
CONTINUOUS
10
4.5227871653543303
20
-2.6663253543307084
11
4.5209853937007871
21
-2.6654124409448818
0
LINE
8
BLACK
6
CONTINUOUS
10
4.5209853937007871
20
-2.6654124409448818
11
4.5201920078740159
21
-2.6635550000000001
0
LINE
8
BLACK
6
CONTINUOUS
10
4.5201920078740159
20
-2.6635550000000001
11
4.5207781496062989
21
-2.6616221259842519
0
LINE
8
BLACK
6
CONTINUOUS
10
4.5207781496062989
20
-2.6616221259842519
11
4.5241004330708661
21
-2.6571923622047242
0
LINE
8
BLACK
6
CONTINUOUS
10
4.5241004330708661
20
-2.6571923622047242
11
4.5182877165354327
21
-2.6548672834645668
0
LINE
8
BLACK
6
CONTINUOUS
10
4.5182877165354327
20
-2.6548672834645668
11
4.5174161417322836
21
-2.6543268503937005
0
LINE
8
BLACK
6
CONTINUOUS
10
4.5174161417322836
20
-2.6543268503937005
11
4.5164617322834646
21
-2.6525467716535434
0
LINE
8
BLACK
6
CONTINUOUS
10
4.5164617322834646
20
-2.6525467716535434
11
4.5168748425196847
21
-2.6505696456692913
0
LINE
8
BLACK
6
CONTINUOUS
10
4.5168748425196847
20
-2.6505696456692913
11
4.5184621653543307
21
-2.6493206692913387
0
LINE
8
BLACK
6
CONTINUOUS
10
4.5184621653543307
20
-2.6493206692913387
11
4.5204809448818892
21
-2.6493841338582675
0
LINE
8
BLACK
6
CONTINUOUS
10
4.5204809448818892
20
-2.6493841338582675
11
4.5258216535433071
21
-2.6515203937007872
0
LINE
8
BLACK
6
CONTINUOUS
10
4.5258216535433071
20
-2.6515203937007872
11
4.5258216535433071
21
-2.6464916535433072
0
LINE
8
BLACK
6
CONTINUOUS
10
4.5258216535433071
20
-2.6464916535433072
11
4.5259997244094485
21
-2.6454817322834647
0
LINE
8
BLACK
6
CONTINUOUS
10
4.5259997244094485
20
-2.6454817322834647
11
4.5272980314960627
21
-2.6439344881889761
0
LINE
8
BLACK
6
CONTINUOUS
10
4.5272980314960627
20
-2.6439344881889761
11
4.5292871653543303
21
-2.6435837401574802
0
LINE
8
BLACK
6
CONTINUOUS
10
4.5292871653543303
20
-2.6435837401574802
11
4.5310363385826768
21
-2.6445936614173227
0
LINE
8
BLACK
6
CONTINUOUS
10
3.7359222834645669
20
-2.5688021259842517
11
3.7366141732283462
21
-2.570472440944882
0
LINE
8
BLACK
6
CONTINUOUS
10
3.7366141732283462
20
-2.570472440944882
11
3.7366141732283462
21
-2.6295275590551181
0
LINE
8
BLACK
6
CONTINUOUS
10
3.7366141732283462
20
-2.6295275590551181
11
3.7359222834645669
21
-2.631197874015748
0
LINE
8
BLACK
6
CONTINUOUS
10
3.7359222834645669
20
-2.631197874015748
11
3.734251968503937
21
-2.6318897637795273
0
LINE
8
BLACK
6
CONTINUOUS
10
3.734251968503937
20
-2.6318897637795273
11
3.7325816535433072
21
-2.631197874015748
0
LINE
8
BLACK
6
CONTINUOUS
10
3.7325816535433072
20
-2.631197874015748
11
3.7318897637795274
21
-2.6295275590551181
0
LINE
8
BLACK
6
CONTINUOUS
10
3.7318897637795274
20
-2.6295275590551181
11
3.7318897637795274
21
-2.570472440944882
0
LINE
8
BLACK
6
CONTINUOUS
10
3.7318897637795274
20
-2.570472440944882
11
3.7325816535433072
21
-2.5688021259842517
0
LINE
8
BLACK
6
CONTINUOUS
10
3.7325816535433072
20
-2.5688021259842517
11
3.734251968503937
21
-2.5681102362204724
0
LINE
8
BLACK
6
CONTINUOUS
10
3.734251968503937
20
-2.5681102362204724
11
3.7359222834645669
21
-2.5688021259842517
0
LINE
8
BLACK
6
CONTINUOUS
10
4.0115128346456688
20
-2.5688021259842517
11
4.0122047244094485
21
-2.570472440944882
0
LINE
8
BLACK
6
CONTINUOUS
10
4.0122047244094485
20
-2.570472440944882
11
4.0122047244094485
21
-2.6295275590551181
0
LINE
8
BLACK
6
CONTINUOUS
10
4.0122047244094485
20
-2.6295275590551181
11
4.0115128346456688
21
-2.631197874015748
0
LINE
8
BLACK
6
CONTINUOUS
10
4.0115128346456688
20
-2.631197874015748
11
4.0098425196850389
21
-2.6318897637795273
0
LINE
8
BLACK
6
CONTINUOUS
10
4.0098425196850389
20
-2.6318897637795273
11
4.008172204724409
21
-2.631197874015748
0
LINE
8
BLACK
6
CONTINUOUS
10
4.008172204724409
20
-2.631197874015748
11
4.0074803149606302
21
-2.6295275590551181
0
LINE
8
BLACK
6
CONTINUOUS
10
4.0074803149606302
20
-2.6295275590551181
11
4.0074803149606302
21
-2.570472440944882
0
LINE
8
BLACK
6
CONTINUOUS
10
4.0074803149606302
20
-2.570472440944882
11
4.008172204724409
21
-2.5688021259842517
0
LINE
8
BLACK
6
CONTINUOUS
10
4.008172204724409
20
-2.5688021259842517
11
4.0098425196850389
21
-2.5681102362204724
0
LINE
8
BLACK
6
CONTINUOUS
10
4.0098425196850389
20
-2.5681102362204724
11
4.0115128346456688
21
-2.5688021259842517
0
LINE
8
BLACK
6
CONTINUOUS
10
4.7231713385826772
20
-2.5396157480314958
11
4.7238621653543307
21
-2.5415137401574803
0
LINE
8
BLACK
6
CONTINUOUS
10
4.7238621653543307
20
-2.5415137401574803
11
4.7238621653543307
21
-2.5938324015748031
0
LINE
8
BLACK
6
CONTINUOUS
10
4.7238621653543307
20
-2.5938324015748031
11
4.7236840944881893
21
-2.5948423228346456
0
LINE
8
BLACK
6
CONTINUOUS
10
4.7236840944881893
20
-2.5948423228346456
11
4.7235705905511809
21
-2.5949775590551178
0
LINE
8
BLACK
6
CONTINUOUS
10
4.7235705905511809
20
-2.5949775590551178
11
4.7235504330708658
21
-2.5951529133858267
0
LINE
8
BLACK
6
CONTINUOUS
10
4.7235504330708658
20
-2.5951529133858267
11
4.720472834645669
21
-2.601308031496063
0
LINE
8
BLACK
6
CONTINUOUS
10
4.720472834645669
20
-2.601308031496063
11
4.7199470866141731
21
-2.6020168110236219
0
LINE
8
BLACK
6
CONTINUOUS
10
4.7199470866141731
20
-2.6020168110236219
11
4.7199197637795276
21
-2.602075433070866
0
LINE
8
BLACK
6
CONTINUOUS
10
4.7199197637795276
20
-2.602075433070866
11
4.7168421653543309
21
-2.6051530314960631
0
LINE
8
BLACK
6
CONTINUOUS
10
4.7168421653543309
20
-2.6051530314960631
11
4.71611905511811
21
-2.6056592913385828
0
LINE
8
BLACK
6
CONTINUOUS
10
4.71611905511811
20
-2.6056592913385828
11
4.7160747637795275
21
-2.6057061417322833
0
LINE
8
BLACK
6
CONTINUOUS
10
4.7160747637795275
20
-2.6057061417322833
11
4.7099196456692916
21
-2.6087837007874013
0
LINE
8
BLACK
6
CONTINUOUS
10
4.7099196456692916
20
-2.6087837007874013
11
4.7089366929133858
21
-2.6090760629921261
0
LINE
8
BLACK
6
CONTINUOUS
10
4.7089366929133858
20
-2.6090760629921261
11
4.7087649999999996
21
-2.6090350393700787
0
LINE
8
BLACK
6
CONTINUOUS
10
4.7087649999999996
20
-2.6090350393700787
11
4.708599133858268
21
-2.6090954330708662
0
LINE
8
BLACK
6
CONTINUOUS
10
4.708599133858268
20
-2.6090954330708662
11
4.6962888582677165
21
-2.6090954330708662
0
LINE
8
BLACK
6
CONTINUOUS
10
4.6962888582677165
20
-2.6090954330708662
11
4.695278937007874
21
-2.6089173622047244
0
LINE
8
BLACK
6
CONTINUOUS
10
4.695278937007874
20
-2.6089173622047244
11
4.6951436614173225
21
-2.6088038582677164
0
LINE
8
BLACK
6
CONTINUOUS
10
4.6951436614173225
20
-2.6088038582677164
11
4.6949683464566929
21
-2.6087837007874013
0
LINE
8
BLACK
6
CONTINUOUS
10
4.6949683464566929
20
-2.6087837007874013
11
4.6888131889763782
21
-2.6057061417322833
0
LINE
8
BLACK
6
CONTINUOUS
10
4.6888131889763782
20
-2.6057061417322833
11
4.6881040944881889
21
-2.6051802362204723
0
LINE
8
BLACK
6
CONTINUOUS
10
4.6881040944881889
20
-2.6051802362204723
11
4.6880457874015748
21
-2.6051530314960631
0
LINE
8
BLACK
6
CONTINUOUS
10
4.6880457874015748
20
-2.6051530314960631
11
4.6849682283464569
21
-2.602075433070866
0
LINE
8
BLACK
6
CONTINUOUS
10
4.6849682283464569
20
-2.602075433070866
11
4.6844618110236222
21
-2.6013522440944881
0
LINE
8
BLACK
6
CONTINUOUS
10
4.6844618110236222
20
-2.6013522440944881
11
4.6844151181102358
21
-2.601308031496063
0
LINE
8
BLACK
6
CONTINUOUS
10
4.6844151181102358
20
-2.601308031496063
11
4.6813375590551178
21
-2.5951529133858267
0
LINE
8
BLACK
6
CONTINUOUS
10
4.6813375590551178
20
-2.5951529133858267
11
4.6810451968503939
21
-2.5941699606299213
0
LINE
8
BLACK
6
CONTINUOUS
10
4.6810451968503939
20
-2.5941699606299213
11
4.6810861811023621
21
-2.5939982677165352
0
LINE
8
BLACK
6
CONTINUOUS
10
4.6810861811023621
20
-2.5939982677165352
11
4.6810258267716538
21
-2.5938324015748031
0
LINE
8
BLACK
6
CONTINUOUS
10
4.6810258267716538
20
-2.5938324015748031
11
4.6810258267716538
21
-2.5415137401574803
0
LINE
8
BLACK
6
CONTINUOUS
10
4.6810258267716538
20
-2.5415137401574803
11
4.6812038976377952
21
-2.5405038188976379
0
LINE
8
BLACK
6
CONTINUOUS
10
4.6812038976377952
20
-2.5405038188976379
11
4.6825022047244094
21
-2.5389565748031497
0
LINE
8
BLACK
6
CONTINUOUS
10
4.6825022047244094
20
-2.5389565748031497
11
4.684491338582677
21
-2.5386058267716534
0
LINE
8
BLACK
6
CONTINUOUS
10
4.684491338582677
20
-2.5386058267716534
11
4.6862405118110235
21
-2.5396157480314958
0
LINE
8
BLACK
6
CONTINUOUS
10
4.6862405118110235
20
-2.5396157480314958
11
4.686931338582677
21
-2.5415137401574803
0
LINE
8
BLACK
6
CONTINUOUS
10
4.686931338582677
20
-2.5415137401574803
11
4.686931338582677
21
-2.5931353543307085
0
LINE
8
BLACK
6
CONTINUOUS
10
4.686931338582677
20
-2.5931353543307085
11
4.6894828740157477
21
-2.5982384251968504
0
LINE
8
BLACK
6
CONTINUOUS
10
4.6894828740157477
20
-2.5982384251968504
11
4.6918828346456696
21
-2.6006383858267714
0
LINE
8
BLACK
6
CONTINUOUS
10
4.6918828346456696
20
-2.6006383858267714
11
4.6969859055118111
21
-2.6031899212598426
0
LINE
8
BLACK
6
CONTINUOUS
10
4.6969859055118111
20
-2.6031899212598426
11
4.7079020866141734
21
-2.6031899212598426
0
LINE
8
BLACK
6
CONTINUOUS
10
4.7079020866141734
20
-2.6031899212598426
11
4.7130051181102361
21
-2.6006383858267714
0
LINE
8
BLACK
6
CONTINUOUS
10
4.7130051181102361
20
-2.6006383858267714
11
4.7154050787401571
21
-2.5982384251968504
0
LINE
8
BLACK
6
CONTINUOUS
10
4.7154050787401571
20
-2.5982384251968504
11
4.7179566535433066
21
-2.5931353149606298
0
LINE
8
BLACK
6
CONTINUOUS
10
4.7179566535433066
20
-2.5931353149606298
11
4.7179566535433066
21
-2.5415137401574803
0
LINE
8
BLACK
6
CONTINUOUS
10
4.7179566535433066
20
-2.5415137401574803
11
4.7181347244094489
21
-2.5405038188976379
0
LINE
8
BLACK
6
CONTINUOUS
10
4.7181347244094489
20
-2.5405038188976379
11
4.7194330314960631
21
-2.5389565748031497
0
LINE
8
BLACK
6
CONTINUOUS
10
4.7194330314960631
20
-2.5389565748031497
11
4.7214221653543307
21
-2.5386058267716534
0
LINE
8
BLACK
6
CONTINUOUS
10
4.7214221653543307
20
-2.5386058267716534
11
4.7231713385826772
21
-2.5396157480314958
0
LINE
8
BLACK
6
CONTINUOUS
10
4.7674183858267716
20
-2.5386353149606298
11
4.7675856692913383
21
-2.5386058267716534
0
LINE
8
BLACK
6
CONTINUOUS
10
4.7675856692913383
20
-2.5386058267716534
11
4.7683279921259842
21
-2.5390344094488189
0
LINE
8
BLACK
6
CONTINUOUS
10
4.7683279921259842
20
-2.5390344094488189
11
4.7691125590551184
21
-2.5393786614173228
0
LINE
8
BLACK
6
CONTINUOUS
10
4.7691125590551184
20
-2.5393786614173228
11
4.7691877952755908
21
-2.5395308267716534
0
LINE
8
BLACK
6
CONTINUOUS
10
4.7691877952755908
20
-2.5395308267716534
11
4.7693348425196849
21
-2.5396157480314958
0
LINE
8
BLACK
6
CONTINUOUS
10
4.7693348425196849
20
-2.5396157480314958
11
4.7696279921259839
21
-2.5404211417322835
0
LINE
8
BLACK
6
CONTINUOUS
10
4.7696279921259839
20
-2.5404211417322835
11
4.7700077559055121
21
-2.541189251968504
0
LINE
8
BLACK
6
CONTINUOUS
10
4.7700077559055121
20
-2.541189251968504
11
4.769967559055118
21
-2.5413541338582677
0
LINE
8
BLACK
6
CONTINUOUS
10
4.769967559055118
20
-2.5413541338582677
11
4.7700256692913383
21
-2.5415137401574803
0
LINE
8
BLACK
6
CONTINUOUS
10
4.7700256692913383
20
-2.5415137401574803
11
4.7700256692913383
21
-2.6031899212598426
0
LINE
8
BLACK
6
CONTINUOUS
10
4.7700256692913383
20
-2.6031899212598426
11
4.7855383070866138
21
-2.6031899212598426
0
LINE
8
BLACK
6
CONTINUOUS
10
4.7855383070866138
20
-2.6031899212598426
11
4.7865482283464562
21
-2.603367992125984
0
LINE
8
BLACK
6
CONTINUOUS
10
4.7865482283464562
20
-2.603367992125984
11
4.7880954724409444
21
-2.6046662992125982
0
LINE
8
BLACK
6
CONTINUOUS
10
4.7880954724409444
20
-2.6046662992125982
11
4.7884462204724407
21
-2.6066554330708662
0
LINE
8
BLACK
6
CONTINUOUS
10
4.7884462204724407
20
-2.6066554330708662
11
4.7874362992125983
21
-2.6084046062992123
0
LINE
8
BLACK
6
CONTINUOUS
10
4.7874362992125983
20
-2.6084046062992123
11
4.7855383070866138
21
-2.6090954330708662
0
LINE
8
BLACK
6
CONTINUOUS
10
4.7855383070866138
20
-2.6090954330708662
11
4.7486074803149609
21
-2.6090954330708662
0
LINE
8
BLACK
6
CONTINUOUS
10
4.7486074803149609
20
-2.6090954330708662
11
4.7475975590551176
21
-2.6089173622047244
0
LINE
8
BLACK
6
CONTINUOUS
10
4.7475975590551176
20
-2.6089173622047244
11
4.7460503149606295
21
-2.6076190551181102
0
LINE
8
BLACK
6
CONTINUOUS
10
4.7460503149606295
20
-2.6076190551181102
11
4.745699566929134
21
-2.6056299212598426
0
LINE
8
BLACK
6
CONTINUOUS
10
4.745699566929134
20
-2.6056299212598426
11
4.7467094881889764
21
-2.6038807480314961
0
LINE
8
BLACK
6
CONTINUOUS
10
4.7467094881889764
20
-2.6038807480314961
11
4.7486074803149609
21
-2.6031899212598426
0
LINE
8
BLACK
6
CONTINUOUS
10
4.7486074803149609
20
-2.6031899212598426
11
4.7641201574803151
21
-2.6031899212598426
0
LINE
8
BLACK
6
CONTINUOUS
10
4.7641201574803151
20
-2.6031899212598426
11
4.7641201574803151
21
-2.5512659842519683
0
LINE
8
BLACK
6
CONTINUOUS
10
4.7641201574803151
20
-2.5512659842519683
11
4.7633746062992124
21
-2.5523843307086613
0
LINE
8
BLACK
6
CONTINUOUS
10
4.7633746062992124
20
-2.5523843307086613
11
4.7630637795275588
21
-2.5527096456692915
0
LINE
8
BLACK
6
CONTINUOUS
10
4.7630637795275588
20
-2.5527096456692915
11
4.7630056692913385
21
-2.5528343307086612
0
LINE
8
BLACK
6
CONTINUOUS
10
4.7630056692913385
20
-2.5528343307086612
11
4.7568505511811026
21
-2.5589894881889763
0
LINE
8
BLACK
6
CONTINUOUS
10
4.7568505511811026
20
-2.5589894881889763
11
4.7561274409448817
21
-2.5594957480314959
0
LINE
8
BLACK
6
CONTINUOUS
10
4.7561274409448817
20
-2.5594957480314959
11
4.7560831496062992
21
-2.5595425984251969
0
LINE
8
BLACK
6
CONTINUOUS
10
4.7560831496062992
20
-2.5595425984251969
11
4.7499279921259845
21
-2.5626201574803149
0
LINE
8
BLACK
6
CONTINUOUS
10
4.7499279921259845
20
-2.5626201574803149
11
4.7489450393700787
21
-2.5629125196850393
0
LINE
8
BLACK
6
CONTINUOUS
10
4.7489450393700787
20
-2.5629125196850393
11
4.7469805511811023
21
-2.5624432283464564
0
LINE
8
BLACK
6
CONTINUOUS
10
4.7469805511811023
20
-2.5624432283464564
11
4.7457772440944881
21
-2.5608209448818897
0
LINE
8
BLACK
6
CONTINUOUS
10
4.7457772440944881
20
-2.5608209448818897
11
4.7458983070866143
21
-2.5588048031496062
0
LINE
8
BLACK
6
CONTINUOUS
10
4.7458983070866143
20
-2.5588048031496062
11
4.7472869685039365
21
-2.5573381102362203
0
LINE
8
BLACK
6
CONTINUOUS
10
4.7472869685039365
20
-2.5573381102362203
11
4.7530135039370078
21
-2.5544748031496063
0
LINE
8
BLACK
6
CONTINUOUS
10
4.7530135039370078
20
-2.5544748031496063
11
4.7586230314960627
21
-2.548865275590551
0
LINE
8
BLACK
6
CONTINUOUS
10
4.7586230314960627
20
-2.548865275590551
11
4.7646160629921255
21
-2.5398758661417324
0
LINE
8
BLACK
6
CONTINUOUS
10
4.7646160629921255
20
-2.5398758661417324
11
4.7653244488188973
21
-2.5391343307086616
0
LINE
8
BLACK
6
CONTINUOUS
10
4.7653244488188973
20
-2.5391343307086616
11
4.7654873622047242
21
-2.5390866535433072
0
LINE
8
BLACK
6
CONTINUOUS
10
4.7654873622047242
20
-2.5390866535433072
11
4.7655965354330707
21
-2.5389565748031497
0
LINE
8
BLACK
6
CONTINUOUS
10
4.7655965354330707
20
-2.5389565748031497
11
4.7664406299212594
21
-2.538807716535433
0
LINE
8
BLACK
6
CONTINUOUS
10
4.7664406299212594
20
-2.538807716535433
11
4.7672629527559058
21
-2.5385671259842519
0
LINE
8
BLACK
6
CONTINUOUS
10
4.7672629527559058
20
-2.5385671259842519
11
4.7674183858267716
21
-2.5386353149606298
0
LINE
8
BLACK
6
CONTINUOUS
10
6.9787401574803152
20
-2.5482874015748029
11
6.9805079133858268
21
-2.5490196456692913
0
LINE
8
BLACK
6
CONTINUOUS
10
6.9805079133858268
20
-2.5490196456692913
11
6.9812401574803147
21
-2.5507874015748029
0
LINE
8
BLACK
6
CONTINUOUS
10
6.9812401574803147
20
-2.5507874015748029
11
6.9812401574803147
21
-2.5647637795275591
0
LINE
8
BLACK
6
CONTINUOUS
10
6.9812401574803147
20
-2.5647637795275591
11
6.9805079133858268
21
-2.5665315354330707
0
LINE
8
BLACK
6
CONTINUOUS
10
6.9805079133858268
20
-2.5665315354330707
11
6.9787401574803152
21
-2.567263779527559
0
LINE
8
BLACK
6
CONTINUOUS
10
6.9787401574803152
20
-2.567263779527559
11
6.9769724015748027
21
-2.5665315354330707
0
LINE
8
BLACK
6
CONTINUOUS
10
6.9769724015748027
20
-2.5665315354330707
11
6.9762401574803148
21
-2.5647637795275591
0
LINE
8
BLACK
6
CONTINUOUS
10
6.9762401574803148
20
-2.5647637795275591
11
6.9762401574803148
21
-2.5532874015748033
0
LINE
8
BLACK
6
CONTINUOUS
10
6.9762401574803148
20
-2.5532874015748033
11
6.823759842519685
21
-2.5532874015748033
0
LINE
8
BLACK
6
CONTINUOUS
10
6.823759842519685
20
-2.5532874015748033
11
6.823759842519685
21
-2.5647637795275591
0
LINE
8
BLACK
6
CONTINUOUS
10
6.823759842519685
20
-2.5647637795275591
11
6.8230275984251971
21
-2.5665315354330707
0
LINE
8
BLACK
6
CONTINUOUS
10
6.8230275984251971
20
-2.5665315354330707
11
6.8212598425196846
21
-2.567263779527559
0
LINE
8
BLACK
6
CONTINUOUS
10
6.8212598425196846
20
-2.567263779527559
11
6.8194920866141731
21
-2.5665315354330707
0
LINE
8
BLACK
6
CONTINUOUS
10
6.8194920866141731
20
-2.5665315354330707
11
6.8187598425196851
21
-2.5647637795275591
0
LINE
8
BLACK
6
CONTINUOUS
10
6.8187598425196851
20
-2.5647637795275591
11
6.8187598425196851
21
-2.5507874015748029
0
LINE
8
BLACK
6
CONTINUOUS
10
6.8187598425196851
20
-2.5507874015748029
11
6.8194920866141731
21
-2.5490196456692913
0
LINE
8
BLACK
6
CONTINUOUS
10
6.8194920866141731
20
-2.5490196456692913
11
6.8212598425196846
21
-2.5482874015748029
0
LINE
8
BLACK
6
CONTINUOUS
10
6.8212598425196846
20
-2.5482874015748029
11
6.9787401574803152
21
-2.5482874015748029
0
LINE
8
BLACK
6
CONTINUOUS
10
3.9623002362204724
20
-2.4703769291338582
11
3.9629921259842518
21
-2.4720472440944881
0
LINE
8
BLACK
6
CONTINUOUS
10
3.9629921259842518
20
-2.4720472440944881
11
3.9623002362204724
21
-2.4737175590551179
0
LINE
8
BLACK
6
CONTINUOUS
10
3.9623002362204724
20
-2.4737175590551179
11
3.9606299212598426
21
-2.4744094488188977
0
LINE
8
BLACK
6
CONTINUOUS
10
3.9606299212598426
20
-2.4744094488188977
11
3.7834645669291338
21
-2.4744094488188977
0
LINE
8
BLACK
6
CONTINUOUS
10
3.7834645669291338
20
-2.4744094488188977
11
3.7817942519685039
21
-2.4737175590551179
0
LINE
8
BLACK
6
CONTINUOUS
10
3.7817942519685039
20
-2.4737175590551179
11
3.7811023622047242
21
-2.4720472440944881
0
LINE
8
BLACK
6
CONTINUOUS
10
3.7811023622047242
20
-2.4720472440944881
11
3.7817942519685039
21
-2.4703769291338582
0
LINE
8
BLACK
6
CONTINUOUS
10
3.7817942519685039
20
-2.4703769291338582
11
3.7834645669291338
21
-2.4696850393700789
0
LINE
8
BLACK
6
CONTINUOUS
10
3.7834645669291338
20
-2.4696850393700789
11
3.9606299212598426
21
-2.4696850393700789
0
LINE
8
BLACK
6
CONTINUOUS
10
3.9606299212598426
20
-2.4696850393700789
11
3.9623002362204724
21
-2.4703769291338582
  0
ENDSEC
  0
EOF
