  0
SECTION
  2
HEADER
  9
$ANGBASE
  50
0.0
  9
$ANGDIR
  70
1
  9
$MEASUREMENT
  70
0
  0
ENDSEC
  0
SECTION
  2
TABLES
  0
TABLE
  2
LTYPE
  70
4
  0
LTYPE
  5
40F
  2
CONTINUOUS
  70
0
  3
Solid line
  72
65
  73
0
  40
0.0
  0
LTYPE
  5
410
  2
DASHDOT
 70
0
  3
Dash Dot ____ _ ____ _
 72
65
 73
4
 40
2.0
 49
1.25
 49
-0.25
 49
0.25
 49
-0.25
  0
LTYPE
  5
411
  2
DASHED
 70
0
  3
Dashed __ __ __ __ __
 72
65
 73
2
 40
0.75
 49
0.5
 49
-0.25
  0
LTYPE
  5
43B
  2
DOTTED
 70
0
  3
Dotted .  .  .  .
 72
65
 73
2
 40
0.2
 49
0.0
 49
-0.2
  0
ENDTAB
  0
TABLE
  2
STYLE
  70
4
  0
STYLE
  2
KICAD
  70
0
  40
0
  41
1
  42
1
  50
0
  71
0
  3
isocp.shx
  0
STYLE
  2
KICADB
  70
0
  40
0
  41
1
  42
1
  50
0
  71
0
  3
isocp.shx
  0
STYLE
  2
KICADI
  70
0
  40
0
  41
1
  42
1
  50
15
  71
0
  3
isocp.shx
  0
STYLE
  2
KICADBI
  70
0
  40
0
  41
1
  42
1
  50
15
  71
0
  3
isocp.shx
  0
ENDTAB
  0
TABLE
  2
LAYER
  70
1
  0
LAYER
  2
BLACK
  70
0
  62
7
  6
CONTINUOUS
  0
ENDTAB
  0
ENDSEC
  0
SECTION
  2
ENTITIES
0
LINE
8
BLACK
6
CONTINUOUS
10
4.5588990157480316
20
-3.4746805905511811
11
4.5651342125984247
21
-3.4768623622047241
0
LINE
8
BLACK
6
CONTINUOUS
10
4.5651342125984247
20
-3.4768623622047241
11
4.5707275984251972
21
-3.480376929133858
0
LINE
8
BLACK
6
CONTINUOUS
10
4.5707275984251972
20
-3.480376929133858
11
4.5753986614173225
21
-3.4850479921259843
0
LINE
8
BLACK
6
CONTINUOUS
10
4.5753986614173225
20
-3.4850479921259843
11
4.5789132283464564
21
-3.4906413779527559
0
LINE
8
BLACK
6
CONTINUOUS
10
4.5789132283464564
20
-3.4906413779527559
11
4.5810949999999995
21
-3.4968765748031494
0
LINE
8
BLACK
6
CONTINUOUS
10
4.5810949999999995
20
-3.4968765748031494
11
4.5818346456692911
21
-3.5034409448818895
0
LINE
8
BLACK
6
CONTINUOUS
10
4.5818346456692911
20
-3.5034409448818895
11
4.5810949999999995
21
-3.5100053149606301
0
LINE
8
BLACK
6
CONTINUOUS
10
4.5810949999999995
20
-3.5100053149606301
11
4.5789132283464564
21
-3.5162405118110236
0
LINE
8
BLACK
6
CONTINUOUS
10
4.5789132283464564
20
-3.5162405118110236
11
4.5753986614173225
21
-3.5218338976377952
0
LINE
8
BLACK
6
CONTINUOUS
10
4.5753986614173225
20
-3.5218338976377952
11
4.5707275984251972
21
-3.526504960629921
0
LINE
8
BLACK
6
CONTINUOUS
10
4.5707275984251972
20
-3.526504960629921
11
4.5651342125984247
21
-3.5300195275590549
0
LINE
8
BLACK
6
CONTINUOUS
10
4.5651342125984247
20
-3.5300195275590549
11
4.5588990157480316
21
-3.5322012992125984
0
LINE
8
BLACK
6
CONTINUOUS
10
4.5588990157480316
20
-3.5322012992125984
11
4.5523346456692915
21
-3.5329409448818896
0
LINE
8
BLACK
6
CONTINUOUS
10
4.5523346456692915
20
-3.5329409448818896
11
4.5457702755905514
21
-3.5322012992125984
0
LINE
8
BLACK
6
CONTINUOUS
10
4.5457702755905514
20
-3.5322012992125984
11
4.5395350787401574
21
-3.5300195275590549
0
LINE
8
BLACK
6
CONTINUOUS
10
4.5395350787401574
20
-3.5300195275590549
11
4.5339416929133858
21
-3.526504960629921
0
LINE
8
BLACK
6
CONTINUOUS
10
4.5339416929133858
20
-3.526504960629921
11
4.5292706299212595
21
-3.5218338976377952
0
LINE
8
BLACK
6
CONTINUOUS
10
4.5292706299212595
20
-3.5218338976377952
11
4.5257560629921256
21
-3.5162405118110236
0
LINE
8
BLACK
6
CONTINUOUS
10
4.5257560629921256
20
-3.5162405118110236
11
4.5235742913385826
21
-3.5100053149606301
0
LINE
8
BLACK
6
CONTINUOUS
10
4.5235742913385826
20
-3.5100053149606301
11
4.5228346456692909
21
-3.5034409448818895
0
LINE
8
BLACK
6
CONTINUOUS
10
4.5228346456692909
20
-3.5034409448818895
11
4.5235742913385826
21
-3.4968765748031494
0
LINE
8
BLACK
6
CONTINUOUS
10
4.5235742913385826
20
-3.4968765748031494
11
4.5257560629921256
21
-3.4906413779527559
0
LINE
8
BLACK
6
CONTINUOUS
10
4.5257560629921256
20
-3.4906413779527559
11
4.5292706299212595
21
-3.4850479921259843
0
LINE
8
BLACK
6
CONTINUOUS
10
4.5292706299212595
20
-3.4850479921259843
11
4.5339416929133858
21
-3.480376929133858
0
LINE
8
BLACK
6
CONTINUOUS
10
4.5339416929133858
20
-3.480376929133858
11
4.5395350787401574
21
-3.4768623622047241
0
LINE
8
BLACK
6
CONTINUOUS
10
4.5395350787401574
20
-3.4768623622047241
11
4.5457702755905514
21
-3.4746805905511811
0
LINE
8
BLACK
6
CONTINUOUS
10
4.5457702755905514
20
-3.4746805905511811
11
4.5523346456692915
21
-3.4739409448818899
0
LINE
8
BLACK
6
CONTINUOUS
10
4.5523346456692915
20
-3.4739409448818899
11
4.5588990157480316
21
-3.4746805905511811
0
LINE
8
BLACK
6
CONTINUOUS
10
4.8588990157480314
20
-3.4746805905511811
11
4.8651342125984254
21
-3.4768623622047241
0
LINE
8
BLACK
6
CONTINUOUS
10
4.8651342125984254
20
-3.4768623622047241
11
4.870727598425197
21
-3.480376929133858
0
LINE
8
BLACK
6
CONTINUOUS
10
4.870727598425197
20
-3.480376929133858
11
4.8753986614173224
21
-3.4850479921259843
0
LINE
8
BLACK
6
CONTINUOUS
10
4.8753986614173224
20
-3.4850479921259843
11
4.8789132283464562
21
-3.4906413779527559
0
LINE
8
BLACK
6
CONTINUOUS
10
4.8789132283464562
20
-3.4906413779527559
11
4.8810950000000002
21
-3.4968765748031494
0
LINE
8
BLACK
6
CONTINUOUS
10
4.8810950000000002
20
-3.4968765748031494
11
4.8818346456692909
21
-3.5034409448818895
0
LINE
8
BLACK
6
CONTINUOUS
10
4.8818346456692909
20
-3.5034409448818895
11
4.8810950000000002
21
-3.5100053149606301
0
LINE
8
BLACK
6
CONTINUOUS
10
4.8810950000000002
20
-3.5100053149606301
11
4.8789132283464562
21
-3.5162405118110236
0
LINE
8
BLACK
6
CONTINUOUS
10
4.8789132283464562
20
-3.5162405118110236
11
4.8753986614173224
21
-3.5218338976377952
0
LINE
8
BLACK
6
CONTINUOUS
10
4.8753986614173224
20
-3.5218338976377952
11
4.870727598425197
21
-3.526504960629921
0
LINE
8
BLACK
6
CONTINUOUS
10
4.870727598425197
20
-3.526504960629921
11
4.8651342125984254
21
-3.5300195275590549
0
LINE
8
BLACK
6
CONTINUOUS
10
4.8651342125984254
20
-3.5300195275590549
11
4.8588990157480314
21
-3.5322012992125984
0
LINE
8
BLACK
6
CONTINUOUS
10
4.8588990157480314
20
-3.5322012992125984
11
4.8523346456692913
21
-3.5329409448818896
0
LINE
8
BLACK
6
CONTINUOUS
10
4.8523346456692913
20
-3.5329409448818896
11
4.8457702755905512
21
-3.5322012992125984
0
LINE
8
BLACK
6
CONTINUOUS
10
4.8457702755905512
20
-3.5322012992125984
11
4.8395350787401572
21
-3.5300195275590549
0
LINE
8
BLACK
6
CONTINUOUS
10
4.8395350787401572
20
-3.5300195275590549
11
4.8339416929133856
21
-3.526504960629921
0
LINE
8
BLACK
6
CONTINUOUS
10
4.8339416929133856
20
-3.526504960629921
11
4.8292706299212593
21
-3.5218338976377952
0
LINE
8
BLACK
6
CONTINUOUS
10
4.8292706299212593
20
-3.5218338976377952
11
4.8257560629921255
21
-3.5162405118110236
0
LINE
8
BLACK
6
CONTINUOUS
10
4.8257560629921255
20
-3.5162405118110236
11
4.8235742913385824
21
-3.5100053149606301
0
LINE
8
BLACK
6
CONTINUOUS
10
4.8235742913385824
20
-3.5100053149606301
11
4.8228346456692917
21
-3.5034409448818895
0
LINE
8
BLACK
6
CONTINUOUS
10
4.8228346456692917
20
-3.5034409448818895
11
4.8235742913385824
21
-3.4968765748031494
0
LINE
8
BLACK
6
CONTINUOUS
10
4.8235742913385824
20
-3.4968765748031494
11
4.8257560629921255
21
-3.4906413779527559
0
LINE
8
BLACK
6
CONTINUOUS
10
4.8257560629921255
20
-3.4906413779527559
11
4.8292706299212593
21
-3.4850479921259843
0
LINE
8
BLACK
6
CONTINUOUS
10
4.8292706299212593
20
-3.4850479921259843
11
4.8339416929133856
21
-3.480376929133858
0
LINE
8
BLACK
6
CONTINUOUS
10
4.8339416929133856
20
-3.480376929133858
11
4.8395350787401572
21
-3.4768623622047241
0
LINE
8
BLACK
6
CONTINUOUS
10
4.8395350787401572
20
-3.4768623622047241
11
4.8457702755905512
21
-3.4746805905511811
0
LINE
8
BLACK
6
CONTINUOUS
10
4.8457702755905512
20
-3.4746805905511811
11
4.8523346456692913
21
-3.4739409448818899
0
LINE
8
BLACK
6
CONTINUOUS
10
4.8523346456692913
20
-3.4739409448818899
11
4.8588990157480314
21
-3.4746805905511811
0
LINE
8
BLACK
6
CONTINUOUS
10
4.5588990157480316
20
-3.374680590551181
11
4.5651342125984247
21
-3.3768623622047245
0
LINE
8
BLACK
6
CONTINUOUS
10
4.5651342125984247
20
-3.3768623622047245
11
4.5707275984251972
21
-3.3803769291338583
0
LINE
8
BLACK
6
CONTINUOUS
10
4.5707275984251972
20
-3.3803769291338583
11
4.5753986614173225
21
-3.3850479921259842
0
LINE
8
BLACK
6
CONTINUOUS
10
4.5753986614173225
20
-3.3850479921259842
11
4.5789132283464564
21
-3.3906413779527558
0
LINE
8
BLACK
6
CONTINUOUS
10
4.5789132283464564
20
-3.3906413779527558
11
4.5810949999999995
21
-3.3968765748031498
0
LINE
8
BLACK
6
CONTINUOUS
10
4.5810949999999995
20
-3.3968765748031498
11
4.5818346456692911
21
-3.4034409448818899
0
LINE
8
BLACK
6
CONTINUOUS
10
4.5818346456692911
20
-3.4034409448818899
11
4.5810949999999995
21
-3.41000531496063
0
LINE
8
BLACK
6
CONTINUOUS
10
4.5810949999999995
20
-3.41000531496063
11
4.5789132283464564
21
-3.4162405118110235
0
LINE
8
BLACK
6
CONTINUOUS
10
4.5789132283464564
20
-3.4162405118110235
11
4.5753986614173225
21
-3.4218338976377951
0
LINE
8
BLACK
6
CONTINUOUS
10
4.5753986614173225
20
-3.4218338976377951
11
4.5707275984251972
21
-3.4265049606299214
0
LINE
8
BLACK
6
CONTINUOUS
10
4.5707275984251972
20
-3.4265049606299214
11
4.5651342125984247
21
-3.4300195275590553
0
LINE
8
BLACK
6
CONTINUOUS
10
4.5651342125984247
20
-3.4300195275590553
11
4.5588990157480316
21
-3.4322012992125983
0
LINE
8
BLACK
6
CONTINUOUS
10
4.5588990157480316
20
-3.4322012992125983
11
4.5523346456692915
21
-3.4329409448818895
0
LINE
8
BLACK
6
CONTINUOUS
10
4.5523346456692915
20
-3.4329409448818895
11
4.5457702755905514
21
-3.4322012992125983
0
LINE
8
BLACK
6
CONTINUOUS
10
4.5457702755905514
20
-3.4322012992125983
11
4.5395350787401574
21
-3.4300195275590553
0
LINE
8
BLACK
6
CONTINUOUS
10
4.5395350787401574
20
-3.4300195275590553
11
4.5339416929133858
21
-3.4265049606299214
0
LINE
8
BLACK
6
CONTINUOUS
10
4.5339416929133858
20
-3.4265049606299214
11
4.5292706299212595
21
-3.4218338976377951
0
LINE
8
BLACK
6
CONTINUOUS
10
4.5292706299212595
20
-3.4218338976377951
11
4.5257560629921256
21
-3.4162405118110235
0
LINE
8
BLACK
6
CONTINUOUS
10
4.5257560629921256
20
-3.4162405118110235
11
4.5235742913385826
21
-3.41000531496063
0
LINE
8
BLACK
6
CONTINUOUS
10
4.5235742913385826
20
-3.41000531496063
11
4.5228346456692909
21
-3.4034409448818899
0
LINE
8
BLACK
6
CONTINUOUS
10
4.5228346456692909
20
-3.4034409448818899
11
4.5235742913385826
21
-3.3968765748031498
0
LINE
8
BLACK
6
CONTINUOUS
10
4.5235742913385826
20
-3.3968765748031498
11
4.5257560629921256
21
-3.3906413779527558
0
LINE
8
BLACK
6
CONTINUOUS
10
4.5257560629921256
20
-3.3906413779527558
11
4.5292706299212595
21
-3.3850479921259842
0
LINE
8
BLACK
6
CONTINUOUS
10
4.5292706299212595
20
-3.3850479921259842
11
4.5339416929133858
21
-3.3803769291338583
0
LINE
8
BLACK
6
CONTINUOUS
10
4.5339416929133858
20
-3.3803769291338583
11
4.5395350787401574
21
-3.3768623622047245
0
LINE
8
BLACK
6
CONTINUOUS
10
4.5395350787401574
20
-3.3768623622047245
11
4.5457702755905514
21
-3.374680590551181
0
LINE
8
BLACK
6
CONTINUOUS
10
4.5457702755905514
20
-3.374680590551181
11
4.5523346456692915
21
-3.3739409448818898
0
LINE
8
BLACK
6
CONTINUOUS
10
4.5523346456692915
20
-3.3739409448818898
11
4.5588990157480316
21
-3.374680590551181
0
LINE
8
BLACK
6
CONTINUOUS
10
4.8588990157480314
20
-3.374680590551181
11
4.8651342125984254
21
-3.3768623622047245
0
LINE
8
BLACK
6
CONTINUOUS
10
4.8651342125984254
20
-3.3768623622047245
11
4.870727598425197
21
-3.3803769291338583
0
LINE
8
BLACK
6
CONTINUOUS
10
4.870727598425197
20
-3.3803769291338583
11
4.8753986614173224
21
-3.3850479921259842
0
LINE
8
BLACK
6
CONTINUOUS
10
4.8753986614173224
20
-3.3850479921259842
11
4.8789132283464562
21
-3.3906413779527558
0
LINE
8
BLACK
6
CONTINUOUS
10
4.8789132283464562
20
-3.3906413779527558
11
4.8810950000000002
21
-3.3968765748031498
0
LINE
8
BLACK
6
CONTINUOUS
10
4.8810950000000002
20
-3.3968765748031498
11
4.8818346456692909
21
-3.4034409448818899
0
LINE
8
BLACK
6
CONTINUOUS
10
4.8818346456692909
20
-3.4034409448818899
11
4.8810950000000002
21
-3.41000531496063
0
LINE
8
BLACK
6
CONTINUOUS
10
4.8810950000000002
20
-3.41000531496063
11
4.8789132283464562
21
-3.4162405118110235
0
LINE
8
BLACK
6
CONTINUOUS
10
4.8789132283464562
20
-3.4162405118110235
11
4.8753986614173224
21
-3.4218338976377951
0
LINE
8
BLACK
6
CONTINUOUS
10
4.8753986614173224
20
-3.4218338976377951
11
4.870727598425197
21
-3.4265049606299214
0
LINE
8
BLACK
6
CONTINUOUS
10
4.870727598425197
20
-3.4265049606299214
11
4.8651342125984254
21
-3.4300195275590553
0
LINE
8
BLACK
6
CONTINUOUS
10
4.8651342125984254
20
-3.4300195275590553
11
4.8588990157480314
21
-3.4322012992125983
0
LINE
8
BLACK
6
CONTINUOUS
10
4.8588990157480314
20
-3.4322012992125983
11
4.8523346456692913
21
-3.4329409448818895
0
LINE
8
BLACK
6
CONTINUOUS
10
4.8523346456692913
20
-3.4329409448818895
11
4.8457702755905512
21
-3.4322012992125983
0
LINE
8
BLACK
6
CONTINUOUS
10
4.8457702755905512
20
-3.4322012992125983
11
4.8395350787401572
21
-3.4300195275590553
0
LINE
8
BLACK
6
CONTINUOUS
10
4.8395350787401572
20
-3.4300195275590553
11
4.8339416929133856
21
-3.4265049606299214
0
LINE
8
BLACK
6
CONTINUOUS
10
4.8339416929133856
20
-3.4265049606299214
11
4.8292706299212593
21
-3.4218338976377951
0
LINE
8
BLACK
6
CONTINUOUS
10
4.8292706299212593
20
-3.4218338976377951
11
4.8257560629921255
21
-3.4162405118110235
0
LINE
8
BLACK
6
CONTINUOUS
10
4.8257560629921255
20
-3.4162405118110235
11
4.8235742913385824
21
-3.41000531496063
0
LINE
8
BLACK
6
CONTINUOUS
10
4.8235742913385824
20
-3.41000531496063
11
4.8228346456692917
21
-3.4034409448818899
0
LINE
8
BLACK
6
CONTINUOUS
10
4.8228346456692917
20
-3.4034409448818899
11
4.8235742913385824
21
-3.3968765748031498
0
LINE
8
BLACK
6
CONTINUOUS
10
4.8235742913385824
20
-3.3968765748031498
11
4.8257560629921255
21
-3.3906413779527558
0
LINE
8
BLACK
6
CONTINUOUS
10
4.8257560629921255
20
-3.3906413779527558
11
4.8292706299212593
21
-3.3850479921259842
0
LINE
8
BLACK
6
CONTINUOUS
10
4.8292706299212593
20
-3.3850479921259842
11
4.8339416929133856
21
-3.3803769291338583
0
LINE
8
BLACK
6
CONTINUOUS
10
4.8339416929133856
20
-3.3803769291338583
11
4.8395350787401572
21
-3.3768623622047245
0
LINE
8
BLACK
6
CONTINUOUS
10
4.8395350787401572
20
-3.3768623622047245
11
4.8457702755905512
21
-3.374680590551181
0
LINE
8
BLACK
6
CONTINUOUS
10
4.8457702755905512
20
-3.374680590551181
11
4.8523346456692913
21
-3.3739409448818898
0
LINE
8
BLACK
6
CONTINUOUS
10
4.8523346456692913
20
-3.3739409448818898
11
4.8588990157480314
21
-3.374680590551181
0
LINE
8
BLACK
6
CONTINUOUS
10
4.5588990157480316
20
-3.2746805905511809
11
4.5651342125984247
21
-3.2768623622047244
0
LINE
8
BLACK
6
CONTINUOUS
10
4.5651342125984247
20
-3.2768623622047244
11
4.5707275984251972
21
-3.2803769291338583
0
LINE
8
BLACK
6
CONTINUOUS
10
4.5707275984251972
20
-3.2803769291338583
11
4.5753986614173225
21
-3.2850479921259841
0
LINE
8
BLACK
6
CONTINUOUS
10
4.5753986614173225
20
-3.2850479921259841
11
4.5789132283464564
21
-3.2906413779527557
0
LINE
8
BLACK
6
CONTINUOUS
10
4.5789132283464564
20
-3.2906413779527557
11
4.5810949999999995
21
-3.2968765748031497
0
LINE
8
BLACK
6
CONTINUOUS
10
4.5810949999999995
20
-3.2968765748031497
11
4.5818346456692911
21
-3.3034409448818898
0
LINE
8
BLACK
6
CONTINUOUS
10
4.5818346456692911
20
-3.3034409448818898
11
4.5810949999999995
21
-3.3100053149606299
0
LINE
8
BLACK
6
CONTINUOUS
10
4.5810949999999995
20
-3.3100053149606299
11
4.5789132283464564
21
-3.3162405118110234
0
LINE
8
BLACK
6
CONTINUOUS
10
4.5789132283464564
20
-3.3162405118110234
11
4.5753986614173225
21
-3.321833897637795
0
LINE
8
BLACK
6
CONTINUOUS
10
4.5753986614173225
20
-3.321833897637795
11
4.5707275984251972
21
-3.3265049606299213
0
LINE
8
BLACK
6
CONTINUOUS
10
4.5707275984251972
20
-3.3265049606299213
11
4.5651342125984247
21
-3.3300195275590552
0
LINE
8
BLACK
6
CONTINUOUS
10
4.5651342125984247
20
-3.3300195275590552
11
4.5588990157480316
21
-3.3322012992125982
0
LINE
8
BLACK
6
CONTINUOUS
10
4.5588990157480316
20
-3.3322012992125982
11
4.5523346456692915
21
-3.3329409448818899
0
LINE
8
BLACK
6
CONTINUOUS
10
4.5523346456692915
20
-3.3329409448818899
11
4.5457702755905514
21
-3.3322012992125982
0
LINE
8
BLACK
6
CONTINUOUS
10
4.5457702755905514
20
-3.3322012992125982
11
4.5395350787401574
21
-3.3300195275590552
0
LINE
8
BLACK
6
CONTINUOUS
10
4.5395350787401574
20
-3.3300195275590552
11
4.5339416929133858
21
-3.3265049606299213
0
LINE
8
BLACK
6
CONTINUOUS
10
4.5339416929133858
20
-3.3265049606299213
11
4.5292706299212595
21
-3.321833897637795
0
LINE
8
BLACK
6
CONTINUOUS
10
4.5292706299212595
20
-3.321833897637795
11
4.5257560629921256
21
-3.3162405118110234
0
LINE
8
BLACK
6
CONTINUOUS
10
4.5257560629921256
20
-3.3162405118110234
11
4.5235742913385826
21
-3.3100053149606299
0
LINE
8
BLACK
6
CONTINUOUS
10
4.5235742913385826
20
-3.3100053149606299
11
4.5228346456692909
21
-3.3034409448818898
0
LINE
8
BLACK
6
CONTINUOUS
10
4.5228346456692909
20
-3.3034409448818898
11
4.5235742913385826
21
-3.2968765748031497
0
LINE
8
BLACK
6
CONTINUOUS
10
4.5235742913385826
20
-3.2968765748031497
11
4.5257560629921256
21
-3.2906413779527557
0
LINE
8
BLACK
6
CONTINUOUS
10
4.5257560629921256
20
-3.2906413779527557
11
4.5292706299212595
21
-3.2850479921259841
0
LINE
8
BLACK
6
CONTINUOUS
10
4.5292706299212595
20
-3.2850479921259841
11
4.5339416929133858
21
-3.2803769291338583
0
LINE
8
BLACK
6
CONTINUOUS
10
4.5339416929133858
20
-3.2803769291338583
11
4.5395350787401574
21
-3.2768623622047244
0
LINE
8
BLACK
6
CONTINUOUS
10
4.5395350787401574
20
-3.2768623622047244
11
4.5457702755905514
21
-3.2746805905511809
0
LINE
8
BLACK
6
CONTINUOUS
10
4.5457702755905514
20
-3.2746805905511809
11
4.5523346456692915
21
-3.2739409448818897
0
LINE
8
BLACK
6
CONTINUOUS
10
4.5523346456692915
20
-3.2739409448818897
11
4.5588990157480316
21
-3.2746805905511809
0
LINE
8
BLACK
6
CONTINUOUS
10
4.8588990157480314
20
-3.2746805905511809
11
4.8651342125984254
21
-3.2768623622047244
0
LINE
8
BLACK
6
CONTINUOUS
10
4.8651342125984254
20
-3.2768623622047244
11
4.870727598425197
21
-3.2803769291338583
0
LINE
8
BLACK
6
CONTINUOUS
10
4.870727598425197
20
-3.2803769291338583
11
4.8753986614173224
21
-3.2850479921259841
0
LINE
8
BLACK
6
CONTINUOUS
10
4.8753986614173224
20
-3.2850479921259841
11
4.8789132283464562
21
-3.2906413779527557
0
LINE
8
BLACK
6
CONTINUOUS
10
4.8789132283464562
20
-3.2906413779527557
11
4.8810950000000002
21
-3.2968765748031497
0
LINE
8
BLACK
6
CONTINUOUS
10
4.8810950000000002
20
-3.2968765748031497
11
4.8818346456692909
21
-3.3034409448818898
0
LINE
8
BLACK
6
CONTINUOUS
10
4.8818346456692909
20
-3.3034409448818898
11
4.8810950000000002
21
-3.3100053149606299
0
LINE
8
BLACK
6
CONTINUOUS
10
4.8810950000000002
20
-3.3100053149606299
11
4.8789132283464562
21
-3.3162405118110234
0
LINE
8
BLACK
6
CONTINUOUS
10
4.8789132283464562
20
-3.3162405118110234
11
4.8753986614173224
21
-3.321833897637795
0
LINE
8
BLACK
6
CONTINUOUS
10
4.8753986614173224
20
-3.321833897637795
11
4.870727598425197
21
-3.3265049606299213
0
LINE
8
BLACK
6
CONTINUOUS
10
4.870727598425197
20
-3.3265049606299213
11
4.8651342125984254
21
-3.3300195275590552
0
LINE
8
BLACK
6
CONTINUOUS
10
4.8651342125984254
20
-3.3300195275590552
11
4.8588990157480314
21
-3.3322012992125982
0
LINE
8
BLACK
6
CONTINUOUS
10
4.8588990157480314
20
-3.3322012992125982
11
4.8523346456692913
21
-3.3329409448818899
0
LINE
8
BLACK
6
CONTINUOUS
10
4.8523346456692913
20
-3.3329409448818899
11
4.8457702755905512
21
-3.3322012992125982
0
LINE
8
BLACK
6
CONTINUOUS
10
4.8457702755905512
20
-3.3322012992125982
11
4.8395350787401572
21
-3.3300195275590552
0
LINE
8
BLACK
6
CONTINUOUS
10
4.8395350787401572
20
-3.3300195275590552
11
4.8339416929133856
21
-3.3265049606299213
0
LINE
8
BLACK
6
CONTINUOUS
10
4.8339416929133856
20
-3.3265049606299213
11
4.8292706299212593
21
-3.321833897637795
0
LINE
8
BLACK
6
CONTINUOUS
10
4.8292706299212593
20
-3.321833897637795
11
4.8257560629921255
21
-3.3162405118110234
0
LINE
8
BLACK
6
CONTINUOUS
10
4.8257560629921255
20
-3.3162405118110234
11
4.8235742913385824
21
-3.3100053149606299
0
LINE
8
BLACK
6
CONTINUOUS
10
4.8235742913385824
20
-3.3100053149606299
11
4.8228346456692917
21
-3.3034409448818898
0
LINE
8
BLACK
6
CONTINUOUS
10
4.8228346456692917
20
-3.3034409448818898
11
4.8235742913385824
21
-3.2968765748031497
0
LINE
8
BLACK
6
CONTINUOUS
10
4.8235742913385824
20
-3.2968765748031497
11
4.8257560629921255
21
-3.2906413779527557
0
LINE
8
BLACK
6
CONTINUOUS
10
4.8257560629921255
20
-3.2906413779527557
11
4.8292706299212593
21
-3.2850479921259841
0
LINE
8
BLACK
6
CONTINUOUS
10
4.8292706299212593
20
-3.2850479921259841
11
4.8339416929133856
21
-3.2803769291338583
0
LINE
8
BLACK
6
CONTINUOUS
10
4.8339416929133856
20
-3.2803769291338583
11
4.8395350787401572
21
-3.2768623622047244
0
LINE
8
BLACK
6
CONTINUOUS
10
4.8395350787401572
20
-3.2768623622047244
11
4.8457702755905512
21
-3.2746805905511809
0
LINE
8
BLACK
6
CONTINUOUS
10
4.8457702755905512
20
-3.2746805905511809
11
4.8523346456692913
21
-3.2739409448818897
0
LINE
8
BLACK
6
CONTINUOUS
10
4.8523346456692913
20
-3.2739409448818897
11
4.8588990157480314
21
-3.2746805905511809
0
LINE
8
BLACK
6
CONTINUOUS
10
4.5588990157480316
20
-3.1746805905511812
11
4.5651342125984247
21
-3.1768623622047243
0
LINE
8
BLACK
6
CONTINUOUS
10
4.5651342125984247
20
-3.1768623622047243
11
4.5707275984251972
21
-3.1803769291338582
0
LINE
8
BLACK
6
CONTINUOUS
10
4.5707275984251972
20
-3.1803769291338582
11
4.5753986614173225
21
-3.185047992125984
0
LINE
8
BLACK
6
CONTINUOUS
10
4.5753986614173225
20
-3.185047992125984
11
4.5789132283464564
21
-3.190641377952756
0
LINE
8
BLACK
6
CONTINUOUS
10
4.5789132283464564
20
-3.190641377952756
11
4.5810949999999995
21
-3.1968765748031496
0
LINE
8
BLACK
6
CONTINUOUS
10
4.5810949999999995
20
-3.1968765748031496
11
4.5818346456692911
21
-3.2034409448818897
0
LINE
8
BLACK
6
CONTINUOUS
10
4.5818346456692911
20
-3.2034409448818897
11
4.5810949999999995
21
-3.2100053149606298
0
LINE
8
BLACK
6
CONTINUOUS
10
4.5810949999999995
20
-3.2100053149606298
11
4.5789132283464564
21
-3.2162405118110233
0
LINE
8
BLACK
6
CONTINUOUS
10
4.5789132283464564
20
-3.2162405118110233
11
4.5753986614173225
21
-3.2218338976377954
0
LINE
8
BLACK
6
CONTINUOUS
10
4.5753986614173225
20
-3.2218338976377954
11
4.5707275984251972
21
-3.2265049606299212
0
LINE
8
BLACK
6
CONTINUOUS
10
4.5707275984251972
20
-3.2265049606299212
11
4.5651342125984247
21
-3.2300195275590551
0
LINE
8
BLACK
6
CONTINUOUS
10
4.5651342125984247
20
-3.2300195275590551
11
4.5588990157480316
21
-3.2322012992125981
0
LINE
8
BLACK
6
CONTINUOUS
10
4.5588990157480316
20
-3.2322012992125981
11
4.5523346456692915
21
-3.2329409448818898
0
LINE
8
BLACK
6
CONTINUOUS
10
4.5523346456692915
20
-3.2329409448818898
11
4.5457702755905514
21
-3.2322012992125981
0
LINE
8
BLACK
6
CONTINUOUS
10
4.5457702755905514
20
-3.2322012992125981
11
4.5395350787401574
21
-3.2300195275590551
0
LINE
8
BLACK
6
CONTINUOUS
10
4.5395350787401574
20
-3.2300195275590551
11
4.5339416929133858
21
-3.2265049606299212
0
LINE
8
BLACK
6
CONTINUOUS
10
4.5339416929133858
20
-3.2265049606299212
11
4.5292706299212595
21
-3.2218338976377954
0
LINE
8
BLACK
6
CONTINUOUS
10
4.5292706299212595
20
-3.2218338976377954
11
4.5257560629921256
21
-3.2162405118110233
0
LINE
8
BLACK
6
CONTINUOUS
10
4.5257560629921256
20
-3.2162405118110233
11
4.5235742913385826
21
-3.2100053149606298
0
LINE
8
BLACK
6
CONTINUOUS
10
4.5235742913385826
20
-3.2100053149606298
11
4.5228346456692909
21
-3.2034409448818897
0
LINE
8
BLACK
6
CONTINUOUS
10
4.5228346456692909
20
-3.2034409448818897
11
4.5235742913385826
21
-3.1968765748031496
0
LINE
8
BLACK
6
CONTINUOUS
10
4.5235742913385826
20
-3.1968765748031496
11
4.5257560629921256
21
-3.190641377952756
0
LINE
8
BLACK
6
CONTINUOUS
10
4.5257560629921256
20
-3.190641377952756
11
4.5292706299212595
21
-3.185047992125984
0
LINE
8
BLACK
6
CONTINUOUS
10
4.5292706299212595
20
-3.185047992125984
11
4.5339416929133858
21
-3.1803769291338582
0
LINE
8
BLACK
6
CONTINUOUS
10
4.5339416929133858
20
-3.1803769291338582
11
4.5395350787401574
21
-3.1768623622047243
0
LINE
8
BLACK
6
CONTINUOUS
10
4.5395350787401574
20
-3.1768623622047243
11
4.5457702755905514
21
-3.1746805905511812
0
LINE
8
BLACK
6
CONTINUOUS
10
4.5457702755905514
20
-3.1746805905511812
11
4.5523346456692915
21
-3.1739409448818896
0
LINE
8
BLACK
6
CONTINUOUS
10
4.5523346456692915
20
-3.1739409448818896
11
4.5588990157480316
21
-3.1746805905511812
0
LINE
8
BLACK
6
CONTINUOUS
10
4.8588990157480314
20
-3.1746805905511812
11
4.8651342125984254
21
-3.1768623622047243
0
LINE
8
BLACK
6
CONTINUOUS
10
4.8651342125984254
20
-3.1768623622047243
11
4.870727598425197
21
-3.1803769291338582
0
LINE
8
BLACK
6
CONTINUOUS
10
4.870727598425197
20
-3.1803769291338582
11
4.8753986614173224
21
-3.185047992125984
0
LINE
8
BLACK
6
CONTINUOUS
10
4.8753986614173224
20
-3.185047992125984
11
4.8789132283464562
21
-3.190641377952756
0
LINE
8
BLACK
6
CONTINUOUS
10
4.8789132283464562
20
-3.190641377952756
11
4.8810950000000002
21
-3.1968765748031496
0
LINE
8
BLACK
6
CONTINUOUS
10
4.8810950000000002
20
-3.1968765748031496
11
4.8818346456692909
21
-3.2034409448818897
0
LINE
8
BLACK
6
CONTINUOUS
10
4.8818346456692909
20
-3.2034409448818897
11
4.8810950000000002
21
-3.2100053149606298
0
LINE
8
BLACK
6
CONTINUOUS
10
4.8810950000000002
20
-3.2100053149606298
11
4.8789132283464562
21
-3.2162405118110233
0
LINE
8
BLACK
6
CONTINUOUS
10
4.8789132283464562
20
-3.2162405118110233
11
4.8753986614173224
21
-3.2218338976377954
0
LINE
8
BLACK
6
CONTINUOUS
10
4.8753986614173224
20
-3.2218338976377954
11
4.870727598425197
21
-3.2265049606299212
0
LINE
8
BLACK
6
CONTINUOUS
10
4.870727598425197
20
-3.2265049606299212
11
4.8651342125984254
21
-3.2300195275590551
0
LINE
8
BLACK
6
CONTINUOUS
10
4.8651342125984254
20
-3.2300195275590551
11
4.8588990157480314
21
-3.2322012992125981
0
LINE
8
BLACK
6
CONTINUOUS
10
4.8588990157480314
20
-3.2322012992125981
11
4.8523346456692913
21
-3.2329409448818898
0
LINE
8
BLACK
6
CONTINUOUS
10
4.8523346456692913
20
-3.2329409448818898
11
4.8457702755905512
21
-3.2322012992125981
0
LINE
8
BLACK
6
CONTINUOUS
10
4.8457702755905512
20
-3.2322012992125981
11
4.8395350787401572
21
-3.2300195275590551
0
LINE
8
BLACK
6
CONTINUOUS
10
4.8395350787401572
20
-3.2300195275590551
11
4.8339416929133856
21
-3.2265049606299212
0
LINE
8
BLACK
6
CONTINUOUS
10
4.8339416929133856
20
-3.2265049606299212
11
4.8292706299212593
21
-3.2218338976377954
0
LINE
8
BLACK
6
CONTINUOUS
10
4.8292706299212593
20
-3.2218338976377954
11
4.8257560629921255
21
-3.2162405118110233
0
LINE
8
BLACK
6
CONTINUOUS
10
4.8257560629921255
20
-3.2162405118110233
11
4.8235742913385824
21
-3.2100053149606298
0
LINE
8
BLACK
6
CONTINUOUS
10
4.8235742913385824
20
-3.2100053149606298
11
4.8228346456692917
21
-3.2034409448818897
0
LINE
8
BLACK
6
CONTINUOUS
10
4.8228346456692917
20
-3.2034409448818897
11
4.8235742913385824
21
-3.1968765748031496
0
LINE
8
BLACK
6
CONTINUOUS
10
4.8235742913385824
20
-3.1968765748031496
11
4.8257560629921255
21
-3.190641377952756
0
LINE
8
BLACK
6
CONTINUOUS
10
4.8257560629921255
20
-3.190641377952756
11
4.8292706299212593
21
-3.185047992125984
0
LINE
8
BLACK
6
CONTINUOUS
10
4.8292706299212593
20
-3.185047992125984
11
4.8339416929133856
21
-3.1803769291338582
0
LINE
8
BLACK
6
CONTINUOUS
10
4.8339416929133856
20
-3.1803769291338582
11
4.8395350787401572
21
-3.1768623622047243
0
LINE
8
BLACK
6
CONTINUOUS
10
4.8395350787401572
20
-3.1768623622047243
11
4.8457702755905512
21
-3.1746805905511812
0
LINE
8
BLACK
6
CONTINUOUS
10
4.8457702755905512
20
-3.1746805905511812
11
4.8523346456692913
21
-3.1739409448818896
0
LINE
8
BLACK
6
CONTINUOUS
10
4.8523346456692913
20
-3.1739409448818896
11
4.8588990157480314
21
-3.1746805905511812
0
LINE
8
BLACK
6
CONTINUOUS
10
4.5588990157480316
20
-3.0746805905511811
11
4.5651342125984247
21
-3.0768623622047242
0
LINE
8
BLACK
6
CONTINUOUS
10
4.5651342125984247
20
-3.0768623622047242
11
4.5707275984251972
21
-3.0803769291338581
0
LINE
8
BLACK
6
CONTINUOUS
10
4.5707275984251972
20
-3.0803769291338581
11
4.5753986614173225
21
-3.0850479921259844
0
LINE
8
BLACK
6
CONTINUOUS
10
4.5753986614173225
20
-3.0850479921259844
11
4.5789132283464564
21
-3.090641377952756
0
LINE
8
BLACK
6
CONTINUOUS
10
4.5789132283464564
20
-3.090641377952756
11
4.5810949999999995
21
-3.0968765748031495
0
LINE
8
BLACK
6
CONTINUOUS
10
4.5810949999999995
20
-3.0968765748031495
11
4.5818346456692911
21
-3.1034409448818896
0
LINE
8
BLACK
6
CONTINUOUS
10
4.5818346456692911
20
-3.1034409448818896
11
4.5810949999999995
21
-3.1100053149606297
0
LINE
8
BLACK
6
CONTINUOUS
10
4.5810949999999995
20
-3.1100053149606297
11
4.5789132283464564
21
-3.1162405118110237
0
LINE
8
BLACK
6
CONTINUOUS
10
4.5789132283464564
20
-3.1162405118110237
11
4.5753986614173225
21
-3.1218338976377953
0
LINE
8
BLACK
6
CONTINUOUS
10
4.5753986614173225
20
-3.1218338976377953
11
4.5707275984251972
21
-3.1265049606299211
0
LINE
8
BLACK
6
CONTINUOUS
10
4.5707275984251972
20
-3.1265049606299211
11
4.5651342125984247
21
-3.130019527559055
0
LINE
8
BLACK
6
CONTINUOUS
10
4.5651342125984247
20
-3.130019527559055
11
4.5588990157480316
21
-3.1322012992125985
0
LINE
8
BLACK
6
CONTINUOUS
10
4.5588990157480316
20
-3.1322012992125985
11
4.5523346456692915
21
-3.1329409448818897
0
LINE
8
BLACK
6
CONTINUOUS
10
4.5523346456692915
20
-3.1329409448818897
11
4.5457702755905514
21
-3.1322012992125985
0
LINE
8
BLACK
6
CONTINUOUS
10
4.5457702755905514
20
-3.1322012992125985
11
4.5395350787401574
21
-3.130019527559055
0
LINE
8
BLACK
6
CONTINUOUS
10
4.5395350787401574
20
-3.130019527559055
11
4.5339416929133858
21
-3.1265049606299211
0
LINE
8
BLACK
6
CONTINUOUS
10
4.5339416929133858
20
-3.1265049606299211
11
4.5292706299212595
21
-3.1218338976377953
0
LINE
8
BLACK
6
CONTINUOUS
10
4.5292706299212595
20
-3.1218338976377953
11
4.5257560629921256
21
-3.1162405118110237
0
LINE
8
BLACK
6
CONTINUOUS
10
4.5257560629921256
20
-3.1162405118110237
11
4.5235742913385826
21
-3.1100053149606297
0
LINE
8
BLACK
6
CONTINUOUS
10
4.5235742913385826
20
-3.1100053149606297
11
4.5228346456692909
21
-3.1034409448818896
0
LINE
8
BLACK
6
CONTINUOUS
10
4.5228346456692909
20
-3.1034409448818896
11
4.5235742913385826
21
-3.0968765748031495
0
LINE
8
BLACK
6
CONTINUOUS
10
4.5235742913385826
20
-3.0968765748031495
11
4.5257560629921256
21
-3.090641377952756
0
LINE
8
BLACK
6
CONTINUOUS
10
4.5257560629921256
20
-3.090641377952756
11
4.5292706299212595
21
-3.0850479921259844
0
LINE
8
BLACK
6
CONTINUOUS
10
4.5292706299212595
20
-3.0850479921259844
11
4.5339416929133858
21
-3.0803769291338581
0
LINE
8
BLACK
6
CONTINUOUS
10
4.5339416929133858
20
-3.0803769291338581
11
4.5395350787401574
21
-3.0768623622047242
0
LINE
8
BLACK
6
CONTINUOUS
10
4.5395350787401574
20
-3.0768623622047242
11
4.5457702755905514
21
-3.0746805905511811
0
LINE
8
BLACK
6
CONTINUOUS
10
4.5457702755905514
20
-3.0746805905511811
11
4.5523346456692915
21
-3.0739409448818895
0
LINE
8
BLACK
6
CONTINUOUS
10
4.5523346456692915
20
-3.0739409448818895
11
4.5588990157480316
21
-3.0746805905511811
0
LINE
8
BLACK
6
CONTINUOUS
10
4.8588990157480314
20
-3.0746805905511811
11
4.8651342125984254
21
-3.0768623622047242
0
LINE
8
BLACK
6
CONTINUOUS
10
4.8651342125984254
20
-3.0768623622047242
11
4.870727598425197
21
-3.0803769291338581
0
LINE
8
BLACK
6
CONTINUOUS
10
4.870727598425197
20
-3.0803769291338581
11
4.8753986614173224
21
-3.0850479921259844
0
LINE
8
BLACK
6
CONTINUOUS
10
4.8753986614173224
20
-3.0850479921259844
11
4.8789132283464562
21
-3.090641377952756
0
LINE
8
BLACK
6
CONTINUOUS
10
4.8789132283464562
20
-3.090641377952756
11
4.8810950000000002
21
-3.0968765748031495
0
LINE
8
BLACK
6
CONTINUOUS
10
4.8810950000000002
20
-3.0968765748031495
11
4.8818346456692909
21
-3.1034409448818896
0
LINE
8
BLACK
6
CONTINUOUS
10
4.8818346456692909
20
-3.1034409448818896
11
4.8810950000000002
21
-3.1100053149606297
0
LINE
8
BLACK
6
CONTINUOUS
10
4.8810950000000002
20
-3.1100053149606297
11
4.8789132283464562
21
-3.1162405118110237
0
LINE
8
BLACK
6
CONTINUOUS
10
4.8789132283464562
20
-3.1162405118110237
11
4.8753986614173224
21
-3.1218338976377953
0
LINE
8
BLACK
6
CONTINUOUS
10
4.8753986614173224
20
-3.1218338976377953
11
4.870727598425197
21
-3.1265049606299211
0
LINE
8
BLACK
6
CONTINUOUS
10
4.870727598425197
20
-3.1265049606299211
11
4.8651342125984254
21
-3.130019527559055
0
LINE
8
BLACK
6
CONTINUOUS
10
4.8651342125984254
20
-3.130019527559055
11
4.8588990157480314
21
-3.1322012992125985
0
LINE
8
BLACK
6
CONTINUOUS
10
4.8588990157480314
20
-3.1322012992125985
11
4.8523346456692913
21
-3.1329409448818897
0
LINE
8
BLACK
6
CONTINUOUS
10
4.8523346456692913
20
-3.1329409448818897
11
4.8457702755905512
21
-3.1322012992125985
0
LINE
8
BLACK
6
CONTINUOUS
10
4.8457702755905512
20
-3.1322012992125985
11
4.8395350787401572
21
-3.130019527559055
0
LINE
8
BLACK
6
CONTINUOUS
10
4.8395350787401572
20
-3.130019527559055
11
4.8339416929133856
21
-3.1265049606299211
0
LINE
8
BLACK
6
CONTINUOUS
10
4.8339416929133856
20
-3.1265049606299211
11
4.8292706299212593
21
-3.1218338976377953
0
LINE
8
BLACK
6
CONTINUOUS
10
4.8292706299212593
20
-3.1218338976377953
11
4.8257560629921255
21
-3.1162405118110237
0
LINE
8
BLACK
6
CONTINUOUS
10
4.8257560629921255
20
-3.1162405118110237
11
4.8235742913385824
21
-3.1100053149606297
0
LINE
8
BLACK
6
CONTINUOUS
10
4.8235742913385824
20
-3.1100053149606297
11
4.8228346456692917
21
-3.1034409448818896
0
LINE
8
BLACK
6
CONTINUOUS
10
4.8228346456692917
20
-3.1034409448818896
11
4.8235742913385824
21
-3.0968765748031495
0
LINE
8
BLACK
6
CONTINUOUS
10
4.8235742913385824
20
-3.0968765748031495
11
4.8257560629921255
21
-3.090641377952756
0
LINE
8
BLACK
6
CONTINUOUS
10
4.8257560629921255
20
-3.090641377952756
11
4.8292706299212593
21
-3.0850479921259844
0
LINE
8
BLACK
6
CONTINUOUS
10
4.8292706299212593
20
-3.0850479921259844
11
4.8339416929133856
21
-3.0803769291338581
0
LINE
8
BLACK
6
CONTINUOUS
10
4.8339416929133856
20
-3.0803769291338581
11
4.8395350787401572
21
-3.0768623622047242
0
LINE
8
BLACK
6
CONTINUOUS
10
4.8395350787401572
20
-3.0768623622047242
11
4.8457702755905512
21
-3.0746805905511811
0
LINE
8
BLACK
6
CONTINUOUS
10
4.8457702755905512
20
-3.0746805905511811
11
4.8523346456692913
21
-3.0739409448818895
0
LINE
8
BLACK
6
CONTINUOUS
10
4.8523346456692913
20
-3.0739409448818895
11
4.8588990157480314
21
-3.0746805905511811
0
LINE
8
BLACK
6
CONTINUOUS
10
4.5588990157480316
20
-2.9746805905511811
11
4.5651342125984247
21
-2.9768623622047246
0
LINE
8
BLACK
6
CONTINUOUS
10
4.5651342125984247
20
-2.9768623622047246
11
4.5707275984251972
21
-2.980376929133858
0
LINE
8
BLACK
6
CONTINUOUS
10
4.5707275984251972
20
-2.980376929133858
11
4.5753986614173225
21
-2.9850479921259843
0
LINE
8
BLACK
6
CONTINUOUS
10
4.5753986614173225
20
-2.9850479921259843
11
4.5789132283464564
21
-2.9906413779527559
0
LINE
8
BLACK
6
CONTINUOUS
10
4.5789132283464564
20
-2.9906413779527559
11
4.5810949999999995
21
-2.9968765748031494
0
LINE
8
BLACK
6
CONTINUOUS
10
4.5810949999999995
20
-2.9968765748031494
11
4.5818346456692911
21
-3.0034409448818895
0
LINE
8
BLACK
6
CONTINUOUS
10
4.5818346456692911
20
-3.0034409448818895
11
4.5810949999999995
21
-3.0100053149606301
0
LINE
8
BLACK
6
CONTINUOUS
10
4.5810949999999995
20
-3.0100053149606301
11
4.5789132283464564
21
-3.0162405118110236
0
LINE
8
BLACK
6
CONTINUOUS
10
4.5789132283464564
20
-3.0162405118110236
11
4.5753986614173225
21
-3.0218338976377952
0
LINE
8
BLACK
6
CONTINUOUS
10
4.5753986614173225
20
-3.0218338976377952
11
4.5707275984251972
21
-3.026504960629921
0
LINE
8
BLACK
6
CONTINUOUS
10
4.5707275984251972
20
-3.026504960629921
11
4.5651342125984247
21
-3.0300195275590549
0
LINE
8
BLACK
6
CONTINUOUS
10
4.5651342125984247
20
-3.0300195275590549
11
4.5588990157480316
21
-3.0322012992125984
0
LINE
8
BLACK
6
CONTINUOUS
10
4.5588990157480316
20
-3.0322012992125984
11
4.5523346456692915
21
-3.0329409448818896
0
LINE
8
BLACK
6
CONTINUOUS
10
4.5523346456692915
20
-3.0329409448818896
11
4.5457702755905514
21
-3.0322012992125984
0
LINE
8
BLACK
6
CONTINUOUS
10
4.5457702755905514
20
-3.0322012992125984
11
4.5395350787401574
21
-3.0300195275590549
0
LINE
8
BLACK
6
CONTINUOUS
10
4.5395350787401574
20
-3.0300195275590549
11
4.5339416929133858
21
-3.026504960629921
0
LINE
8
BLACK
6
CONTINUOUS
10
4.5339416929133858
20
-3.026504960629921
11
4.5292706299212595
21
-3.0218338976377952
0
LINE
8
BLACK
6
CONTINUOUS
10
4.5292706299212595
20
-3.0218338976377952
11
4.5257560629921256
21
-3.0162405118110236
0
LINE
8
BLACK
6
CONTINUOUS
10
4.5257560629921256
20
-3.0162405118110236
11
4.5235742913385826
21
-3.0100053149606301
0
LINE
8
BLACK
6
CONTINUOUS
10
4.5235742913385826
20
-3.0100053149606301
11
4.5228346456692909
21
-3.0034409448818895
0
LINE
8
BLACK
6
CONTINUOUS
10
4.5228346456692909
20
-3.0034409448818895
11
4.5235742913385826
21
-2.9968765748031494
0
LINE
8
BLACK
6
CONTINUOUS
10
4.5235742913385826
20
-2.9968765748031494
11
4.5257560629921256
21
-2.9906413779527559
0
LINE
8
BLACK
6
CONTINUOUS
10
4.5257560629921256
20
-2.9906413779527559
11
4.5292706299212595
21
-2.9850479921259843
0
LINE
8
BLACK
6
CONTINUOUS
10
4.5292706299212595
20
-2.9850479921259843
11
4.5339416929133858
21
-2.980376929133858
0
LINE
8
BLACK
6
CONTINUOUS
10
4.5339416929133858
20
-2.980376929133858
11
4.5395350787401574
21
-2.9768623622047246
0
LINE
8
BLACK
6
CONTINUOUS
10
4.5395350787401574
20
-2.9768623622047246
11
4.5457702755905514
21
-2.9746805905511811
0
LINE
8
BLACK
6
CONTINUOUS
10
4.5457702755905514
20
-2.9746805905511811
11
4.5523346456692915
21
-2.9739409448818899
0
LINE
8
BLACK
6
CONTINUOUS
10
4.5523346456692915
20
-2.9739409448818899
11
4.5588990157480316
21
-2.9746805905511811
0
LINE
8
BLACK
6
CONTINUOUS
10
4.8588990157480314
20
-2.9746805905511811
11
4.8651342125984254
21
-2.9768623622047246
0
LINE
8
BLACK
6
CONTINUOUS
10
4.8651342125984254
20
-2.9768623622047246
11
4.870727598425197
21
-2.980376929133858
0
LINE
8
BLACK
6
CONTINUOUS
10
4.870727598425197
20
-2.980376929133858
11
4.8753986614173224
21
-2.9850479921259843
0
LINE
8
BLACK
6
CONTINUOUS
10
4.8753986614173224
20
-2.9850479921259843
11
4.8789132283464562
21
-2.9906413779527559
0
LINE
8
BLACK
6
CONTINUOUS
10
4.8789132283464562
20
-2.9906413779527559
11
4.8810950000000002
21
-2.9968765748031494
0
LINE
8
BLACK
6
CONTINUOUS
10
4.8810950000000002
20
-2.9968765748031494
11
4.8818346456692909
21
-3.0034409448818895
0
LINE
8
BLACK
6
CONTINUOUS
10
4.8818346456692909
20
-3.0034409448818895
11
4.8810950000000002
21
-3.0100053149606301
0
LINE
8
BLACK
6
CONTINUOUS
10
4.8810950000000002
20
-3.0100053149606301
11
4.8789132283464562
21
-3.0162405118110236
0
LINE
8
BLACK
6
CONTINUOUS
10
4.8789132283464562
20
-3.0162405118110236
11
4.8753986614173224
21
-3.0218338976377952
0
LINE
8
BLACK
6
CONTINUOUS
10
4.8753986614173224
20
-3.0218338976377952
11
4.870727598425197
21
-3.026504960629921
0
LINE
8
BLACK
6
CONTINUOUS
10
4.870727598425197
20
-3.026504960629921
11
4.8651342125984254
21
-3.0300195275590549
0
LINE
8
BLACK
6
CONTINUOUS
10
4.8651342125984254
20
-3.0300195275590549
11
4.8588990157480314
21
-3.0322012992125984
0
LINE
8
BLACK
6
CONTINUOUS
10
4.8588990157480314
20
-3.0322012992125984
11
4.8523346456692913
21
-3.0329409448818896
0
LINE
8
BLACK
6
CONTINUOUS
10
4.8523346456692913
20
-3.0329409448818896
11
4.8457702755905512
21
-3.0322012992125984
0
LINE
8
BLACK
6
CONTINUOUS
10
4.8457702755905512
20
-3.0322012992125984
11
4.8395350787401572
21
-3.0300195275590549
0
LINE
8
BLACK
6
CONTINUOUS
10
4.8395350787401572
20
-3.0300195275590549
11
4.8339416929133856
21
-3.026504960629921
0
LINE
8
BLACK
6
CONTINUOUS
10
4.8339416929133856
20
-3.026504960629921
11
4.8292706299212593
21
-3.0218338976377952
0
LINE
8
BLACK
6
CONTINUOUS
10
4.8292706299212593
20
-3.0218338976377952
11
4.8257560629921255
21
-3.0162405118110236
0
LINE
8
BLACK
6
CONTINUOUS
10
4.8257560629921255
20
-3.0162405118110236
11
4.8235742913385824
21
-3.0100053149606301
0
LINE
8
BLACK
6
CONTINUOUS
10
4.8235742913385824
20
-3.0100053149606301
11
4.8228346456692917
21
-3.0034409448818895
0
LINE
8
BLACK
6
CONTINUOUS
10
4.8228346456692917
20
-3.0034409448818895
11
4.8235742913385824
21
-2.9968765748031494
0
LINE
8
BLACK
6
CONTINUOUS
10
4.8235742913385824
20
-2.9968765748031494
11
4.8257560629921255
21
-2.9906413779527559
0
LINE
8
BLACK
6
CONTINUOUS
10
4.8257560629921255
20
-2.9906413779527559
11
4.8292706299212593
21
-2.9850479921259843
0
LINE
8
BLACK
6
CONTINUOUS
10
4.8292706299212593
20
-2.9850479921259843
11
4.8339416929133856
21
-2.980376929133858
0
LINE
8
BLACK
6
CONTINUOUS
10
4.8339416929133856
20
-2.980376929133858
11
4.8395350787401572
21
-2.9768623622047246
0
LINE
8
BLACK
6
CONTINUOUS
10
4.8395350787401572
20
-2.9768623622047246
11
4.8457702755905512
21
-2.9746805905511811
0
LINE
8
BLACK
6
CONTINUOUS
10
4.8457702755905512
20
-2.9746805905511811
11
4.8523346456692913
21
-2.9739409448818899
0
LINE
8
BLACK
6
CONTINUOUS
10
4.8523346456692913
20
-2.9739409448818899
11
4.8588990157480314
21
-2.9746805905511811
0
LINE
8
BLACK
6
CONTINUOUS
10
4.5588990157480316
20
-2.874680590551181
11
4.5651342125984247
21
-2.8768623622047245
0
LINE
8
BLACK
6
CONTINUOUS
10
4.5651342125984247
20
-2.8768623622047245
11
4.5707275984251972
21
-2.8803769291338583
0
LINE
8
BLACK
6
CONTINUOUS
10
4.5707275984251972
20
-2.8803769291338583
11
4.5753986614173225
21
-2.8850479921259842
0
LINE
8
BLACK
6
CONTINUOUS
10
4.5753986614173225
20
-2.8850479921259842
11
4.5789132283464564
21
-2.8906413779527558
0
LINE
8
BLACK
6
CONTINUOUS
10
4.5789132283464564
20
-2.8906413779527558
11
4.5810949999999995
21
-2.8968765748031498
0
LINE
8
BLACK
6
CONTINUOUS
10
4.5810949999999995
20
-2.8968765748031498
11
4.5818346456692911
21
-2.9034409448818899
0
LINE
8
BLACK
6
CONTINUOUS
10
4.5818346456692911
20
-2.9034409448818899
11
4.5810949999999995
21
-2.91000531496063
0
LINE
8
BLACK
6
CONTINUOUS
10
4.5810949999999995
20
-2.91000531496063
11
4.5789132283464564
21
-2.9162405118110235
0
LINE
8
BLACK
6
CONTINUOUS
10
4.5789132283464564
20
-2.9162405118110235
11
4.5753986614173225
21
-2.9218338976377951
0
LINE
8
BLACK
6
CONTINUOUS
10
4.5753986614173225
20
-2.9218338976377951
11
4.5707275984251972
21
-2.9265049606299214
0
LINE
8
BLACK
6
CONTINUOUS
10
4.5707275984251972
20
-2.9265049606299214
11
4.5651342125984247
21
-2.9300195275590553
0
LINE
8
BLACK
6
CONTINUOUS
10
4.5651342125984247
20
-2.9300195275590553
11
4.5588990157480316
21
-2.9322012992125983
0
LINE
8
BLACK
6
CONTINUOUS
10
4.5588990157480316
20
-2.9322012992125983
11
4.5523346456692915
21
-2.9329409448818895
0
LINE
8
BLACK
6
CONTINUOUS
10
4.5523346456692915
20
-2.9329409448818895
11
4.5457702755905514
21
-2.9322012992125983
0
LINE
8
BLACK
6
CONTINUOUS
10
4.5457702755905514
20
-2.9322012992125983
11
4.5395350787401574
21
-2.9300195275590553
0
LINE
8
BLACK
6
CONTINUOUS
10
4.5395350787401574
20
-2.9300195275590553
11
4.5339416929133858
21
-2.9265049606299214
0
LINE
8
BLACK
6
CONTINUOUS
10
4.5339416929133858
20
-2.9265049606299214
11
4.5292706299212595
21
-2.9218338976377951
0
LINE
8
BLACK
6
CONTINUOUS
10
4.5292706299212595
20
-2.9218338976377951
11
4.5257560629921256
21
-2.9162405118110235
0
LINE
8
BLACK
6
CONTINUOUS
10
4.5257560629921256
20
-2.9162405118110235
11
4.5235742913385826
21
-2.91000531496063
0
LINE
8
BLACK
6
CONTINUOUS
10
4.5235742913385826
20
-2.91000531496063
11
4.5228346456692909
21
-2.9034409448818899
0
LINE
8
BLACK
6
CONTINUOUS
10
4.5228346456692909
20
-2.9034409448818899
11
4.5235742913385826
21
-2.8968765748031498
0
LINE
8
BLACK
6
CONTINUOUS
10
4.5235742913385826
20
-2.8968765748031498
11
4.5257560629921256
21
-2.8906413779527558
0
LINE
8
BLACK
6
CONTINUOUS
10
4.5257560629921256
20
-2.8906413779527558
11
4.5292706299212595
21
-2.8850479921259842
0
LINE
8
BLACK
6
CONTINUOUS
10
4.5292706299212595
20
-2.8850479921259842
11
4.5339416929133858
21
-2.8803769291338583
0
LINE
8
BLACK
6
CONTINUOUS
10
4.5339416929133858
20
-2.8803769291338583
11
4.5395350787401574
21
-2.8768623622047245
0
LINE
8
BLACK
6
CONTINUOUS
10
4.5395350787401574
20
-2.8768623622047245
11
4.5457702755905514
21
-2.874680590551181
0
LINE
8
BLACK
6
CONTINUOUS
10
4.5457702755905514
20
-2.874680590551181
11
4.5523346456692915
21
-2.8739409448818898
0
LINE
8
BLACK
6
CONTINUOUS
10
4.5523346456692915
20
-2.8739409448818898
11
4.5588990157480316
21
-2.874680590551181
0
LINE
8
BLACK
6
CONTINUOUS
10
4.8588990157480314
20
-2.874680590551181
11
4.8651342125984254
21
-2.8768623622047245
0
LINE
8
BLACK
6
CONTINUOUS
10
4.8651342125984254
20
-2.8768623622047245
11
4.870727598425197
21
-2.8803769291338583
0
LINE
8
BLACK
6
CONTINUOUS
10
4.870727598425197
20
-2.8803769291338583
11
4.8753986614173224
21
-2.8850479921259842
0
LINE
8
BLACK
6
CONTINUOUS
10
4.8753986614173224
20
-2.8850479921259842
11
4.8789132283464562
21
-2.8906413779527558
0
LINE
8
BLACK
6
CONTINUOUS
10
4.8789132283464562
20
-2.8906413779527558
11
4.8810950000000002
21
-2.8968765748031498
0
LINE
8
BLACK
6
CONTINUOUS
10
4.8810950000000002
20
-2.8968765748031498
11
4.8818346456692909
21
-2.9034409448818899
0
LINE
8
BLACK
6
CONTINUOUS
10
4.8818346456692909
20
-2.9034409448818899
11
4.8810950000000002
21
-2.91000531496063
0
LINE
8
BLACK
6
CONTINUOUS
10
4.8810950000000002
20
-2.91000531496063
11
4.8789132283464562
21
-2.9162405118110235
0
LINE
8
BLACK
6
CONTINUOUS
10
4.8789132283464562
20
-2.9162405118110235
11
4.8753986614173224
21
-2.9218338976377951
0
LINE
8
BLACK
6
CONTINUOUS
10
4.8753986614173224
20
-2.9218338976377951
11
4.870727598425197
21
-2.9265049606299214
0
LINE
8
BLACK
6
CONTINUOUS
10
4.870727598425197
20
-2.9265049606299214
11
4.8651342125984254
21
-2.9300195275590553
0
LINE
8
BLACK
6
CONTINUOUS
10
4.8651342125984254
20
-2.9300195275590553
11
4.8588990157480314
21
-2.9322012992125983
0
LINE
8
BLACK
6
CONTINUOUS
10
4.8588990157480314
20
-2.9322012992125983
11
4.8523346456692913
21
-2.9329409448818895
0
LINE
8
BLACK
6
CONTINUOUS
10
4.8523346456692913
20
-2.9329409448818895
11
4.8457702755905512
21
-2.9322012992125983
0
LINE
8
BLACK
6
CONTINUOUS
10
4.8457702755905512
20
-2.9322012992125983
11
4.8395350787401572
21
-2.9300195275590553
0
LINE
8
BLACK
6
CONTINUOUS
10
4.8395350787401572
20
-2.9300195275590553
11
4.8339416929133856
21
-2.9265049606299214
0
LINE
8
BLACK
6
CONTINUOUS
10
4.8339416929133856
20
-2.9265049606299214
11
4.8292706299212593
21
-2.9218338976377951
0
LINE
8
BLACK
6
CONTINUOUS
10
4.8292706299212593
20
-2.9218338976377951
11
4.8257560629921255
21
-2.9162405118110235
0
LINE
8
BLACK
6
CONTINUOUS
10
4.8257560629921255
20
-2.9162405118110235
11
4.8235742913385824
21
-2.91000531496063
0
LINE
8
BLACK
6
CONTINUOUS
10
4.8235742913385824
20
-2.91000531496063
11
4.8228346456692917
21
-2.9034409448818899
0
LINE
8
BLACK
6
CONTINUOUS
10
4.8228346456692917
20
-2.9034409448818899
11
4.8235742913385824
21
-2.8968765748031498
0
LINE
8
BLACK
6
CONTINUOUS
10
4.8235742913385824
20
-2.8968765748031498
11
4.8257560629921255
21
-2.8906413779527558
0
LINE
8
BLACK
6
CONTINUOUS
10
4.8257560629921255
20
-2.8906413779527558
11
4.8292706299212593
21
-2.8850479921259842
0
LINE
8
BLACK
6
CONTINUOUS
10
4.8292706299212593
20
-2.8850479921259842
11
4.8339416929133856
21
-2.8803769291338583
0
LINE
8
BLACK
6
CONTINUOUS
10
4.8339416929133856
20
-2.8803769291338583
11
4.8395350787401572
21
-2.8768623622047245
0
LINE
8
BLACK
6
CONTINUOUS
10
4.8395350787401572
20
-2.8768623622047245
11
4.8457702755905512
21
-2.874680590551181
0
LINE
8
BLACK
6
CONTINUOUS
10
4.8457702755905512
20
-2.874680590551181
11
4.8523346456692913
21
-2.8739409448818898
0
LINE
8
BLACK
6
CONTINUOUS
10
4.8523346456692913
20
-2.8739409448818898
11
4.8588990157480314
21
-2.874680590551181
0
LINE
8
BLACK
6
CONTINUOUS
10
3.0056638976377954
20
-2.7626924015748031
11
3.013096181102362
21
-2.7642197637795274
0
LINE
8
BLACK
6
CONTINUOUS
10
3.013096181102362
20
-2.7642197637795274
11
3.0200688976377954
21
-2.7672120078740159
0
LINE
8
BLACK
6
CONTINUOUS
10
3.0200688976377954
20
-2.7672120078740159
11
3.0262965354330706
21
-2.7715465748031494
0
LINE
8
BLACK
6
CONTINUOUS
10
3.0262965354330706
20
-2.7715465748031494
11
3.0315241732283464
21
-2.7770460236220473
0
LINE
8
BLACK
6
CONTINUOUS
10
3.0315241732283464
20
-2.7770460236220473
11
3.0355377559055117
21
-2.7834852362204723
0
LINE
8
BLACK
6
CONTINUOUS
10
3.0355377559055117
20
-2.7834852362204723
11
3.0381729527559056
21
-2.7906005118110238
0
LINE
8
BLACK
6
CONTINUOUS
10
3.0381729527559056
20
-2.7906005118110238
11
3.039321929133858
21
-2.7981006692913386
0
LINE
8
BLACK
6
CONTINUOUS
10
3.039321929133858
20
-2.7981006692913386
11
3.0389376377952755
21
-2.8056785433070868
0
LINE
8
BLACK
6
CONTINUOUS
10
3.0389376377952755
20
-2.8056785433070868
11
3.0370357874015745
21
-2.8130239370078738
0
LINE
8
BLACK
6
CONTINUOUS
10
3.0370357874015745
20
-2.8130239370078738
11
3.033694251968504
21
-2.8198361417322833
0
LINE
8
BLACK
6
CONTINUOUS
10
3.033694251968504
20
-2.8198361417322833
11
3.029049803149606
21
-2.8258362598425197
0
LINE
8
BLACK
6
CONTINUOUS
10
3.029049803149606
20
-2.8258362598425197
11
3.0232926377952754
21
-2.830778622047244
0
LINE
8
BLACK
6
CONTINUOUS
10
3.0232926377952754
20
-2.830778622047244
11
3.0166584251968502
21
-2.8344609055118108
0
LINE
8
BLACK
6
CONTINUOUS
10
3.0166584251968502
20
-2.8344609055118108
11
3.0094187795275591
21
-2.8367323622047245
0
LINE
8
BLACK
6
CONTINUOUS
10
3.0094187795275591
20
-2.8367323622047245
11
3.0018700787401573
21
-2.8374999999999999
0
LINE
8
BLACK
6
CONTINUOUS
10
3.0018700787401573
20
-2.8374999999999999
11
2.9981299212598422
21
-2.8374999999999999
0
LINE
8
BLACK
6
CONTINUOUS
10
2.9981299212598422
20
-2.8374999999999999
11
2.9943361023622046
21
-2.837307598425197
0
LINE
8
BLACK
6
CONTINUOUS
10
2.9943361023622046
20
-2.837307598425197
11
2.9869038188976376
21
-2.8357802362204723
0
LINE
8
BLACK
6
CONTINUOUS
10
2.9869038188976376
20
-2.8357802362204723
11
2.9799311023622046
21
-2.8327879921259842
0
LINE
8
BLACK
6
CONTINUOUS
10
2.9799311023622046
20
-2.8327879921259842
11
2.9737034645669289
21
-2.8284534251968503
0
LINE
8
BLACK
6
CONTINUOUS
10
2.9737034645669289
20
-2.8284534251968503
11
2.9684758267716536
21
-2.8229539763779528
0
LINE
8
BLACK
6
CONTINUOUS
10
2.9684758267716536
20
-2.8229539763779528
11
2.9644622440944883
21
-2.8165147637795274
0
LINE
8
BLACK
6
CONTINUOUS
10
2.9644622440944883
20
-2.8165147637795274
11
2.9618270472440944
21
-2.8093994881889763
0
LINE
8
BLACK
6
CONTINUOUS
10
2.9618270472440944
20
-2.8093994881889763
11
2.9606780708661415
21
-2.8018993307086615
0
LINE
8
BLACK
6
CONTINUOUS
10
2.9606780708661415
20
-2.8018993307086615
11
2.9610623622047245
21
-2.7943214566929133
0
LINE
8
BLACK
6
CONTINUOUS
10
2.9610623622047245
20
-2.7943214566929133
11
2.962964212598425
21
-2.7869760629921259
0
LINE
8
BLACK
6
CONTINUOUS
10
2.962964212598425
20
-2.7869760629921259
11
2.966305748031496
21
-2.7801638582677164
0
LINE
8
BLACK
6
CONTINUOUS
10
2.966305748031496
20
-2.7801638582677164
11
2.9709501968503935
21
-2.7741637401574804
0
LINE
8
BLACK
6
CONTINUOUS
10
2.9709501968503935
20
-2.7741637401574804
11
2.9767073622047242
21
-2.7692213779527557
0
LINE
8
BLACK
6
CONTINUOUS
10
2.9767073622047242
20
-2.7692213779527557
11
2.9833415748031493
21
-2.7655390944881888
0
LINE
8
BLACK
6
CONTINUOUS
10
2.9833415748031493
20
-2.7655390944881888
11
2.9905812204724409
21
-2.7632676377952756
0
LINE
8
BLACK
6
CONTINUOUS
10
2.9905812204724409
20
-2.7632676377952756
11
2.9981299212598422
21
-2.7624999999999997
0
LINE
8
BLACK
6
CONTINUOUS
10
2.9981299212598422
20
-2.7624999999999997
11
3.0018700787401573
21
-2.7624999999999997
0
LINE
8
BLACK
6
CONTINUOUS
10
3.0018700787401573
20
-2.7624999999999997
11
3.0056638976377954
21
-2.7626924015748031
0
LINE
8
BLACK
6
CONTINUOUS
10
4.5588990157480316
20
-2.7746805905511809
11
4.5651342125984247
21
-2.7768623622047244
0
LINE
8
BLACK
6
CONTINUOUS
10
4.5651342125984247
20
-2.7768623622047244
11
4.5707275984251972
21
-2.7803769291338583
0
LINE
8
BLACK
6
CONTINUOUS
10
4.5707275984251972
20
-2.7803769291338583
11
4.5753986614173225
21
-2.7850479921259841
0
LINE
8
BLACK
6
CONTINUOUS
10
4.5753986614173225
20
-2.7850479921259841
11
4.5789132283464564
21
-2.7906413779527557
0
LINE
8
BLACK
6
CONTINUOUS
10
4.5789132283464564
20
-2.7906413779527557
11
4.5810949999999995
21
-2.7968765748031497
0
LINE
8
BLACK
6
CONTINUOUS
10
4.5810949999999995
20
-2.7968765748031497
11
4.5818346456692911
21
-2.8034409448818898
0
LINE
8
BLACK
6
CONTINUOUS
10
4.5818346456692911
20
-2.8034409448818898
11
4.5810949999999995
21
-2.8100053149606299
0
LINE
8
BLACK
6
CONTINUOUS
10
4.5810949999999995
20
-2.8100053149606299
11
4.5789132283464564
21
-2.8162405118110234
0
LINE
8
BLACK
6
CONTINUOUS
10
4.5789132283464564
20
-2.8162405118110234
11
4.5753986614173225
21
-2.821833897637795
0
LINE
8
BLACK
6
CONTINUOUS
10
4.5753986614173225
20
-2.821833897637795
11
4.5707275984251972
21
-2.8265049606299213
0
LINE
8
BLACK
6
CONTINUOUS
10
4.5707275984251972
20
-2.8265049606299213
11
4.5651342125984247
21
-2.8300195275590552
0
LINE
8
BLACK
6
CONTINUOUS
10
4.5651342125984247
20
-2.8300195275590552
11
4.5588990157480316
21
-2.8322012992125982
0
LINE
8
BLACK
6
CONTINUOUS
10
4.5588990157480316
20
-2.8322012992125982
11
4.5523346456692915
21
-2.8329409448818899
0
LINE
8
BLACK
6
CONTINUOUS
10
4.5523346456692915
20
-2.8329409448818899
11
4.5457702755905514
21
-2.8322012992125982
0
LINE
8
BLACK
6
CONTINUOUS
10
4.5457702755905514
20
-2.8322012992125982
11
4.5395350787401574
21
-2.8300195275590552
0
LINE
8
BLACK
6
CONTINUOUS
10
4.5395350787401574
20
-2.8300195275590552
11
4.5339416929133858
21
-2.8265049606299213
0
LINE
8
BLACK
6
CONTINUOUS
10
4.5339416929133858
20
-2.8265049606299213
11
4.5292706299212595
21
-2.821833897637795
0
LINE
8
BLACK
6
CONTINUOUS
10
4.5292706299212595
20
-2.821833897637795
11
4.5257560629921256
21
-2.8162405118110234
0
LINE
8
BLACK
6
CONTINUOUS
10
4.5257560629921256
20
-2.8162405118110234
11
4.5235742913385826
21
-2.8100053149606299
0
LINE
8
BLACK
6
CONTINUOUS
10
4.5235742913385826
20
-2.8100053149606299
11
4.5228346456692909
21
-2.8034409448818898
0
LINE
8
BLACK
6
CONTINUOUS
10
4.5228346456692909
20
-2.8034409448818898
11
4.5235742913385826
21
-2.7968765748031497
0
LINE
8
BLACK
6
CONTINUOUS
10
4.5235742913385826
20
-2.7968765748031497
11
4.5257560629921256
21
-2.7906413779527557
0
LINE
8
BLACK
6
CONTINUOUS
10
4.5257560629921256
20
-2.7906413779527557
11
4.5292706299212595
21
-2.7850479921259841
0
LINE
8
BLACK
6
CONTINUOUS
10
4.5292706299212595
20
-2.7850479921259841
11
4.5339416929133858
21
-2.7803769291338583
0
LINE
8
BLACK
6
CONTINUOUS
10
4.5339416929133858
20
-2.7803769291338583
11
4.5395350787401574
21
-2.7768623622047244
0
LINE
8
BLACK
6
CONTINUOUS
10
4.5395350787401574
20
-2.7768623622047244
11
4.5457702755905514
21
-2.7746805905511809
0
LINE
8
BLACK
6
CONTINUOUS
10
4.5457702755905514
20
-2.7746805905511809
11
4.5523346456692915
21
-2.7739409448818897
0
LINE
8
BLACK
6
CONTINUOUS
10
4.5523346456692915
20
-2.7739409448818897
11
4.5588990157480316
21
-2.7746805905511809
0
LINE
8
BLACK
6
CONTINUOUS
10
4.8588990157480314
20
-2.7746805905511809
11
4.8651342125984254
21
-2.7768623622047244
0
LINE
8
BLACK
6
CONTINUOUS
10
4.8651342125984254
20
-2.7768623622047244
11
4.870727598425197
21
-2.7803769291338583
0
LINE
8
BLACK
6
CONTINUOUS
10
4.870727598425197
20
-2.7803769291338583
11
4.8753986614173224
21
-2.7850479921259841
0
LINE
8
BLACK
6
CONTINUOUS
10
4.8753986614173224
20
-2.7850479921259841
11
4.8789132283464562
21
-2.7906413779527557
0
LINE
8
BLACK
6
CONTINUOUS
10
4.8789132283464562
20
-2.7906413779527557
11
4.8810950000000002
21
-2.7968765748031497
0
LINE
8
BLACK
6
CONTINUOUS
10
4.8810950000000002
20
-2.7968765748031497
11
4.8818346456692909
21
-2.8034409448818898
0
LINE
8
BLACK
6
CONTINUOUS
10
4.8818346456692909
20
-2.8034409448818898
11
4.8810950000000002
21
-2.8100053149606299
0
LINE
8
BLACK
6
CONTINUOUS
10
4.8810950000000002
20
-2.8100053149606299
11
4.8789132283464562
21
-2.8162405118110234
0
LINE
8
BLACK
6
CONTINUOUS
10
4.8789132283464562
20
-2.8162405118110234
11
4.8753986614173224
21
-2.821833897637795
0
LINE
8
BLACK
6
CONTINUOUS
10
4.8753986614173224
20
-2.821833897637795
11
4.870727598425197
21
-2.8265049606299213
0
LINE
8
BLACK
6
CONTINUOUS
10
4.870727598425197
20
-2.8265049606299213
11
4.8651342125984254
21
-2.8300195275590552
0
LINE
8
BLACK
6
CONTINUOUS
10
4.8651342125984254
20
-2.8300195275590552
11
4.8588990157480314
21
-2.8322012992125982
0
LINE
8
BLACK
6
CONTINUOUS
10
4.8588990157480314
20
-2.8322012992125982
11
4.8523346456692913
21
-2.8329409448818899
0
LINE
8
BLACK
6
CONTINUOUS
10
4.8523346456692913
20
-2.8329409448818899
11
4.8457702755905512
21
-2.8322012992125982
0
LINE
8
BLACK
6
CONTINUOUS
10
4.8457702755905512
20
-2.8322012992125982
11
4.8395350787401572
21
-2.8300195275590552
0
LINE
8
BLACK
6
CONTINUOUS
10
4.8395350787401572
20
-2.8300195275590552
11
4.8339416929133856
21
-2.8265049606299213
0
LINE
8
BLACK
6
CONTINUOUS
10
4.8339416929133856
20
-2.8265049606299213
11
4.8292706299212593
21
-2.821833897637795
0
LINE
8
BLACK
6
CONTINUOUS
10
4.8292706299212593
20
-2.821833897637795
11
4.8257560629921255
21
-2.8162405118110234
0
LINE
8
BLACK
6
CONTINUOUS
10
4.8257560629921255
20
-2.8162405118110234
11
4.8235742913385824
21
-2.8100053149606299
0
LINE
8
BLACK
6
CONTINUOUS
10
4.8235742913385824
20
-2.8100053149606299
11
4.8228346456692917
21
-2.8034409448818898
0
LINE
8
BLACK
6
CONTINUOUS
10
4.8228346456692917
20
-2.8034409448818898
11
4.8235742913385824
21
-2.7968765748031497
0
LINE
8
BLACK
6
CONTINUOUS
10
4.8235742913385824
20
-2.7968765748031497
11
4.8257560629921255
21
-2.7906413779527557
0
LINE
8
BLACK
6
CONTINUOUS
10
4.8257560629921255
20
-2.7906413779527557
11
4.8292706299212593
21
-2.7850479921259841
0
LINE
8
BLACK
6
CONTINUOUS
10
4.8292706299212593
20
-2.7850479921259841
11
4.8339416929133856
21
-2.7803769291338583
0
LINE
8
BLACK
6
CONTINUOUS
10
4.8339416929133856
20
-2.7803769291338583
11
4.8395350787401572
21
-2.7768623622047244
0
LINE
8
BLACK
6
CONTINUOUS
10
4.8395350787401572
20
-2.7768623622047244
11
4.8457702755905512
21
-2.7746805905511809
0
LINE
8
BLACK
6
CONTINUOUS
10
4.8457702755905512
20
-2.7746805905511809
11
4.8523346456692913
21
-2.7739409448818897
0
LINE
8
BLACK
6
CONTINUOUS
10
4.8523346456692913
20
-2.7739409448818897
11
4.8588990157480314
21
-2.7746805905511809
0
LINE
8
BLACK
6
CONTINUOUS
10
5.9065705118110232
20
-2.7633387401574803
11
5.9128115354330708
21
-2.765522559055118
0
LINE
8
BLACK
6
CONTINUOUS
10
5.9128115354330708
20
-2.765522559055118
11
5.918410118110236
21
-2.7690403937007875
0
LINE
8
BLACK
6
CONTINUOUS
10
5.918410118110236
20
-2.7690403937007875
11
5.9230855905511808
21
-2.7737158661417323
0
LINE
8
BLACK
6
CONTINUOUS
10
5.9230855905511808
20
-2.7737158661417323
11
5.9266034251968502
21
-2.7793144488188974
0
LINE
8
BLACK
6
CONTINUOUS
10
5.9266034251968502
20
-2.7793144488188974
11
5.9287872440944884
21
-2.785555472440945
0
LINE
8
BLACK
6
CONTINUOUS
10
5.9287872440944884
20
-2.785555472440945
11
5.929527559055118
21
-2.7921259842519683
0
LINE
8
BLACK
6
CONTINUOUS
10
5.929527559055118
20
-2.7921259842519683
11
5.9287872440944884
21
-2.7986964960629921
0
LINE
8
BLACK
6
CONTINUOUS
10
5.9287872440944884
20
-2.7986964960629921
11
5.9266034251968502
21
-2.8049375196850392
0
LINE
8
BLACK
6
CONTINUOUS
10
5.9266034251968502
20
-2.8049375196850392
11
5.9230855905511808
21
-2.8105361023622049
0
LINE
8
BLACK
6
CONTINUOUS
10
5.9230855905511808
20
-2.8105361023622049
11
5.918410118110236
21
-2.8152115748031497
0
LINE
8
BLACK
6
CONTINUOUS
10
5.918410118110236
20
-2.8152115748031497
11
5.9128115354330708
21
-2.8187294094488187
0
LINE
8
BLACK
6
CONTINUOUS
10
5.9128115354330708
20
-2.8187294094488187
11
5.9065705118110232
21
-2.8209132283464564
0
LINE
8
BLACK
6
CONTINUOUS
10
5.9065705118110232
20
-2.8209132283464564
11
5.8999999999999995
21
-2.8216535433070864
0
LINE
8
BLACK
6
CONTINUOUS
10
5.8999999999999995
20
-2.8216535433070864
11
5.8934294881889766
21
-2.8209132283464564
0
LINE
8
BLACK
6
CONTINUOUS
10
5.8934294881889766
20
-2.8209132283464564
11
5.887188464566929
21
-2.8187294094488187
0
LINE
8
BLACK
6
CONTINUOUS
10
5.887188464566929
20
-2.8187294094488187
11
5.8815898818897638
21
-2.8152115748031497
0
LINE
8
BLACK
6
CONTINUOUS
10
5.8815898818897638
20
-2.8152115748031497
11
5.876914409448819
21
-2.8105361023622049
0
LINE
8
BLACK
6
CONTINUOUS
10
5.876914409448819
20
-2.8105361023622049
11
5.8733965748031496
21
-2.8049375196850392
0
LINE
8
BLACK
6
CONTINUOUS
10
5.8733965748031496
20
-2.8049375196850392
11
5.8712127559055114
21
-2.7986964960629921
0
LINE
8
BLACK
6
CONTINUOUS
10
5.8712127559055114
20
-2.7986964960629921
11
5.8704724409448819
21
-2.7921259842519683
0
LINE
8
BLACK
6
CONTINUOUS
10
5.8704724409448819
20
-2.7921259842519683
11
5.8712127559055114
21
-2.785555472440945
0
LINE
8
BLACK
6
CONTINUOUS
10
5.8712127559055114
20
-2.785555472440945
11
5.8733965748031496
21
-2.7793144488188974
0
LINE
8
BLACK
6
CONTINUOUS
10
5.8733965748031496
20
-2.7793144488188974
11
5.876914409448819
21
-2.7737158661417323
0
LINE
8
BLACK
6
CONTINUOUS
10
5.876914409448819
20
-2.7737158661417323
11
5.8815898818897638
21
-2.7690403937007875
0
LINE
8
BLACK
6
CONTINUOUS
10
5.8815898818897638
20
-2.7690403937007875
11
5.887188464566929
21
-2.765522559055118
0
LINE
8
BLACK
6
CONTINUOUS
10
5.887188464566929
20
-2.765522559055118
11
5.8934294881889766
21
-2.7633387401574803
0
LINE
8
BLACK
6
CONTINUOUS
10
5.8934294881889766
20
-2.7633387401574803
11
5.8999999999999995
21
-2.7625984251968503
0
LINE
8
BLACK
6
CONTINUOUS
10
5.8999999999999995
20
-2.7625984251968503
11
5.9065705118110232
21
-2.7633387401574803
0
LINE
8
BLACK
6
CONTINUOUS
10
6.8074338976377948
20
-2.7702595669291337
11
6.8128937007874013
21
-2.772521062992126
0
LINE
8
BLACK
6
CONTINUOUS
10
6.8128937007874013
20
-2.772521062992126
11
6.8175821259842522
21
-2.7761186614173226
0
LINE
8
BLACK
6
CONTINUOUS
10
6.8175821259842522
20
-2.7761186614173226
11
6.8211797244094488
21
-2.780807086614173
0
LINE
8
BLACK
6
CONTINUOUS
10
6.8211797244094488
20
-2.780807086614173
11
6.8234412204724411
21
-2.7862668897637795
0
LINE
8
BLACK
6
CONTINUOUS
10
6.8234412204724411
20
-2.7862668897637795
11
6.8242125984251967
21
-2.7921259842519683
0
LINE
8
BLACK
6
CONTINUOUS
10
6.8242125984251967
20
-2.7921259842519683
11
6.8234412204724411
21
-2.7979850787401572
0
LINE
8
BLACK
6
CONTINUOUS
10
6.8234412204724411
20
-2.7979850787401572
11
6.8211797244094488
21
-2.8034448818897637
0
LINE
8
BLACK
6
CONTINUOUS
10
6.8211797244094488
20
-2.8034448818897637
11
6.8175821259842522
21
-2.8081333070866141
0
LINE
8
BLACK
6
CONTINUOUS
10
6.8175821259842522
20
-2.8081333070866141
11
6.8128937007874013
21
-2.8117309055118112
0
LINE
8
BLACK
6
CONTINUOUS
10
6.8128937007874013
20
-2.8117309055118112
11
6.8074338976377948
21
-2.813992401574803
0
LINE
8
BLACK
6
CONTINUOUS
10
6.8074338976377948
20
-2.813992401574803
11
6.8015748031496059
21
-2.8147637795275591
0
LINE
8
BLACK
6
CONTINUOUS
10
6.8015748031496059
20
-2.8147637795275591
11
6.7957157086614171
21
-2.813992401574803
0
LINE
8
BLACK
6
CONTINUOUS
10
6.7957157086614171
20
-2.813992401574803
11
6.7902559055118106
21
-2.8117309055118112
0
LINE
8
BLACK
6
CONTINUOUS
10
6.7902559055118106
20
-2.8117309055118112
11
6.7855674803149606
21
-2.8081333070866141
0
LINE
8
BLACK
6
CONTINUOUS
10
6.7855674803149606
20
-2.8081333070866141
11
6.781969881889764
21
-2.8034448818897637
0
LINE
8
BLACK
6
CONTINUOUS
10
6.781969881889764
20
-2.8034448818897637
11
6.7797083858267717
21
-2.7979850787401572
0
LINE
8
BLACK
6
CONTINUOUS
10
6.7797083858267717
20
-2.7979850787401572
11
6.7789370078740152
21
-2.7921259842519683
0
LINE
8
BLACK
6
CONTINUOUS
10
6.7789370078740152
20
-2.7921259842519683
11
6.7797083858267717
21
-2.7862668897637795
0
LINE
8
BLACK
6
CONTINUOUS
10
6.7797083858267717
20
-2.7862668897637795
11
6.781969881889764
21
-2.780807086614173
0
LINE
8
BLACK
6
CONTINUOUS
10
6.781969881889764
20
-2.780807086614173
11
6.7855674803149606
21
-2.7761186614173226
0
LINE
8
BLACK
6
CONTINUOUS
10
6.7855674803149606
20
-2.7761186614173226
11
6.7902559055118106
21
-2.772521062992126
0
LINE
8
BLACK
6
CONTINUOUS
10
6.7902559055118106
20
-2.772521062992126
11
6.7957157086614171
21
-2.7702595669291337
0
LINE
8
BLACK
6
CONTINUOUS
10
6.7957157086614171
20
-2.7702595669291337
11
6.8015748031496059
21
-2.7694881889763781
0
LINE
8
BLACK
6
CONTINUOUS
10
6.8015748031496059
20
-2.7694881889763781
11
6.8074338976377948
21
-2.7702595669291337
0
LINE
8
BLACK
6
CONTINUOUS
10
7.0042842913385828
20
-2.7702595669291337
11
7.0097440944881892
21
-2.772521062992126
0
LINE
8
BLACK
6
CONTINUOUS
10
7.0097440944881892
20
-2.772521062992126
11
7.0144325196850392
21
-2.7761186614173226
0
LINE
8
BLACK
6
CONTINUOUS
10
7.0144325196850392
20
-2.7761186614173226
11
7.0180301181102358
21
-2.780807086614173
0
LINE
8
BLACK
6
CONTINUOUS
10
7.0180301181102358
20
-2.780807086614173
11
7.0202916141732281
21
-2.7862668897637795
0
LINE
8
BLACK
6
CONTINUOUS
10
7.0202916141732281
20
-2.7862668897637795
11
7.0210629921259837
21
-2.7921259842519683
0
LINE
8
BLACK
6
CONTINUOUS
10
7.0210629921259837
20
-2.7921259842519683
11
7.0202916141732281
21
-2.7979850787401572
0
LINE
8
BLACK
6
CONTINUOUS
10
7.0202916141732281
20
-2.7979850787401572
11
7.0180301181102358
21
-2.8034448818897637
0
LINE
8
BLACK
6
CONTINUOUS
10
7.0180301181102358
20
-2.8034448818897637
11
7.0144325196850392
21
-2.8081333070866141
0
LINE
8
BLACK
6
CONTINUOUS
10
7.0144325196850392
20
-2.8081333070866141
11
7.0097440944881892
21
-2.8117309055118112
0
LINE
8
BLACK
6
CONTINUOUS
10
7.0097440944881892
20
-2.8117309055118112
11
7.0042842913385828
21
-2.813992401574803
0
LINE
8
BLACK
6
CONTINUOUS
10
7.0042842913385828
20
-2.813992401574803
11
6.9984251968503939
21
-2.8147637795275591
0
LINE
8
BLACK
6
CONTINUOUS
10
6.9984251968503939
20
-2.8147637795275591
11
6.992566102362205
21
-2.813992401574803
0
LINE
8
BLACK
6
CONTINUOUS
10
6.992566102362205
20
-2.813992401574803
11
6.9871062992125985
21
-2.8117309055118112
0
LINE
8
BLACK
6
CONTINUOUS
10
6.9871062992125985
20
-2.8117309055118112
11
6.9824178740157476
21
-2.8081333070866141
0
LINE
8
BLACK
6
CONTINUOUS
10
6.9824178740157476
20
-2.8081333070866141
11
6.9788202755905511
21
-2.8034448818897637
0
LINE
8
BLACK
6
CONTINUOUS
10
6.9788202755905511
20
-2.8034448818897637
11
6.9765587795275588
21
-2.7979850787401572
0
LINE
8
BLACK
6
CONTINUOUS
10
6.9765587795275588
20
-2.7979850787401572
11
6.9757874015748031
21
-2.7921259842519683
0
LINE
8
BLACK
6
CONTINUOUS
10
6.9757874015748031
20
-2.7921259842519683
11
6.9765587795275588
21
-2.7862668897637795
0
LINE
8
BLACK
6
CONTINUOUS
10
6.9765587795275588
20
-2.7862668897637795
11
6.9788202755905511
21
-2.780807086614173
0
LINE
8
BLACK
6
CONTINUOUS
10
6.9788202755905511
20
-2.780807086614173
11
6.9824178740157476
21
-2.7761186614173226
0
LINE
8
BLACK
6
CONTINUOUS
10
6.9824178740157476
20
-2.7761186614173226
11
6.9871062992125985
21
-2.772521062992126
0
LINE
8
BLACK
6
CONTINUOUS
10
6.9871062992125985
20
-2.772521062992126
11
6.992566102362205
21
-2.7702595669291337
0
LINE
8
BLACK
6
CONTINUOUS
10
6.992566102362205
20
-2.7702595669291337
11
6.9984251968503939
21
-2.7694881889763781
0
LINE
8
BLACK
6
CONTINUOUS
10
6.9984251968503939
20
-2.7694881889763781
11
7.0042842913385828
21
-2.7702595669291337
0
LINE
8
BLACK
6
CONTINUOUS
10
3.0056638976377954
20
-2.662692401574803
11
3.013096181102362
21
-2.6642197637795273
0
LINE
8
BLACK
6
CONTINUOUS
10
3.013096181102362
20
-2.6642197637795273
11
3.0200688976377954
21
-2.6672120078740158
0
LINE
8
BLACK
6
CONTINUOUS
10
3.0200688976377954
20
-2.6672120078740158
11
3.0262965354330706
21
-2.6715465748031497
0
LINE
8
BLACK
6
CONTINUOUS
10
3.0262965354330706
20
-2.6715465748031497
11
3.0315241732283464
21
-2.6770460236220472
0
LINE
8
BLACK
6
CONTINUOUS
10
3.0315241732283464
20
-2.6770460236220472
11
3.0355377559055117
21
-2.6834852362204722
0
LINE
8
BLACK
6
CONTINUOUS
10
3.0355377559055117
20
-2.6834852362204722
11
3.0381729527559056
21
-2.6906005118110237
0
LINE
8
BLACK
6
CONTINUOUS
10
3.0381729527559056
20
-2.6906005118110237
11
3.039321929133858
21
-2.6981006692913385
0
LINE
8
BLACK
6
CONTINUOUS
10
3.039321929133858
20
-2.6981006692913385
11
3.0389376377952755
21
-2.7056785433070867
0
LINE
8
BLACK
6
CONTINUOUS
10
3.0389376377952755
20
-2.7056785433070867
11
3.0370357874015745
21
-2.7130239370078741
0
LINE
8
BLACK
6
CONTINUOUS
10
3.0370357874015745
20
-2.7130239370078741
11
3.033694251968504
21
-2.7198361417322836
0
LINE
8
BLACK
6
CONTINUOUS
10
3.033694251968504
20
-2.7198361417322836
11
3.029049803149606
21
-2.7258362598425196
0
LINE
8
BLACK
6
CONTINUOUS
10
3.029049803149606
20
-2.7258362598425196
11
3.0232926377952754
21
-2.7307786220472439
0
LINE
8
BLACK
6
CONTINUOUS
10
3.0232926377952754
20
-2.7307786220472439
11
3.0166584251968502
21
-2.7344609055118108
0
LINE
8
BLACK
6
CONTINUOUS
10
3.0166584251968502
20
-2.7344609055118108
11
3.0094187795275591
21
-2.7367323622047244
0
LINE
8
BLACK
6
CONTINUOUS
10
3.0094187795275591
20
-2.7367323622047244
11
3.0018700787401573
21
-2.7374999999999998
0
LINE
8
BLACK
6
CONTINUOUS
10
3.0018700787401573
20
-2.7374999999999998
11
2.9981299212598422
21
-2.7374999999999998
0
LINE
8
BLACK
6
CONTINUOUS
10
2.9981299212598422
20
-2.7374999999999998
11
2.9943361023622046
21
-2.7373075984251969
0
LINE
8
BLACK
6
CONTINUOUS
10
2.9943361023622046
20
-2.7373075984251969
11
2.9869038188976376
21
-2.7357802362204722
0
LINE
8
BLACK
6
CONTINUOUS
10
2.9869038188976376
20
-2.7357802362204722
11
2.9799311023622046
21
-2.7327879921259841
0
LINE
8
BLACK
6
CONTINUOUS
10
2.9799311023622046
20
-2.7327879921259841
11
2.9737034645669289
21
-2.7284534251968502
0
LINE
8
BLACK
6
CONTINUOUS
10
2.9737034645669289
20
-2.7284534251968502
11
2.9684758267716536
21
-2.7229539763779527
0
LINE
8
BLACK
6
CONTINUOUS
10
2.9684758267716536
20
-2.7229539763779527
11
2.9644622440944883
21
-2.7165147637795277
0
LINE
8
BLACK
6
CONTINUOUS
10
2.9644622440944883
20
-2.7165147637795277
11
2.9618270472440944
21
-2.7093994881889762
0
LINE
8
BLACK
6
CONTINUOUS
10
2.9618270472440944
20
-2.7093994881889762
11
2.9606780708661415
21
-2.7018993307086614
0
LINE
8
BLACK
6
CONTINUOUS
10
2.9606780708661415
20
-2.7018993307086614
11
2.9610623622047245
21
-2.6943214566929132
0
LINE
8
BLACK
6
CONTINUOUS
10
2.9610623622047245
20
-2.6943214566929132
11
2.962964212598425
21
-2.6869760629921258
0
LINE
8
BLACK
6
CONTINUOUS
10
2.962964212598425
20
-2.6869760629921258
11
2.966305748031496
21
-2.6801638582677163
0
LINE
8
BLACK
6
CONTINUOUS
10
2.966305748031496
20
-2.6801638582677163
11
2.9709501968503935
21
-2.6741637401574803
0
LINE
8
BLACK
6
CONTINUOUS
10
2.9709501968503935
20
-2.6741637401574803
11
2.9767073622047242
21
-2.669221377952756
0
LINE
8
BLACK
6
CONTINUOUS
10
2.9767073622047242
20
-2.669221377952756
11
2.9833415748031493
21
-2.6655390944881887
0
LINE
8
BLACK
6
CONTINUOUS
10
2.9833415748031493
20
-2.6655390944881887
11
2.9905812204724409
21
-2.6632676377952755
0
LINE
8
BLACK
6
CONTINUOUS
10
2.9905812204724409
20
-2.6632676377952755
11
2.9981299212598422
21
-2.6625000000000001
0
LINE
8
BLACK
6
CONTINUOUS
10
2.9981299212598422
20
-2.6625000000000001
11
3.0018700787401573
21
-2.6625000000000001
0
LINE
8
BLACK
6
CONTINUOUS
10
3.0018700787401573
20
-2.6625000000000001
11
3.0056638976377954
21
-2.662692401574803
0
LINE
8
BLACK
6
CONTINUOUS
10
4.5818346456692911
20
-2.7329409448818898
11
4.5228346456692909
21
-2.7329409448818898
0
LINE
8
BLACK
6
CONTINUOUS
10
4.5228346456692909
20
-2.7329409448818898
11
4.5228346456692909
21
-2.6739409448818896
0
LINE
8
BLACK
6
CONTINUOUS
10
4.5228346456692909
20
-2.6739409448818896
11
4.5818346456692911
21
-2.6739409448818896
0
LINE
8
BLACK
6
CONTINUOUS
10
4.5818346456692911
20
-2.6739409448818896
11
4.5818346456692911
21
-2.7329409448818898
0
LINE
8
BLACK
6
CONTINUOUS
10
4.8588990157480314
20
-2.6746805905511812
11
4.8651342125984254
21
-2.6768623622047243
0
LINE
8
BLACK
6
CONTINUOUS
10
4.8651342125984254
20
-2.6768623622047243
11
4.870727598425197
21
-2.6803769291338582
0
LINE
8
BLACK
6
CONTINUOUS
10
4.870727598425197
20
-2.6803769291338582
11
4.8753986614173224
21
-2.685047992125984
0
LINE
8
BLACK
6
CONTINUOUS
10
4.8753986614173224
20
-2.685047992125984
11
4.8789132283464562
21
-2.690641377952756
0
LINE
8
BLACK
6
CONTINUOUS
10
4.8789132283464562
20
-2.690641377952756
11
4.8810950000000002
21
-2.6968765748031496
0
LINE
8
BLACK
6
CONTINUOUS
10
4.8810950000000002
20
-2.6968765748031496
11
4.8818346456692909
21
-2.7034409448818897
0
LINE
8
BLACK
6
CONTINUOUS
10
4.8818346456692909
20
-2.7034409448818897
11
4.8810950000000002
21
-2.7100053149606298
0
LINE
8
BLACK
6
CONTINUOUS
10
4.8810950000000002
20
-2.7100053149606298
11
4.8789132283464562
21
-2.7162405118110238
0
LINE
8
BLACK
6
CONTINUOUS
10
4.8789132283464562
20
-2.7162405118110238
11
4.8753986614173224
21
-2.7218338976377954
0
LINE
8
BLACK
6
CONTINUOUS
10
4.8753986614173224
20
-2.7218338976377954
11
4.870727598425197
21
-2.7265049606299212
0
LINE
8
BLACK
6
CONTINUOUS
10
4.870727598425197
20
-2.7265049606299212
11
4.8651342125984254
21
-2.7300195275590551
0
LINE
8
BLACK
6
CONTINUOUS
10
4.8651342125984254
20
-2.7300195275590551
11
4.8588990157480314
21
-2.7322012992125986
0
LINE
8
BLACK
6
CONTINUOUS
10
4.8588990157480314
20
-2.7322012992125986
11
4.8523346456692913
21
-2.7329409448818898
0
LINE
8
BLACK
6
CONTINUOUS
10
4.8523346456692913
20
-2.7329409448818898
11
4.8457702755905512
21
-2.7322012992125986
0
LINE
8
BLACK
6
CONTINUOUS
10
4.8457702755905512
20
-2.7322012992125986
11
4.8395350787401572
21
-2.7300195275590551
0
LINE
8
BLACK
6
CONTINUOUS
10
4.8395350787401572
20
-2.7300195275590551
11
4.8339416929133856
21
-2.7265049606299212
0
LINE
8
BLACK
6
CONTINUOUS
10
4.8339416929133856
20
-2.7265049606299212
11
4.8292706299212593
21
-2.7218338976377954
0
LINE
8
BLACK
6
CONTINUOUS
10
4.8292706299212593
20
-2.7218338976377954
11
4.8257560629921255
21
-2.7162405118110238
0
LINE
8
BLACK
6
CONTINUOUS
10
4.8257560629921255
20
-2.7162405118110238
11
4.8235742913385824
21
-2.7100053149606298
0
LINE
8
BLACK
6
CONTINUOUS
10
4.8235742913385824
20
-2.7100053149606298
11
4.8228346456692917
21
-2.7034409448818897
0
LINE
8
BLACK
6
CONTINUOUS
10
4.8228346456692917
20
-2.7034409448818897
11
4.8235742913385824
21
-2.6968765748031496
0
LINE
8
BLACK
6
CONTINUOUS
10
4.8235742913385824
20
-2.6968765748031496
11
4.8257560629921255
21
-2.690641377952756
0
LINE
8
BLACK
6
CONTINUOUS
10
4.8257560629921255
20
-2.690641377952756
11
4.8292706299212593
21
-2.685047992125984
0
LINE
8
BLACK
6
CONTINUOUS
10
4.8292706299212593
20
-2.685047992125984
11
4.8339416929133856
21
-2.6803769291338582
0
LINE
8
BLACK
6
CONTINUOUS
10
4.8339416929133856
20
-2.6803769291338582
11
4.8395350787401572
21
-2.6768623622047243
0
LINE
8
BLACK
6
CONTINUOUS
10
4.8395350787401572
20
-2.6768623622047243
11
4.8457702755905512
21
-2.6746805905511812
0
LINE
8
BLACK
6
CONTINUOUS
10
4.8457702755905512
20
-2.6746805905511812
11
4.8523346456692913
21
-2.6739409448818896
0
LINE
8
BLACK
6
CONTINUOUS
10
4.8523346456692913
20
-2.6739409448818896
11
4.8588990157480314
21
-2.6746805905511812
0
LINE
8
BLACK
6
CONTINUOUS
10
3.7517751968503936
20
-2.6499690944881888
11
3.7591607480314959
21
-2.6522094488188976
0
LINE
8
BLACK
6
CONTINUOUS
10
3.7591607480314959
20
-2.6522094488188976
11
3.7659673228346455
21
-2.6558476377952753
0
LINE
8
BLACK
6
CONTINUOUS
10
3.7659673228346455
20
-2.6558476377952753
11
3.7719333464566929
21
-2.6607438188976378
0
LINE
8
BLACK
6
CONTINUOUS
10
3.7719333464566929
20
-2.6607438188976378
11
3.7768295275590549
21
-2.6667098425196851
0
LINE
8
BLACK
6
CONTINUOUS
10
3.7768295275590549
20
-2.6667098425196851
11
3.780467716535433
21
-2.6735164173228347
0
LINE
8
BLACK
6
CONTINUOUS
10
3.780467716535433
20
-2.6735164173228347
11
3.7827080708661418
21
-2.680901968503937
0
LINE
8
BLACK
6
CONTINUOUS
10
3.7827080708661418
20
-2.680901968503937
11
3.7834645669291338
21
-2.6885826771653543
0
LINE
8
BLACK
6
CONTINUOUS
10
3.7834645669291338
20
-2.6885826771653543
11
3.7827080708661418
21
-2.6962633858267715
0
LINE
8
BLACK
6
CONTINUOUS
10
3.7827080708661418
20
-2.6962633858267715
11
3.780467716535433
21
-2.7036489370078738
0
LINE
8
BLACK
6
CONTINUOUS
10
3.780467716535433
20
-2.7036489370078738
11
3.7768295275590549
21
-2.7104555118110234
0
LINE
8
BLACK
6
CONTINUOUS
10
3.7768295275590549
20
-2.7104555118110234
11
3.7719333464566929
21
-2.7164215354330707
0
LINE
8
BLACK
6
CONTINUOUS
10
3.7719333464566929
20
-2.7164215354330707
11
3.7659673228346455
21
-2.7213177165354332
0
LINE
8
BLACK
6
CONTINUOUS
10
3.7659673228346455
20
-2.7213177165354332
11
3.7591607480314959
21
-2.7249559055118109
0
LINE
8
BLACK
6
CONTINUOUS
10
3.7591607480314959
20
-2.7249559055118109
11
3.7517751968503936
21
-2.7271962598425197
0
LINE
8
BLACK
6
CONTINUOUS
10
3.7517751968503936
20
-2.7271962598425197
11
3.7440944881889764
21
-2.7279527559055117
0
LINE
8
BLACK
6
CONTINUOUS
10
3.7440944881889764
20
-2.7279527559055117
11
3.7364137795275592
21
-2.7271962598425197
0
LINE
8
BLACK
6
CONTINUOUS
10
3.7364137795275592
20
-2.7271962598425197
11
3.7290282283464564
21
-2.7249559055118109
0
LINE
8
BLACK
6
CONTINUOUS
10
3.7290282283464564
20
-2.7249559055118109
11
3.7222216535433068
21
-2.7213177165354332
0
LINE
8
BLACK
6
CONTINUOUS
10
3.7222216535433068
20
-2.7213177165354332
11
3.7162556299212599
21
-2.7164215354330707
0
LINE
8
BLACK
6
CONTINUOUS
10
3.7162556299212599
20
-2.7164215354330707
11
3.7113594488188975
21
-2.7104555118110234
0
LINE
8
BLACK
6
CONTINUOUS
10
3.7113594488188975
20
-2.7104555118110234
11
3.7077212598425198
21
-2.7036489370078738
0
LINE
8
BLACK
6
CONTINUOUS
10
3.7077212598425198
20
-2.7036489370078738
11
3.705480905511811
21
-2.6962633858267715
0
LINE
8
BLACK
6
CONTINUOUS
10
3.705480905511811
20
-2.6962633858267715
11
3.704724409448819
21
-2.6885826771653543
0
LINE
8
BLACK
6
CONTINUOUS
10
3.704724409448819
20
-2.6885826771653543
11
3.705480905511811
21
-2.680901968503937
0
LINE
8
BLACK
6
CONTINUOUS
10
3.705480905511811
20
-2.680901968503937
11
3.7077212598425198
21
-2.6735164173228347
0
LINE
8
BLACK
6
CONTINUOUS
10
3.7077212598425198
20
-2.6735164173228347
11
3.7113594488188975
21
-2.6667098425196851
0
LINE
8
BLACK
6
CONTINUOUS
10
3.7113594488188975
20
-2.6667098425196851
11
3.7162556299212599
21
-2.6607438188976378
0
LINE
8
BLACK
6
CONTINUOUS
10
3.7162556299212599
20
-2.6607438188976378
11
3.7222216535433068
21
-2.6558476377952753
0
LINE
8
BLACK
6
CONTINUOUS
10
3.7222216535433068
20
-2.6558476377952753
11
3.7290282283464564
21
-2.6522094488188976
0
LINE
8
BLACK
6
CONTINUOUS
10
3.7290282283464564
20
-2.6522094488188976
11
3.7364137795275592
21
-2.6499690944881888
0
LINE
8
BLACK
6
CONTINUOUS
10
3.7364137795275592
20
-2.6499690944881888
11
3.7440944881889764
21
-2.6492125984251969
0
LINE
8
BLACK
6
CONTINUOUS
10
3.7440944881889764
20
-2.6492125984251969
11
3.7517751968503936
21
-2.6499690944881888
0
LINE
8
BLACK
6
CONTINUOUS
10
4.0076807086614172
20
-2.6499690944881888
11
4.01506625984252
21
-2.6522094488188976
0
LINE
8
BLACK
6
CONTINUOUS
10
4.01506625984252
20
-2.6522094488188976
11
4.0218728346456691
21
-2.6558476377952753
0
LINE
8
BLACK
6
CONTINUOUS
10
4.0218728346456691
20
-2.6558476377952753
11
4.0278388582677165
21
-2.6607438188976378
0
LINE
8
BLACK
6
CONTINUOUS
10
4.0278388582677165
20
-2.6607438188976378
11
4.0327350393700785
21
-2.6667098425196851
0
LINE
8
BLACK
6
CONTINUOUS
10
4.0327350393700785
20
-2.6667098425196851
11
4.0363732283464566
21
-2.6735164173228347
0
LINE
8
BLACK
6
CONTINUOUS
10
4.0363732283464566
20
-2.6735164173228347
11
4.038613582677165
21
-2.680901968503937
0
LINE
8
BLACK
6
CONTINUOUS
10
4.038613582677165
20
-2.680901968503937
11
4.0393700787401574
21
-2.6885826771653543
0
LINE
8
BLACK
6
CONTINUOUS
10
4.0393700787401574
20
-2.6885826771653543
11
4.038613582677165
21
-2.6962633858267715
0
LINE
8
BLACK
6
CONTINUOUS
10
4.038613582677165
20
-2.6962633858267715
11
4.0363732283464566
21
-2.7036489370078738
0
LINE
8
BLACK
6
CONTINUOUS
10
4.0363732283464566
20
-2.7036489370078738
11
4.0327350393700785
21
-2.7104555118110234
0
LINE
8
BLACK
6
CONTINUOUS
10
4.0327350393700785
20
-2.7104555118110234
11
4.0278388582677165
21
-2.7164215354330707
0
LINE
8
BLACK
6
CONTINUOUS
10
4.0278388582677165
20
-2.7164215354330707
11
4.0218728346456691
21
-2.7213177165354332
0
LINE
8
BLACK
6
CONTINUOUS
10
4.0218728346456691
20
-2.7213177165354332
11
4.01506625984252
21
-2.7249559055118109
0
LINE
8
BLACK
6
CONTINUOUS
10
4.01506625984252
20
-2.7249559055118109
11
4.0076807086614172
21
-2.7271962598425197
0
LINE
8
BLACK
6
CONTINUOUS
10
4.0076807086614172
20
-2.7271962598425197
11
4.
21
-2.7279527559055117
0
LINE
8
BLACK
6
CONTINUOUS
10
4.
20
-2.7279527559055117
11
3.9923192913385828
21
-2.7271962598425197
0
LINE
8
BLACK
6
CONTINUOUS
10
3.9923192913385828
20
-2.7271962598425197
11
3.98493374015748
21
-2.7249559055118109
0
LINE
8
BLACK
6
CONTINUOUS
10
3.98493374015748
20
-2.7249559055118109
11
3.9781271653543304
21
-2.7213177165354332
0
LINE
8
BLACK
6
CONTINUOUS
10
3.9781271653543304
20
-2.7213177165354332
11
3.9721611417322835
21
-2.7164215354330707
0
LINE
8
BLACK
6
CONTINUOUS
10
3.9721611417322835
20
-2.7164215354330707
11
3.9672649606299211
21
-2.7104555118110234
0
LINE
8
BLACK
6
CONTINUOUS
10
3.9672649606299211
20
-2.7104555118110234
11
3.9636267716535434
21
-2.7036489370078738
0
LINE
8
BLACK
6
CONTINUOUS
10
3.9636267716535434
20
-2.7036489370078738
11
3.9613864173228346
21
-2.6962633858267715
0
LINE
8
BLACK
6
CONTINUOUS
10
3.9613864173228346
20
-2.6962633858267715
11
3.9606299212598426
21
-2.6885826771653543
0
LINE
8
BLACK
6
CONTINUOUS
10
3.9606299212598426
20
-2.6885826771653543
11
3.9613864173228346
21
-2.680901968503937
0
LINE
8
BLACK
6
CONTINUOUS
10
3.9613864173228346
20
-2.680901968503937
11
3.9636267716535434
21
-2.6735164173228347
0
LINE
8
BLACK
6
CONTINUOUS
10
3.9636267716535434
20
-2.6735164173228347
11
3.9672649606299211
21
-2.6667098425196851
0
LINE
8
BLACK
6
CONTINUOUS
10
3.9672649606299211
20
-2.6667098425196851
11
3.9721611417322835
21
-2.6607438188976378
0
LINE
8
BLACK
6
CONTINUOUS
10
3.9721611417322835
20
-2.6607438188976378
11
3.9781271653543304
21
-2.6558476377952753
0
LINE
8
BLACK
6
CONTINUOUS
10
3.9781271653543304
20
-2.6558476377952753
11
3.98493374015748
21
-2.6522094488188976
0
LINE
8
BLACK
6
CONTINUOUS
10
3.98493374015748
20
-2.6522094488188976
11
3.9923192913385828
21
-2.6499690944881888
0
LINE
8
BLACK
6
CONTINUOUS
10
3.9923192913385828
20
-2.6499690944881888
11
4.
21
-2.6492125984251969
0
LINE
8
BLACK
6
CONTINUOUS
10
4.
20
-2.6492125984251969
11
4.0076807086614172
21
-2.6499690944881888
0
LINE
8
BLACK
6
CONTINUOUS
10
3.0393700787401574
20
-2.6374999999999997
11
2.9606299212598426
21
-2.6374999999999997
0
LINE
8
BLACK
6
CONTINUOUS
10
2.9606299212598426
20
-2.6374999999999997
11
2.9606299212598426
21
-2.5625
0
LINE
8
BLACK
6
CONTINUOUS
10
2.9606299212598426
20
-2.5625
11
3.0393700787401574
21
-2.5625
0
LINE
8
BLACK
6
CONTINUOUS
10
3.0393700787401574
20
-2.5625
11
3.0393700787401574
21
-2.6374999999999997
0
LINE
8
BLACK
6
CONTINUOUS
10
5.9065705118110232
20
-2.5712127559055116
11
5.9128115354330708
21
-2.5733965748031498
0
LINE
8
BLACK
6
CONTINUOUS
10
5.9128115354330708
20
-2.5733965748031498
11
5.918410118110236
21
-2.5769144094488188
0
LINE
8
BLACK
6
CONTINUOUS
10
5.918410118110236
20
-2.5769144094488188
11
5.9230855905511808
21
-2.5815898818897636
0
LINE
8
BLACK
6
CONTINUOUS
10
5.9230855905511808
20
-2.5815898818897636
11
5.9266034251968502
21
-2.5871884645669292
0
LINE
8
BLACK
6
CONTINUOUS
10
5.9266034251968502
20
-2.5871884645669292
11
5.9287872440944884
21
-2.5934294881889763
0
LINE
8
BLACK
6
CONTINUOUS
10
5.9287872440944884
20
-2.5934294881889763
11
5.929527559055118
21
-2.6000000000000001
0
LINE
8
BLACK
6
CONTINUOUS
10
5.929527559055118
20
-2.6000000000000001
11
5.9287872440944884
21
-2.6065705118110234
0
LINE
8
BLACK
6
CONTINUOUS
10
5.9287872440944884
20
-2.6065705118110234
11
5.9266034251968502
21
-2.612811535433071
0
LINE
8
BLACK
6
CONTINUOUS
10
5.9266034251968502
20
-2.612811535433071
11
5.9230855905511808
21
-2.6184101181102362
0
LINE
8
BLACK
6
CONTINUOUS
10
5.9230855905511808
20
-2.6184101181102362
11
5.918410118110236
21
-2.623085590551181
0
LINE
8
BLACK
6
CONTINUOUS
10
5.918410118110236
20
-2.623085590551181
11
5.9128115354330708
21
-2.6266034251968504
0
LINE
8
BLACK
6
CONTINUOUS
10
5.9128115354330708
20
-2.6266034251968504
11
5.9065705118110232
21
-2.6287872440944882
0
LINE
8
BLACK
6
CONTINUOUS
10
5.9065705118110232
20
-2.6287872440944882
11
5.8999999999999995
21
-2.6295275590551181
0
LINE
8
BLACK
6
CONTINUOUS
10
5.8999999999999995
20
-2.6295275590551181
11
5.8934294881889766
21
-2.6287872440944882
0
LINE
8
BLACK
6
CONTINUOUS
10
5.8934294881889766
20
-2.6287872440944882
11
5.887188464566929
21
-2.6266034251968504
0
LINE
8
BLACK
6
CONTINUOUS
10
5.887188464566929
20
-2.6266034251968504
11
5.8815898818897638
21
-2.623085590551181
0
LINE
8
BLACK
6
CONTINUOUS
10
5.8815898818897638
20
-2.623085590551181
11
5.876914409448819
21
-2.6184101181102362
0
LINE
8
BLACK
6
CONTINUOUS
10
5.876914409448819
20
-2.6184101181102362
11
5.8733965748031496
21
-2.612811535433071
0
LINE
8
BLACK
6
CONTINUOUS
10
5.8733965748031496
20
-2.612811535433071
11
5.8712127559055114
21
-2.6065705118110234
0
LINE
8
BLACK
6
CONTINUOUS
10
5.8712127559055114
20
-2.6065705118110234
11
5.8704724409448819
21
-2.6000000000000001
0
LINE
8
BLACK
6
CONTINUOUS
10
5.8704724409448819
20
-2.6000000000000001
11
5.8712127559055114
21
-2.5934294881889763
0
LINE
8
BLACK
6
CONTINUOUS
10
5.8712127559055114
20
-2.5934294881889763
11
5.8733965748031496
21
-2.5871884645669292
0
LINE
8
BLACK
6
CONTINUOUS
10
5.8733965748031496
20
-2.5871884645669292
11
5.876914409448819
21
-2.5815898818897636
0
LINE
8
BLACK
6
CONTINUOUS
10
5.876914409448819
20
-2.5815898818897636
11
5.8815898818897638
21
-2.5769144094488188
0
LINE
8
BLACK
6
CONTINUOUS
10
5.8815898818897638
20
-2.5769144094488188
11
5.887188464566929
21
-2.5733965748031498
0
LINE
8
BLACK
6
CONTINUOUS
10
5.887188464566929
20
-2.5733965748031498
11
5.8934294881889766
21
-2.5712127559055116
0
LINE
8
BLACK
6
CONTINUOUS
10
5.8934294881889766
20
-2.5712127559055116
11
5.8999999999999995
21
-2.570472440944882
0
LINE
8
BLACK
6
CONTINUOUS
10
5.8999999999999995
20
-2.570472440944882
11
5.9065705118110232
21
-2.5712127559055116
0
LINE
8
BLACK
6
CONTINUOUS
10
6.8074338976377948
20
-2.5781335826771654
11
6.8128937007874013
21
-2.5803950787401573
0
LINE
8
BLACK
6
CONTINUOUS
10
6.8128937007874013
20
-2.5803950787401573
11
6.8175821259842522
21
-2.5839926771653543
0
LINE
8
BLACK
6
CONTINUOUS
10
6.8175821259842522
20
-2.5839926771653543
11
6.8211797244094488
21
-2.5886811023622047
0
LINE
8
BLACK
6
CONTINUOUS
10
6.8211797244094488
20
-2.5886811023622047
11
6.8234412204724411
21
-2.5941409055118108
0
LINE
8
BLACK
6
CONTINUOUS
10
6.8234412204724411
20
-2.5941409055118108
11
6.8242125984251967
21
-2.6000000000000001
0
LINE
8
BLACK
6
CONTINUOUS
10
6.8242125984251967
20
-2.6000000000000001
11
6.8234412204724411
21
-2.605859094488189
0
LINE
8
BLACK
6
CONTINUOUS
10
6.8234412204724411
20
-2.605859094488189
11
6.8211797244094488
21
-2.611318897637795
0
LINE
8
BLACK
6
CONTINUOUS
10
6.8211797244094488
20
-2.611318897637795
11
6.8175821259842522
21
-2.6160073228346454
0
LINE
8
BLACK
6
CONTINUOUS
10
6.8175821259842522
20
-2.6160073228346454
11
6.8128937007874013
21
-2.6196049212598425
0
LINE
8
BLACK
6
CONTINUOUS
10
6.8128937007874013
20
-2.6196049212598425
11
6.8074338976377948
21
-2.6218664173228348
0
LINE
8
BLACK
6
CONTINUOUS
10
6.8074338976377948
20
-2.6218664173228348
11
6.8015748031496059
21
-2.6226377952755904
0
LINE
8
BLACK
6
CONTINUOUS
10
6.8015748031496059
20
-2.6226377952755904
11
6.7957157086614171
21
-2.6218664173228348
0
LINE
8
BLACK
6
CONTINUOUS
10
6.7957157086614171
20
-2.6218664173228348
11
6.7902559055118106
21
-2.6196049212598425
0
LINE
8
BLACK
6
CONTINUOUS
10
6.7902559055118106
20
-2.6196049212598425
11
6.7855674803149606
21
-2.6160073228346454
0
LINE
8
BLACK
6
CONTINUOUS
10
6.7855674803149606
20
-2.6160073228346454
11
6.781969881889764
21
-2.611318897637795
0
LINE
8
BLACK
6
CONTINUOUS
10
6.781969881889764
20
-2.611318897637795
11
6.7797083858267717
21
-2.605859094488189
0
LINE
8
BLACK
6
CONTINUOUS
10
6.7797083858267717
20
-2.605859094488189
11
6.7789370078740152
21
-2.6000000000000001
0
LINE
8
BLACK
6
CONTINUOUS
10
6.7789370078740152
20
-2.6000000000000001
11
6.7797083858267717
21
-2.5941409055118108
0
LINE
8
BLACK
6
CONTINUOUS
10
6.7797083858267717
20
-2.5941409055118108
11
6.781969881889764
21
-2.5886811023622047
0
LINE
8
BLACK
6
CONTINUOUS
10
6.781969881889764
20
-2.5886811023622047
11
6.7855674803149606
21
-2.5839926771653543
0
LINE
8
BLACK
6
CONTINUOUS
10
6.7855674803149606
20
-2.5839926771653543
11
6.7902559055118106
21
-2.5803950787401573
0
LINE
8
BLACK
6
CONTINUOUS
10
6.7902559055118106
20
-2.5803950787401573
11
6.7957157086614171
21
-2.5781335826771654
0
LINE
8
BLACK
6
CONTINUOUS
10
6.7957157086614171
20
-2.5781335826771654
11
6.8015748031496059
21
-2.5773622047244094
0
LINE
8
BLACK
6
CONTINUOUS
10
6.8015748031496059
20
-2.5773622047244094
11
6.8074338976377948
21
-2.5781335826771654
0
LINE
8
BLACK
6
CONTINUOUS
10
7.0042842913385828
20
-2.5781335826771654
11
7.0097440944881892
21
-2.5803950787401573
0
LINE
8
BLACK
6
CONTINUOUS
10
7.0097440944881892
20
-2.5803950787401573
11
7.0144325196850392
21
-2.5839926771653543
0
LINE
8
BLACK
6
CONTINUOUS
10
7.0144325196850392
20
-2.5839926771653543
11
7.0180301181102358
21
-2.5886811023622047
0
LINE
8
BLACK
6
CONTINUOUS
10
7.0180301181102358
20
-2.5886811023622047
11
7.0202916141732281
21
-2.5941409055118108
0
LINE
8
BLACK
6
CONTINUOUS
10
7.0202916141732281
20
-2.5941409055118108
11
7.0210629921259837
21
-2.6000000000000001
0
LINE
8
BLACK
6
CONTINUOUS
10
7.0210629921259837
20
-2.6000000000000001
11
7.0202916141732281
21
-2.605859094488189
0
LINE
8
BLACK
6
CONTINUOUS
10
7.0202916141732281
20
-2.605859094488189
11
7.0180301181102358
21
-2.611318897637795
0
LINE
8
BLACK
6
CONTINUOUS
10
7.0180301181102358
20
-2.611318897637795
11
7.0144325196850392
21
-2.6160073228346454
0
LINE
8
BLACK
6
CONTINUOUS
10
7.0144325196850392
20
-2.6160073228346454
11
7.0097440944881892
21
-2.6196049212598425
0
LINE
8
BLACK
6
CONTINUOUS
10
7.0097440944881892
20
-2.6196049212598425
11
7.0042842913385828
21
-2.6218664173228348
0
LINE
8
BLACK
6
CONTINUOUS
10
7.0042842913385828
20
-2.6218664173228348
11
6.9984251968503939
21
-2.6226377952755904
0
LINE
8
BLACK
6
CONTINUOUS
10
6.9984251968503939
20
-2.6226377952755904
11
6.992566102362205
21
-2.6218664173228348
0
LINE
8
BLACK
6
CONTINUOUS
10
6.992566102362205
20
-2.6218664173228348
11
6.9871062992125985
21
-2.6196049212598425
0
LINE
8
BLACK
6
CONTINUOUS
10
6.9871062992125985
20
-2.6196049212598425
11
6.9824178740157476
21
-2.6160073228346454
0
LINE
8
BLACK
6
CONTINUOUS
10
6.9824178740157476
20
-2.6160073228346454
11
6.9788202755905511
21
-2.611318897637795
0
LINE
8
BLACK
6
CONTINUOUS
10
6.9788202755905511
20
-2.611318897637795
11
6.9765587795275588
21
-2.605859094488189
0
LINE
8
BLACK
6
CONTINUOUS
10
6.9765587795275588
20
-2.605859094488189
11
6.9757874015748031
21
-2.6000000000000001
0
LINE
8
BLACK
6
CONTINUOUS
10
6.9757874015748031
20
-2.6000000000000001
11
6.9765587795275588
21
-2.5941409055118108
0
LINE
8
BLACK
6
CONTINUOUS
10
6.9765587795275588
20
-2.5941409055118108
11
6.9788202755905511
21
-2.5886811023622047
0
LINE
8
BLACK
6
CONTINUOUS
10
6.9788202755905511
20
-2.5886811023622047
11
6.9824178740157476
21
-2.5839926771653543
0
LINE
8
BLACK
6
CONTINUOUS
10
6.9824178740157476
20
-2.5839926771653543
11
6.9871062992125985
21
-2.5803950787401573
0
LINE
8
BLACK
6
CONTINUOUS
10
6.9871062992125985
20
-2.5803950787401573
11
6.992566102362205
21
-2.5781335826771654
0
LINE
8
BLACK
6
CONTINUOUS
10
6.992566102362205
20
-2.5781335826771654
11
6.9984251968503939
21
-2.5773622047244094
0
LINE
8
BLACK
6
CONTINUOUS
10
6.9984251968503939
20
-2.5773622047244094
11
7.0042842913385828
21
-2.5781335826771654
0
LINE
8
BLACK
6
CONTINUOUS
10
3.7517751968503936
20
-2.4728037401574801
11
3.7591607480314959
21
-2.4750440944881889
0
LINE
8
BLACK
6
CONTINUOUS
10
3.7591607480314959
20
-2.4750440944881889
11
3.7659673228346455
21
-2.478682283464567
0
LINE
8
BLACK
6
CONTINUOUS
10
3.7659673228346455
20
-2.478682283464567
11
3.7719333464566929
21
-2.483578464566929
0
LINE
8
BLACK
6
CONTINUOUS
10
3.7719333464566929
20
-2.483578464566929
11
3.7768295275590549
21
-2.4895444881889763
0
LINE
8
BLACK
6
CONTINUOUS
10
3.7768295275590549
20
-2.4895444881889763
11
3.780467716535433
21
-2.4963510629921259
0
LINE
8
BLACK
6
CONTINUOUS
10
3.780467716535433
20
-2.4963510629921259
11
3.7827080708661418
21
-2.5037366141732282
0
LINE
8
BLACK
6
CONTINUOUS
10
3.7827080708661418
20
-2.5037366141732282
11
3.7834645669291338
21
-2.5114173228346455
0
LINE
8
BLACK
6
CONTINUOUS
10
3.7834645669291338
20
-2.5114173228346455
11
3.7827080708661418
21
-2.5190980314960632
0
LINE
8
BLACK
6
CONTINUOUS
10
3.7827080708661418
20
-2.5190980314960632
11
3.780467716535433
21
-2.5264835826771654
0
LINE
8
BLACK
6
CONTINUOUS
10
3.780467716535433
20
-2.5264835826771654
11
3.7768295275590549
21
-2.5332901574803151
0
LINE
8
BLACK
6
CONTINUOUS
10
3.7768295275590549
20
-2.5332901574803151
11
3.7719333464566929
21
-2.539256181102362
0
LINE
8
BLACK
6
CONTINUOUS
10
3.7719333464566929
20
-2.539256181102362
11
3.7659673228346455
21
-2.5441523622047244
0
LINE
8
BLACK
6
CONTINUOUS
10
3.7659673228346455
20
-2.5441523622047244
11
3.7591607480314959
21
-2.5477905511811021
0
LINE
8
BLACK
6
CONTINUOUS
10
3.7591607480314959
20
-2.5477905511811021
11
3.7517751968503936
21
-2.5500309055118109
0
LINE
8
BLACK
6
CONTINUOUS
10
3.7517751968503936
20
-2.5500309055118109
11
3.7440944881889764
21
-2.5507874015748029
0
LINE
8
BLACK
6
CONTINUOUS
10
3.7440944881889764
20
-2.5507874015748029
11
3.7364137795275592
21
-2.5500309055118109
0
LINE
8
BLACK
6
CONTINUOUS
10
3.7364137795275592
20
-2.5500309055118109
11
3.7290282283464564
21
-2.5477905511811021
0
LINE
8
BLACK
6
CONTINUOUS
10
3.7290282283464564
20
-2.5477905511811021
11
3.7222216535433068
21
-2.5441523622047244
0
LINE
8
BLACK
6
CONTINUOUS
10
3.7222216535433068
20
-2.5441523622047244
11
3.7162556299212599
21
-2.539256181102362
0
LINE
8
BLACK
6
CONTINUOUS
10
3.7162556299212599
20
-2.539256181102362
11
3.7113594488188975
21
-2.5332901574803151
0
LINE
8
BLACK
6
CONTINUOUS
10
3.7113594488188975
20
-2.5332901574803151
11
3.7077212598425198
21
-2.5264835826771654
0
LINE
8
BLACK
6
CONTINUOUS
10
3.7077212598425198
20
-2.5264835826771654
11
3.705480905511811
21
-2.5190980314960632
0
LINE
8
BLACK
6
CONTINUOUS
10
3.705480905511811
20
-2.5190980314960632
11
3.704724409448819
21
-2.5114173228346455
0
LINE
8
BLACK
6
CONTINUOUS
10
3.704724409448819
20
-2.5114173228346455
11
3.705480905511811
21
-2.5037366141732282
0
LINE
8
BLACK
6
CONTINUOUS
10
3.705480905511811
20
-2.5037366141732282
11
3.7077212598425198
21
-2.4963510629921259
0
LINE
8
BLACK
6
CONTINUOUS
10
3.7077212598425198
20
-2.4963510629921259
11
3.7113594488188975
21
-2.4895444881889763
0
LINE
8
BLACK
6
CONTINUOUS
10
3.7113594488188975
20
-2.4895444881889763
11
3.7162556299212599
21
-2.483578464566929
0
LINE
8
BLACK
6
CONTINUOUS
10
3.7162556299212599
20
-2.483578464566929
11
3.7222216535433068
21
-2.478682283464567
0
LINE
8
BLACK
6
CONTINUOUS
10
3.7222216535433068
20
-2.478682283464567
11
3.7290282283464564
21
-2.4750440944881889
0
LINE
8
BLACK
6
CONTINUOUS
10
3.7290282283464564
20
-2.4750440944881889
11
3.7364137795275592
21
-2.4728037401574801
0
LINE
8
BLACK
6
CONTINUOUS
10
3.7364137795275592
20
-2.4728037401574801
11
3.7440944881889764
21
-2.4720472440944881
0
LINE
8
BLACK
6
CONTINUOUS
10
3.7440944881889764
20
-2.4720472440944881
11
3.7517751968503936
21
-2.4728037401574801
0
LINE
8
BLACK
6
CONTINUOUS
10
4.0076807086614172
20
-2.4728037401574801
11
4.01506625984252
21
-2.4750440944881889
0
LINE
8
BLACK
6
CONTINUOUS
10
4.01506625984252
20
-2.4750440944881889
11
4.0218728346456691
21
-2.478682283464567
0
LINE
8
BLACK
6
CONTINUOUS
10
4.0218728346456691
20
-2.478682283464567
11
4.0278388582677165
21
-2.483578464566929
0
LINE
8
BLACK
6
CONTINUOUS
10
4.0278388582677165
20
-2.483578464566929
11
4.0327350393700785
21
-2.4895444881889763
0
LINE
8
BLACK
6
CONTINUOUS
10
4.0327350393700785
20
-2.4895444881889763
11
4.0363732283464566
21
-2.4963510629921259
0
LINE
8
BLACK
6
CONTINUOUS
10
4.0363732283464566
20
-2.4963510629921259
11
4.038613582677165
21
-2.5037366141732282
0
LINE
8
BLACK
6
CONTINUOUS
10
4.038613582677165
20
-2.5037366141732282
11
4.0393700787401574
21
-2.5114173228346455
0
LINE
8
BLACK
6
CONTINUOUS
10
4.0393700787401574
20
-2.5114173228346455
11
4.038613582677165
21
-2.5190980314960632
0
LINE
8
BLACK
6
CONTINUOUS
10
4.038613582677165
20
-2.5190980314960632
11
4.0363732283464566
21
-2.5264835826771654
0
LINE
8
BLACK
6
CONTINUOUS
10
4.0363732283464566
20
-2.5264835826771654
11
4.0327350393700785
21
-2.5332901574803151
0
LINE
8
BLACK
6
CONTINUOUS
10
4.0327350393700785
20
-2.5332901574803151
11
4.0278388582677165
21
-2.539256181102362
0
LINE
8
BLACK
6
CONTINUOUS
10
4.0278388582677165
20
-2.539256181102362
11
4.0218728346456691
21
-2.5441523622047244
0
LINE
8
BLACK
6
CONTINUOUS
10
4.0218728346456691
20
-2.5441523622047244
11
4.01506625984252
21
-2.5477905511811021
0
LINE
8
BLACK
6
CONTINUOUS
10
4.01506625984252
20
-2.5477905511811021
11
4.0076807086614172
21
-2.5500309055118109
0
LINE
8
BLACK
6
CONTINUOUS
10
4.0076807086614172
20
-2.5500309055118109
11
4.
21
-2.5507874015748029
0
LINE
8
BLACK
6
CONTINUOUS
10
4.
20
-2.5507874015748029
11
3.9923192913385828
21
-2.5500309055118109
0
LINE
8
BLACK
6
CONTINUOUS
10
3.9923192913385828
20
-2.5500309055118109
11
3.98493374015748
21
-2.5477905511811021
0
LINE
8
BLACK
6
CONTINUOUS
10
3.98493374015748
20
-2.5477905511811021
11
3.9781271653543304
21
-2.5441523622047244
0
LINE
8
BLACK
6
CONTINUOUS
10
3.9781271653543304
20
-2.5441523622047244
11
3.9721611417322835
21
-2.539256181102362
0
LINE
8
BLACK
6
CONTINUOUS
10
3.9721611417322835
20
-2.539256181102362
11
3.9672649606299211
21
-2.5332901574803151
0
LINE
8
BLACK
6
CONTINUOUS
10
3.9672649606299211
20
-2.5332901574803151
11
3.9636267716535434
21
-2.5264835826771654
0
LINE
8
BLACK
6
CONTINUOUS
10
3.9636267716535434
20
-2.5264835826771654
11
3.9613864173228346
21
-2.5190980314960632
0
LINE
8
BLACK
6
CONTINUOUS
10
3.9613864173228346
20
-2.5190980314960632
11
3.9606299212598426
21
-2.5114173228346455
0
LINE
8
BLACK
6
CONTINUOUS
10
3.9606299212598426
20
-2.5114173228346455
11
3.9613864173228346
21
-2.5037366141732282
0
LINE
8
BLACK
6
CONTINUOUS
10
3.9613864173228346
20
-2.5037366141732282
11
3.9636267716535434
21
-2.4963510629921259
0
LINE
8
BLACK
6
CONTINUOUS
10
3.9636267716535434
20
-2.4963510629921259
11
3.9672649606299211
21
-2.4895444881889763
0
LINE
8
BLACK
6
CONTINUOUS
10
3.9672649606299211
20
-2.4895444881889763
11
3.9721611417322835
21
-2.483578464566929
0
LINE
8
BLACK
6
CONTINUOUS
10
3.9721611417322835
20
-2.483578464566929
11
3.9781271653543304
21
-2.478682283464567
0
LINE
8
BLACK
6
CONTINUOUS
10
3.9781271653543304
20
-2.478682283464567
11
3.98493374015748
21
-2.4750440944881889
0
LINE
8
BLACK
6
CONTINUOUS
10
3.98493374015748
20
-2.4750440944881889
11
3.9923192913385828
21
-2.4728037401574801
0
LINE
8
BLACK
6
CONTINUOUS
10
3.9923192913385828
20
-2.4728037401574801
11
4.
21
-2.4720472440944881
0
LINE
8
BLACK
6
CONTINUOUS
10
4.
20
-2.4720472440944881
11
4.0076807086614172
21
-2.4728037401574801
0
LINE
8
BLACK
6
CONTINUOUS
10
7.6022680314960631
20
-1.9864084251968503
11
7.6028107086614174
21
-1.9865947244094488
0
LINE
8
BLACK
6
CONTINUOUS
10
7.6028107086614174
20
-1.9865947244094488
11
7.6033826771653539
21
-1.9866421259842519
0
LINE
8
BLACK
6
CONTINUOUS
10
7.6033826771653539
20
-1.9866421259842519
11
7.6049448031496061
21
-1.9873273228346455
0
LINE
8
BLACK
6
CONTINUOUS
10
7.6049448031496061
20
-1.9873273228346455
11
7.6065583464566924
21
-1.9878812598425197
0
LINE
8
BLACK
6
CONTINUOUS
10
7.6065583464566924
20
-1.9878812598425197
11
7.6070112204724412
21
-1.9882337401574803
0
LINE
8
BLACK
6
CONTINUOUS
10
7.6070112204724412
20
-1.9882337401574803
11
7.6075366929133859
21
-1.9884642519685038
0
LINE
8
BLACK
6
CONTINUOUS
10
7.6075366929133859
20
-1.9884642519685038
11
7.6087915748031492
21
-1.9896194488188976
0
LINE
8
BLACK
6
CONTINUOUS
10
7.6087915748031492
20
-1.9896194488188976
11
7.6101379133858265
21
-1.9906673622047244
0
LINE
8
BLACK
6
CONTINUOUS
10
7.6101379133858265
20
-1.9906673622047244
11
7.6104518110236219
21
-1.9911477952755905
0
LINE
8
BLACK
6
CONTINUOUS
10
7.6104518110236219
20
-1.9911477952755905
11
7.6108739763779525
21
-1.9915364566929132
0
LINE
8
BLACK
6
CONTINUOUS
10
7.6108739763779525
20
-1.9915364566929132
11
7.6116858267716534
21
-1.9930366141732283
0
LINE
8
BLACK
6
CONTINUOUS
10
7.6116858267716534
20
-1.9930366141732283
11
7.6126189370078734
21
-1.9944648425196849
0
LINE
8
BLACK
6
CONTINUOUS
10
7.6126189370078734
20
-1.9944648425196849
11
7.612759803149606
21
-1.9950211417322834
0
LINE
8
BLACK
6
CONTINUOUS
10
7.612759803149606
20
-1.9950211417322834
11
7.613032913385827
21
-1.9955257874015748
0
LINE
8
BLACK
6
CONTINUOUS
10
7.613032913385827
20
-1.9955257874015748
11
7.6133136614173225
21
-1.9972082283464567
0
LINE
8
BLACK
6
CONTINUOUS
10
7.6133136614173225
20
-1.9972082283464567
11
7.6137324803149609
21
-1.9988620866141731
0
LINE
8
BLACK
6
CONTINUOUS
10
7.6137324803149609
20
-1.9988620866141731
11
7.6136850787401569
21
-1.9994340157480315
0
LINE
8
BLACK
6
CONTINUOUS
10
7.6136850787401569
20
-1.9994340157480315
11
7.6137795275590552
21
-2.
0
LINE
8
BLACK
6
CONTINUOUS
10
7.6137795275590552
20
-2.
11
7.6137795275590552
21
-4.2000000000000002
0
LINE
8
BLACK
6
CONTINUOUS
10
7.6137795275590552
20
-4.2000000000000002
11
7.6135915748031495
21
-4.2022680314960628
0
LINE
8
BLACK
6
CONTINUOUS
10
7.6135915748031495
20
-4.2022680314960628
11
7.6134052362204718
21
-4.202810708661417
0
LINE
8
BLACK
6
CONTINUOUS
10
7.6134052362204718
20
-4.202810708661417
11
7.6133578740157475
21
-4.2033826771653544
0
LINE
8
BLACK
6
CONTINUOUS
10
7.6133578740157475
20
-4.2033826771653544
11
7.6126726377952751
21
-4.2049448031496066
0
LINE
8
BLACK
6
CONTINUOUS
10
7.6126726377952751
20
-4.2049448031496066
11
7.6121187401574799
21
-4.2065583464566929
0
LINE
8
BLACK
6
CONTINUOUS
10
7.6121187401574799
20
-4.2065583464566929
11
7.6117662204724406
21
-4.2070112204724408
0
LINE
8
BLACK
6
CONTINUOUS
10
7.6117662204724406
20
-4.2070112204724408
11
7.6115357480314962
21
-4.2075366929133855
0
LINE
8
BLACK
6
CONTINUOUS
10
7.6115357480314962
20
-4.2075366929133855
11
7.610380511811023
21
-4.2087915748031497
0
LINE
8
BLACK
6
CONTINUOUS
10
7.610380511811023
20
-4.2087915748031497
11
7.6093326377952755
21
-4.210137913385827
0
LINE
8
BLACK
6
CONTINUOUS
10
7.6093326377952755
20
-4.210137913385827
11
7.6088521653543308
21
-4.2104518110236215
0
LINE
8
BLACK
6
CONTINUOUS
10
7.6088521653543308
20
-4.2104518110236215
11
7.6084635433070869
21
-4.210873976377953
0
LINE
8
BLACK
6
CONTINUOUS
10
7.6084635433070869
20
-4.210873976377953
11
7.606963346456693
21
-4.211685826771653
0
LINE
8
BLACK
6
CONTINUOUS
10
7.606963346456693
20
-4.211685826771653
11
7.6055351574803147
21
-4.2126189370078739
0
LINE
8
BLACK
6
CONTINUOUS
10
7.6055351574803147
20
-4.2126189370078739
11
7.6049788188976377
21
-4.2127598031496065
0
LINE
8
BLACK
6
CONTINUOUS
10
7.6049788188976377
20
-4.2127598031496065
11
7.6044742125984248
21
-4.2130329133858266
0
LINE
8
BLACK
6
CONTINUOUS
10
7.6044742125984248
20
-4.2130329133858266
11
7.6027917322834648
21
-4.213313661417323
0
LINE
8
BLACK
6
CONTINUOUS
10
7.6027917322834648
20
-4.213313661417323
11
7.601137913385827
21
-4.2137324803149605
0
LINE
8
BLACK
6
CONTINUOUS
10
7.601137913385827
20
-4.2137324803149605
11
7.6005659448818896
21
-4.2136850787401574
0
LINE
8
BLACK
6
CONTINUOUS
10
7.6005659448818896
20
-4.2136850787401574
11
7.5999999999999996
21
-4.2137795275590548
0
LINE
8
BLACK
6
CONTINUOUS
10
7.5999999999999996
20
-4.2137795275590548
11
2.3999999999999999
21
-4.2137795275590548
0
LINE
8
BLACK
6
CONTINUOUS
10
2.3999999999999999
20
-4.2137795275590548
11
2.3977319685039369
21
-4.2135915748031492
0
LINE
8
BLACK
6
CONTINUOUS
10
2.3977319685039369
20
-4.2135915748031492
11
2.3971892519685039
21
-4.2134052362204724
0
LINE
8
BLACK
6
CONTINUOUS
10
2.3971892519685039
20
-4.2134052362204724
11
2.3966173228346457
21
-4.213357874015748
0
LINE
8
BLACK
6
CONTINUOUS
10
2.3966173228346457
20
-4.213357874015748
11
2.3950551574803147
21
-4.2126726377952757
0
LINE
8
BLACK
6
CONTINUOUS
10
2.3950551574803147
20
-4.2126726377952757
11
2.3934416535433072
21
-4.2121187401574804
0
LINE
8
BLACK
6
CONTINUOUS
10
2.3934416535433072
20
-4.2121187401574804
11
2.3929887401574801
21
-4.2117662204724411
0
LINE
8
BLACK
6
CONTINUOUS
10
2.3929887401574801
20
-4.2117662204724411
11
2.3924633070866141
21
-4.2115357480314959
0
LINE
8
BLACK
6
CONTINUOUS
10
2.3924633070866141
20
-4.2115357480314959
11
2.3912083858267716
21
-4.2103805118110236
0
LINE
8
BLACK
6
CONTINUOUS
10
2.3912083858267716
20
-4.2103805118110236
11
2.3898620866141731
21
-4.2093326377952751
0
LINE
8
BLACK
6
CONTINUOUS
10
2.3898620866141731
20
-4.2093326377952751
11
2.3895481496062994
21
-4.2088521653543305
0
LINE
8
BLACK
6
CONTINUOUS
10
2.3895481496062994
20
-4.2088521653543305
11
2.3891260236220471
21
-4.2084635433070865
0
LINE
8
BLACK
6
CONTINUOUS
10
2.3891260236220471
20
-4.2084635433070865
11
2.3883141338582679
21
-4.2069633464566927
0
LINE
8
BLACK
6
CONTINUOUS
10
2.3883141338582679
20
-4.2069633464566927
11
2.3873810629921257
21
-4.2055351574803153
0
LINE
8
BLACK
6
CONTINUOUS
10
2.3873810629921257
20
-4.2055351574803153
11
2.3872401574803148
21
-4.2049788188976374
0
LINE
8
BLACK
6
CONTINUOUS
10
2.3872401574803148
20
-4.2049788188976374
11
2.386967086614173
21
-4.2044742125984254
0
LINE
8
BLACK
6
CONTINUOUS
10
2.386967086614173
20
-4.2044742125984254
11
2.3866862992125983
21
-4.2027917322834645
0
LINE
8
BLACK
6
CONTINUOUS
10
2.3866862992125983
20
-4.2027917322834645
11
2.3862675196850391
21
-4.2011379133858266
0
LINE
8
BLACK
6
CONTINUOUS
10
2.3862675196850391
20
-4.2011379133858266
11
2.3863148818897639
21
-4.2005659448818893
0
LINE
8
BLACK
6
CONTINUOUS
10
2.3863148818897639
20
-4.2005659448818893
11
2.3862204724409448
21
-4.2000000000000002
0
LINE
8
BLACK
6
CONTINUOUS
10
2.3862204724409448
20
-4.2000000000000002
11
2.3862204724409448
21
-2.
0
LINE
8
BLACK
6
CONTINUOUS
10
2.3862204724409448
20
-2.
11
2.3864084251968505
21
-1.997731968503937
0
LINE
8
BLACK
6
CONTINUOUS
10
2.3864084251968505
20
-1.997731968503937
11
2.386594724409449
21
-1.9971892519685039
0
LINE
8
BLACK
6
CONTINUOUS
10
2.386594724409449
20
-1.9971892519685039
11
2.3866421259842521
21
-1.9966173228346455
0
LINE
8
BLACK
6
CONTINUOUS
10
2.3866421259842521
20
-1.9966173228346455
11
2.3873273228346457
21
-1.9950551574803148
0
LINE
8
BLACK
6
CONTINUOUS
10
2.3873273228346457
20
-1.9950551574803148
11
2.3878812598425196
21
-1.993441653543307
0
LINE
8
BLACK
6
CONTINUOUS
10
2.3878812598425196
20
-1.993441653543307
11
2.3882337401574802
21
-1.9929887401574802
0
LINE
8
BLACK
6
CONTINUOUS
10
2.3882337401574802
20
-1.9929887401574802
11
2.3884642519685038
21
-1.9924633070866142
0
LINE
8
BLACK
6
CONTINUOUS
10
2.3884642519685038
20
-1.9924633070866142
11
2.3896194488188978
21
-1.9912083858267715
0
LINE
8
BLACK
6
CONTINUOUS
10
2.3896194488188978
20
-1.9912083858267715
11
2.3906673622047245
21
-1.9898620866141732
0
LINE
8
BLACK
6
CONTINUOUS
10
2.3906673622047245
20
-1.9898620866141732
11
2.3911477952755904
21
-1.9895481496062992
0
LINE
8
BLACK
6
CONTINUOUS
10
2.3911477952755904
20
-1.9895481496062992
11
2.3915364566929131
21
-1.9891260236220472
0
LINE
8
BLACK
6
CONTINUOUS
10
2.3915364566929131
20
-1.9891260236220472
11
2.3930366141732282
21
-1.9883141338582677
0
LINE
8
BLACK
6
CONTINUOUS
10
2.3930366141732282
20
-1.9883141338582677
11
2.3944648425196848
21
-1.987381062992126
0
LINE
8
BLACK
6
CONTINUOUS
10
2.3944648425196848
20
-1.987381062992126
11
2.3950211417322835
21
-1.9872401574803149
0
LINE
8
BLACK
6
CONTINUOUS
10
2.3950211417322835
20
-1.9872401574803149
11
2.3955257874015747
21
-1.9869670866141731
0
LINE
8
BLACK
6
CONTINUOUS
10
2.3955257874015747
20
-1.9869670866141731
11
2.3972082283464569
21
-1.9866862992125984
0
LINE
8
BLACK
6
CONTINUOUS
10
2.3972082283464569
20
-1.9866862992125984
11
2.398862086614173
21
-1.9862675196850392
0
LINE
8
BLACK
6
CONTINUOUS
10
2.398862086614173
20
-1.9862675196850392
11
2.3994340157480316
21
-1.9863148818897638
0
LINE
8
BLACK
6
CONTINUOUS
10
2.3994340157480316
20
-1.9863148818897638
11
2.3999999999999999
21
-1.9862204724409449
0
LINE
8
BLACK
6
CONTINUOUS
10
2.3999999999999999
20
-1.9862204724409449
11
7.5999999999999996
21
-1.9862204724409449
0
LINE
8
BLACK
6
CONTINUOUS
10
7.5999999999999996
20
-1.9862204724409449
11
7.6022680314960631
21
-1.9864084251968503
0
LINE
8
BLACK
6
CONTINUOUS
10
2.413779527559055
20
-2.0137795275590551
11
2.413779527559055
21
-4.1862204724409446
0
LINE
8
BLACK
6
CONTINUOUS
10
2.413779527559055
20
-4.1862204724409446
11
7.586220472440945
21
-4.1862204724409446
0
LINE
8
BLACK
6
CONTINUOUS
10
7.586220472440945
20
-4.1862204724409446
11
7.586220472440945
21
-2.0137795275590551
0
LINE
8
BLACK
6
CONTINUOUS
10
7.586220472440945
20
-2.0137795275590551
11
2.413779527559055
21
-2.0137795275590551
  0
ENDSEC
  0
EOF
